M48
METRIC,LZ,000.000
;FILE_FORMAT=3:3
;TYPE=PLATED
;Layer: Drill PTH
;EasyEDA v6.4.19.5, 2021-06-18T19:10:14+05:00
;1d45b033f9cb4702a4eeca8037af4c70,30c14f198de7496ba1d595c7c1278fea,10
;Gerber Generator version 0.2
;Holesize 1 = 0.305 mm
T01C0.305
;Holesize 2 = 0.306 mm
T02C0.306
;Holesize 3 = 0.501 mm
T03C0.501
;Holesize 4 = 0.701 mm
T04C0.701
;Holesize 5 = 0.712 mm
T05C0.712
;Holesize 6 = 0.800 mm
T06C0.800
;Holesize 7 = 0.900 mm
T07C0.900
;Holesize 8 = 0.901 mm
T08C0.901
;Holesize 9 = 1.000 mm
T09C1.000
;Holesize 10 = 1.101 mm
T10C1.101
;Holesize 11 = 1.200 mm
T11C1.200
;Holesize 12 = 1.400 mm
T12C1.400
;Holesize 13 = 1.800 mm
T13C1.800
%
G05
G90
T01
X006900Y-025200
T02
X018600Y-038400
X020400Y-033000
X021600Y-035400
X021600Y-038100
X025800Y-054300
X073500Y-067800
X048000Y-014100
X049200Y-054300
X051600Y-059400
X061200Y-065100
X048300Y-057600
X051300Y-060600
X052800Y-058500
X032100Y-065400
X032100Y-065400
X069900Y-005700
X034800Y-006300
X065700Y-010200
X071400Y-016500
T03
X078900Y-034800
X080700Y-032700
T04
X026842Y-057246
X014650Y-057246
X026842Y-061246
X014650Y-061246
T05
X022460Y-015500
X027540Y-015500
X022960Y-028500
X028040Y-028500
X022960Y-040000
X028040Y-040000
X022960Y-051500
X028040Y-051500
T06
X010690Y-005690
X010690Y-008230
X010690Y-010770
X010690Y-013310
X018310Y-005690
X018310Y-008230
X018310Y-010770
X018310Y-013310
X010690Y-017690
X010690Y-020230
X010690Y-022770
X010690Y-025310
X018310Y-017690
X018310Y-020230
X018310Y-022770
X018310Y-025310
X010690Y-029190
X010690Y-031730
X010690Y-034270
X010690Y-036810
X018310Y-029190
X018310Y-031730
X018310Y-034270
X018310Y-036810
X010690Y-041190
X010690Y-043730
X010690Y-046270
X010690Y-048810
X018310Y-041190
X018310Y-043730
X018310Y-046270
X018310Y-048810
X043000Y-008251
X043000Y-006749
X044251Y-027000
X042749Y-027000
X043751Y-039000
X042249Y-039000
X043251Y-057000
X041749Y-057000
X023000Y-022500
X025000Y-022500
X023000Y-034500
X025000Y-034500
X023000Y-046000
X025000Y-046000
X023000Y-008000
X025000Y-008000
T07
X007000Y-005750
X007000Y-016250
X003000Y-020750
X003000Y-031250
X007000Y-020750
X007000Y-031250
X007000Y-034750
X007000Y-045250
X042500Y-012250
X042500Y-022750
X046000Y-012250
X046000Y-022750
X064000Y-007750
X064000Y-018250
X051750Y-022000
X062250Y-022000
X043250Y-035500
X053750Y-035500
X077750Y-022000
X067250Y-022000
X069750Y-032500
X059250Y-032500
X043250Y-032500
X053750Y-032500
X049250Y-049500
X059750Y-049500
X075750Y-049500
X065250Y-049500
X059750Y-046000
X049250Y-046000
X042500Y-052750
X042500Y-042250
X041250Y-063000
X051750Y-063000
X054250Y-063000
X064750Y-063000
X071000Y-053750
X071000Y-064250
X048250Y-060000
X058750Y-060000
T08
X031190Y-010190
X031190Y-012730
X031190Y-015270
X031190Y-017810
X038810Y-010190
X038810Y-012730
X038810Y-015270
X038810Y-017810
X031190Y-026190
X031190Y-028730
X031190Y-031270
X031190Y-033810
X038810Y-026190
X038810Y-028730
X038810Y-031270
X038810Y-033810
X031190Y-040190
X031190Y-042730
X031190Y-045270
X031190Y-047810
X038810Y-040190
X038810Y-042730
X038810Y-045270
X038810Y-047810
X031190Y-056190
X031190Y-058730
X031190Y-061270
X031190Y-063810
X038810Y-056190
X038810Y-058730
X038810Y-061270
X038810Y-063810
T09
X030650Y-006000
X039350Y-006000
X030650Y-022000
X039350Y-022000
X030650Y-037000
X039350Y-037000
X030650Y-052000
X039350Y-052000
X025000Y-066500
X017000Y-066500
X067500Y-056000
X067500Y-064000
T10
X075500Y-055690
X075500Y-058230
X075500Y-060770
X075500Y-063310
X003000Y-006920
X003000Y-009460
X003000Y-012000
X003000Y-014540
X003000Y-017080
T11
X047610Y-005000
X050150Y-005000
X052690Y-005000
X055230Y-005000
X057770Y-005000
X060310Y-005000
X062850Y-005000
X065390Y-005000
X055390Y-067500
X052850Y-067500
X050310Y-067500
X047770Y-067500
X045230Y-067500
X042690Y-067500
X040150Y-067500
X037610Y-067500
T12
X052000Y-013000
X052000Y-010460
X052000Y-015540
X059500Y-013000
X059500Y-010460
X059500Y-015540
X056500Y-027500
X059040Y-027500
X053960Y-027500
X073000Y-027500
X075540Y-027500
X070460Y-027500
X075000Y-041000
X075000Y-043540
X075000Y-038460
X056500Y-055500
X059040Y-055500
X053960Y-055500
X068000Y-041000
X068000Y-038460
X068000Y-043540
X055500Y-041000
X058040Y-041000
X052960Y-041000
T13
X004000Y-049500
X004000Y-054500
X004000Y-062000
X004000Y-067000
X074000Y-016000
X074000Y-011000
X074000Y-006000
M30
