G04 Layer: TopSilkLayer*
G04 EasyEDA v6.4.19.5, 2021-06-18T19:10:14+05:00*
G04 1d45b033f9cb4702a4eeca8037af4c70,30c14f198de7496ba1d595c7c1278fea,10*
G04 Gerber Generator version 0.2*
G04 Scale: 100 percent, Rotated: No, Reflected: No *
G04 Dimensions in millimeters *
G04 leading zeros omitted , absolute positions ,4 integer and 5 decimal *
%FSLAX45Y45*%
%MOMM*%

%ADD10C,0.2540*%
%ADD31C,0.1524*%
%ADD32C,0.2000*%
%ADD33C,0.1778*%
%ADD34C,0.3000*%
%ADD35C,0.2500*%
%ADD36C,0.6000*%
%ADD37C,0.4000*%

%LPD*%
D32*
X-239951Y-639196D02*
G01*
X-239951Y-734446D01*
X-239951Y-639196D02*
G01*
X-199057Y-639196D01*
X-185341Y-643514D01*
X-181023Y-648086D01*
X-176451Y-657230D01*
X-176451Y-670946D01*
X-181023Y-680090D01*
X-185341Y-684662D01*
X-199057Y-688980D01*
X-239951Y-688980D01*
X-146479Y-639196D02*
G01*
X-123619Y-734446D01*
X-101013Y-639196D02*
G01*
X-123619Y-734446D01*
X-101013Y-639196D02*
G01*
X-78153Y-734446D01*
X-55547Y-639196D02*
G01*
X-78153Y-734446D01*
X-25575Y-639196D02*
G01*
X-25575Y-734446D01*
X-25575Y-639196D02*
G01*
X11000Y-734446D01*
X47322Y-639196D02*
G01*
X11000Y-734446D01*
X47322Y-639196D02*
G01*
X47322Y-734446D01*
X77294Y-657230D02*
G01*
X86438Y-652658D01*
X99900Y-639196D01*
X99900Y-734446D01*
X-239897Y-898972D02*
G01*
X-239897Y-994476D01*
X-239897Y-898972D02*
G01*
X-199003Y-898972D01*
X-185541Y-903544D01*
X-180969Y-908116D01*
X-176397Y-917260D01*
X-176397Y-930976D01*
X-180969Y-940120D01*
X-185541Y-944438D01*
X-199003Y-949010D01*
X-239897Y-949010D01*
X-146425Y-898972D02*
G01*
X-123565Y-994476D01*
X-100959Y-898972D02*
G01*
X-123565Y-994476D01*
X-100959Y-898972D02*
G01*
X-78099Y-994476D01*
X-55493Y-898972D02*
G01*
X-78099Y-994476D01*
X-25521Y-898972D02*
G01*
X-25521Y-994476D01*
X-25521Y-898972D02*
G01*
X10800Y-994476D01*
X47376Y-898972D02*
G01*
X10800Y-994476D01*
X47376Y-898972D02*
G01*
X47376Y-994476D01*
X81920Y-921832D02*
G01*
X81920Y-917260D01*
X86238Y-908116D01*
X90810Y-903544D01*
X99954Y-898972D01*
X118242Y-898972D01*
X127386Y-903544D01*
X131704Y-908116D01*
X136276Y-917260D01*
X136276Y-926404D01*
X131704Y-935548D01*
X122814Y-949010D01*
X77348Y-994476D01*
X140848Y-994476D01*
X-240029Y-1159002D02*
G01*
X-240029Y-1254505D01*
X-240029Y-1159002D02*
G01*
X-199136Y-1159002D01*
X-185420Y-1163573D01*
X-180847Y-1168145D01*
X-176276Y-1177289D01*
X-176276Y-1191005D01*
X-180847Y-1199895D01*
X-185420Y-1204468D01*
X-199136Y-1209039D01*
X-240029Y-1209039D01*
X-146304Y-1159002D02*
G01*
X-123697Y-1254505D01*
X-100837Y-1159002D02*
G01*
X-123697Y-1254505D01*
X-100837Y-1159002D02*
G01*
X-78231Y-1254505D01*
X-55371Y-1159002D02*
G01*
X-78231Y-1254505D01*
X-25400Y-1159002D02*
G01*
X-25400Y-1254505D01*
X-25400Y-1159002D02*
G01*
X10921Y-1254505D01*
X47244Y-1159002D02*
G01*
X10921Y-1254505D01*
X47244Y-1159002D02*
G01*
X47244Y-1254505D01*
X86360Y-1159002D02*
G01*
X136397Y-1159002D01*
X108965Y-1195578D01*
X122681Y-1195578D01*
X131826Y-1199895D01*
X136397Y-1204468D01*
X140970Y-1218184D01*
X140970Y-1227328D01*
X136397Y-1240789D01*
X127254Y-1249934D01*
X113537Y-1254505D01*
X100076Y-1254505D01*
X86360Y-1249934D01*
X81787Y-1245362D01*
X77215Y-1236471D01*
X-240029Y-1419097D02*
G01*
X-240029Y-1514602D01*
X-240029Y-1419097D02*
G01*
X-199136Y-1419097D01*
X-185420Y-1423670D01*
X-180847Y-1428242D01*
X-176276Y-1437386D01*
X-176276Y-1450847D01*
X-180847Y-1459992D01*
X-185420Y-1464563D01*
X-199136Y-1469136D01*
X-240029Y-1469136D01*
X-146304Y-1419097D02*
G01*
X-123697Y-1514602D01*
X-100837Y-1419097D02*
G01*
X-123697Y-1514602D01*
X-100837Y-1419097D02*
G01*
X-78231Y-1514602D01*
X-55371Y-1419097D02*
G01*
X-78231Y-1514602D01*
X-25400Y-1419097D02*
G01*
X-25400Y-1514602D01*
X-25400Y-1419097D02*
G01*
X10921Y-1514602D01*
X47244Y-1419097D02*
G01*
X10921Y-1514602D01*
X47244Y-1419097D02*
G01*
X47244Y-1514602D01*
X122681Y-1419097D02*
G01*
X77215Y-1482852D01*
X145542Y-1482852D01*
X122681Y-1419097D02*
G01*
X122681Y-1514602D01*
X-240029Y-1659128D02*
G01*
X-240029Y-1754631D01*
X-240029Y-1659128D02*
G01*
X-208279Y-1659128D01*
X-194563Y-1663700D01*
X-185420Y-1672844D01*
X-180847Y-1681734D01*
X-176276Y-1695450D01*
X-176276Y-1718310D01*
X-180847Y-1731771D01*
X-185420Y-1740915D01*
X-194563Y-1750060D01*
X-208279Y-1754631D01*
X-240029Y-1754631D01*
X-78231Y-1681734D02*
G01*
X-82804Y-1672844D01*
X-91694Y-1663700D01*
X-100837Y-1659128D01*
X-119126Y-1659128D01*
X-128270Y-1663700D01*
X-137160Y-1672844D01*
X-141731Y-1681734D01*
X-146304Y-1695450D01*
X-146304Y-1718310D01*
X-141731Y-1731771D01*
X-137160Y-1740915D01*
X-128270Y-1750060D01*
X-119126Y-1754631D01*
X-100837Y-1754631D01*
X-91694Y-1750060D01*
X-82804Y-1740915D01*
X-78231Y-1731771D01*
X-78231Y-1718310D01*
X-100837Y-1718310D02*
G01*
X-78231Y-1718310D01*
X-48260Y-1659128D02*
G01*
X-48260Y-1754631D01*
X-48260Y-1659128D02*
G01*
X15494Y-1754631D01*
X15494Y-1659128D02*
G01*
X15494Y-1754631D01*
X45465Y-1659128D02*
G01*
X45465Y-1754631D01*
X45465Y-1659128D02*
G01*
X77215Y-1659128D01*
X90931Y-1663700D01*
X100076Y-1672844D01*
X104647Y-1681734D01*
X108965Y-1695450D01*
X108965Y-1718310D01*
X104647Y-1731771D01*
X100076Y-1740915D01*
X90931Y-1750060D01*
X77215Y-1754631D01*
X45465Y-1754631D01*
X1021842Y-5365363D02*
G01*
X1021842Y-5529193D01*
X940054Y-5447151D02*
G01*
X1103629Y-5447151D01*
X1021842Y-6645363D02*
G01*
X1021842Y-6809193D01*
X940054Y-6727151D02*
G01*
X1103629Y-6727151D01*
X7919951Y-498165D02*
G01*
X7919951Y-689173D01*
X7919951Y-689173D02*
G01*
X8029171Y-689173D01*
X8170903Y-525343D02*
G01*
X8170903Y-689173D01*
X8089115Y-607385D02*
G01*
X8252691Y-607385D01*
X7919974Y-1538223D02*
G01*
X7919974Y-1728978D01*
X7919974Y-1728978D02*
G01*
X8029193Y-1728978D01*
X8089138Y-1647189D02*
G01*
X8252713Y-1647189D01*
X8056372Y-1043686D02*
G01*
X8047227Y-1025397D01*
X8029193Y-1007363D01*
X8010906Y-998220D01*
X7974584Y-998220D01*
X7956295Y-1007363D01*
X7938261Y-1025397D01*
X7929118Y-1043686D01*
X7919974Y-1070863D01*
X7919974Y-1116329D01*
X7929118Y-1143762D01*
X7938261Y-1161795D01*
X7956295Y-1180084D01*
X7974584Y-1188973D01*
X8010906Y-1188973D01*
X8029193Y-1180084D01*
X8047227Y-1161795D01*
X8056372Y-1143762D01*
D31*
X4710696Y-281998D02*
G01*
X4700282Y-287332D01*
X4689868Y-297746D01*
X4684788Y-308160D01*
X4684788Y-328734D01*
X4689868Y-339148D01*
X4700282Y-349562D01*
X4710696Y-354896D01*
X4726190Y-359976D01*
X4752098Y-359976D01*
X4767846Y-354896D01*
X4778260Y-349562D01*
X4788674Y-339148D01*
X4793754Y-328734D01*
X4793754Y-308160D01*
X4788674Y-297746D01*
X4778260Y-287332D01*
X4767846Y-281998D01*
X4752098Y-281998D01*
X4752098Y-308160D02*
G01*
X4752098Y-281998D01*
X4721110Y-247708D02*
G01*
X4830076Y-247708D01*
X4736604Y-247708D02*
G01*
X4726190Y-237294D01*
X4721110Y-226880D01*
X4721110Y-211386D01*
X4726190Y-200972D01*
X4736604Y-190558D01*
X4752098Y-185478D01*
X4762512Y-185478D01*
X4778260Y-190558D01*
X4788674Y-200972D01*
X4793754Y-211386D01*
X4793754Y-226880D01*
X4788674Y-237294D01*
X4778260Y-247708D01*
X4705362Y-151188D02*
G01*
X4700282Y-140774D01*
X4684788Y-125280D01*
X4793754Y-125280D01*
X5230766Y-281993D02*
G01*
X5220352Y-287327D01*
X5209938Y-297741D01*
X5204604Y-308155D01*
X5204604Y-328729D01*
X5209938Y-339143D01*
X5220352Y-349557D01*
X5230766Y-354891D01*
X5246260Y-359971D01*
X5272168Y-359971D01*
X5287916Y-354891D01*
X5298076Y-349557D01*
X5308490Y-339143D01*
X5313824Y-328729D01*
X5313824Y-308155D01*
X5308490Y-297741D01*
X5298076Y-287327D01*
X5287916Y-281993D01*
X5272168Y-281993D01*
X5272168Y-308155D02*
G01*
X5272168Y-281993D01*
X5240926Y-247703D02*
G01*
X5350146Y-247703D01*
X5256674Y-247703D02*
G01*
X5246260Y-237289D01*
X5240926Y-226875D01*
X5240926Y-211381D01*
X5246260Y-200967D01*
X5256674Y-190553D01*
X5272168Y-185473D01*
X5282582Y-185473D01*
X5298076Y-190553D01*
X5308490Y-200967D01*
X5313824Y-211381D01*
X5313824Y-226875D01*
X5308490Y-237289D01*
X5298076Y-247703D01*
X5230766Y-145849D02*
G01*
X5225432Y-145849D01*
X5215018Y-140769D01*
X5209938Y-135435D01*
X5204604Y-125275D01*
X5204604Y-104447D01*
X5209938Y-94033D01*
X5215018Y-88699D01*
X5225432Y-83619D01*
X5235846Y-83619D01*
X5246260Y-88699D01*
X5261754Y-99113D01*
X5313824Y-151183D01*
X5313824Y-78285D01*
X5730768Y-282122D02*
G01*
X5720354Y-287202D01*
X5709940Y-297616D01*
X5704606Y-308030D01*
X5704606Y-328858D01*
X5709940Y-339272D01*
X5720354Y-349686D01*
X5730768Y-354766D01*
X5746262Y-360100D01*
X5772170Y-360100D01*
X5787918Y-354766D01*
X5798078Y-349686D01*
X5808492Y-339272D01*
X5813826Y-328858D01*
X5813826Y-308030D01*
X5808492Y-297616D01*
X5798078Y-287202D01*
X5787918Y-282122D01*
X5772170Y-282122D01*
X5772170Y-308030D02*
G01*
X5772170Y-282122D01*
X5740928Y-247832D02*
G01*
X5850148Y-247832D01*
X5756676Y-247832D02*
G01*
X5746262Y-237418D01*
X5740928Y-227004D01*
X5740928Y-211510D01*
X5746262Y-201096D01*
X5756676Y-190682D01*
X5772170Y-185348D01*
X5782584Y-185348D01*
X5798078Y-190682D01*
X5808492Y-201096D01*
X5813826Y-211510D01*
X5813826Y-227004D01*
X5808492Y-237418D01*
X5798078Y-247832D01*
X5704606Y-140644D02*
G01*
X5704606Y-83494D01*
X5746262Y-114736D01*
X5746262Y-99242D01*
X5751342Y-88828D01*
X5756676Y-83494D01*
X5772170Y-78414D01*
X5782584Y-78414D01*
X5798078Y-83494D01*
X5808492Y-93908D01*
X5813826Y-109656D01*
X5813826Y-125150D01*
X5808492Y-140644D01*
X5803412Y-145978D01*
X5792998Y-151058D01*
X6250767Y-282183D02*
G01*
X6240353Y-287263D01*
X6229939Y-297677D01*
X6224605Y-308091D01*
X6224605Y-328919D01*
X6229939Y-339333D01*
X6240353Y-349493D01*
X6250767Y-354827D01*
X6266261Y-359907D01*
X6292169Y-359907D01*
X6307917Y-354827D01*
X6318077Y-349493D01*
X6328491Y-339333D01*
X6333825Y-328919D01*
X6333825Y-308091D01*
X6328491Y-297677D01*
X6318077Y-287263D01*
X6307917Y-282183D01*
X6292169Y-282183D01*
X6292169Y-308091D02*
G01*
X6292169Y-282183D01*
X6260927Y-247893D02*
G01*
X6370147Y-247893D01*
X6276675Y-247893D02*
G01*
X6266261Y-237479D01*
X6260927Y-227065D01*
X6260927Y-211317D01*
X6266261Y-200903D01*
X6276675Y-190743D01*
X6292169Y-185409D01*
X6302583Y-185409D01*
X6318077Y-190743D01*
X6328491Y-200903D01*
X6333825Y-211317D01*
X6333825Y-227065D01*
X6328491Y-237479D01*
X6318077Y-247893D01*
X6224605Y-99303D02*
G01*
X6297503Y-151119D01*
X6297503Y-73141D01*
X6224605Y-99303D02*
G01*
X6333825Y-99303D01*
X4964605Y-320001D02*
G01*
X5073825Y-320001D01*
X5073825Y-320001D02*
G01*
X5073825Y-257771D01*
X4980353Y-176491D02*
G01*
X5073825Y-176491D01*
X5027089Y-223481D02*
G01*
X5027089Y-129755D01*
X5490768Y-282153D02*
G01*
X5480354Y-287233D01*
X5469940Y-297647D01*
X5464606Y-308061D01*
X5464606Y-328889D01*
X5469940Y-339303D01*
X5480354Y-349717D01*
X5490768Y-354797D01*
X5506262Y-359877D01*
X5532170Y-359877D01*
X5547918Y-354797D01*
X5558078Y-349717D01*
X5568492Y-339303D01*
X5573826Y-328889D01*
X5573826Y-308061D01*
X5568492Y-297647D01*
X5558078Y-287233D01*
X5547918Y-282153D01*
X5532170Y-282153D01*
X5532170Y-308061D02*
G01*
X5532170Y-282153D01*
X5480354Y-174965D02*
G01*
X5469940Y-185379D01*
X5464606Y-201127D01*
X5464606Y-221701D01*
X5469940Y-237449D01*
X5480354Y-247863D01*
X5490768Y-247863D01*
X5500928Y-242529D01*
X5506262Y-237449D01*
X5511342Y-227035D01*
X5521756Y-195793D01*
X5527090Y-185379D01*
X5532170Y-180299D01*
X5542584Y-174965D01*
X5558078Y-174965D01*
X5568492Y-185379D01*
X5573826Y-201127D01*
X5573826Y-221701D01*
X5568492Y-237449D01*
X5558078Y-247863D01*
X5485434Y-140675D02*
G01*
X5480354Y-130261D01*
X5464606Y-114767D01*
X5573826Y-114767D01*
X5990701Y-262026D02*
G01*
X5980287Y-267360D01*
X5969873Y-277774D01*
X5964539Y-287934D01*
X5964539Y-308762D01*
X5969873Y-319176D01*
X5980287Y-329590D01*
X5990701Y-334924D01*
X6006195Y-340004D01*
X6032103Y-340004D01*
X6047851Y-334924D01*
X6058265Y-329590D01*
X6068679Y-319176D01*
X6073759Y-308762D01*
X6073759Y-287934D01*
X6068679Y-277774D01*
X6058265Y-267360D01*
X6047851Y-262026D01*
X6001115Y-165506D02*
G01*
X6073759Y-165506D01*
X6016609Y-165506D02*
G01*
X6006195Y-175920D01*
X6001115Y-186334D01*
X6001115Y-201828D01*
X6006195Y-212242D01*
X6016609Y-222656D01*
X6032103Y-227736D01*
X6042517Y-227736D01*
X6058265Y-222656D01*
X6068679Y-212242D01*
X6073759Y-201828D01*
X6073759Y-186334D01*
X6068679Y-175920D01*
X6058265Y-165506D01*
X6490769Y-282153D02*
G01*
X6480355Y-287233D01*
X6469941Y-297647D01*
X6464607Y-308061D01*
X6464607Y-328889D01*
X6469941Y-339303D01*
X6480355Y-349717D01*
X6490769Y-354797D01*
X6506263Y-359877D01*
X6532171Y-359877D01*
X6547919Y-354797D01*
X6558079Y-349717D01*
X6568493Y-339303D01*
X6573827Y-328889D01*
X6573827Y-308061D01*
X6568493Y-297647D01*
X6558079Y-287233D01*
X6547919Y-282153D01*
X6532171Y-282153D01*
X6532171Y-308061D02*
G01*
X6532171Y-282153D01*
X6480355Y-174965D02*
G01*
X6469941Y-185379D01*
X6464607Y-201127D01*
X6464607Y-221701D01*
X6469941Y-237449D01*
X6480355Y-247863D01*
X6490769Y-247863D01*
X6500929Y-242529D01*
X6506263Y-237449D01*
X6511343Y-227035D01*
X6521757Y-195793D01*
X6527091Y-185379D01*
X6532171Y-180299D01*
X6542585Y-174965D01*
X6558079Y-174965D01*
X6568493Y-185379D01*
X6573827Y-201127D01*
X6573827Y-221701D01*
X6568493Y-237449D01*
X6558079Y-247863D01*
X6485435Y-140675D02*
G01*
X6480355Y-130261D01*
X6464607Y-114767D01*
X6573827Y-114767D01*
X5510664Y-7102091D02*
G01*
X5500250Y-7107171D01*
X5489836Y-7117585D01*
X5484756Y-7127999D01*
X5484756Y-7148827D01*
X5489836Y-7159241D01*
X5500250Y-7169655D01*
X5510664Y-7174735D01*
X5526158Y-7180069D01*
X5552320Y-7180069D01*
X5567814Y-7174735D01*
X5578228Y-7169655D01*
X5588642Y-7159241D01*
X5593722Y-7148827D01*
X5593722Y-7127999D01*
X5588642Y-7117585D01*
X5578228Y-7107171D01*
X5567814Y-7102091D01*
X5552320Y-7102091D01*
X5552320Y-7127999D02*
G01*
X5552320Y-7102091D01*
X5521078Y-7067801D02*
G01*
X5630044Y-7067801D01*
X5536572Y-7067801D02*
G01*
X5526158Y-7057387D01*
X5521078Y-7046973D01*
X5521078Y-7031479D01*
X5526158Y-7021065D01*
X5536572Y-7010651D01*
X5552320Y-7005317D01*
X5562480Y-7005317D01*
X5578228Y-7010651D01*
X5588642Y-7021065D01*
X5593722Y-7031479D01*
X5593722Y-7046973D01*
X5588642Y-7057387D01*
X5578228Y-7067801D01*
X5484756Y-6945119D02*
G01*
X5489836Y-6960867D01*
X5500250Y-6965947D01*
X5510664Y-6965947D01*
X5521078Y-6960867D01*
X5526158Y-6950453D01*
X5531492Y-6929625D01*
X5536572Y-6913877D01*
X5546986Y-6903717D01*
X5557400Y-6898383D01*
X5572894Y-6898383D01*
X5583308Y-6903717D01*
X5588642Y-6908797D01*
X5593722Y-6924291D01*
X5593722Y-6945119D01*
X5588642Y-6960867D01*
X5583308Y-6965947D01*
X5572894Y-6971027D01*
X5557400Y-6971027D01*
X5546986Y-6965947D01*
X5536572Y-6955533D01*
X5531492Y-6940039D01*
X5526158Y-6919211D01*
X5521078Y-6908797D01*
X5510664Y-6903717D01*
X5500250Y-6903717D01*
X5489836Y-6908797D01*
X5484756Y-6924291D01*
X5484756Y-6945119D01*
X4990663Y-7102027D02*
G01*
X4980249Y-7107361D01*
X4969835Y-7117775D01*
X4964755Y-7127935D01*
X4964755Y-7148763D01*
X4969835Y-7159177D01*
X4980249Y-7169591D01*
X4990663Y-7174925D01*
X5006157Y-7180005D01*
X5032319Y-7180005D01*
X5047813Y-7174925D01*
X5058227Y-7169591D01*
X5068641Y-7159177D01*
X5073721Y-7148763D01*
X5073721Y-7127935D01*
X5068641Y-7117775D01*
X5058227Y-7107361D01*
X5047813Y-7102027D01*
X5032319Y-7102027D01*
X5032319Y-7127935D02*
G01*
X5032319Y-7102027D01*
X5001077Y-7067737D02*
G01*
X5110043Y-7067737D01*
X5016571Y-7067737D02*
G01*
X5006157Y-7057323D01*
X5001077Y-7046909D01*
X5001077Y-7031415D01*
X5006157Y-7021001D01*
X5016571Y-7010587D01*
X5032319Y-7005507D01*
X5042479Y-7005507D01*
X5058227Y-7010587D01*
X5068641Y-7021001D01*
X5073721Y-7031415D01*
X5073721Y-7046909D01*
X5068641Y-7057323D01*
X5058227Y-7067737D01*
X4964755Y-6898319D02*
G01*
X5073721Y-6950389D01*
X4964755Y-6971217D02*
G01*
X4964755Y-6898319D01*
X4490664Y-7102154D02*
G01*
X4480250Y-7107234D01*
X4469836Y-7117648D01*
X4464756Y-7128062D01*
X4464756Y-7148890D01*
X4469836Y-7159304D01*
X4480250Y-7169718D01*
X4490664Y-7174798D01*
X4506158Y-7179878D01*
X4532320Y-7179878D01*
X4547814Y-7174798D01*
X4558228Y-7169718D01*
X4568642Y-7159304D01*
X4573722Y-7148890D01*
X4573722Y-7128062D01*
X4568642Y-7117648D01*
X4558228Y-7107234D01*
X4547814Y-7102154D01*
X4532320Y-7102154D01*
X4532320Y-7128062D02*
G01*
X4532320Y-7102154D01*
X4501078Y-7067864D02*
G01*
X4610044Y-7067864D01*
X4516572Y-7067864D02*
G01*
X4506158Y-7057450D01*
X4501078Y-7047036D01*
X4501078Y-7031288D01*
X4506158Y-7021128D01*
X4516572Y-7010714D01*
X4532320Y-7005380D01*
X4542480Y-7005380D01*
X4558228Y-7010714D01*
X4568642Y-7021128D01*
X4573722Y-7031288D01*
X4573722Y-7047036D01*
X4568642Y-7057450D01*
X4558228Y-7067864D01*
X4480250Y-6908860D02*
G01*
X4469836Y-6913940D01*
X4464756Y-6929688D01*
X4464756Y-6939848D01*
X4469836Y-6955596D01*
X4485330Y-6966010D01*
X4511492Y-6971090D01*
X4537400Y-6971090D01*
X4558228Y-6966010D01*
X4568642Y-6955596D01*
X4573722Y-6939848D01*
X4573722Y-6934768D01*
X4568642Y-6919274D01*
X4558228Y-6908860D01*
X4542480Y-6903526D01*
X4537400Y-6903526D01*
X4521906Y-6908860D01*
X4511492Y-6919274D01*
X4506158Y-6934768D01*
X4506158Y-6939848D01*
X4511492Y-6955596D01*
X4521906Y-6966010D01*
X4537400Y-6971090D01*
X3970662Y-7102091D02*
G01*
X3960248Y-7107171D01*
X3949834Y-7117585D01*
X3944754Y-7127999D01*
X3944754Y-7148827D01*
X3949834Y-7159241D01*
X3960248Y-7169655D01*
X3970662Y-7174735D01*
X3986156Y-7180069D01*
X4012318Y-7180069D01*
X4027812Y-7174735D01*
X4038226Y-7169655D01*
X4048640Y-7159241D01*
X4053720Y-7148827D01*
X4053720Y-7127999D01*
X4048640Y-7117585D01*
X4038226Y-7107171D01*
X4027812Y-7102091D01*
X4012318Y-7102091D01*
X4012318Y-7127999D02*
G01*
X4012318Y-7102091D01*
X3981076Y-7067801D02*
G01*
X4090042Y-7067801D01*
X3996570Y-7067801D02*
G01*
X3986156Y-7057387D01*
X3981076Y-7046973D01*
X3981076Y-7031479D01*
X3986156Y-7021065D01*
X3996570Y-7010651D01*
X4012318Y-7005317D01*
X4022478Y-7005317D01*
X4038226Y-7010651D01*
X4048640Y-7021065D01*
X4053720Y-7031479D01*
X4053720Y-7046973D01*
X4048640Y-7057387D01*
X4038226Y-7067801D01*
X3944754Y-6908797D02*
G01*
X3944754Y-6960867D01*
X3991490Y-6965947D01*
X3986156Y-6960867D01*
X3981076Y-6945119D01*
X3981076Y-6929625D01*
X3986156Y-6913877D01*
X3996570Y-6903717D01*
X4012318Y-6898383D01*
X4022478Y-6898383D01*
X4038226Y-6903717D01*
X4048640Y-6913877D01*
X4053720Y-6929625D01*
X4053720Y-6945119D01*
X4048640Y-6960867D01*
X4043306Y-6965947D01*
X4032892Y-6971027D01*
X5250748Y-7042063D02*
G01*
X5240334Y-7047143D01*
X5229920Y-7057557D01*
X5224586Y-7067971D01*
X5224586Y-7088799D01*
X5229920Y-7099213D01*
X5240334Y-7109627D01*
X5250748Y-7114707D01*
X5266242Y-7120041D01*
X5292150Y-7120041D01*
X5307898Y-7114707D01*
X5318058Y-7109627D01*
X5328472Y-7099213D01*
X5333806Y-7088799D01*
X5333806Y-7067971D01*
X5328472Y-7057557D01*
X5318058Y-7047143D01*
X5307898Y-7042063D01*
X5260908Y-6945543D02*
G01*
X5333806Y-6945543D01*
X5276656Y-6945543D02*
G01*
X5266242Y-6955703D01*
X5260908Y-6966117D01*
X5260908Y-6981865D01*
X5266242Y-6992279D01*
X5276656Y-7002693D01*
X5292150Y-7007773D01*
X5302564Y-7007773D01*
X5318058Y-7002693D01*
X5328472Y-6992279D01*
X5333806Y-6981865D01*
X5333806Y-6966117D01*
X5328472Y-6955703D01*
X5318058Y-6945543D01*
X4730617Y-7142002D02*
G01*
X4720203Y-7147336D01*
X4709789Y-7157750D01*
X4704709Y-7168164D01*
X4704709Y-7188738D01*
X4709789Y-7199152D01*
X4720203Y-7209566D01*
X4730617Y-7214900D01*
X4746111Y-7219980D01*
X4772273Y-7219980D01*
X4787767Y-7214900D01*
X4798181Y-7209566D01*
X4808595Y-7199152D01*
X4813675Y-7188738D01*
X4813675Y-7168164D01*
X4808595Y-7157750D01*
X4798181Y-7147336D01*
X4787767Y-7142002D01*
X4772273Y-7142002D01*
X4772273Y-7168164D02*
G01*
X4772273Y-7142002D01*
X4720203Y-7035068D02*
G01*
X4709789Y-7045482D01*
X4704709Y-7060976D01*
X4704709Y-7081804D01*
X4709789Y-7097298D01*
X4720203Y-7107712D01*
X4730617Y-7107712D01*
X4741031Y-7102632D01*
X4746111Y-7097298D01*
X4751445Y-7086884D01*
X4761859Y-7055896D01*
X4766939Y-7045482D01*
X4772273Y-7040148D01*
X4782687Y-7035068D01*
X4798181Y-7035068D01*
X4808595Y-7045482D01*
X4813675Y-7060976D01*
X4813675Y-7081804D01*
X4808595Y-7097298D01*
X4798181Y-7107712D01*
X4730617Y-6995444D02*
G01*
X4725537Y-6995444D01*
X4715123Y-6990364D01*
X4709789Y-6985284D01*
X4704709Y-6974870D01*
X4704709Y-6954042D01*
X4709789Y-6943628D01*
X4715123Y-6938294D01*
X4725537Y-6933214D01*
X4735951Y-6933214D01*
X4746111Y-6938294D01*
X4761859Y-6948708D01*
X4813675Y-7000778D01*
X4813675Y-6928134D01*
X4766939Y-6893844D02*
G01*
X4766939Y-6800118D01*
X4204708Y-7139917D02*
G01*
X4313674Y-7139917D01*
X4313674Y-7139917D02*
G01*
X4313674Y-7077687D01*
X4266938Y-7043397D02*
G01*
X4266938Y-6949925D01*
X3730617Y-7141999D02*
G01*
X3720203Y-7147333D01*
X3709789Y-7157747D01*
X3704709Y-7168161D01*
X3704709Y-7188735D01*
X3709789Y-7199149D01*
X3720203Y-7209563D01*
X3730617Y-7214897D01*
X3746111Y-7219977D01*
X3772273Y-7219977D01*
X3787767Y-7214897D01*
X3798181Y-7209563D01*
X3808595Y-7199149D01*
X3813675Y-7188735D01*
X3813675Y-7168161D01*
X3808595Y-7157747D01*
X3798181Y-7147333D01*
X3787767Y-7141999D01*
X3772273Y-7141999D01*
X3772273Y-7168161D02*
G01*
X3772273Y-7141999D01*
X3720203Y-7035065D02*
G01*
X3709789Y-7045479D01*
X3704709Y-7060973D01*
X3704709Y-7081801D01*
X3709789Y-7097295D01*
X3720203Y-7107709D01*
X3730617Y-7107709D01*
X3741031Y-7102629D01*
X3746111Y-7097295D01*
X3751445Y-7086881D01*
X3761859Y-7055893D01*
X3766939Y-7045479D01*
X3772273Y-7040145D01*
X3782687Y-7035065D01*
X3798181Y-7035065D01*
X3808595Y-7045479D01*
X3813675Y-7060973D01*
X3813675Y-7081801D01*
X3808595Y-7097295D01*
X3798181Y-7107709D01*
X3730617Y-6995441D02*
G01*
X3725537Y-6995441D01*
X3715123Y-6990361D01*
X3709789Y-6985281D01*
X3704709Y-6974867D01*
X3704709Y-6954039D01*
X3709789Y-6943625D01*
X3715123Y-6938291D01*
X3725537Y-6933211D01*
X3735951Y-6933211D01*
X3746111Y-6938291D01*
X3761859Y-6948705D01*
X3813675Y-7000775D01*
X3813675Y-6928131D01*
X3766939Y-6893841D02*
G01*
X3766939Y-6800115D01*
X7798041Y-5530550D02*
G01*
X7792707Y-5520136D01*
X7782293Y-5509976D01*
X7771879Y-5504642D01*
X7751051Y-5504642D01*
X7740891Y-5509976D01*
X7730477Y-5520136D01*
X7725143Y-5530550D01*
X7720063Y-5546298D01*
X7720063Y-5572206D01*
X7725143Y-5587700D01*
X7730477Y-5598114D01*
X7740891Y-5608528D01*
X7751051Y-5613862D01*
X7771879Y-5613862D01*
X7782293Y-5608528D01*
X7792707Y-5598114D01*
X7798041Y-5587700D01*
X7798041Y-5572206D01*
X7771879Y-5572206D02*
G01*
X7798041Y-5572206D01*
X7904975Y-5520136D02*
G01*
X7894561Y-5509976D01*
X7879067Y-5504642D01*
X7858239Y-5504642D01*
X7842491Y-5509976D01*
X7832331Y-5520136D01*
X7832331Y-5530550D01*
X7837411Y-5540964D01*
X7842491Y-5546298D01*
X7852905Y-5551378D01*
X7884147Y-5561792D01*
X7894561Y-5567126D01*
X7899641Y-5572206D01*
X7904975Y-5582620D01*
X7904975Y-5598114D01*
X7894561Y-5608528D01*
X7879067Y-5613862D01*
X7858239Y-5613862D01*
X7842491Y-5608528D01*
X7832331Y-5598114D01*
X7939265Y-5525470D02*
G01*
X7949679Y-5520136D01*
X7965173Y-5504642D01*
X7965173Y-5613862D01*
X8046199Y-5520136D02*
G01*
X8046199Y-5613862D01*
X7999463Y-5567126D02*
G01*
X8092935Y-5567126D01*
X7797982Y-5790625D02*
G01*
X7792648Y-5780211D01*
X7782234Y-5769797D01*
X7772074Y-5764717D01*
X7751246Y-5764717D01*
X7740832Y-5769797D01*
X7730418Y-5780211D01*
X7725084Y-5790625D01*
X7720004Y-5806119D01*
X7720004Y-5832281D01*
X7725084Y-5847775D01*
X7730418Y-5858189D01*
X7740832Y-5868603D01*
X7751246Y-5873683D01*
X7772074Y-5873683D01*
X7782234Y-5868603D01*
X7792648Y-5858189D01*
X7797982Y-5847775D01*
X7797982Y-5832281D01*
X7772074Y-5832281D02*
G01*
X7797982Y-5832281D01*
X7904916Y-5780211D02*
G01*
X7894502Y-5769797D01*
X7879008Y-5764717D01*
X7858180Y-5764717D01*
X7842686Y-5769797D01*
X7832272Y-5780211D01*
X7832272Y-5790625D01*
X7837352Y-5801039D01*
X7842686Y-5806119D01*
X7853100Y-5811453D01*
X7884088Y-5821867D01*
X7894502Y-5826947D01*
X7899836Y-5832281D01*
X7904916Y-5842695D01*
X7904916Y-5858189D01*
X7894502Y-5868603D01*
X7879008Y-5873683D01*
X7858180Y-5873683D01*
X7842686Y-5868603D01*
X7832272Y-5858189D01*
X7939206Y-5785545D02*
G01*
X7949620Y-5780211D01*
X7965114Y-5764717D01*
X7965114Y-5873683D01*
X7999404Y-5826947D02*
G01*
X8093130Y-5826947D01*
X7797850Y-6050655D02*
G01*
X7792770Y-6040241D01*
X7782356Y-6029827D01*
X7771942Y-6024747D01*
X7751114Y-6024747D01*
X7740700Y-6029827D01*
X7730286Y-6040241D01*
X7725206Y-6050655D01*
X7720126Y-6066149D01*
X7720126Y-6092311D01*
X7725206Y-6107805D01*
X7730286Y-6118219D01*
X7740700Y-6128633D01*
X7751114Y-6133713D01*
X7771942Y-6133713D01*
X7782356Y-6128633D01*
X7792770Y-6118219D01*
X7797850Y-6107805D01*
X7797850Y-6092311D01*
X7771942Y-6092311D02*
G01*
X7797850Y-6092311D01*
X7905038Y-6040241D02*
G01*
X7894624Y-6029827D01*
X7878876Y-6024747D01*
X7858302Y-6024747D01*
X7842554Y-6029827D01*
X7832140Y-6040241D01*
X7832140Y-6050655D01*
X7837474Y-6061069D01*
X7842554Y-6066149D01*
X7852968Y-6071483D01*
X7884210Y-6081897D01*
X7894624Y-6086977D01*
X7899704Y-6092311D01*
X7905038Y-6102471D01*
X7905038Y-6118219D01*
X7894624Y-6128633D01*
X7878876Y-6133713D01*
X7858302Y-6133713D01*
X7842554Y-6128633D01*
X7832140Y-6118219D01*
X7944408Y-6050655D02*
G01*
X7944408Y-6045321D01*
X7949742Y-6035161D01*
X7954822Y-6029827D01*
X7965236Y-6024747D01*
X7986064Y-6024747D01*
X7996478Y-6029827D01*
X8001558Y-6035161D01*
X8006892Y-6045321D01*
X8006892Y-6055735D01*
X8001558Y-6066149D01*
X7991144Y-6081897D01*
X7939328Y-6133713D01*
X8011972Y-6133713D01*
X8092998Y-6040241D02*
G01*
X8092998Y-6133713D01*
X8046262Y-6086977D02*
G01*
X8139734Y-6086977D01*
X7797850Y-6310619D02*
G01*
X7792770Y-6300205D01*
X7782356Y-6289791D01*
X7771942Y-6284711D01*
X7751114Y-6284711D01*
X7740700Y-6289791D01*
X7730286Y-6300205D01*
X7725206Y-6310619D01*
X7720126Y-6326113D01*
X7720126Y-6352275D01*
X7725206Y-6367769D01*
X7730286Y-6378183D01*
X7740700Y-6388597D01*
X7751114Y-6393677D01*
X7771942Y-6393677D01*
X7782356Y-6388597D01*
X7792770Y-6378183D01*
X7797850Y-6367769D01*
X7797850Y-6352275D01*
X7771942Y-6352275D02*
G01*
X7797850Y-6352275D01*
X7905038Y-6300205D02*
G01*
X7894624Y-6289791D01*
X7878876Y-6284711D01*
X7858302Y-6284711D01*
X7842554Y-6289791D01*
X7832140Y-6300205D01*
X7832140Y-6310619D01*
X7837474Y-6321033D01*
X7842554Y-6326113D01*
X7852968Y-6331447D01*
X7884210Y-6341861D01*
X7894624Y-6346941D01*
X7899704Y-6352275D01*
X7905038Y-6362689D01*
X7905038Y-6378183D01*
X7894624Y-6388597D01*
X7878876Y-6393677D01*
X7858302Y-6393677D01*
X7842554Y-6388597D01*
X7832140Y-6378183D01*
X7944408Y-6310619D02*
G01*
X7944408Y-6305539D01*
X7949742Y-6295125D01*
X7954822Y-6289791D01*
X7965236Y-6284711D01*
X7986064Y-6284711D01*
X7996478Y-6289791D01*
X8001558Y-6295125D01*
X8006892Y-6305539D01*
X8006892Y-6315953D01*
X8001558Y-6326113D01*
X7991144Y-6341861D01*
X7939328Y-6393677D01*
X8011972Y-6393677D01*
X8046262Y-6346941D02*
G01*
X8139734Y-6346941D01*
X99888Y-234695D02*
G01*
X99888Y-343662D01*
X99888Y-234695D02*
G01*
X146878Y-234695D01*
X162372Y-239776D01*
X167452Y-245110D01*
X172786Y-255523D01*
X172786Y-271018D01*
X167452Y-281431D01*
X162372Y-286512D01*
X146878Y-291845D01*
X99888Y-291845D01*
X207076Y-271018D02*
G01*
X207076Y-343662D01*
X207076Y-302260D02*
G01*
X212156Y-286512D01*
X222570Y-276097D01*
X232984Y-271018D01*
X248478Y-271018D01*
X308930Y-271018D02*
G01*
X298516Y-276097D01*
X288102Y-286512D01*
X282768Y-302260D01*
X282768Y-312673D01*
X288102Y-328168D01*
X298516Y-338581D01*
X308930Y-343662D01*
X324424Y-343662D01*
X334838Y-338581D01*
X345252Y-328168D01*
X350332Y-312673D01*
X350332Y-302260D01*
X345252Y-286512D01*
X334838Y-276097D01*
X324424Y-271018D01*
X308930Y-271018D01*
X447106Y-271018D02*
G01*
X447106Y-354076D01*
X441772Y-369823D01*
X436692Y-374904D01*
X426278Y-380237D01*
X410784Y-380237D01*
X400370Y-374904D01*
X447106Y-286512D02*
G01*
X436692Y-276097D01*
X426278Y-271018D01*
X410784Y-271018D01*
X400370Y-276097D01*
X389956Y-286512D01*
X384622Y-302260D01*
X384622Y-312673D01*
X389956Y-328168D01*
X400370Y-338581D01*
X410784Y-343662D01*
X426278Y-343662D01*
X436692Y-338581D01*
X447106Y-328168D01*
X995540Y-169202D02*
G01*
X981824Y-155486D01*
X961250Y-148628D01*
X934072Y-148628D01*
X913752Y-155486D01*
X900036Y-169202D01*
X900036Y-182664D01*
X906894Y-196380D01*
X913752Y-203238D01*
X927214Y-210096D01*
X968108Y-223558D01*
X981824Y-230416D01*
X988682Y-237274D01*
X995540Y-250990D01*
X995540Y-271310D01*
X981824Y-285026D01*
X961250Y-291884D01*
X934072Y-291884D01*
X913752Y-285026D01*
X900036Y-271310D01*
X1136002Y-169202D02*
G01*
X1122286Y-155486D01*
X1101712Y-148628D01*
X1074534Y-148628D01*
X1054214Y-155486D01*
X1040498Y-169202D01*
X1040498Y-182664D01*
X1047356Y-196380D01*
X1054214Y-203238D01*
X1067676Y-210096D01*
X1108570Y-223558D01*
X1122286Y-230416D01*
X1129144Y-237274D01*
X1136002Y-250990D01*
X1136002Y-271310D01*
X1122286Y-285026D01*
X1101712Y-291884D01*
X1074534Y-291884D01*
X1054214Y-285026D01*
X1040498Y-271310D01*
X1180960Y-339636D02*
G01*
X1303642Y-339636D01*
X1450962Y-182664D02*
G01*
X1444104Y-169202D01*
X1430388Y-155486D01*
X1416926Y-148628D01*
X1389494Y-148628D01*
X1376032Y-155486D01*
X1362316Y-169202D01*
X1355458Y-182664D01*
X1348600Y-203238D01*
X1348600Y-237274D01*
X1355458Y-257848D01*
X1362316Y-271310D01*
X1376032Y-285026D01*
X1389494Y-291884D01*
X1416926Y-291884D01*
X1430388Y-285026D01*
X1444104Y-271310D01*
X1450962Y-257848D01*
X1591424Y-169202D02*
G01*
X1577708Y-155486D01*
X1557388Y-148628D01*
X1529956Y-148628D01*
X1509636Y-155486D01*
X1495920Y-169202D01*
X1495920Y-182664D01*
X1502778Y-196380D01*
X1509636Y-203238D01*
X1523098Y-210096D01*
X1563992Y-223558D01*
X1577708Y-230416D01*
X1584566Y-237274D01*
X1591424Y-250990D01*
X1591424Y-271310D01*
X1577708Y-285026D01*
X1557388Y-291884D01*
X1529956Y-291884D01*
X1509636Y-285026D01*
X1495920Y-271310D01*
X1738744Y-182664D02*
G01*
X1731886Y-169202D01*
X1718170Y-155486D01*
X1704454Y-148628D01*
X1677276Y-148628D01*
X1663560Y-155486D01*
X1650098Y-169202D01*
X1643240Y-182664D01*
X1636382Y-203238D01*
X1636382Y-237274D01*
X1643240Y-257848D01*
X1650098Y-271310D01*
X1663560Y-285026D01*
X1677276Y-291884D01*
X1704454Y-291884D01*
X1718170Y-285026D01*
X1731886Y-271310D01*
X1738744Y-257848D01*
X1783702Y-339636D02*
G01*
X1906384Y-339636D01*
X1951342Y-148628D02*
G01*
X1951342Y-291884D01*
X1951342Y-148628D02*
G01*
X2005952Y-291884D01*
X2060562Y-148628D02*
G01*
X2005952Y-291884D01*
X2060562Y-148628D02*
G01*
X2060562Y-291884D01*
X2105520Y-148628D02*
G01*
X2105520Y-291884D01*
X2105520Y-291884D02*
G01*
X2187308Y-291884D01*
X2232266Y-148628D02*
G01*
X2232266Y-291884D01*
X2277224Y-339636D02*
G01*
X2399906Y-339636D01*
X2451722Y-182664D02*
G01*
X2451722Y-175806D01*
X2458580Y-162344D01*
X2465438Y-155486D01*
X2479154Y-148628D01*
X2506332Y-148628D01*
X2520048Y-155486D01*
X2526906Y-162344D01*
X2533510Y-175806D01*
X2533510Y-189522D01*
X2526906Y-203238D01*
X2513190Y-223558D01*
X2445118Y-291884D01*
X2540368Y-291884D01*
X2626474Y-148628D02*
G01*
X2605900Y-155486D01*
X2592184Y-175806D01*
X2585580Y-210096D01*
X2585580Y-230416D01*
X2592184Y-264452D01*
X2605900Y-285026D01*
X2626474Y-291884D01*
X2639936Y-291884D01*
X2660510Y-285026D01*
X2673972Y-264452D01*
X2680830Y-230416D01*
X2680830Y-210096D01*
X2673972Y-175806D01*
X2660510Y-155486D01*
X2639936Y-148628D01*
X2626474Y-148628D01*
X2732646Y-182664D02*
G01*
X2732646Y-175806D01*
X2739504Y-162344D01*
X2746362Y-155486D01*
X2760078Y-148628D01*
X2787256Y-148628D01*
X2800972Y-155486D01*
X2807830Y-162344D01*
X2814434Y-175806D01*
X2814434Y-189522D01*
X2807830Y-203238D01*
X2794114Y-223558D01*
X2725788Y-291884D01*
X2821292Y-291884D01*
X2866250Y-175806D02*
G01*
X2879966Y-169202D01*
X2900540Y-148628D01*
X2900540Y-291884D01*
X2945498Y-175806D02*
G01*
X2959214Y-169202D01*
X2979534Y-148628D01*
X2979534Y-291884D01*
X3058528Y-148628D02*
G01*
X3038208Y-155486D01*
X3031350Y-169202D01*
X3031350Y-182664D01*
X3038208Y-196380D01*
X3051924Y-203238D01*
X3079102Y-210096D01*
X3099422Y-216700D01*
X3113138Y-230416D01*
X3119996Y-244132D01*
X3119996Y-264452D01*
X3113138Y-278168D01*
X3106280Y-285026D01*
X3085960Y-291884D01*
X3058528Y-291884D01*
X3038208Y-285026D01*
X3031350Y-278168D01*
X3024492Y-264452D01*
X3024492Y-244132D01*
X3031350Y-230416D01*
X3045066Y-216700D01*
X3065386Y-210096D01*
X3092818Y-203238D01*
X3106280Y-196380D01*
X3113138Y-182664D01*
X3113138Y-169202D01*
X3106280Y-155486D01*
X3085960Y-148628D01*
X3058528Y-148628D01*
X3205848Y-148628D02*
G01*
X3185528Y-155486D01*
X3171812Y-175806D01*
X3164954Y-210096D01*
X3164954Y-230416D01*
X3171812Y-264452D01*
X3185528Y-285026D01*
X3205848Y-291884D01*
X3219564Y-291884D01*
X3239884Y-285026D01*
X3253600Y-264452D01*
X3260458Y-230416D01*
X3260458Y-210096D01*
X3253600Y-175806D01*
X3239884Y-155486D01*
X3219564Y-148628D01*
X3205848Y-148628D01*
X3387204Y-169202D02*
G01*
X3380346Y-155486D01*
X3360026Y-148628D01*
X3346310Y-148628D01*
X3325990Y-155486D01*
X3312274Y-175806D01*
X3305416Y-210096D01*
X3305416Y-244132D01*
X3312274Y-271310D01*
X3325990Y-285026D01*
X3346310Y-291884D01*
X3353168Y-291884D01*
X3373742Y-285026D01*
X3387204Y-271310D01*
X3394062Y-250990D01*
X3394062Y-244132D01*
X3387204Y-223558D01*
X3373742Y-210096D01*
X3353168Y-203238D01*
X3346310Y-203238D01*
X3325990Y-210096D01*
X3312274Y-223558D01*
X3305416Y-244132D01*
X3445878Y-257848D02*
G01*
X3439020Y-264452D01*
X3445878Y-271310D01*
X3452736Y-264452D01*
X3445878Y-257848D01*
X3602850Y-148628D02*
G01*
X3602850Y-291884D01*
X3602850Y-148628D02*
G01*
X3664064Y-148628D01*
X3684638Y-155486D01*
X3691242Y-162344D01*
X3698100Y-175806D01*
X3698100Y-189522D01*
X3691242Y-203238D01*
X3684638Y-210096D01*
X3664064Y-216700D01*
X3602850Y-216700D01*
X3650348Y-216700D02*
G01*
X3698100Y-291884D01*
X3743058Y-148628D02*
G01*
X3743058Y-291884D01*
X3743058Y-148628D02*
G01*
X3831704Y-148628D01*
X3743058Y-216700D02*
G01*
X3797668Y-216700D01*
X3743058Y-291884D02*
G01*
X3831704Y-291884D01*
X3876916Y-148628D02*
G01*
X3931272Y-291884D01*
X3985882Y-148628D02*
G01*
X3931272Y-291884D01*
X4085450Y-121450D02*
G01*
X4037698Y-339636D01*
X4126344Y-121450D02*
G01*
X4078592Y-339636D01*
X4037698Y-210096D02*
G01*
X4133202Y-210096D01*
X4030840Y-250990D02*
G01*
X4126344Y-250990D01*
X4178160Y-175806D02*
G01*
X4191876Y-169202D01*
X4212196Y-148628D01*
X4212196Y-291884D01*
X4264012Y-257848D02*
G01*
X4257154Y-264452D01*
X4264012Y-271310D01*
X4270870Y-264452D01*
X4264012Y-257848D01*
X4356722Y-148628D02*
G01*
X4336402Y-155486D01*
X4322686Y-175806D01*
X4315828Y-210096D01*
X4315828Y-230416D01*
X4322686Y-264452D01*
X4336402Y-285026D01*
X4356722Y-291884D01*
X4370438Y-291884D01*
X4391012Y-285026D01*
X4404474Y-264452D01*
X4411332Y-230416D01*
X4411332Y-210096D01*
X4404474Y-175806D01*
X4391012Y-155486D01*
X4370438Y-148628D01*
X4356722Y-148628D01*
X2799999Y-534685D02*
G01*
X2799999Y-643651D01*
X2799999Y-534685D02*
G01*
X2836321Y-534685D01*
X2852069Y-539765D01*
X2862229Y-550179D01*
X2867563Y-560593D01*
X2872643Y-576341D01*
X2872643Y-602249D01*
X2867563Y-617743D01*
X2862229Y-628157D01*
X2852069Y-638571D01*
X2836321Y-643651D01*
X2799999Y-643651D01*
X2906933Y-555513D02*
G01*
X2917347Y-550179D01*
X2933095Y-534685D01*
X2933095Y-643651D01*
X3484506Y-1894184D02*
G01*
X3484506Y-2003150D01*
X3484506Y-1894184D02*
G01*
X3520828Y-1894184D01*
X3536576Y-1899264D01*
X3546736Y-1909678D01*
X3552070Y-1920092D01*
X3557150Y-1935840D01*
X3557150Y-1961748D01*
X3552070Y-1977242D01*
X3546736Y-1987656D01*
X3536576Y-1998070D01*
X3520828Y-2003150D01*
X3484506Y-2003150D01*
X3596774Y-1920092D02*
G01*
X3596774Y-1915012D01*
X3601854Y-1904598D01*
X3607188Y-1899264D01*
X3617602Y-1894184D01*
X3638176Y-1894184D01*
X3648590Y-1899264D01*
X3653924Y-1904598D01*
X3659004Y-1915012D01*
X3659004Y-1925426D01*
X3653924Y-1935840D01*
X3643510Y-1951334D01*
X3591440Y-2003150D01*
X3664338Y-2003150D01*
X3800000Y-3484684D02*
G01*
X3800000Y-3593650D01*
X3800000Y-3484684D02*
G01*
X3836322Y-3484684D01*
X3852070Y-3489764D01*
X3862230Y-3500178D01*
X3867564Y-3510592D01*
X3872644Y-3526340D01*
X3872644Y-3552248D01*
X3867564Y-3567742D01*
X3862230Y-3578156D01*
X3852070Y-3588570D01*
X3836322Y-3593650D01*
X3800000Y-3593650D01*
X3917348Y-3484684D02*
G01*
X3974498Y-3484684D01*
X3943510Y-3526340D01*
X3959004Y-3526340D01*
X3969418Y-3531420D01*
X3974498Y-3536500D01*
X3979832Y-3552248D01*
X3979832Y-3562662D01*
X3974498Y-3578156D01*
X3964084Y-3588570D01*
X3948590Y-3593650D01*
X3933096Y-3593650D01*
X3917348Y-3588570D01*
X3912268Y-3583490D01*
X3906934Y-3573076D01*
X3400000Y-4934684D02*
G01*
X3400000Y-5043650D01*
X3400000Y-4934684D02*
G01*
X3436322Y-4934684D01*
X3452070Y-4939764D01*
X3462230Y-4950178D01*
X3467564Y-4960592D01*
X3472644Y-4976340D01*
X3472644Y-5002248D01*
X3467564Y-5017742D01*
X3462230Y-5028156D01*
X3452070Y-5038570D01*
X3436322Y-5043650D01*
X3400000Y-5043650D01*
X3559004Y-4934684D02*
G01*
X3506934Y-5007328D01*
X3584912Y-5007328D01*
X3559004Y-4934684D02*
G01*
X3559004Y-5043650D01*
X7450000Y-5284683D02*
G01*
X7450000Y-5393649D01*
X7522644Y-5284683D02*
G01*
X7522644Y-5393649D01*
X7450000Y-5336499D02*
G01*
X7522644Y-5336499D01*
X7629832Y-5284683D02*
G01*
X7577762Y-5393649D01*
X7556934Y-5284683D02*
G01*
X7629832Y-5284683D01*
X4349998Y-434682D02*
G01*
X4349998Y-512660D01*
X4355078Y-528154D01*
X4365492Y-538568D01*
X4381240Y-543648D01*
X4391654Y-543648D01*
X4407148Y-538568D01*
X4417562Y-528154D01*
X4422642Y-512660D01*
X4422642Y-434682D01*
X4456932Y-455510D02*
G01*
X4467346Y-450176D01*
X4483094Y-434682D01*
X4483094Y-543648D01*
X4548372Y-434682D02*
G01*
X4532878Y-439762D01*
X4522464Y-455510D01*
X4517384Y-481418D01*
X4517384Y-496912D01*
X4522464Y-523074D01*
X4532878Y-538568D01*
X4548372Y-543648D01*
X4558786Y-543648D01*
X4574534Y-538568D01*
X4584948Y-523074D01*
X4590028Y-496912D01*
X4590028Y-481418D01*
X4584948Y-455510D01*
X4574534Y-439762D01*
X4558786Y-434682D01*
X4548372Y-434682D01*
X3350000Y-6684683D02*
G01*
X3350000Y-6762661D01*
X3355080Y-6778155D01*
X3365494Y-6788569D01*
X3381242Y-6793649D01*
X3391656Y-6793649D01*
X3407150Y-6788569D01*
X3417564Y-6778155D01*
X3422644Y-6762661D01*
X3422644Y-6684683D01*
X3456934Y-6705511D02*
G01*
X3467348Y-6700177D01*
X3483096Y-6684683D01*
X3483096Y-6793649D01*
X3517386Y-6705511D02*
G01*
X3527800Y-6700177D01*
X3543294Y-6684683D01*
X3543294Y-6793649D01*
X800000Y-634685D02*
G01*
X800000Y-712663D01*
X805080Y-728157D01*
X815494Y-738571D01*
X831242Y-743651D01*
X841656Y-743651D01*
X857150Y-738571D01*
X867564Y-728157D01*
X872644Y-712663D01*
X872644Y-634685D01*
X969418Y-650179D02*
G01*
X964084Y-639765D01*
X948590Y-634685D01*
X938176Y-634685D01*
X922682Y-639765D01*
X912268Y-655513D01*
X906934Y-681421D01*
X906934Y-707329D01*
X912268Y-728157D01*
X922682Y-738571D01*
X938176Y-743651D01*
X943510Y-743651D01*
X959004Y-738571D01*
X969418Y-728157D01*
X974498Y-712663D01*
X974498Y-707329D01*
X969418Y-691835D01*
X959004Y-681421D01*
X943510Y-676341D01*
X938176Y-676341D01*
X922682Y-681421D01*
X912268Y-691835D01*
X906934Y-707329D01*
X1349999Y-1534683D02*
G01*
X1349999Y-1612661D01*
X1355079Y-1628155D01*
X1365493Y-1638569D01*
X1381241Y-1643649D01*
X1391655Y-1643649D01*
X1407149Y-1638569D01*
X1417563Y-1628155D01*
X1422643Y-1612661D01*
X1422643Y-1534683D01*
X1529831Y-1534683D02*
G01*
X1477761Y-1643649D01*
X1456933Y-1534683D02*
G01*
X1529831Y-1534683D01*
X1349999Y-2684683D02*
G01*
X1349999Y-2762661D01*
X1355079Y-2778155D01*
X1365493Y-2788569D01*
X1381241Y-2793649D01*
X1391655Y-2793649D01*
X1407149Y-2788569D01*
X1417563Y-2778155D01*
X1422643Y-2762661D01*
X1422643Y-2684683D01*
X1483095Y-2684683D02*
G01*
X1467347Y-2689763D01*
X1462267Y-2700177D01*
X1462267Y-2710591D01*
X1467347Y-2721005D01*
X1477761Y-2726339D01*
X1498589Y-2731419D01*
X1514083Y-2736499D01*
X1524497Y-2746913D01*
X1529831Y-2757327D01*
X1529831Y-2773075D01*
X1524497Y-2783489D01*
X1519417Y-2788569D01*
X1503669Y-2793649D01*
X1483095Y-2793649D01*
X1467347Y-2788569D01*
X1462267Y-2783489D01*
X1456933Y-2773075D01*
X1456933Y-2757327D01*
X1462267Y-2746913D01*
X1472681Y-2736499D01*
X1488175Y-2731419D01*
X1509003Y-2726339D01*
X1519417Y-2721005D01*
X1524497Y-2710591D01*
X1524497Y-2700177D01*
X1519417Y-2689763D01*
X1503669Y-2684683D01*
X1483095Y-2684683D01*
X2047915Y-4474601D02*
G01*
X1969937Y-4474601D01*
X1954443Y-4479681D01*
X1944029Y-4490095D01*
X1938949Y-4505843D01*
X1938949Y-4516257D01*
X1944029Y-4531751D01*
X1954443Y-4542165D01*
X1969937Y-4547245D01*
X2047915Y-4547245D01*
X2011593Y-4649099D02*
G01*
X1996099Y-4644019D01*
X1985685Y-4633605D01*
X1980351Y-4618111D01*
X1980351Y-4612777D01*
X1985685Y-4597283D01*
X1996099Y-4586869D01*
X2011593Y-4581535D01*
X2016673Y-4581535D01*
X2032421Y-4586869D01*
X2042835Y-4597283D01*
X2047915Y-4612777D01*
X2047915Y-4618111D01*
X2042835Y-4633605D01*
X2032421Y-4644019D01*
X2011593Y-4649099D01*
X1985685Y-4649099D01*
X1959523Y-4644019D01*
X1944029Y-4633605D01*
X1938949Y-4618111D01*
X1938949Y-4607697D01*
X1944029Y-4591949D01*
X1954443Y-4586869D01*
X3450000Y-784684D02*
G01*
X3450000Y-862662D01*
X3455080Y-878156D01*
X3465494Y-888570D01*
X3481242Y-893650D01*
X3491656Y-893650D01*
X3507150Y-888570D01*
X3517564Y-878156D01*
X3522644Y-862662D01*
X3522644Y-784684D01*
X3556934Y-805512D02*
G01*
X3567348Y-800178D01*
X3583096Y-784684D01*
X3583096Y-893650D01*
X3400000Y-2384684D02*
G01*
X3400000Y-2462662D01*
X3405080Y-2478156D01*
X3415494Y-2488570D01*
X3431242Y-2493650D01*
X3441656Y-2493650D01*
X3457150Y-2488570D01*
X3467564Y-2478156D01*
X3472644Y-2462662D01*
X3472644Y-2384684D01*
X3512268Y-2410592D02*
G01*
X3512268Y-2405512D01*
X3517348Y-2395098D01*
X3522682Y-2389764D01*
X3533096Y-2384684D01*
X3553670Y-2384684D01*
X3564084Y-2389764D01*
X3569418Y-2395098D01*
X3574498Y-2405512D01*
X3574498Y-2415926D01*
X3569418Y-2426340D01*
X3559004Y-2441834D01*
X3506934Y-2493650D01*
X3579832Y-2493650D01*
X3949999Y-4084683D02*
G01*
X3949999Y-4162661D01*
X3955079Y-4178155D01*
X3965493Y-4188569D01*
X3981241Y-4193649D01*
X3991655Y-4193649D01*
X4007149Y-4188569D01*
X4017563Y-4178155D01*
X4022643Y-4162661D01*
X4022643Y-4084683D01*
X4067347Y-4084683D02*
G01*
X4124497Y-4084683D01*
X4093509Y-4126339D01*
X4109003Y-4126339D01*
X4119417Y-4131419D01*
X4124497Y-4136499D01*
X4129831Y-4152247D01*
X4129831Y-4162661D01*
X4124497Y-4178155D01*
X4114083Y-4188569D01*
X4098589Y-4193649D01*
X4083095Y-4193649D01*
X4067347Y-4188569D01*
X4062267Y-4183489D01*
X4056933Y-4173075D01*
X3400000Y-5384683D02*
G01*
X3400000Y-5462661D01*
X3405080Y-5478155D01*
X3415494Y-5488569D01*
X3431242Y-5493649D01*
X3441656Y-5493649D01*
X3457150Y-5488569D01*
X3467564Y-5478155D01*
X3472644Y-5462661D01*
X3472644Y-5384683D01*
X3559004Y-5384683D02*
G01*
X3506934Y-5457327D01*
X3584912Y-5457327D01*
X3559004Y-5384683D02*
G01*
X3559004Y-5493649D01*
X599998Y-334683D02*
G01*
X599998Y-443649D01*
X599998Y-334683D02*
G01*
X646734Y-334683D01*
X662228Y-339763D01*
X667562Y-345097D01*
X672642Y-355511D01*
X672642Y-365925D01*
X667562Y-376339D01*
X662228Y-381419D01*
X646734Y-386499D01*
X599998Y-386499D01*
X636320Y-386499D02*
G01*
X672642Y-443649D01*
X706932Y-355511D02*
G01*
X717346Y-350177D01*
X733094Y-334683D01*
X733094Y-443649D01*
X199999Y-3284684D02*
G01*
X199999Y-3393650D01*
X199999Y-3284684D02*
G01*
X246735Y-3284684D01*
X262229Y-3289764D01*
X267563Y-3295098D01*
X272643Y-3305512D01*
X272643Y-3315926D01*
X267563Y-3326340D01*
X262229Y-3331420D01*
X246735Y-3336500D01*
X199999Y-3336500D01*
X236321Y-3336500D02*
G01*
X272643Y-3393650D01*
X312267Y-3310592D02*
G01*
X312267Y-3305512D01*
X317347Y-3295098D01*
X322681Y-3289764D01*
X333095Y-3284684D01*
X353669Y-3284684D01*
X364083Y-3289764D01*
X369417Y-3295098D01*
X374497Y-3305512D01*
X374497Y-3315926D01*
X369417Y-3326340D01*
X359003Y-3341834D01*
X306933Y-3393650D01*
X379831Y-3393650D01*
X599998Y-1834685D02*
G01*
X599998Y-1943651D01*
X599998Y-1834685D02*
G01*
X646734Y-1834685D01*
X662228Y-1839765D01*
X667562Y-1845099D01*
X672642Y-1855513D01*
X672642Y-1865927D01*
X667562Y-1876341D01*
X662228Y-1881421D01*
X646734Y-1886501D01*
X599998Y-1886501D01*
X636320Y-1886501D02*
G01*
X672642Y-1943651D01*
X717346Y-1834685D02*
G01*
X774496Y-1834685D01*
X743508Y-1876341D01*
X759002Y-1876341D01*
X769416Y-1881421D01*
X774496Y-1886501D01*
X779830Y-1902249D01*
X779830Y-1912663D01*
X774496Y-1928157D01*
X764082Y-1938571D01*
X748588Y-1943651D01*
X733094Y-1943651D01*
X717346Y-1938571D01*
X712266Y-1933491D01*
X706932Y-1923077D01*
X599998Y-3234684D02*
G01*
X599998Y-3343650D01*
X599998Y-3234684D02*
G01*
X646734Y-3234684D01*
X662228Y-3239764D01*
X667562Y-3245098D01*
X672642Y-3255512D01*
X672642Y-3265926D01*
X667562Y-3276340D01*
X662228Y-3281420D01*
X646734Y-3286500D01*
X599998Y-3286500D01*
X636320Y-3286500D02*
G01*
X672642Y-3343650D01*
X759002Y-3234684D02*
G01*
X706932Y-3307328D01*
X784910Y-3307328D01*
X759002Y-3234684D02*
G01*
X759002Y-3343650D01*
X4517715Y-1749999D02*
G01*
X4408749Y-1749999D01*
X4517715Y-1749999D02*
G01*
X4517715Y-1796735D01*
X4512635Y-1812229D01*
X4507301Y-1817563D01*
X4496887Y-1822643D01*
X4486473Y-1822643D01*
X4476059Y-1817563D01*
X4470979Y-1812229D01*
X4465899Y-1796735D01*
X4465899Y-1749999D01*
X4465899Y-1786321D02*
G01*
X4408749Y-1822643D01*
X4517715Y-1919417D02*
G01*
X4517715Y-1867347D01*
X4470979Y-1862267D01*
X4476059Y-1867347D01*
X4481393Y-1883095D01*
X4481393Y-1898589D01*
X4476059Y-1914083D01*
X4465899Y-1924497D01*
X4450151Y-1929831D01*
X4439737Y-1929831D01*
X4424243Y-1924497D01*
X4413829Y-1914083D01*
X4408749Y-1898589D01*
X4408749Y-1883095D01*
X4413829Y-1867347D01*
X4418909Y-1862267D01*
X4429323Y-1856933D01*
X4867716Y-1749999D02*
G01*
X4758750Y-1749999D01*
X4867716Y-1749999D02*
G01*
X4867716Y-1796735D01*
X4862636Y-1812229D01*
X4857302Y-1817563D01*
X4846888Y-1822643D01*
X4836474Y-1822643D01*
X4826060Y-1817563D01*
X4820980Y-1812229D01*
X4815900Y-1796735D01*
X4815900Y-1749999D01*
X4815900Y-1786321D02*
G01*
X4758750Y-1822643D01*
X4852222Y-1919417D02*
G01*
X4862636Y-1914083D01*
X4867716Y-1898589D01*
X4867716Y-1888175D01*
X4862636Y-1872681D01*
X4846888Y-1862267D01*
X4820980Y-1856933D01*
X4795072Y-1856933D01*
X4774244Y-1862267D01*
X4763830Y-1872681D01*
X4758750Y-1888175D01*
X4758750Y-1893509D01*
X4763830Y-1909003D01*
X4774244Y-1919417D01*
X4789738Y-1924497D01*
X4795072Y-1924497D01*
X4810566Y-1919417D01*
X4820980Y-1909003D01*
X4826060Y-1893509D01*
X4826060Y-1888175D01*
X4820980Y-1872681D01*
X4810566Y-1862267D01*
X4795072Y-1856933D01*
X6552399Y-1184683D02*
G01*
X6552399Y-1293649D01*
X6552399Y-1184683D02*
G01*
X6599135Y-1184683D01*
X6614629Y-1189763D01*
X6619963Y-1195097D01*
X6625043Y-1205511D01*
X6625043Y-1215925D01*
X6619963Y-1226339D01*
X6614629Y-1231419D01*
X6599135Y-1236499D01*
X6552399Y-1236499D01*
X6588721Y-1236499D02*
G01*
X6625043Y-1293649D01*
X6732231Y-1184683D02*
G01*
X6680161Y-1293649D01*
X6659333Y-1184683D02*
G01*
X6732231Y-1184683D01*
X5700001Y-1932284D02*
G01*
X5700001Y-2041250D01*
X5700001Y-1932284D02*
G01*
X5746737Y-1932284D01*
X5762231Y-1937364D01*
X5767565Y-1942698D01*
X5772645Y-1953112D01*
X5772645Y-1963526D01*
X5767565Y-1973940D01*
X5762231Y-1979020D01*
X5746737Y-1984100D01*
X5700001Y-1984100D01*
X5736323Y-1984100D02*
G01*
X5772645Y-2041250D01*
X5833097Y-1932284D02*
G01*
X5817349Y-1937364D01*
X5812269Y-1947778D01*
X5812269Y-1958192D01*
X5817349Y-1968606D01*
X5827763Y-1973940D01*
X5848591Y-1979020D01*
X5864085Y-1984100D01*
X5874499Y-1994514D01*
X5879833Y-2004928D01*
X5879833Y-2020676D01*
X5874499Y-2031090D01*
X5869419Y-2036170D01*
X5853671Y-2041250D01*
X5833097Y-2041250D01*
X5817349Y-2036170D01*
X5812269Y-2031090D01*
X5806935Y-2020676D01*
X5806935Y-2004928D01*
X5812269Y-1994514D01*
X5822683Y-1984100D01*
X5838177Y-1979020D01*
X5859005Y-1973940D01*
X5869419Y-1968606D01*
X5874499Y-1958192D01*
X5874499Y-1947778D01*
X5869419Y-1937364D01*
X5853671Y-1932284D01*
X5833097Y-1932284D01*
X5549999Y-3484684D02*
G01*
X5549999Y-3593650D01*
X5549999Y-3484684D02*
G01*
X5596735Y-3484684D01*
X5612229Y-3489764D01*
X5617563Y-3495098D01*
X5622643Y-3505512D01*
X5622643Y-3515926D01*
X5617563Y-3526340D01*
X5612229Y-3531420D01*
X5596735Y-3536500D01*
X5549999Y-3536500D01*
X5586321Y-3536500D02*
G01*
X5622643Y-3593650D01*
X5724497Y-3521006D02*
G01*
X5719417Y-3536500D01*
X5709003Y-3546914D01*
X5693509Y-3552248D01*
X5688175Y-3552248D01*
X5672681Y-3546914D01*
X5662267Y-3536500D01*
X5656933Y-3521006D01*
X5656933Y-3515926D01*
X5662267Y-3500178D01*
X5672681Y-3489764D01*
X5688175Y-3484684D01*
X5693509Y-3484684D01*
X5709003Y-3489764D01*
X5719417Y-3500178D01*
X5724497Y-3521006D01*
X5724497Y-3546914D01*
X5719417Y-3573076D01*
X5709003Y-3588570D01*
X5693509Y-3593650D01*
X5683095Y-3593650D01*
X5667347Y-3588570D01*
X5662267Y-3578156D01*
X7100001Y-1934684D02*
G01*
X7100001Y-2043650D01*
X7100001Y-1934684D02*
G01*
X7146737Y-1934684D01*
X7162231Y-1939764D01*
X7167565Y-1945098D01*
X7172645Y-1955512D01*
X7172645Y-1965926D01*
X7167565Y-1976340D01*
X7162231Y-1981420D01*
X7146737Y-1986500D01*
X7100001Y-1986500D01*
X7136323Y-1986500D02*
G01*
X7172645Y-2043650D01*
X7206935Y-1955512D02*
G01*
X7217349Y-1950178D01*
X7233097Y-1934684D01*
X7233097Y-2043650D01*
X7298375Y-1934684D02*
G01*
X7282881Y-1939764D01*
X7272467Y-1955512D01*
X7267387Y-1981420D01*
X7267387Y-1996914D01*
X7272467Y-2023076D01*
X7282881Y-2038570D01*
X7298375Y-2043650D01*
X7308789Y-2043650D01*
X7324537Y-2038570D01*
X7334951Y-2023076D01*
X7340031Y-1996914D01*
X7340031Y-1981420D01*
X7334951Y-1955512D01*
X7324537Y-1939764D01*
X7308789Y-1934684D01*
X7298375Y-1934684D01*
X6399999Y-2984685D02*
G01*
X6399999Y-3093651D01*
X6399999Y-2984685D02*
G01*
X6446735Y-2984685D01*
X6462229Y-2989765D01*
X6467563Y-2995099D01*
X6472643Y-3005513D01*
X6472643Y-3015927D01*
X6467563Y-3026341D01*
X6462229Y-3031421D01*
X6446735Y-3036501D01*
X6399999Y-3036501D01*
X6436321Y-3036501D02*
G01*
X6472643Y-3093651D01*
X6506933Y-3005513D02*
G01*
X6517347Y-3000179D01*
X6533095Y-2984685D01*
X6533095Y-3093651D01*
X6567385Y-3005513D02*
G01*
X6577799Y-3000179D01*
X6593293Y-2984685D01*
X6593293Y-3093651D01*
X4700000Y-2984682D02*
G01*
X4700000Y-3093648D01*
X4700000Y-2984682D02*
G01*
X4746736Y-2984682D01*
X4762230Y-2989762D01*
X4767564Y-2995096D01*
X4772644Y-3005510D01*
X4772644Y-3015924D01*
X4767564Y-3026338D01*
X4762230Y-3031418D01*
X4746736Y-3036498D01*
X4700000Y-3036498D01*
X4736322Y-3036498D02*
G01*
X4772644Y-3093648D01*
X4806934Y-3005510D02*
G01*
X4817348Y-3000176D01*
X4833096Y-2984682D01*
X4833096Y-3093648D01*
X4872466Y-3010590D02*
G01*
X4872466Y-3005510D01*
X4877800Y-2995096D01*
X4882880Y-2989762D01*
X4893294Y-2984682D01*
X4914122Y-2984682D01*
X4924536Y-2989762D01*
X4929616Y-2995096D01*
X4934950Y-3005510D01*
X4934950Y-3015924D01*
X4929616Y-3026338D01*
X4919202Y-3041832D01*
X4867386Y-3093648D01*
X4940030Y-3093648D01*
X6100000Y-4884684D02*
G01*
X6100000Y-4993650D01*
X6100000Y-4884684D02*
G01*
X6146736Y-4884684D01*
X6162230Y-4889764D01*
X6167564Y-4895098D01*
X6172644Y-4905512D01*
X6172644Y-4915926D01*
X6167564Y-4926340D01*
X6162230Y-4931420D01*
X6146736Y-4936500D01*
X6100000Y-4936500D01*
X6136322Y-4936500D02*
G01*
X6172644Y-4993650D01*
X6206934Y-4905512D02*
G01*
X6217348Y-4900178D01*
X6233096Y-4884684D01*
X6233096Y-4993650D01*
X6277800Y-4884684D02*
G01*
X6334950Y-4884684D01*
X6303708Y-4926340D01*
X6319202Y-4926340D01*
X6329616Y-4931420D01*
X6334950Y-4936500D01*
X6340030Y-4952248D01*
X6340030Y-4962662D01*
X6334950Y-4978156D01*
X6324536Y-4988570D01*
X6308788Y-4993650D01*
X6293294Y-4993650D01*
X6277800Y-4988570D01*
X6272466Y-4983490D01*
X6267386Y-4973076D01*
X7000001Y-4684684D02*
G01*
X7000001Y-4793650D01*
X7000001Y-4684684D02*
G01*
X7046737Y-4684684D01*
X7062231Y-4689764D01*
X7067565Y-4695098D01*
X7072645Y-4705512D01*
X7072645Y-4715926D01*
X7067565Y-4726340D01*
X7062231Y-4731420D01*
X7046737Y-4736500D01*
X7000001Y-4736500D01*
X7036323Y-4736500D02*
G01*
X7072645Y-4793650D01*
X7106935Y-4705512D02*
G01*
X7117349Y-4700178D01*
X7133097Y-4684684D01*
X7133097Y-4793650D01*
X7219203Y-4684684D02*
G01*
X7167387Y-4757328D01*
X7245111Y-4757328D01*
X7219203Y-4684684D02*
G01*
X7219203Y-4793650D01*
X6100000Y-4534684D02*
G01*
X6100000Y-4643650D01*
X6100000Y-4534684D02*
G01*
X6146736Y-4534684D01*
X6162230Y-4539764D01*
X6167564Y-4545098D01*
X6172644Y-4555512D01*
X6172644Y-4565926D01*
X6167564Y-4576340D01*
X6162230Y-4581420D01*
X6146736Y-4586500D01*
X6100000Y-4586500D01*
X6136322Y-4586500D02*
G01*
X6172644Y-4643650D01*
X6206934Y-4555512D02*
G01*
X6217348Y-4550178D01*
X6233096Y-4534684D01*
X6233096Y-4643650D01*
X6329616Y-4534684D02*
G01*
X6277800Y-4534684D01*
X6272466Y-4581420D01*
X6277800Y-4576340D01*
X6293294Y-4571006D01*
X6308788Y-4571006D01*
X6324536Y-4576340D01*
X6334950Y-4586500D01*
X6340030Y-4602248D01*
X6340030Y-4612662D01*
X6334950Y-4628156D01*
X6324536Y-4638570D01*
X6308788Y-4643650D01*
X6293294Y-4643650D01*
X6277800Y-4638570D01*
X6272466Y-4633490D01*
X6267386Y-4623076D01*
X4400001Y-4634684D02*
G01*
X4400001Y-4743650D01*
X4400001Y-4634684D02*
G01*
X4446737Y-4634684D01*
X4462231Y-4639764D01*
X4467565Y-4645098D01*
X4472645Y-4655512D01*
X4472645Y-4665926D01*
X4467565Y-4676340D01*
X4462231Y-4681420D01*
X4446737Y-4686500D01*
X4400001Y-4686500D01*
X4436323Y-4686500D02*
G01*
X4472645Y-4743650D01*
X4506935Y-4655512D02*
G01*
X4517349Y-4650178D01*
X4533097Y-4634684D01*
X4533097Y-4743650D01*
X4629617Y-4650178D02*
G01*
X4624537Y-4639764D01*
X4608789Y-4634684D01*
X4598375Y-4634684D01*
X4582881Y-4639764D01*
X4572467Y-4655512D01*
X4567387Y-4681420D01*
X4567387Y-4707328D01*
X4572467Y-4728156D01*
X4582881Y-4738570D01*
X4598375Y-4743650D01*
X4603709Y-4743650D01*
X4619203Y-4738570D01*
X4629617Y-4728156D01*
X4634951Y-4712662D01*
X4634951Y-4707328D01*
X4629617Y-4691834D01*
X4619203Y-4681420D01*
X4603709Y-4676340D01*
X4598375Y-4676340D01*
X4582881Y-4681420D01*
X4572467Y-4691834D01*
X4567387Y-4707328D01*
X4349998Y-6034684D02*
G01*
X4349998Y-6143650D01*
X4349998Y-6034684D02*
G01*
X4396734Y-6034684D01*
X4412228Y-6039764D01*
X4417562Y-6045098D01*
X4422642Y-6055512D01*
X4422642Y-6065926D01*
X4417562Y-6076340D01*
X4412228Y-6081420D01*
X4396734Y-6086500D01*
X4349998Y-6086500D01*
X4386320Y-6086500D02*
G01*
X4422642Y-6143650D01*
X4456932Y-6055512D02*
G01*
X4467346Y-6050178D01*
X4483094Y-6034684D01*
X4483094Y-6143650D01*
X4590028Y-6034684D02*
G01*
X4537958Y-6143650D01*
X4517384Y-6034684D02*
G01*
X4590028Y-6034684D01*
X5850000Y-6434683D02*
G01*
X5850000Y-6543649D01*
X5850000Y-6434683D02*
G01*
X5896736Y-6434683D01*
X5912231Y-6439763D01*
X5917565Y-6445097D01*
X5922645Y-6455511D01*
X5922645Y-6465925D01*
X5917565Y-6476339D01*
X5912231Y-6481419D01*
X5896736Y-6486499D01*
X5850000Y-6486499D01*
X5886322Y-6486499D02*
G01*
X5922645Y-6543649D01*
X5956934Y-6455511D02*
G01*
X5967349Y-6450177D01*
X5983097Y-6434683D01*
X5983097Y-6543649D01*
X6043295Y-6434683D02*
G01*
X6027800Y-6439763D01*
X6022466Y-6450177D01*
X6022466Y-6460591D01*
X6027800Y-6471005D01*
X6037961Y-6476339D01*
X6058788Y-6481419D01*
X6074536Y-6486499D01*
X6084950Y-6496913D01*
X6090031Y-6507327D01*
X6090031Y-6523075D01*
X6084950Y-6533489D01*
X6079616Y-6538569D01*
X6064122Y-6543649D01*
X6043295Y-6543649D01*
X6027800Y-6538569D01*
X6022466Y-6533489D01*
X6017386Y-6523075D01*
X6017386Y-6507327D01*
X6022466Y-6496913D01*
X6032881Y-6486499D01*
X6048375Y-6481419D01*
X6069202Y-6476339D01*
X6079616Y-6471005D01*
X6084950Y-6460591D01*
X6084950Y-6450177D01*
X6079616Y-6439763D01*
X6064122Y-6434683D01*
X6043295Y-6434683D01*
X7000001Y-5134683D02*
G01*
X7000001Y-5243649D01*
X7000001Y-5134683D02*
G01*
X7046737Y-5134683D01*
X7062231Y-5139763D01*
X7067565Y-5145097D01*
X7072645Y-5155511D01*
X7072645Y-5165925D01*
X7067565Y-5176339D01*
X7062231Y-5181419D01*
X7046737Y-5186499D01*
X7000001Y-5186499D01*
X7036323Y-5186499D02*
G01*
X7072645Y-5243649D01*
X7106935Y-5155511D02*
G01*
X7117349Y-5150177D01*
X7133097Y-5134683D01*
X7133097Y-5243649D01*
X7234951Y-5171005D02*
G01*
X7229617Y-5186499D01*
X7219203Y-5196913D01*
X7203709Y-5202247D01*
X7198375Y-5202247D01*
X7182881Y-5196913D01*
X7172467Y-5186499D01*
X7167387Y-5171005D01*
X7167387Y-5165925D01*
X7172467Y-5150177D01*
X7182881Y-5139763D01*
X7198375Y-5134683D01*
X7203709Y-5134683D01*
X7219203Y-5139763D01*
X7229617Y-5150177D01*
X7234951Y-5171005D01*
X7234951Y-5196913D01*
X7229617Y-5223075D01*
X7219203Y-5238569D01*
X7203709Y-5243649D01*
X7193295Y-5243649D01*
X7177801Y-5238569D01*
X7172467Y-5228155D01*
X5999998Y-5934684D02*
G01*
X5999998Y-6043650D01*
X5999998Y-5934684D02*
G01*
X6046734Y-5934684D01*
X6062228Y-5939764D01*
X6067562Y-5945098D01*
X6072642Y-5955512D01*
X6072642Y-5965926D01*
X6067562Y-5976340D01*
X6062228Y-5981420D01*
X6046734Y-5986500D01*
X5999998Y-5986500D01*
X6036320Y-5986500D02*
G01*
X6072642Y-6043650D01*
X6112266Y-5960592D02*
G01*
X6112266Y-5955512D01*
X6117346Y-5945098D01*
X6122680Y-5939764D01*
X6133094Y-5934684D01*
X6153668Y-5934684D01*
X6164082Y-5939764D01*
X6169416Y-5945098D01*
X6174496Y-5955512D01*
X6174496Y-5965926D01*
X6169416Y-5976340D01*
X6159002Y-5991834D01*
X6106932Y-6043650D01*
X6179830Y-6043650D01*
X6245108Y-5934684D02*
G01*
X6229614Y-5939764D01*
X6219200Y-5955512D01*
X6214120Y-5981420D01*
X6214120Y-5996914D01*
X6219200Y-6023076D01*
X6229614Y-6038570D01*
X6245108Y-6043650D01*
X6255522Y-6043650D01*
X6271270Y-6038570D01*
X6281684Y-6023076D01*
X6286764Y-5996914D01*
X6286764Y-5981420D01*
X6281684Y-5955512D01*
X6271270Y-5939764D01*
X6255522Y-5934684D01*
X6245108Y-5934684D01*
X4731242Y-834684D02*
G01*
X4720828Y-839764D01*
X4710414Y-850178D01*
X4705080Y-860592D01*
X4700000Y-876340D01*
X4700000Y-902248D01*
X4705080Y-917742D01*
X4710414Y-928156D01*
X4720828Y-938570D01*
X4731242Y-943650D01*
X4752070Y-943650D01*
X4762230Y-938570D01*
X4772644Y-928156D01*
X4777978Y-917742D01*
X4783058Y-902248D01*
X4783058Y-876340D01*
X4777978Y-860592D01*
X4772644Y-850178D01*
X4762230Y-839764D01*
X4752070Y-834684D01*
X4731242Y-834684D01*
X4746736Y-923076D02*
G01*
X4777978Y-954064D01*
X4817348Y-855512D02*
G01*
X4827762Y-850178D01*
X4843510Y-834684D01*
X4843510Y-943650D01*
X5481241Y-834684D02*
G01*
X5470827Y-839764D01*
X5460413Y-850178D01*
X5455079Y-860592D01*
X5449999Y-876340D01*
X5449999Y-902248D01*
X5455079Y-917742D01*
X5460413Y-928156D01*
X5470827Y-938570D01*
X5481241Y-943650D01*
X5502069Y-943650D01*
X5512229Y-938570D01*
X5522643Y-928156D01*
X5527977Y-917742D01*
X5533057Y-902248D01*
X5533057Y-876340D01*
X5527977Y-860592D01*
X5522643Y-850178D01*
X5512229Y-839764D01*
X5502069Y-834684D01*
X5481241Y-834684D01*
X5496735Y-923076D02*
G01*
X5527977Y-954064D01*
X5572681Y-860592D02*
G01*
X5572681Y-855512D01*
X5577761Y-845098D01*
X5583095Y-839764D01*
X5593509Y-834684D01*
X5614083Y-834684D01*
X5624497Y-839764D01*
X5629831Y-845098D01*
X5634911Y-855512D01*
X5634911Y-865926D01*
X5629831Y-876340D01*
X5619417Y-891834D01*
X5567347Y-943650D01*
X5640245Y-943650D01*
X6231242Y-2634683D02*
G01*
X6220828Y-2639763D01*
X6210414Y-2650177D01*
X6205080Y-2660591D01*
X6200000Y-2676339D01*
X6200000Y-2702247D01*
X6205080Y-2717741D01*
X6210414Y-2728155D01*
X6220828Y-2738569D01*
X6231242Y-2743649D01*
X6252070Y-2743649D01*
X6262230Y-2738569D01*
X6272644Y-2728155D01*
X6277978Y-2717741D01*
X6283058Y-2702247D01*
X6283058Y-2676339D01*
X6277978Y-2660591D01*
X6272644Y-2650177D01*
X6262230Y-2639763D01*
X6252070Y-2634683D01*
X6231242Y-2634683D01*
X6246736Y-2723075D02*
G01*
X6277978Y-2754063D01*
X6327762Y-2634683D02*
G01*
X6384912Y-2634683D01*
X6353670Y-2676339D01*
X6369418Y-2676339D01*
X6379832Y-2681419D01*
X6384912Y-2686499D01*
X6390246Y-2702247D01*
X6390246Y-2712661D01*
X6384912Y-2728155D01*
X6374498Y-2738569D01*
X6359004Y-2743649D01*
X6343510Y-2743649D01*
X6327762Y-2738569D01*
X6322682Y-2733489D01*
X6317348Y-2723075D01*
X7581242Y-2984682D02*
G01*
X7570828Y-2989762D01*
X7560414Y-3000176D01*
X7555080Y-3010590D01*
X7550000Y-3026338D01*
X7550000Y-3052246D01*
X7555080Y-3067740D01*
X7560414Y-3078154D01*
X7570828Y-3088568D01*
X7581242Y-3093648D01*
X7602070Y-3093648D01*
X7612230Y-3088568D01*
X7622644Y-3078154D01*
X7627978Y-3067740D01*
X7633058Y-3052246D01*
X7633058Y-3026338D01*
X7627978Y-3010590D01*
X7622644Y-3000176D01*
X7612230Y-2989762D01*
X7602070Y-2984682D01*
X7581242Y-2984682D01*
X7596736Y-3073074D02*
G01*
X7627978Y-3104062D01*
X7719418Y-2984682D02*
G01*
X7667348Y-3057326D01*
X7745326Y-3057326D01*
X7719418Y-2984682D02*
G01*
X7719418Y-3093648D01*
X7081243Y-3584684D02*
G01*
X7070829Y-3589764D01*
X7060415Y-3600178D01*
X7055081Y-3610592D01*
X7050001Y-3626340D01*
X7050001Y-3652248D01*
X7055081Y-3667742D01*
X7060415Y-3678156D01*
X7070829Y-3688570D01*
X7081243Y-3693650D01*
X7102071Y-3693650D01*
X7112231Y-3688570D01*
X7122645Y-3678156D01*
X7127979Y-3667742D01*
X7133059Y-3652248D01*
X7133059Y-3626340D01*
X7127979Y-3610592D01*
X7122645Y-3600178D01*
X7112231Y-3589764D01*
X7102071Y-3584684D01*
X7081243Y-3584684D01*
X7096737Y-3673076D02*
G01*
X7127979Y-3704064D01*
X7229833Y-3584684D02*
G01*
X7177763Y-3584684D01*
X7172683Y-3631420D01*
X7177763Y-3626340D01*
X7193511Y-3621006D01*
X7209005Y-3621006D01*
X7224499Y-3626340D01*
X7234913Y-3636500D01*
X7240247Y-3652248D01*
X7240247Y-3662662D01*
X7234913Y-3678156D01*
X7224499Y-3688570D01*
X7209005Y-3693650D01*
X7193511Y-3693650D01*
X7177763Y-3688570D01*
X7172683Y-3683490D01*
X7167349Y-3673076D01*
X6031242Y-5134683D02*
G01*
X6020828Y-5139763D01*
X6010414Y-5150177D01*
X6005080Y-5160591D01*
X6000000Y-5176339D01*
X6000000Y-5202247D01*
X6005080Y-5217741D01*
X6010414Y-5228155D01*
X6020828Y-5238569D01*
X6031242Y-5243649D01*
X6052070Y-5243649D01*
X6062230Y-5238569D01*
X6072644Y-5228155D01*
X6077978Y-5217741D01*
X6083058Y-5202247D01*
X6083058Y-5176339D01*
X6077978Y-5160591D01*
X6072644Y-5150177D01*
X6062230Y-5139763D01*
X6052070Y-5134683D01*
X6031242Y-5134683D01*
X6046736Y-5223075D02*
G01*
X6077978Y-5254063D01*
X6179832Y-5150177D02*
G01*
X6174498Y-5139763D01*
X6159004Y-5134683D01*
X6148590Y-5134683D01*
X6133096Y-5139763D01*
X6122682Y-5155511D01*
X6117348Y-5181419D01*
X6117348Y-5207327D01*
X6122682Y-5228155D01*
X6133096Y-5238569D01*
X6148590Y-5243649D01*
X6153670Y-5243649D01*
X6169418Y-5238569D01*
X6179832Y-5228155D01*
X6184912Y-5212661D01*
X6184912Y-5207327D01*
X6179832Y-5191833D01*
X6169418Y-5181419D01*
X6153670Y-5176339D01*
X6148590Y-5176339D01*
X6133096Y-5181419D01*
X6122682Y-5191833D01*
X6117348Y-5207327D01*
X6331242Y-3684684D02*
G01*
X6320828Y-3689764D01*
X6310414Y-3700178D01*
X6305080Y-3710592D01*
X6300000Y-3726340D01*
X6300000Y-3752248D01*
X6305080Y-3767742D01*
X6310414Y-3778156D01*
X6320828Y-3788570D01*
X6331242Y-3793650D01*
X6352070Y-3793650D01*
X6362230Y-3788570D01*
X6372644Y-3778156D01*
X6377978Y-3767742D01*
X6383058Y-3752248D01*
X6383058Y-3726340D01*
X6377978Y-3710592D01*
X6372644Y-3700178D01*
X6362230Y-3689764D01*
X6352070Y-3684684D01*
X6331242Y-3684684D01*
X6346736Y-3773076D02*
G01*
X6377978Y-3804064D01*
X6490246Y-3684684D02*
G01*
X6438176Y-3793650D01*
X6417348Y-3684684D02*
G01*
X6490246Y-3684684D01*
X5931242Y-3684684D02*
G01*
X5920828Y-3689764D01*
X5910414Y-3700178D01*
X5905080Y-3710592D01*
X5900000Y-3726340D01*
X5900000Y-3752248D01*
X5905080Y-3767742D01*
X5910414Y-3778156D01*
X5920828Y-3788570D01*
X5931242Y-3793650D01*
X5952070Y-3793650D01*
X5962230Y-3788570D01*
X5972644Y-3778156D01*
X5977978Y-3767742D01*
X5983058Y-3752248D01*
X5983058Y-3726340D01*
X5977978Y-3710592D01*
X5972644Y-3700178D01*
X5962230Y-3689764D01*
X5952070Y-3684684D01*
X5931242Y-3684684D01*
X5946736Y-3773076D02*
G01*
X5977978Y-3804064D01*
X6043510Y-3684684D02*
G01*
X6027762Y-3689764D01*
X6022682Y-3700178D01*
X6022682Y-3710592D01*
X6027762Y-3721006D01*
X6038176Y-3726340D01*
X6059004Y-3731420D01*
X6074498Y-3736500D01*
X6084912Y-3746914D01*
X6090246Y-3757328D01*
X6090246Y-3773076D01*
X6084912Y-3783490D01*
X6079832Y-3788570D01*
X6064084Y-3793650D01*
X6043510Y-3793650D01*
X6027762Y-3788570D01*
X6022682Y-3783490D01*
X6017348Y-3773076D01*
X6017348Y-3757328D01*
X6022682Y-3746914D01*
X6033096Y-3736500D01*
X6048590Y-3731420D01*
X6069418Y-3726340D01*
X6079832Y-3721006D01*
X6084912Y-3710592D01*
X6084912Y-3700178D01*
X6079832Y-3689764D01*
X6064084Y-3684684D01*
X6043510Y-3684684D01*
X4127977Y-460590D02*
G01*
X4122643Y-450176D01*
X4112229Y-439762D01*
X4102069Y-434682D01*
X4081241Y-434682D01*
X4070827Y-439762D01*
X4060413Y-450176D01*
X4055079Y-460590D01*
X4049999Y-476338D01*
X4049999Y-502246D01*
X4055079Y-517740D01*
X4060413Y-528154D01*
X4070827Y-538568D01*
X4081241Y-543648D01*
X4102069Y-543648D01*
X4112229Y-538568D01*
X4122643Y-528154D01*
X4127977Y-517740D01*
X4167347Y-460590D02*
G01*
X4167347Y-455510D01*
X4172681Y-445096D01*
X4177761Y-439762D01*
X4188175Y-434682D01*
X4209003Y-434682D01*
X4219417Y-439762D01*
X4224497Y-445096D01*
X4229831Y-455510D01*
X4229831Y-465924D01*
X4224497Y-476338D01*
X4214083Y-491832D01*
X4162267Y-543648D01*
X4234911Y-543648D01*
X4426833Y-2407391D02*
G01*
X4421499Y-2396977D01*
X4411085Y-2386563D01*
X4400925Y-2381483D01*
X4380097Y-2381483D01*
X4369683Y-2386563D01*
X4359269Y-2396977D01*
X4353935Y-2407391D01*
X4348855Y-2423139D01*
X4348855Y-2449047D01*
X4353935Y-2464541D01*
X4359269Y-2474955D01*
X4369683Y-2485369D01*
X4380097Y-2490449D01*
X4400925Y-2490449D01*
X4411085Y-2485369D01*
X4421499Y-2474955D01*
X4426833Y-2464541D01*
X4523353Y-2381483D02*
G01*
X4471537Y-2381483D01*
X4466203Y-2428219D01*
X4471537Y-2423139D01*
X4487031Y-2417805D01*
X4502525Y-2417805D01*
X4518273Y-2423139D01*
X4528687Y-2433299D01*
X4533767Y-2449047D01*
X4533767Y-2459461D01*
X4528687Y-2474955D01*
X4518273Y-2485369D01*
X4502525Y-2490449D01*
X4487031Y-2490449D01*
X4471537Y-2485369D01*
X4466203Y-2480289D01*
X4461123Y-2469875D01*
X4627979Y-3910591D02*
G01*
X4622645Y-3900177D01*
X4612231Y-3889763D01*
X4602071Y-3884683D01*
X4581243Y-3884683D01*
X4570829Y-3889763D01*
X4560415Y-3900177D01*
X4555081Y-3910591D01*
X4550001Y-3926339D01*
X4550001Y-3952247D01*
X4555081Y-3967741D01*
X4560415Y-3978155D01*
X4570829Y-3988569D01*
X4581243Y-3993649D01*
X4602071Y-3993649D01*
X4612231Y-3988569D01*
X4622645Y-3978155D01*
X4627979Y-3967741D01*
X4688177Y-3884683D02*
G01*
X4672683Y-3889763D01*
X4667349Y-3900177D01*
X4667349Y-3910591D01*
X4672683Y-3921005D01*
X4683097Y-3926339D01*
X4703671Y-3931419D01*
X4719419Y-3936499D01*
X4729833Y-3946913D01*
X4734913Y-3957327D01*
X4734913Y-3973075D01*
X4729833Y-3983489D01*
X4724499Y-3988569D01*
X4709005Y-3993649D01*
X4688177Y-3993649D01*
X4672683Y-3988569D01*
X4667349Y-3983489D01*
X4662269Y-3973075D01*
X4662269Y-3957327D01*
X4667349Y-3946913D01*
X4677763Y-3936499D01*
X4693511Y-3931419D01*
X4714085Y-3926339D01*
X4724499Y-3921005D01*
X4729833Y-3910591D01*
X4729833Y-3900177D01*
X4724499Y-3889763D01*
X4709005Y-3884683D01*
X4688177Y-3884683D01*
X4027977Y-5410591D02*
G01*
X4022643Y-5400177D01*
X4012229Y-5389763D01*
X4002069Y-5384683D01*
X3981241Y-5384683D01*
X3970827Y-5389763D01*
X3960413Y-5400177D01*
X3955079Y-5410591D01*
X3949999Y-5426339D01*
X3949999Y-5452247D01*
X3955079Y-5467741D01*
X3960413Y-5478155D01*
X3970827Y-5488569D01*
X3981241Y-5493649D01*
X4002069Y-5493649D01*
X4012229Y-5488569D01*
X4022643Y-5478155D01*
X4027977Y-5467741D01*
X4062267Y-5405511D02*
G01*
X4072681Y-5400177D01*
X4088175Y-5384683D01*
X4088175Y-5493649D01*
X4122465Y-5405511D02*
G01*
X4132879Y-5400177D01*
X4148373Y-5384683D01*
X4148373Y-5493649D01*
X2777977Y-1210591D02*
G01*
X2772643Y-1200177D01*
X2762229Y-1189763D01*
X2752069Y-1184683D01*
X2731241Y-1184683D01*
X2720827Y-1189763D01*
X2710413Y-1200177D01*
X2705079Y-1210591D01*
X2699999Y-1226339D01*
X2699999Y-1252247D01*
X2705079Y-1267741D01*
X2710413Y-1278155D01*
X2720827Y-1288569D01*
X2731241Y-1293649D01*
X2752069Y-1293649D01*
X2762229Y-1288569D01*
X2772643Y-1278155D01*
X2777977Y-1267741D01*
X2822681Y-1184683D02*
G01*
X2879831Y-1184683D01*
X2848589Y-1226339D01*
X2864083Y-1226339D01*
X2874497Y-1231419D01*
X2879831Y-1236499D01*
X2884911Y-1252247D01*
X2884911Y-1262661D01*
X2879831Y-1278155D01*
X2869417Y-1288569D01*
X2853669Y-1293649D01*
X2838175Y-1293649D01*
X2822681Y-1288569D01*
X2817347Y-1283489D01*
X2812267Y-1273075D01*
X2827977Y-2510591D02*
G01*
X2822643Y-2500177D01*
X2812229Y-2489763D01*
X2802069Y-2484683D01*
X2781241Y-2484683D01*
X2770827Y-2489763D01*
X2760413Y-2500177D01*
X2755079Y-2510591D01*
X2749999Y-2526339D01*
X2749999Y-2552247D01*
X2755079Y-2567741D01*
X2760413Y-2578155D01*
X2770827Y-2588569D01*
X2781241Y-2593649D01*
X2802069Y-2593649D01*
X2812229Y-2588569D01*
X2822643Y-2578155D01*
X2827977Y-2567741D01*
X2914083Y-2484683D02*
G01*
X2862267Y-2557327D01*
X2940245Y-2557327D01*
X2914083Y-2484683D02*
G01*
X2914083Y-2593649D01*
X2777977Y-3660592D02*
G01*
X2772643Y-3650178D01*
X2762229Y-3639764D01*
X2752069Y-3634684D01*
X2731241Y-3634684D01*
X2720827Y-3639764D01*
X2710413Y-3650178D01*
X2705079Y-3660592D01*
X2699999Y-3676340D01*
X2699999Y-3702248D01*
X2705079Y-3717742D01*
X2710413Y-3728156D01*
X2720827Y-3738570D01*
X2731241Y-3743650D01*
X2752069Y-3743650D01*
X2762229Y-3738570D01*
X2772643Y-3728156D01*
X2777977Y-3717742D01*
X2884911Y-3634684D02*
G01*
X2833095Y-3743650D01*
X2812267Y-3634684D02*
G01*
X2884911Y-3634684D01*
X2777977Y-4810592D02*
G01*
X2772643Y-4800178D01*
X2762229Y-4789764D01*
X2752069Y-4784684D01*
X2731241Y-4784684D01*
X2720827Y-4789764D01*
X2710413Y-4800178D01*
X2705079Y-4810592D01*
X2699999Y-4826340D01*
X2699999Y-4852248D01*
X2705079Y-4867742D01*
X2710413Y-4878156D01*
X2720827Y-4888570D01*
X2731241Y-4893650D01*
X2752069Y-4893650D01*
X2762229Y-4888570D01*
X2772643Y-4878156D01*
X2777977Y-4867742D01*
X2812267Y-4805512D02*
G01*
X2822681Y-4800178D01*
X2838175Y-4784684D01*
X2838175Y-4893650D01*
X2903707Y-4784684D02*
G01*
X2887959Y-4789764D01*
X2877799Y-4805512D01*
X2872465Y-4831420D01*
X2872465Y-4846914D01*
X2877799Y-4873076D01*
X2887959Y-4888570D01*
X2903707Y-4893650D01*
X2914121Y-4893650D01*
X2929615Y-4888570D01*
X2940029Y-4873076D01*
X2945109Y-4846914D01*
X2945109Y-4831420D01*
X2940029Y-4805512D01*
X2929615Y-4789764D01*
X2914121Y-4784684D01*
X2903707Y-4784684D01*
X2077979Y-2010592D02*
G01*
X2072645Y-2000178D01*
X2062231Y-1989764D01*
X2052071Y-1984684D01*
X2031243Y-1984684D01*
X2020829Y-1989764D01*
X2010415Y-2000178D01*
X2005081Y-2010592D01*
X2000001Y-2026340D01*
X2000001Y-2052248D01*
X2005081Y-2067742D01*
X2010415Y-2078156D01*
X2020829Y-2088570D01*
X2031243Y-2093650D01*
X2052071Y-2093650D01*
X2062231Y-2088570D01*
X2072645Y-2078156D01*
X2077979Y-2067742D01*
X2174499Y-2000178D02*
G01*
X2169419Y-1989764D01*
X2153671Y-1984684D01*
X2143511Y-1984684D01*
X2127763Y-1989764D01*
X2117349Y-2005512D01*
X2112269Y-2031420D01*
X2112269Y-2057328D01*
X2117349Y-2078156D01*
X2127763Y-2088570D01*
X2143511Y-2093650D01*
X2148591Y-2093650D01*
X2164085Y-2088570D01*
X2174499Y-2078156D01*
X2179833Y-2062662D01*
X2179833Y-2057328D01*
X2174499Y-2041834D01*
X2164085Y-2031420D01*
X2148591Y-2026340D01*
X2143511Y-2026340D01*
X2127763Y-2031420D01*
X2117349Y-2041834D01*
X2112269Y-2057328D01*
X2727977Y-3260592D02*
G01*
X2722643Y-3250178D01*
X2712229Y-3239764D01*
X2702069Y-3234684D01*
X2681241Y-3234684D01*
X2670827Y-3239764D01*
X2660413Y-3250178D01*
X2655079Y-3260592D01*
X2649999Y-3276340D01*
X2649999Y-3302248D01*
X2655079Y-3317742D01*
X2660413Y-3328156D01*
X2670827Y-3338570D01*
X2681241Y-3343650D01*
X2702069Y-3343650D01*
X2712229Y-3338570D01*
X2722643Y-3328156D01*
X2727977Y-3317742D01*
X2829831Y-3271006D02*
G01*
X2824497Y-3286500D01*
X2814083Y-3296914D01*
X2798589Y-3302248D01*
X2793509Y-3302248D01*
X2777761Y-3296914D01*
X2767347Y-3286500D01*
X2762267Y-3271006D01*
X2762267Y-3265926D01*
X2767347Y-3250178D01*
X2777761Y-3239764D01*
X2793509Y-3234684D01*
X2798589Y-3234684D01*
X2814083Y-3239764D01*
X2824497Y-3250178D01*
X2829831Y-3271006D01*
X2829831Y-3296914D01*
X2824497Y-3323076D01*
X2814083Y-3338570D01*
X2798589Y-3343650D01*
X2788175Y-3343650D01*
X2772681Y-3338570D01*
X2767347Y-3328156D01*
X2727977Y-4410593D02*
G01*
X2722643Y-4400179D01*
X2712229Y-4389765D01*
X2702069Y-4384685D01*
X2681241Y-4384685D01*
X2670827Y-4389765D01*
X2660413Y-4400179D01*
X2655079Y-4410593D01*
X2649999Y-4426341D01*
X2649999Y-4452249D01*
X2655079Y-4467743D01*
X2660413Y-4478157D01*
X2670827Y-4488571D01*
X2681241Y-4493651D01*
X2702069Y-4493651D01*
X2712229Y-4488571D01*
X2722643Y-4478157D01*
X2727977Y-4467743D01*
X2762267Y-4405513D02*
G01*
X2772681Y-4400179D01*
X2788175Y-4384685D01*
X2788175Y-4493651D01*
X2827799Y-4410593D02*
G01*
X2827799Y-4405513D01*
X2832879Y-4395099D01*
X2837959Y-4389765D01*
X2848373Y-4384685D01*
X2869201Y-4384685D01*
X2879615Y-4389765D01*
X2884949Y-4395099D01*
X2890029Y-4405513D01*
X2890029Y-4415927D01*
X2884949Y-4426341D01*
X2874535Y-4441835D01*
X2822465Y-4493651D01*
X2895109Y-4493651D01*
X2127978Y-510595D02*
G01*
X2122644Y-500181D01*
X2112230Y-489767D01*
X2102070Y-484687D01*
X2081242Y-484687D01*
X2070828Y-489767D01*
X2060414Y-500181D01*
X2055080Y-510595D01*
X2050000Y-526343D01*
X2050000Y-552251D01*
X2055080Y-567745D01*
X2060414Y-578159D01*
X2070828Y-588573D01*
X2081242Y-593653D01*
X2102070Y-593653D01*
X2112230Y-588573D01*
X2122644Y-578159D01*
X2127978Y-567745D01*
X2162268Y-505515D02*
G01*
X2172682Y-500181D01*
X2188176Y-484687D01*
X2188176Y-593653D01*
X2100000Y-6784685D02*
G01*
X2100000Y-6893651D01*
X2100000Y-6784685D02*
G01*
X2136322Y-6784685D01*
X2152070Y-6789765D01*
X2162230Y-6800179D01*
X2167564Y-6810593D01*
X2172644Y-6826341D01*
X2172644Y-6852249D01*
X2167564Y-6867743D01*
X2162230Y-6878157D01*
X2152070Y-6888571D01*
X2136322Y-6893651D01*
X2100000Y-6893651D01*
X2279832Y-6784685D02*
G01*
X2227762Y-6893651D01*
X2206934Y-6784685D02*
G01*
X2279832Y-6784685D01*
X6649999Y-5384683D02*
G01*
X6649999Y-5493649D01*
X6649999Y-5384683D02*
G01*
X6686321Y-5384683D01*
X6702069Y-5389763D01*
X6712229Y-5400177D01*
X6717563Y-5410591D01*
X6722643Y-5426339D01*
X6722643Y-5452247D01*
X6717563Y-5467741D01*
X6712229Y-5478155D01*
X6702069Y-5488569D01*
X6686321Y-5493649D01*
X6649999Y-5493649D01*
X6783095Y-5384683D02*
G01*
X6767347Y-5389763D01*
X6762267Y-5400177D01*
X6762267Y-5410591D01*
X6767347Y-5421005D01*
X6777761Y-5426339D01*
X6798589Y-5431419D01*
X6814083Y-5436499D01*
X6824497Y-5446913D01*
X6829831Y-5457327D01*
X6829831Y-5473075D01*
X6824497Y-5483489D01*
X6819417Y-5488569D01*
X6803669Y-5493649D01*
X6783095Y-5493649D01*
X6767347Y-5488569D01*
X6762267Y-5483489D01*
X6756933Y-5473075D01*
X6756933Y-5457327D01*
X6762267Y-5446913D01*
X6772681Y-5436499D01*
X6788175Y-5431419D01*
X6809003Y-5426339D01*
X6819417Y-5421005D01*
X6824497Y-5410591D01*
X6824497Y-5400177D01*
X6819417Y-5389763D01*
X6803669Y-5384683D01*
X6783095Y-5384683D01*
X1699999Y-5434683D02*
G01*
X1699999Y-5512661D01*
X1705079Y-5528155D01*
X1715493Y-5538569D01*
X1731241Y-5543649D01*
X1741655Y-5543649D01*
X1757149Y-5538569D01*
X1767563Y-5528155D01*
X1772643Y-5512661D01*
X1772643Y-5434683D01*
X1806933Y-5455511D02*
G01*
X1817347Y-5450177D01*
X1833095Y-5434683D01*
X1833095Y-5543649D01*
X1872465Y-5460591D02*
G01*
X1872465Y-5455511D01*
X1877799Y-5445097D01*
X1882879Y-5439763D01*
X1893293Y-5434683D01*
X1914121Y-5434683D01*
X1924535Y-5439763D01*
X1929615Y-5445097D01*
X1934949Y-5455511D01*
X1934949Y-5465925D01*
X1929615Y-5476339D01*
X1919201Y-5491833D01*
X1867385Y-5543649D01*
X1940029Y-5543649D01*
X1900001Y-6334683D02*
G01*
X1900001Y-6412661D01*
X1905081Y-6428155D01*
X1915495Y-6438569D01*
X1931243Y-6443649D01*
X1941657Y-6443649D01*
X1957151Y-6438569D01*
X1967565Y-6428155D01*
X1972645Y-6412661D01*
X1972645Y-6334683D01*
X2006935Y-6355511D02*
G01*
X2017349Y-6350177D01*
X2033097Y-6334683D01*
X2033097Y-6443649D01*
X2077801Y-6334683D02*
G01*
X2134951Y-6334683D01*
X2103709Y-6376339D01*
X2119203Y-6376339D01*
X2129617Y-6381419D01*
X2134951Y-6386499D01*
X2140031Y-6402247D01*
X2140031Y-6412661D01*
X2134951Y-6428155D01*
X2124537Y-6438569D01*
X2108789Y-6443649D01*
X2093295Y-6443649D01*
X2077801Y-6438569D01*
X2072467Y-6433489D01*
X2067387Y-6423075D01*
X899921Y-5058079D02*
G01*
X972820Y-5249087D01*
X1045463Y-5058079D02*
G01*
X972820Y-5249087D01*
X1105407Y-5094655D02*
G01*
X1123695Y-5085511D01*
X1150873Y-5058079D01*
X1150873Y-5249087D01*
X919998Y-6318176D02*
G01*
X992642Y-6509184D01*
X1065540Y-6318176D02*
G01*
X992642Y-6509184D01*
X1134628Y-6363642D02*
G01*
X1134628Y-6354498D01*
X1143518Y-6336464D01*
X1152662Y-6327320D01*
X1170950Y-6318176D01*
X1207272Y-6318176D01*
X1225560Y-6327320D01*
X1234450Y-6336464D01*
X1243594Y-6354498D01*
X1243594Y-6372786D01*
X1234450Y-6390820D01*
X1216416Y-6418252D01*
X1125484Y-6509184D01*
X1252738Y-6509184D01*
X7277978Y-210591D02*
G01*
X7272644Y-200177D01*
X7262230Y-189763D01*
X7252070Y-184683D01*
X7231242Y-184683D01*
X7220828Y-189763D01*
X7210414Y-200177D01*
X7205080Y-210591D01*
X7200000Y-226339D01*
X7200000Y-252247D01*
X7205080Y-267741D01*
X7210414Y-278155D01*
X7220828Y-288569D01*
X7231242Y-293649D01*
X7252070Y-293649D01*
X7262230Y-288569D01*
X7272644Y-278155D01*
X7277978Y-267741D01*
X7312268Y-184683D02*
G01*
X7312268Y-293649D01*
X7312268Y-184683D02*
G01*
X7384912Y-293649D01*
X7384912Y-184683D02*
G01*
X7384912Y-293649D01*
X7429616Y-184683D02*
G01*
X7486766Y-184683D01*
X7455524Y-226339D01*
X7471272Y-226339D01*
X7481686Y-231419D01*
X7486766Y-236499D01*
X7492100Y-252247D01*
X7492100Y-262661D01*
X7486766Y-278155D01*
X7476352Y-288569D01*
X7460858Y-293649D01*
X7445110Y-293649D01*
X7429616Y-288569D01*
X7424536Y-283489D01*
X7419202Y-273075D01*
G36*
X4180027Y-909980D02*
G01*
X4189374Y-917854D01*
X4199280Y-925017D01*
X4209592Y-931519D01*
X4220362Y-937310D01*
X4231487Y-942340D01*
X4242968Y-946607D01*
X4254652Y-950112D01*
X4266590Y-952753D01*
X4278680Y-954633D01*
X4290822Y-955649D01*
X4303064Y-955903D01*
X4315256Y-955243D01*
X4327398Y-953820D01*
X4339386Y-951534D01*
X4345330Y-950112D01*
X4357065Y-946607D01*
X4368495Y-942340D01*
X4379620Y-937310D01*
X4390390Y-931519D01*
X4400753Y-925017D01*
X4410608Y-917854D01*
X4420006Y-909980D01*
G37*
G36*
X4510024Y-2579979D02*
G01*
X4509973Y-2820009D01*
X4517847Y-2810611D01*
X4525010Y-2800756D01*
X4531512Y-2790393D01*
X4537303Y-2779623D01*
X4542332Y-2768498D01*
X4546600Y-2757068D01*
X4550105Y-2745333D01*
X4552797Y-2733395D01*
X4554626Y-2721356D01*
X4555693Y-2709164D01*
X4555896Y-2696921D01*
X4555236Y-2684729D01*
X4553813Y-2672588D01*
X4551527Y-2660599D01*
X4548479Y-2648762D01*
X4544568Y-2637180D01*
X4539945Y-2625902D01*
X4534509Y-2614930D01*
X4528362Y-2604363D01*
X4521504Y-2594254D01*
X4513986Y-2584602D01*
G37*
G36*
X4459986Y-3779977D02*
G01*
X4459986Y-4020007D01*
X4467860Y-4010609D01*
X4475022Y-4000754D01*
X4481525Y-3990390D01*
X4487316Y-3979621D01*
X4492345Y-3968496D01*
X4496612Y-3957065D01*
X4500118Y-3945331D01*
X4502759Y-3933393D01*
X4503826Y-3927398D01*
X4505248Y-3915257D01*
X4505858Y-3903065D01*
X4505655Y-3890822D01*
X4504639Y-3878681D01*
X4503826Y-3872585D01*
X4501540Y-3860596D01*
X4500118Y-3854653D01*
X4496612Y-3842969D01*
X4492345Y-3831488D01*
X4487316Y-3820363D01*
X4481525Y-3809593D01*
X4475022Y-3799230D01*
X4467860Y-3789375D01*
G37*
G36*
X4409998Y-5579973D02*
G01*
X4409998Y-5820003D01*
X4417822Y-5810605D01*
X4425035Y-5800750D01*
X4431538Y-5790387D01*
X4437329Y-5779617D01*
X4442358Y-5768492D01*
X4446625Y-5757062D01*
X4450080Y-5745327D01*
X4451553Y-5739384D01*
X4453788Y-5727395D01*
X4454652Y-5721350D01*
X4455668Y-5709158D01*
X4455871Y-5696915D01*
X4455261Y-5684723D01*
X4453788Y-5672582D01*
X4451553Y-5660593D01*
X4448454Y-5648756D01*
X4444593Y-5637174D01*
X4439920Y-5625896D01*
X4434535Y-5614924D01*
X4428388Y-5604357D01*
X4421530Y-5594248D01*
X4414012Y-5584596D01*
G37*
G36*
X2579420Y-2084882D02*
G01*
X2579420Y-2415082D01*
X2588971Y-2405380D01*
X2598013Y-2395067D01*
X2606344Y-2384247D01*
X2614066Y-2372969D01*
X2621076Y-2361234D01*
X2627376Y-2349093D01*
X2632913Y-2336647D01*
X2637739Y-2323846D01*
X2641752Y-2310790D01*
X2645003Y-2297480D01*
X2647442Y-2284069D01*
X2649067Y-2270455D01*
X2649880Y-2256840D01*
X2649880Y-2243175D01*
X2649067Y-2229510D01*
X2647442Y-2215946D01*
X2645003Y-2202484D01*
X2641752Y-2189226D01*
X2637739Y-2176170D01*
X2632913Y-2163368D01*
X2627376Y-2150872D01*
X2621076Y-2138730D01*
X2614066Y-2127046D01*
X2606344Y-2115718D01*
X2598013Y-2104898D01*
X2588971Y-2094636D01*
G37*
G36*
X2579420Y-3284880D02*
G01*
X2579420Y-3615080D01*
X2588971Y-3605377D01*
X2598013Y-3595065D01*
X2606344Y-3584244D01*
X2614066Y-3572967D01*
X2621076Y-3561232D01*
X2627376Y-3549091D01*
X2632913Y-3536645D01*
X2637739Y-3523843D01*
X2641752Y-3510787D01*
X2645003Y-3497478D01*
X2647442Y-3484067D01*
X2649067Y-3470452D01*
X2649880Y-3456838D01*
X2649880Y-3443173D01*
X2649067Y-3429508D01*
X2647442Y-3415944D01*
X2645003Y-3402482D01*
X2641752Y-3389223D01*
X2637739Y-3376168D01*
X2632913Y-3363366D01*
X2627376Y-3350869D01*
X2621076Y-3338779D01*
X2614066Y-3327044D01*
X2606344Y-3315715D01*
X2598013Y-3304946D01*
X2588971Y-3294634D01*
G37*
G36*
X2579420Y-4434890D02*
G01*
X2579420Y-4765090D01*
X2588971Y-4755388D01*
X2598013Y-4745075D01*
X2606344Y-4734255D01*
X2614066Y-4722977D01*
X2621076Y-4711242D01*
X2627376Y-4699101D01*
X2632913Y-4686604D01*
X2637739Y-4673854D01*
X2641752Y-4660747D01*
X2645003Y-4647488D01*
X2647442Y-4634026D01*
X2649067Y-4620463D01*
X2649880Y-4606848D01*
X2649880Y-4593183D01*
X2649067Y-4579518D01*
X2647442Y-4565954D01*
X2645003Y-4552492D01*
X2641752Y-4539234D01*
X2637739Y-4526178D01*
X2632913Y-4513376D01*
X2627376Y-4500880D01*
X2621076Y-4488738D01*
X2614066Y-4477004D01*
X2606344Y-4465726D01*
X2598013Y-4454906D01*
X2588971Y-4444644D01*
G37*
G36*
X2579420Y-634898D02*
G01*
X2579420Y-965098D01*
X2588971Y-955344D01*
X2598013Y-945083D01*
X2606344Y-934262D01*
X2614066Y-922985D01*
X2621076Y-911250D01*
X2627376Y-899109D01*
X2632913Y-886612D01*
X2637739Y-873810D01*
X2641752Y-860755D01*
X2645003Y-847496D01*
X2647442Y-834034D01*
X2649067Y-820470D01*
X2649880Y-806856D01*
X2649880Y-793191D01*
X2649067Y-779526D01*
X2647442Y-765962D01*
X2645003Y-752500D01*
X2641752Y-739241D01*
X2637739Y-726186D01*
X2632913Y-713384D01*
X2627376Y-700887D01*
X2621076Y-688746D01*
X2614066Y-677011D01*
X2606344Y-665734D01*
X2598013Y-654913D01*
X2588971Y-644652D01*
G37*
G36*
X199999Y-399999D02*
G01*
X300024Y-499973D01*
X399999Y-399999D01*
G37*
D10*
X3664074Y-740001D02*
G01*
X3664074Y-460001D01*
X3760000Y-740001D02*
G01*
X3760000Y-460001D01*
X3760000Y-460001D02*
G01*
X3240001Y-460001D01*
X3240001Y-740001D02*
G01*
X3240001Y-460001D01*
X3760000Y-740001D02*
G01*
X3240001Y-740001D01*
X3664074Y-2340000D02*
G01*
X3664074Y-2060000D01*
X3760000Y-2340000D02*
G01*
X3760000Y-2060000D01*
X3760000Y-2060000D02*
G01*
X3240001Y-2060000D01*
X3240001Y-2340000D02*
G01*
X3240001Y-2060000D01*
X3760000Y-2340000D02*
G01*
X3240001Y-2340000D01*
X3664074Y-3839999D02*
G01*
X3664074Y-3560000D01*
X3760000Y-3839999D02*
G01*
X3760000Y-3560000D01*
X3760000Y-3560000D02*
G01*
X3240001Y-3560000D01*
X3240001Y-3839999D02*
G01*
X3240001Y-3560000D01*
X3760000Y-3839999D02*
G01*
X3240001Y-3839999D01*
X3664074Y-5339999D02*
G01*
X3664074Y-5060000D01*
X3760000Y-5339999D02*
G01*
X3760000Y-5060000D01*
X3760000Y-5060000D02*
G01*
X3240001Y-5060000D01*
X3240001Y-5339999D02*
G01*
X3240001Y-5060000D01*
X3760000Y-5339999D02*
G01*
X3240001Y-5339999D01*
X7677000Y-6479001D02*
G01*
X7423000Y-6479001D01*
X7677000Y-5421000D02*
G01*
X7677000Y-6479001D01*
X7677000Y-5698352D02*
G01*
X7423000Y-5698352D01*
X7423000Y-5421000D02*
G01*
X7423000Y-6479001D01*
X7677000Y-5421000D02*
G01*
X7423000Y-5421000D01*
X4609005Y-378002D02*
G01*
X6691000Y-378002D01*
X6690997Y-378002D02*
G01*
X6691000Y-621995D01*
X6691000Y-621995D02*
G01*
X4609005Y-621995D01*
X4609005Y-621995D02*
G01*
X4609002Y-378002D01*
X5690997Y-6871995D02*
G01*
X3609002Y-6871995D01*
X3609004Y-6871995D02*
G01*
X3609002Y-6628003D01*
X3609002Y-6628003D02*
G01*
X5690997Y-6628003D01*
X5690997Y-6628003D02*
G01*
X5690999Y-6871995D01*
D31*
X1183109Y-462879D02*
G01*
X1716890Y-462879D01*
X1716890Y-1437121D01*
X1183109Y-1437121D01*
X1183109Y-462879D01*
X1183109Y-1662879D02*
G01*
X1716890Y-1662879D01*
X1716890Y-2637121D01*
X1183109Y-2637121D01*
X1183109Y-1662879D01*
X1183109Y-2812879D02*
G01*
X1716890Y-2812879D01*
X1716890Y-3787122D01*
X1183109Y-3787122D01*
X1183109Y-2812879D01*
X1183109Y-4012879D02*
G01*
X1716890Y-4012879D01*
X1716890Y-4987122D01*
X1183109Y-4987122D01*
X1183109Y-4012879D01*
D32*
X3564000Y-906000D02*
G01*
X3563500Y-905969D01*
X3764922Y-905969D01*
X3764922Y-1896061D01*
X3235078Y-1896061D01*
X3235078Y-905969D01*
X3436500Y-905969D01*
X3436000Y-906000D01*
X3564000Y-2505999D02*
G01*
X3563500Y-2505969D01*
X3764922Y-2505969D01*
X3764922Y-3496061D01*
X3235078Y-3496061D01*
X3235078Y-2505969D01*
X3436500Y-2505969D01*
X3436000Y-2505999D01*
X3564000Y-3906001D02*
G01*
X3563500Y-3905971D01*
X3764922Y-3905971D01*
X3764922Y-4896063D01*
X3235078Y-4896063D01*
X3235078Y-3905971D01*
X3436500Y-3905971D01*
X3436000Y-3906001D01*
X3564000Y-5506001D02*
G01*
X3563500Y-5505970D01*
X3764922Y-5505970D01*
X3764922Y-6496062D01*
X3235078Y-6496062D01*
X3235078Y-5505970D01*
X3436500Y-5505970D01*
X3436000Y-5506001D01*
D10*
X585000Y-774999D02*
G01*
X815002Y-774999D01*
X815002Y-774999D02*
G01*
X815002Y-1425000D01*
X811999Y-1425000D02*
G01*
X588002Y-1425000D01*
X585000Y-1425000D02*
G01*
X585000Y-774999D01*
X184998Y-2274999D02*
G01*
X415000Y-2274999D01*
X415000Y-2274999D02*
G01*
X415000Y-2925000D01*
X411998Y-2925000D02*
G01*
X188000Y-2925000D01*
X184998Y-2925000D02*
G01*
X184998Y-2274999D01*
X585000Y-2274999D02*
G01*
X815002Y-2274999D01*
X815002Y-2274999D02*
G01*
X815002Y-2925000D01*
X811999Y-2925000D02*
G01*
X588002Y-2925000D01*
X585000Y-2925000D02*
G01*
X585000Y-2274999D01*
X585000Y-3674998D02*
G01*
X815002Y-3674998D01*
X815002Y-3674998D02*
G01*
X815002Y-4325000D01*
X811999Y-4325000D02*
G01*
X588002Y-4325000D01*
X585000Y-4325000D02*
G01*
X585000Y-3674998D01*
X4134998Y-1424998D02*
G01*
X4365000Y-1424998D01*
X4365000Y-1424998D02*
G01*
X4365000Y-2074999D01*
X4361997Y-2074999D02*
G01*
X4138000Y-2074999D01*
X4134998Y-2074999D02*
G01*
X4134998Y-1424998D01*
X4484999Y-1424998D02*
G01*
X4715002Y-1424998D01*
X4715002Y-1424998D02*
G01*
X4715002Y-2074999D01*
X4711999Y-2074999D02*
G01*
X4488002Y-2074999D01*
X4484999Y-2074999D02*
G01*
X4484999Y-1424998D01*
X6284998Y-974999D02*
G01*
X6515000Y-974999D01*
X6515000Y-974999D02*
G01*
X6515000Y-1625000D01*
X6511998Y-1625000D02*
G01*
X6288001Y-1625000D01*
X6284998Y-1625000D02*
G01*
X6284998Y-974999D01*
X5375000Y-2315001D02*
G01*
X5375000Y-2084999D01*
X5375000Y-2084999D02*
G01*
X6025001Y-2084999D01*
X6025001Y-2088001D02*
G01*
X6025001Y-2311999D01*
X6025001Y-2315001D02*
G01*
X5375000Y-2315001D01*
X4524999Y-3665001D02*
G01*
X4524999Y-3434999D01*
X4524999Y-3434999D02*
G01*
X5175001Y-3434999D01*
X5175001Y-3438001D02*
G01*
X5175001Y-3661999D01*
X5175001Y-3665001D02*
G01*
X4524999Y-3665001D01*
X7575001Y-2084999D02*
G01*
X7575001Y-2315001D01*
X7575001Y-2315001D02*
G01*
X6925000Y-2315001D01*
X6925000Y-2311999D02*
G01*
X6925000Y-2088001D01*
X6925000Y-2084999D02*
G01*
X7575001Y-2084999D01*
X6775000Y-3135000D02*
G01*
X6775000Y-3365002D01*
X6775000Y-3365002D02*
G01*
X6124999Y-3365002D01*
X6124999Y-3361999D02*
G01*
X6124999Y-3138002D01*
X6124999Y-3135000D02*
G01*
X6775000Y-3135000D01*
X4524999Y-3365002D02*
G01*
X4524999Y-3135000D01*
X4524999Y-3135000D02*
G01*
X5175001Y-3135000D01*
X5175001Y-3138002D02*
G01*
X5175001Y-3361999D01*
X5175001Y-3365002D02*
G01*
X4524999Y-3365002D01*
X5124998Y-5065001D02*
G01*
X5124998Y-4834999D01*
X5124998Y-4834999D02*
G01*
X5774999Y-4834999D01*
X5774999Y-4838001D02*
G01*
X5774999Y-5061999D01*
X5774999Y-5065001D02*
G01*
X5124998Y-5065001D01*
X7375001Y-4834999D02*
G01*
X7375001Y-5065001D01*
X7375001Y-5065001D02*
G01*
X6725000Y-5065001D01*
X6725000Y-5061999D02*
G01*
X6725000Y-4838001D01*
X6725000Y-4834999D02*
G01*
X7375001Y-4834999D01*
X5774999Y-4484999D02*
G01*
X5774999Y-4715002D01*
X5774999Y-4715002D02*
G01*
X5124998Y-4715002D01*
X5124998Y-4711999D02*
G01*
X5124998Y-4488002D01*
X5124998Y-4484999D02*
G01*
X5774999Y-4484999D01*
X4365000Y-5074998D02*
G01*
X4134998Y-5074998D01*
X4134998Y-5074998D02*
G01*
X4134998Y-4424997D01*
X4138000Y-4424997D02*
G01*
X4361997Y-4424997D01*
X4365000Y-4424997D02*
G01*
X4365000Y-5074998D01*
X4325000Y-6415001D02*
G01*
X4325000Y-6184999D01*
X4325000Y-6184999D02*
G01*
X4975001Y-6184999D01*
X4975001Y-6188001D02*
G01*
X4975001Y-6411998D01*
X4975001Y-6415001D02*
G01*
X4325000Y-6415001D01*
X5625000Y-6415001D02*
G01*
X5625000Y-6184999D01*
X5625000Y-6184999D02*
G01*
X6275001Y-6184999D01*
X6275001Y-6188001D02*
G01*
X6275001Y-6411998D01*
X6275001Y-6415001D02*
G01*
X5625000Y-6415001D01*
X6985000Y-5575000D02*
G01*
X7215002Y-5575000D01*
X7215002Y-5575000D02*
G01*
X7215002Y-6225001D01*
X7211999Y-6225001D02*
G01*
X6988002Y-6225001D01*
X6985000Y-6225001D02*
G01*
X6985000Y-5575000D01*
X5024998Y-6115001D02*
G01*
X5024998Y-5884999D01*
X5024998Y-5884999D02*
G01*
X5675000Y-5884999D01*
X5675000Y-5888001D02*
G01*
X5675000Y-6111999D01*
X5675000Y-6115001D02*
G01*
X5024998Y-6115001D01*
X4970002Y-770003D02*
G01*
X4970002Y-1829996D01*
X4920091Y-1830097D02*
G01*
X4920091Y-769901D01*
X5399897Y-769901D01*
X5399897Y-1830097D01*
X4920599Y-1830097D01*
X4920091Y-1830097D01*
X5720003Y-770003D02*
G01*
X5720003Y-1829996D01*
X5670092Y-1830097D02*
G01*
X5670092Y-769901D01*
X6149898Y-769901D01*
X6149898Y-1830097D01*
X5670600Y-1830097D01*
X5670092Y-1830097D01*
X6179997Y-2520002D02*
G01*
X5120004Y-2520002D01*
X5119903Y-2470091D02*
G01*
X6180099Y-2470091D01*
X6180099Y-2949897D01*
X5119903Y-2949897D01*
X5119903Y-2470599D01*
X5119903Y-2470091D01*
X7829997Y-2520002D02*
G01*
X6770004Y-2520002D01*
X6769902Y-2470091D02*
G01*
X7830098Y-2470091D01*
X7830098Y-2949897D01*
X6769902Y-2949897D01*
X6769902Y-2470599D01*
X6769902Y-2470091D01*
X7729997Y-4629995D02*
G01*
X7729997Y-3570003D01*
X7779908Y-3569901D02*
G01*
X7779908Y-4630097D01*
X7300102Y-4630097D01*
X7300102Y-3569901D01*
X7779400Y-3569901D01*
X7779908Y-3569901D01*
X6179997Y-5320002D02*
G01*
X5120004Y-5320002D01*
X5119903Y-5270091D02*
G01*
X6180099Y-5270091D01*
X6180099Y-5749897D01*
X5119903Y-5749897D01*
X5119903Y-5270599D01*
X5119903Y-5270091D01*
X6570002Y-3570003D02*
G01*
X6570002Y-4629995D01*
X6520091Y-4630097D02*
G01*
X6520091Y-3569901D01*
X6999897Y-3569901D01*
X6999897Y-4630097D01*
X6520599Y-4630097D01*
X6520091Y-4630097D01*
X6079995Y-3870002D02*
G01*
X5020002Y-3870002D01*
X5019901Y-3820091D02*
G01*
X6080097Y-3820091D01*
X6080097Y-4299897D01*
X5019901Y-4299897D01*
X5019901Y-3820599D01*
X5019901Y-3820091D01*
X4419998Y-729998D02*
G01*
X4419998Y-646178D01*
X4381898Y-689358D02*
G01*
X4460638Y-689358D01*
X4329998Y-2579999D02*
G01*
X4246178Y-2579999D01*
X4289358Y-2618099D02*
G01*
X4289358Y-2539359D01*
X4279999Y-3780000D02*
G01*
X4196179Y-3780000D01*
X4239359Y-3818100D02*
G01*
X4239359Y-3739360D01*
X4229999Y-5579998D02*
G01*
X4146179Y-5579998D01*
X4189359Y-5618098D02*
G01*
X4189359Y-5539359D01*
D33*
X2906400Y-1549999D02*
G01*
X2906400Y-1803999D01*
X2093600Y-1803999D01*
X2093600Y-1295999D01*
X2906400Y-1295999D01*
X2906400Y-1549999D01*
X2956399Y-2849999D02*
G01*
X2956399Y-3103999D01*
X2143599Y-3103999D01*
X2143599Y-2595999D01*
X2956399Y-2595999D01*
X2956399Y-2849999D01*
X2956399Y-3999999D02*
G01*
X2956399Y-4253999D01*
X2143599Y-4253999D01*
X2143599Y-3745999D01*
X2956399Y-3745999D01*
X2956399Y-3999999D01*
X2956399Y-5149999D02*
G01*
X2956399Y-5403999D01*
X2143599Y-5403999D01*
X2143599Y-4895999D01*
X2956399Y-4895999D01*
X2956399Y-5149999D01*
D10*
X426999Y-1856000D02*
G01*
X172999Y-1856000D01*
X426999Y-543999D02*
G01*
X426999Y-1856000D01*
X172999Y-543999D02*
G01*
X172999Y-1856000D01*
X426999Y-821352D02*
G01*
X172999Y-821352D01*
X426999Y-543999D02*
G01*
X172999Y-543999D01*
X2248387Y-2100011D02*
G01*
X2349987Y-2100011D01*
X2300000Y-2049998D02*
G01*
X2300000Y-2151598D01*
X2248387Y-3300011D02*
G01*
X2349987Y-3300011D01*
X2300000Y-3249998D02*
G01*
X2300000Y-3351598D01*
X2248387Y-4450011D02*
G01*
X2349987Y-4450011D01*
X2300000Y-4399998D02*
G01*
X2300000Y-4501598D01*
X2248387Y-650013D02*
G01*
X2349987Y-650013D01*
X2300000Y-600001D02*
G01*
X2300000Y-701601D01*
X1880003Y-6539997D02*
G01*
X2320002Y-6539997D01*
X1880003Y-6760001D02*
G01*
X2320002Y-6760001D01*
X1880003Y-6539997D02*
G01*
X1880003Y-6760001D01*
X2320002Y-6539997D02*
G01*
X2320002Y-6760001D01*
X1973940Y-6539997D02*
G01*
X1973940Y-6760001D01*
X6639996Y-6219997D02*
G01*
X6639996Y-5779998D01*
X6860001Y-6219997D02*
G01*
X6860001Y-5779998D01*
X6639996Y-6219997D02*
G01*
X6860001Y-6219997D01*
X6639996Y-5779998D02*
G01*
X6860001Y-5779998D01*
X6639996Y-6126060D02*
G01*
X6860001Y-6126060D01*
X1719000Y-5876998D02*
G01*
X1719000Y-5596999D01*
X2379400Y-5876998D02*
G01*
X2379400Y-5596999D01*
X2379400Y-5596999D02*
G01*
X1719000Y-5596999D01*
X2213056Y-5873503D02*
G01*
X2213056Y-5596999D01*
X2379400Y-5876998D02*
G01*
X1719000Y-5876998D01*
X1719000Y-6277000D02*
G01*
X1719000Y-5997000D01*
X2379400Y-6277000D02*
G01*
X2379400Y-5997000D01*
X2379400Y-5997000D02*
G01*
X1719000Y-5997000D01*
X2213056Y-6273505D02*
G01*
X2213056Y-5997000D01*
X2379400Y-6277000D02*
G01*
X1719000Y-6277000D01*
X880056Y-4700115D02*
G01*
X880056Y-5699986D01*
X-119938Y-4700115D02*
G01*
X-119938Y-5699986D01*
X880056Y-5699983D02*
G01*
X-119938Y-5699986D01*
X880059Y-4700115D02*
G01*
X-119938Y-4700115D01*
X-99725Y-4787836D02*
G01*
X-39725Y-4787836D01*
X-39725Y-5107835D01*
X-99725Y-5107835D01*
X-99728Y-5287835D02*
G01*
X-39728Y-5287835D01*
X-39728Y-5607834D01*
X-99728Y-5607834D01*
X880056Y-5950115D02*
G01*
X880056Y-6949986D01*
X-119938Y-5950115D02*
G01*
X-119938Y-6949986D01*
X880056Y-6949983D02*
G01*
X-119938Y-6949986D01*
X880059Y-5950115D02*
G01*
X-119938Y-5950115D01*
X-99725Y-6037836D02*
G01*
X-39725Y-6037836D01*
X-39725Y-6357835D01*
X-99725Y-6357835D01*
X-99728Y-6537835D02*
G01*
X-39728Y-6537835D01*
X-39728Y-6857834D01*
X-99728Y-6857834D01*
X6900273Y-1437708D02*
G01*
X6960275Y-1437708D01*
X6960275Y-1757705D01*
X6900273Y-1757705D01*
X6900273Y-937836D02*
G01*
X6960275Y-937836D01*
X6960275Y-1257835D01*
X6900273Y-1257835D01*
X6900273Y-437837D02*
G01*
X6960275Y-437837D01*
X6960275Y-757836D01*
X6900273Y-757836D01*
X7880057Y-350116D02*
G01*
X6880062Y-350116D01*
X7880057Y-1849986D02*
G01*
X6880062Y-1849986D01*
X6880062Y-350116D02*
G01*
X6880062Y-1849986D01*
X7880057Y-350116D02*
G01*
X7880057Y-1849986D01*
D31*
G75*
G01*
X1529375Y-462879D02*
G02*
X1370625Y-462879I-79375J0D01*
G75*
G01*
X1529375Y-1662880D02*
G02*
X1370625Y-1662880I-79375J0D01*
G75*
G01*
X1529375Y-2812880D02*
G02*
X1370625Y-2812880I-79375J0D01*
G75*
G01*
X1529375Y-4012880D02*
G02*
X1370625Y-4012880I-79375J0D01*
D32*
G75*
G01*
X3436000Y-906000D02*
G03*
X3563000Y-906000I63500J0D01*
D35*
G75*
G01*
X3119001Y-876506D02*
G03*
X3119255Y-876506I127J-12498D01*
D36*
G75*
G01*
X3334901Y-954992D02*
G03*
X3335409Y-954992I254J-29999D01*
D32*
G75*
G01*
X3436000Y-2506000D02*
G03*
X3563000Y-2506000I63500J0D01*
D35*
G75*
G01*
X3119001Y-2476505D02*
G03*
X3119255Y-2476505I127J-12499D01*
D36*
G75*
G01*
X3334901Y-2554991D02*
G03*
X3335409Y-2554991I254J-29999D01*
D32*
G75*
G01*
X3436000Y-3906002D02*
G03*
X3563000Y-3906002I63500J0D01*
D35*
G75*
G01*
X3119001Y-3876507D02*
G03*
X3119255Y-3876507I127J-12499D01*
D36*
G75*
G01*
X3334901Y-3954993D02*
G03*
X3335409Y-3954993I254J-29999D01*
D32*
G75*
G01*
X3436000Y-5506001D02*
G03*
X3563000Y-5506001I63500J0D01*
D35*
G75*
G01*
X3119001Y-5476507D02*
G03*
X3119255Y-5476507I127J-12498D01*
D36*
G75*
G01*
X3334901Y-5554993D02*
G03*
X3335409Y-5554993I254J-29999D01*
D37*
G75*
G01*
X5446380Y-1576860D02*
G03*
X5446380Y-1576606I19999J127D01*
G75*
G01*
X6196381Y-1576860D02*
G03*
X6196381Y-1576606I19999J127D01*
G75*
G01*
X5373141Y-2996380D02*
G03*
X5373395Y-2996380I127J-19999D01*
G75*
G01*
X7023141Y-2996380D02*
G03*
X7023395Y-2996380I127J-19999D01*
G75*
G01*
X7253620Y-3823139D02*
G03*
X7253620Y-3823393I-19999J-127D01*
G75*
G01*
X5373141Y-5796379D02*
G03*
X5373395Y-5796379I127J-20000D01*
G75*
G01*
X7046379Y-4376859D02*
G03*
X7046379Y-4376605I20000J127D01*
G75*
G01*
X5273139Y-4346379D02*
G03*
X5273393Y-4346379I127J-20000D01*
D10*
G75*
G01*
X4499897Y-749872D02*
G03*
X4499897Y-753174I-199993J-1651D01*
G75*
G01*
X4349872Y-2500102D02*
G03*
X4353174Y-2500102I1651J-199993D01*
G75*
G01*
X4299872Y-3700102D02*
G03*
X4303174Y-3700102I1651J-199993D01*
G75*
G01*
X4249872Y-5500101D02*
G03*
X4253174Y-5500101I1651J-199993D01*
D34*
G75*
G01
X1084011Y-454701D02*
G03X1084011Y-454701I-15011J0D01*
G75*
G01
X1084011Y-1654701D02*
G03X1084011Y-1654701I-15011J0D01*
G75*
G01
X1084011Y-2804701D02*
G03X1084011Y-2804701I-15011J0D01*
G75*
G01
X1084011Y-4004701D02*
G03X1084011Y-4004701I-15011J0D01*
G75*
G01
X2650012Y-2249998D02*
G03X2650012Y-2249998I-250012J0D01*
G75*
G01
X2650012Y-3449998D02*
G03X2650012Y-3449998I-250012J0D01*
G75*
G01
X2650012Y-4599998D02*
G03X2650012Y-4599998I-250012J0D01*
G75*
G01
X2650012Y-800001D02*
G03X2650012Y-800001I-250012J0D01*
M02*
