G04 Layer: BottomLayer*
G04 EasyEDA v6.4.19.5, 2021-06-18T19:10:14+05:00*
G04 1d45b033f9cb4702a4eeca8037af4c70,30c14f198de7496ba1d595c7c1278fea,10*
G04 Gerber Generator version 0.2*
G04 Scale: 100 percent, Rotated: No, Reflected: No *
G04 Dimensions in millimeters *
G04 leading zeros omitted , absolute positions ,4 integer and 5 decimal *
%FSLAX45Y45*%
%MOMM*%

%ADD11C,1.5000*%
%ADD12C,0.5000*%
%ADD13C,0.6096*%
%ADD14C,1.0000*%
%ADD15C,0.6100*%
%ADD16C,1.8000*%
%ADD17R,1.7000X1.7000*%
%ADD18C,1.7000*%
%ADD19R,1.8000X1.8000*%
%ADD20R,1.5000X1.5000*%
%ADD21C,1.8796*%
%ADD24C,1.2000*%
%ADD25C,1.7780*%
%ADD26C,1.3000*%
%ADD27C,2.4000*%
%ADD28C,2.8001*%
%ADD29C,1.4600*%
%ADD30C,2.0000*%

%LPD*%
G36*
X7455865Y-2959303D02*
G01*
X7451953Y-2958490D01*
X7448651Y-2956306D01*
X7403592Y-2911246D01*
X7401407Y-2907944D01*
X7400594Y-2904032D01*
X7400594Y-2853436D01*
X7401153Y-2850134D01*
X7411262Y-2833370D01*
X7417765Y-2818993D01*
X7420000Y-2815844D01*
X7422946Y-2813913D01*
X7422337Y-2813100D01*
X7421372Y-2809443D01*
X7421981Y-2805074D01*
X7424724Y-2790139D01*
X7425639Y-2774696D01*
X7425639Y-2725318D01*
X7424724Y-2709875D01*
X7421778Y-2694330D01*
X7421372Y-2690571D01*
X7422337Y-2686913D01*
X7422946Y-2686100D01*
X7419949Y-2684170D01*
X7417714Y-2681020D01*
X7411262Y-2666593D01*
X7401204Y-2649931D01*
X7400645Y-2646629D01*
X7400645Y-2470353D01*
X7399781Y-2456891D01*
X7397191Y-2443937D01*
X7392974Y-2431491D01*
X7387132Y-2419705D01*
X7379817Y-2408732D01*
X7370927Y-2398572D01*
X7361428Y-2389073D01*
X7351268Y-2380183D01*
X7340295Y-2372868D01*
X7328509Y-2367026D01*
X7316063Y-2362809D01*
X7303109Y-2360218D01*
X7289647Y-2359355D01*
X6194348Y-2359355D01*
X6180886Y-2360218D01*
X6167932Y-2362809D01*
X6155486Y-2367026D01*
X6143701Y-2372868D01*
X6132728Y-2380183D01*
X6122568Y-2389073D01*
X5915050Y-2596591D01*
X5911494Y-2598928D01*
X5907278Y-2599537D01*
X5904026Y-2599385D01*
X5888837Y-2600299D01*
X5873953Y-2602992D01*
X5859475Y-2607513D01*
X5845606Y-2613761D01*
X5832652Y-2621584D01*
X5820714Y-2630982D01*
X5809945Y-2641701D01*
X5800598Y-2653639D01*
X5792774Y-2666644D01*
X5786272Y-2681020D01*
X5784037Y-2684170D01*
X5780786Y-2686253D01*
X5776976Y-2687015D01*
X5773216Y-2686253D01*
X5769965Y-2684170D01*
X5767730Y-2681020D01*
X5761228Y-2666593D01*
X5753404Y-2653639D01*
X5743651Y-2641295D01*
X5741416Y-2637993D01*
X5740654Y-2634081D01*
X5740654Y-1440332D01*
X5739790Y-1426870D01*
X5737199Y-1413967D01*
X5732983Y-1401470D01*
X5727141Y-1389684D01*
X5719826Y-1378762D01*
X5710936Y-1368602D01*
X5571388Y-1229055D01*
X5561279Y-1220165D01*
X5550306Y-1212850D01*
X5538520Y-1207008D01*
X5526024Y-1202791D01*
X5513120Y-1200251D01*
X5499658Y-1199337D01*
X5303367Y-1199337D01*
X5300065Y-1198778D01*
X5283403Y-1188770D01*
X5268976Y-1182268D01*
X5265826Y-1180033D01*
X5263743Y-1176782D01*
X5262981Y-1172972D01*
X5263743Y-1169212D01*
X5265826Y-1165961D01*
X5268976Y-1163726D01*
X5283403Y-1157224D01*
X5296357Y-1149400D01*
X5308295Y-1140053D01*
X5319014Y-1129334D01*
X5328412Y-1117346D01*
X5336235Y-1104392D01*
X5342483Y-1090574D01*
X5347004Y-1076045D01*
X5349697Y-1061161D01*
X5350611Y-1046022D01*
X5349697Y-1030833D01*
X5347004Y-1015949D01*
X5342483Y-1001471D01*
X5336235Y-987602D01*
X5328412Y-974648D01*
X5319014Y-962710D01*
X5308295Y-951941D01*
X5296357Y-942594D01*
X5283403Y-934770D01*
X5269534Y-928522D01*
X5255056Y-924001D01*
X5240121Y-921258D01*
X5224678Y-920343D01*
X5175300Y-920343D01*
X5159857Y-921258D01*
X5154168Y-922324D01*
X5150916Y-922375D01*
X5147818Y-921410D01*
X5145125Y-919530D01*
X5068620Y-842975D01*
X5066436Y-839724D01*
X5065674Y-835812D01*
X5065674Y-609854D01*
X5066284Y-606298D01*
X5068112Y-603199D01*
X5070906Y-600964D01*
X5076952Y-597611D01*
X5088686Y-589076D01*
X5099304Y-579170D01*
X5108549Y-567944D01*
X5116322Y-555701D01*
X5122519Y-542544D01*
X5126990Y-528777D01*
X5129733Y-514502D01*
X5130647Y-500024D01*
X5129733Y-485495D01*
X5126990Y-471220D01*
X5122519Y-457454D01*
X5116322Y-444296D01*
X5108549Y-432054D01*
X5099304Y-420827D01*
X5088686Y-410921D01*
X5076952Y-402386D01*
X5064252Y-395376D01*
X5050739Y-390042D01*
X5036667Y-386435D01*
X5022240Y-384606D01*
X5007762Y-384606D01*
X4993335Y-386435D01*
X4979263Y-390042D01*
X4965750Y-395376D01*
X4953050Y-402386D01*
X4941316Y-410921D01*
X4930698Y-420827D01*
X4921453Y-432054D01*
X4913680Y-444296D01*
X4907483Y-457454D01*
X4903012Y-471220D01*
X4900269Y-485495D01*
X4899355Y-500024D01*
X4900269Y-514502D01*
X4903012Y-528777D01*
X4907483Y-542544D01*
X4913680Y-555701D01*
X4921453Y-567944D01*
X4930698Y-579170D01*
X4941316Y-589076D01*
X4953050Y-597611D01*
X4959096Y-600964D01*
X4961890Y-603199D01*
X4963718Y-606298D01*
X4964328Y-609854D01*
X4964328Y-860755D01*
X4964531Y-865428D01*
X4965141Y-869797D01*
X4966106Y-874115D01*
X4967427Y-878332D01*
X4969103Y-882396D01*
X4971135Y-886307D01*
X4973523Y-890066D01*
X4976215Y-893571D01*
X4979365Y-896975D01*
X5060746Y-978357D01*
X5062982Y-981760D01*
X5063693Y-985774D01*
X5062829Y-989736D01*
X5057546Y-1001471D01*
X5053025Y-1015949D01*
X5050282Y-1030833D01*
X5049367Y-1046022D01*
X5050282Y-1061161D01*
X5053025Y-1076045D01*
X5057546Y-1090574D01*
X5063744Y-1104392D01*
X5071618Y-1117346D01*
X5080965Y-1129334D01*
X5091684Y-1140053D01*
X5103622Y-1149400D01*
X5116626Y-1157224D01*
X5131003Y-1163777D01*
X5134152Y-1165961D01*
X5136286Y-1169212D01*
X5136997Y-1173022D01*
X5136286Y-1176832D01*
X5134152Y-1180033D01*
X5131003Y-1182268D01*
X5116626Y-1188770D01*
X5099964Y-1198778D01*
X5096662Y-1199337D01*
X5035854Y-1199337D01*
X5031994Y-1198524D01*
X5028692Y-1196340D01*
X5023612Y-1191310D01*
X5021427Y-1188008D01*
X5020614Y-1184097D01*
X5020614Y-1050340D01*
X5019751Y-1037031D01*
X5017211Y-1024077D01*
X5012994Y-1011631D01*
X5007203Y-999794D01*
X4999888Y-988872D01*
X4990998Y-978712D01*
X4871567Y-859028D01*
X4861458Y-850137D01*
X4850485Y-842822D01*
X4838700Y-836980D01*
X4826254Y-832713D01*
X4813350Y-830122D01*
X4799888Y-829259D01*
X4665929Y-829259D01*
X4662017Y-828446D01*
X4658715Y-826262D01*
X4633722Y-801268D01*
X4631537Y-797966D01*
X4630724Y-794054D01*
X4630724Y-630275D01*
X4629861Y-616762D01*
X4627270Y-603859D01*
X4623054Y-591413D01*
X4617262Y-579628D01*
X4609947Y-568655D01*
X4601006Y-558495D01*
X4271264Y-229006D01*
X4261154Y-220116D01*
X4250182Y-212801D01*
X4238396Y-207010D01*
X4225950Y-202793D01*
X4213047Y-200202D01*
X4199534Y-199339D01*
X2660142Y-199339D01*
X2656281Y-198526D01*
X2652979Y-196342D01*
X2650794Y-193040D01*
X2649982Y-189179D01*
X2649982Y-160172D01*
X2650794Y-156260D01*
X2652979Y-152958D01*
X2656281Y-150774D01*
X2660142Y-150012D01*
X8139836Y-150012D01*
X8143748Y-150774D01*
X8147050Y-152958D01*
X8149234Y-156260D01*
X8149996Y-160172D01*
X8149996Y-1422095D01*
X8148980Y-1426514D01*
X8146186Y-1430020D01*
X8142173Y-1432001D01*
X8137652Y-1432052D01*
X8133588Y-1430121D01*
X8130743Y-1426616D01*
X8127288Y-1419606D01*
X8119973Y-1408633D01*
X8111032Y-1398473D01*
X7721346Y-1009040D01*
X7711236Y-1000150D01*
X7700264Y-992835D01*
X7688478Y-987044D01*
X7676032Y-982827D01*
X7663129Y-980236D01*
X7649616Y-979373D01*
X7517130Y-979373D01*
X7513421Y-978662D01*
X7510272Y-976680D01*
X7505700Y-972464D01*
X7491577Y-961948D01*
X7476388Y-953008D01*
X7460335Y-945743D01*
X7443571Y-940206D01*
X7431481Y-937564D01*
X7428788Y-936548D01*
X7426452Y-934821D01*
X7044232Y-552602D01*
X7042200Y-549706D01*
X7038594Y-541934D01*
X7033006Y-533908D01*
X7026046Y-526999D01*
X7018070Y-521411D01*
X7009180Y-517245D01*
X6999731Y-514756D01*
X6989978Y-513892D01*
X6980275Y-514756D01*
X6970826Y-517245D01*
X6961936Y-521411D01*
X6953910Y-526999D01*
X6947001Y-533908D01*
X6941413Y-541934D01*
X6937248Y-550824D01*
X6934758Y-560273D01*
X6933895Y-569976D01*
X6934758Y-579729D01*
X6937248Y-589178D01*
X6941413Y-598068D01*
X6947001Y-606044D01*
X6953910Y-613003D01*
X6961936Y-618591D01*
X6969709Y-622249D01*
X6972604Y-624230D01*
X7301179Y-952855D01*
X7303516Y-956462D01*
X7304125Y-960780D01*
X7302906Y-964895D01*
X7300061Y-968197D01*
X7294270Y-972464D01*
X7281316Y-984453D01*
X7269734Y-997712D01*
X7259574Y-1012139D01*
X7251039Y-1027582D01*
X7244181Y-1043787D01*
X7239101Y-1060704D01*
X7235799Y-1078026D01*
X7234428Y-1095603D01*
X7234885Y-1113231D01*
X7237222Y-1130706D01*
X7241387Y-1147826D01*
X7247381Y-1164386D01*
X7255103Y-1180287D01*
X7264450Y-1195222D01*
X7275322Y-1209090D01*
X7287666Y-1221689D01*
X7301230Y-1232966D01*
X7315911Y-1242720D01*
X7331557Y-1250848D01*
X7347966Y-1257249D01*
X7364984Y-1261922D01*
X7382408Y-1264716D01*
X7399985Y-1265631D01*
X7417612Y-1264716D01*
X7435037Y-1261922D01*
X7452004Y-1257249D01*
X7468463Y-1250848D01*
X7484109Y-1242720D01*
X7498791Y-1232966D01*
X7512354Y-1221689D01*
X7524648Y-1209090D01*
X7535570Y-1195222D01*
X7541666Y-1185418D01*
X7543952Y-1182878D01*
X7546898Y-1181252D01*
X7550302Y-1180642D01*
X7604099Y-1180642D01*
X7607960Y-1181455D01*
X7611262Y-1183640D01*
X7936484Y-1508658D01*
X7938668Y-1511909D01*
X7939481Y-1515821D01*
X7939481Y-2864104D01*
X7938668Y-2868015D01*
X7936484Y-2871317D01*
X7851343Y-2956306D01*
X7848041Y-2958490D01*
X7844180Y-2959303D01*
G37*

%LPC*%
G36*
X7610348Y-2887167D02*
G01*
X7612380Y-2886252D01*
X7625384Y-2878378D01*
X7637322Y-2869031D01*
X7648041Y-2858312D01*
X7657388Y-2846374D01*
X7665262Y-2833370D01*
X7671714Y-2818841D01*
X7610348Y-2818841D01*
G37*
G36*
X7497673Y-2887167D02*
G01*
X7497673Y-2818841D01*
X7436154Y-2818841D01*
X7442758Y-2833370D01*
X7450581Y-2846374D01*
X7459980Y-2858312D01*
X7470698Y-2869031D01*
X7482636Y-2878378D01*
X7495590Y-2886252D01*
G37*
G36*
X7610348Y-2681173D02*
G01*
X7671714Y-2681173D01*
X7665262Y-2666593D01*
X7657388Y-2653639D01*
X7648041Y-2641701D01*
X7637322Y-2630982D01*
X7625384Y-2621584D01*
X7612380Y-2613761D01*
X7610348Y-2612847D01*
G37*
G36*
X7436154Y-2681173D02*
G01*
X7497673Y-2681173D01*
X7497673Y-2612847D01*
X7495590Y-2613761D01*
X7482636Y-2621584D01*
X7470698Y-2630982D01*
X7459980Y-2641701D01*
X7450581Y-2653639D01*
X7442758Y-2666644D01*
G37*
G36*
X6728663Y-2319578D02*
G01*
X6743344Y-2318207D01*
X6757720Y-2315057D01*
X6771640Y-2310130D01*
X6784797Y-2303576D01*
X6797090Y-2295448D01*
X6808266Y-2285898D01*
X6818172Y-2274976D01*
X6826707Y-2262987D01*
X6833666Y-2249982D01*
X6839000Y-2236266D01*
X6842556Y-2221992D01*
X6844385Y-2207361D01*
X6844385Y-2192629D01*
X6842556Y-2177999D01*
X6839000Y-2163724D01*
X6833666Y-2150008D01*
X6826707Y-2137054D01*
X6818172Y-2125014D01*
X6808266Y-2114143D01*
X6797090Y-2104542D01*
X6784797Y-2096414D01*
X6771640Y-2089861D01*
X6757720Y-2084933D01*
X6743344Y-2081784D01*
X6728663Y-2080463D01*
X6713981Y-2080920D01*
X6699402Y-2083155D01*
X6685229Y-2087168D01*
X6671665Y-2092909D01*
X6658914Y-2100275D01*
X6647180Y-2109165D01*
X6636613Y-2119426D01*
X6627368Y-2130907D01*
X6619595Y-2143404D01*
X6613448Y-2156815D01*
X6608978Y-2170836D01*
X6606286Y-2185314D01*
X6605371Y-2199995D01*
X6606286Y-2214676D01*
X6608978Y-2229154D01*
X6613448Y-2243226D01*
X6619595Y-2256586D01*
X6627368Y-2269134D01*
X6636613Y-2280564D01*
X6647180Y-2290826D01*
X6658914Y-2299716D01*
X6671665Y-2307082D01*
X6685229Y-2312822D01*
X6699402Y-2316835D01*
X6713981Y-2319121D01*
G37*
G36*
X6221323Y-2319578D02*
G01*
X6236055Y-2319121D01*
X6250584Y-2316835D01*
X6264757Y-2312822D01*
X6278321Y-2307082D01*
X6291072Y-2299716D01*
X6302806Y-2290826D01*
X6313373Y-2280564D01*
X6322618Y-2269134D01*
X6330391Y-2256586D01*
X6336538Y-2243226D01*
X6341008Y-2229154D01*
X6343700Y-2214676D01*
X6344615Y-2199995D01*
X6343700Y-2185314D01*
X6341008Y-2170836D01*
X6339230Y-2165197D01*
X6338773Y-2161540D01*
X6339636Y-2157933D01*
X6341719Y-2154936D01*
X6435648Y-2060956D01*
X6438798Y-2057552D01*
X6441490Y-2054047D01*
X6443878Y-2050338D01*
X6445910Y-2046376D01*
X6447586Y-2042312D01*
X6448907Y-2038096D01*
X6449872Y-2033778D01*
X6450431Y-2029409D01*
X6450634Y-2024786D01*
X6450634Y-1939645D01*
X6451244Y-1936242D01*
X6452920Y-1933244D01*
X6455511Y-1930958D01*
X6469126Y-1922627D01*
X6480606Y-1913382D01*
X6490817Y-1902815D01*
X6499707Y-1891080D01*
X6507073Y-1878330D01*
X6512814Y-1864766D01*
X6516827Y-1850593D01*
X6519113Y-1836013D01*
X6519570Y-1821332D01*
X6518198Y-1806651D01*
X6515049Y-1792274D01*
X6510172Y-1778355D01*
X6503568Y-1765198D01*
X6495440Y-1752904D01*
X6485890Y-1741728D01*
X6474968Y-1731822D01*
X6462979Y-1723288D01*
X6449974Y-1716328D01*
X6436258Y-1710994D01*
X6421983Y-1707438D01*
X6407353Y-1705610D01*
X6392621Y-1705610D01*
X6378041Y-1707438D01*
X6363716Y-1710994D01*
X6350000Y-1716328D01*
X6337046Y-1723288D01*
X6325006Y-1731822D01*
X6314135Y-1741728D01*
X6304534Y-1752904D01*
X6296406Y-1765198D01*
X6294678Y-1768703D01*
X6292392Y-1771700D01*
X6289243Y-1773631D01*
X6285585Y-1774342D01*
X6246164Y-1774342D01*
X6242304Y-1773580D01*
X6239002Y-1771345D01*
X6103620Y-1636014D01*
X6101435Y-1632712D01*
X6100673Y-1628800D01*
X6100673Y-1454556D01*
X6099962Y-1448308D01*
X6098032Y-1442872D01*
X6094984Y-1438046D01*
X6090970Y-1433982D01*
X6086094Y-1430934D01*
X6080709Y-1429054D01*
X6074410Y-1428343D01*
X6041542Y-1428343D01*
X6037275Y-1427429D01*
X6033820Y-1424787D01*
X6031738Y-1420926D01*
X6031534Y-1416558D01*
X6033109Y-1412494D01*
X6036310Y-1409496D01*
X6046368Y-1403400D01*
X6058306Y-1394053D01*
X6069025Y-1383334D01*
X6078372Y-1371346D01*
X6086246Y-1358392D01*
X6092494Y-1344574D01*
X6096965Y-1330045D01*
X6099708Y-1315161D01*
X6100622Y-1300022D01*
X6099708Y-1284833D01*
X6096965Y-1269949D01*
X6092494Y-1255471D01*
X6086246Y-1241602D01*
X6078372Y-1228648D01*
X6069025Y-1216710D01*
X6058306Y-1205941D01*
X6046368Y-1196594D01*
X6033363Y-1188770D01*
X6018987Y-1182268D01*
X6015837Y-1180033D01*
X6013907Y-1177036D01*
X6013094Y-1177645D01*
X6009436Y-1178610D01*
X6005068Y-1178001D01*
X5990132Y-1175258D01*
X5974689Y-1174343D01*
X5925312Y-1174343D01*
X5909868Y-1175258D01*
X5894324Y-1178204D01*
X5890564Y-1178610D01*
X5886907Y-1177645D01*
X5886094Y-1177086D01*
X5884164Y-1180033D01*
X5881014Y-1182268D01*
X5866638Y-1188770D01*
X5853633Y-1196594D01*
X5841695Y-1205941D01*
X5830976Y-1216710D01*
X5821629Y-1228648D01*
X5813755Y-1241602D01*
X5807506Y-1255471D01*
X5803036Y-1269949D01*
X5800293Y-1284833D01*
X5799378Y-1300022D01*
X5800293Y-1315161D01*
X5803036Y-1330045D01*
X5807506Y-1344574D01*
X5813755Y-1358392D01*
X5821629Y-1371346D01*
X5830976Y-1383334D01*
X5841695Y-1394053D01*
X5853633Y-1403400D01*
X5863691Y-1409496D01*
X5866892Y-1412494D01*
X5868466Y-1416558D01*
X5868263Y-1420926D01*
X5866180Y-1424787D01*
X5862726Y-1427429D01*
X5858459Y-1428343D01*
X5825591Y-1428343D01*
X5819292Y-1429054D01*
X5813907Y-1430934D01*
X5809030Y-1433982D01*
X5805017Y-1438046D01*
X5801969Y-1442872D01*
X5800039Y-1448308D01*
X5799328Y-1454556D01*
X5799328Y-1653438D01*
X5800039Y-1659686D01*
X5801969Y-1665122D01*
X5805017Y-1669948D01*
X5809030Y-1674012D01*
X5813907Y-1677060D01*
X5819292Y-1678939D01*
X5825591Y-1679651D01*
X5999835Y-1679651D01*
X6003696Y-1680413D01*
X6006998Y-1682648D01*
X6185001Y-1860651D01*
X6188456Y-1863801D01*
X6191961Y-1866493D01*
X6195669Y-1868830D01*
X6199581Y-1870913D01*
X6203696Y-1872589D01*
X6207861Y-1873910D01*
X6212179Y-1874875D01*
X6216599Y-1875434D01*
X6221222Y-1875637D01*
X6285534Y-1875637D01*
X6288989Y-1876247D01*
X6292037Y-1878025D01*
X6294323Y-1880717D01*
X6300266Y-1891080D01*
X6309156Y-1902815D01*
X6319418Y-1913382D01*
X6330848Y-1922627D01*
X6344513Y-1930958D01*
X6347104Y-1933244D01*
X6348780Y-1936242D01*
X6349339Y-1939645D01*
X6349339Y-1999792D01*
X6348577Y-2003704D01*
X6346393Y-2007006D01*
X6270091Y-2083257D01*
X6267145Y-2085339D01*
X6263690Y-2086203D01*
X6260134Y-2085848D01*
X6250584Y-2083155D01*
X6236055Y-2080920D01*
X6221323Y-2080463D01*
X6206642Y-2081784D01*
X6192266Y-2084933D01*
X6178397Y-2089861D01*
X6165189Y-2096414D01*
X6152896Y-2104542D01*
X6141720Y-2114143D01*
X6131814Y-2125014D01*
X6123279Y-2137054D01*
X6116320Y-2150008D01*
X6111036Y-2163724D01*
X6107430Y-2177999D01*
X6105601Y-2192629D01*
X6105601Y-2207361D01*
X6107430Y-2221992D01*
X6111036Y-2236266D01*
X6116320Y-2249982D01*
X6123279Y-2262987D01*
X6131814Y-2274976D01*
X6141720Y-2285898D01*
X6152896Y-2295448D01*
X6165189Y-2303576D01*
X6178397Y-2310130D01*
X6192266Y-2315057D01*
X6206642Y-2318207D01*
G37*
G36*
X7721650Y-2307082D02*
G01*
X7721650Y-2253335D01*
X7668107Y-2253335D01*
X7669631Y-2256586D01*
X7677353Y-2269134D01*
X7686598Y-2280564D01*
X7697165Y-2290826D01*
X7708950Y-2299716D01*
G37*
G36*
X7828330Y-2306828D02*
G01*
X7834833Y-2303576D01*
X7847075Y-2295448D01*
X7858252Y-2285898D01*
X7868208Y-2274976D01*
X7876692Y-2262987D01*
X7881874Y-2253335D01*
X7828330Y-2253335D01*
G37*
G36*
X7828330Y-2146655D02*
G01*
X7881874Y-2146655D01*
X7876692Y-2137054D01*
X7868208Y-2125014D01*
X7858252Y-2114143D01*
X7847075Y-2104542D01*
X7834833Y-2096414D01*
X7828330Y-2093214D01*
G37*
G36*
X7668107Y-2146655D02*
G01*
X7721650Y-2146655D01*
X7721650Y-2092960D01*
X7708950Y-2100275D01*
X7697165Y-2109165D01*
X7686598Y-2119426D01*
X7677353Y-2130907D01*
X7669631Y-2143404D01*
G37*
G36*
X7399985Y-1765655D02*
G01*
X7417612Y-1764690D01*
X7435037Y-1761896D01*
X7452004Y-1757273D01*
X7468463Y-1750822D01*
X7484109Y-1742693D01*
X7498791Y-1732940D01*
X7512354Y-1721713D01*
X7524648Y-1709064D01*
X7535570Y-1695196D01*
X7544917Y-1680260D01*
X7552588Y-1664411D01*
X7558582Y-1647799D01*
X7562799Y-1630680D01*
X7565136Y-1613204D01*
X7565593Y-1595577D01*
X7564170Y-1578000D01*
X7560919Y-1560677D01*
X7555839Y-1543812D01*
X7548981Y-1527556D01*
X7540447Y-1512163D01*
X7530287Y-1497685D01*
X7518653Y-1484426D01*
X7505700Y-1472488D01*
X7491577Y-1461973D01*
X7476388Y-1453032D01*
X7460335Y-1445717D01*
X7443571Y-1440180D01*
X7426350Y-1436471D01*
X7408824Y-1434592D01*
X7391196Y-1434592D01*
X7373670Y-1436471D01*
X7356398Y-1440180D01*
X7339685Y-1445717D01*
X7323632Y-1453032D01*
X7308443Y-1461973D01*
X7294270Y-1472488D01*
X7281316Y-1484426D01*
X7269734Y-1497685D01*
X7259574Y-1512163D01*
X7251039Y-1527556D01*
X7244181Y-1543812D01*
X7239101Y-1560677D01*
X7235799Y-1578000D01*
X7234428Y-1595577D01*
X7234885Y-1613204D01*
X7237222Y-1630680D01*
X7241387Y-1647799D01*
X7247381Y-1664411D01*
X7255103Y-1680260D01*
X7264450Y-1695196D01*
X7275322Y-1709064D01*
X7287666Y-1721713D01*
X7301230Y-1732940D01*
X7315911Y-1742693D01*
X7331557Y-1750822D01*
X7347966Y-1757273D01*
X7364984Y-1761896D01*
X7382408Y-1764690D01*
G37*
G36*
X7139990Y-1706118D02*
G01*
X7149744Y-1705254D01*
X7159193Y-1702714D01*
X7168032Y-1698599D01*
X7176058Y-1693011D01*
X7182967Y-1686052D01*
X7188606Y-1678076D01*
X7192721Y-1669186D01*
X7195261Y-1659737D01*
X7196124Y-1649984D01*
X7195261Y-1640230D01*
X7192721Y-1630781D01*
X7191603Y-1628394D01*
X7190638Y-1624076D01*
X7190638Y-1380439D01*
X7190435Y-1375816D01*
X7189876Y-1371447D01*
X7188911Y-1367129D01*
X7187590Y-1362913D01*
X7185914Y-1358798D01*
X7183881Y-1354886D01*
X7181494Y-1351178D01*
X7178802Y-1347673D01*
X7175652Y-1344218D01*
X6815734Y-984351D01*
X6812330Y-981202D01*
X6808825Y-978509D01*
X6805117Y-976121D01*
X6801205Y-974090D01*
X6797090Y-972413D01*
X6792874Y-971092D01*
X6788556Y-970127D01*
X6784187Y-969568D01*
X6779564Y-969365D01*
X6595872Y-969365D01*
X6591604Y-968400D01*
X6589166Y-967282D01*
X6579717Y-964742D01*
X6570014Y-963879D01*
X6560261Y-964742D01*
X6550812Y-967282D01*
X6541922Y-971397D01*
X6533946Y-977036D01*
X6526987Y-983945D01*
X6521399Y-991920D01*
X6517284Y-1000810D01*
X6514744Y-1010259D01*
X6513880Y-1020013D01*
X6514744Y-1029766D01*
X6517284Y-1039215D01*
X6521399Y-1048054D01*
X6526987Y-1056081D01*
X6533946Y-1062990D01*
X6541922Y-1068578D01*
X6550812Y-1072743D01*
X6560261Y-1075283D01*
X6570014Y-1076096D01*
X6579717Y-1075283D01*
X6589166Y-1072743D01*
X6591604Y-1071626D01*
X6595872Y-1070660D01*
X6754571Y-1070660D01*
X6758482Y-1071422D01*
X6761784Y-1073607D01*
X7086346Y-1398219D01*
X7088581Y-1401521D01*
X7089343Y-1405432D01*
X7089343Y-1624076D01*
X7088378Y-1628394D01*
X7087260Y-1630781D01*
X7084720Y-1640230D01*
X7083907Y-1649984D01*
X7084720Y-1659737D01*
X7087260Y-1669186D01*
X7091425Y-1678076D01*
X7097014Y-1686052D01*
X7103922Y-1693011D01*
X7111949Y-1698599D01*
X7120788Y-1702714D01*
X7130237Y-1705254D01*
G37*
G36*
X6018834Y-1163828D02*
G01*
X6033363Y-1157224D01*
X6046368Y-1149400D01*
X6058306Y-1140053D01*
X6069025Y-1129334D01*
X6078372Y-1117346D01*
X6086246Y-1104392D01*
X6087160Y-1102360D01*
X6018834Y-1102360D01*
G37*
G36*
X5881166Y-1163828D02*
G01*
X5881166Y-1102360D01*
X5812840Y-1102360D01*
X5813755Y-1104392D01*
X5821629Y-1117346D01*
X5830976Y-1129334D01*
X5841695Y-1140053D01*
X5853633Y-1149400D01*
X5866638Y-1157224D01*
G37*
G36*
X5812840Y-989634D02*
G01*
X5881166Y-989634D01*
X5881166Y-928319D01*
X5866638Y-934770D01*
X5853633Y-942594D01*
X5841695Y-951941D01*
X5830976Y-962710D01*
X5821629Y-974648D01*
X5813755Y-987602D01*
G37*
G36*
X6018834Y-989634D02*
G01*
X6087160Y-989634D01*
X6086246Y-987602D01*
X6078372Y-974648D01*
X6069025Y-962710D01*
X6058306Y-951941D01*
X6046368Y-942594D01*
X6033363Y-934770D01*
X6018834Y-928319D01*
G37*
G36*
X6453327Y-881887D02*
G01*
X6456578Y-880364D01*
X6469126Y-872642D01*
X6480606Y-863396D01*
X6490817Y-852830D01*
X6499707Y-841095D01*
X6507073Y-828344D01*
X6453327Y-828344D01*
G37*
G36*
X6346647Y-881887D02*
G01*
X6346647Y-828344D01*
X6292951Y-828344D01*
X6300266Y-841095D01*
X6309156Y-852830D01*
X6319418Y-863396D01*
X6330899Y-872642D01*
X6343396Y-880364D01*
G37*
G36*
X7399985Y-765657D02*
G01*
X7417612Y-764692D01*
X7435037Y-761898D01*
X7452004Y-757275D01*
X7468463Y-750824D01*
X7484109Y-742696D01*
X7498791Y-732942D01*
X7512354Y-721715D01*
X7524648Y-709066D01*
X7535570Y-695198D01*
X7544917Y-680262D01*
X7552588Y-664413D01*
X7558582Y-647801D01*
X7562799Y-630682D01*
X7565136Y-613206D01*
X7565593Y-595579D01*
X7564170Y-578002D01*
X7560919Y-560679D01*
X7555839Y-543814D01*
X7548981Y-527558D01*
X7540447Y-512165D01*
X7530287Y-497687D01*
X7518653Y-484428D01*
X7505700Y-472490D01*
X7491577Y-461975D01*
X7476388Y-453034D01*
X7460335Y-445719D01*
X7443571Y-440182D01*
X7426350Y-436473D01*
X7408824Y-434593D01*
X7391196Y-434593D01*
X7373670Y-436473D01*
X7356398Y-440182D01*
X7339685Y-445719D01*
X7323632Y-453034D01*
X7308443Y-461975D01*
X7294270Y-472490D01*
X7281316Y-484428D01*
X7269734Y-497687D01*
X7259574Y-512165D01*
X7251039Y-527558D01*
X7244181Y-543814D01*
X7239101Y-560679D01*
X7235799Y-578002D01*
X7234428Y-595579D01*
X7234885Y-613206D01*
X7237222Y-630682D01*
X7241387Y-647801D01*
X7247381Y-664413D01*
X7255103Y-680262D01*
X7264450Y-695198D01*
X7275322Y-709066D01*
X7287666Y-721715D01*
X7301230Y-732942D01*
X7315911Y-742696D01*
X7331557Y-750824D01*
X7347966Y-757275D01*
X7364984Y-761898D01*
X7382408Y-764692D01*
G37*
G36*
X6453327Y-721664D02*
G01*
X6506819Y-721664D01*
X6503568Y-715213D01*
X6495440Y-702919D01*
X6485890Y-691743D01*
X6474968Y-681786D01*
X6462979Y-673303D01*
X6453327Y-668121D01*
G37*
G36*
X6293205Y-721664D02*
G01*
X6346647Y-721664D01*
X6346647Y-668121D01*
X6337046Y-673303D01*
X6325006Y-681786D01*
X6314135Y-691743D01*
X6304534Y-702919D01*
X6296406Y-715213D01*
G37*
G36*
X4671568Y-615645D02*
G01*
X4850434Y-615645D01*
X4856683Y-614934D01*
X4862118Y-613054D01*
X4866944Y-610006D01*
X4871008Y-605942D01*
X4874056Y-601116D01*
X4875936Y-595680D01*
X4876647Y-589432D01*
X4876647Y-410565D01*
X4875936Y-404317D01*
X4874056Y-398881D01*
X4871008Y-394055D01*
X4866944Y-389991D01*
X4862118Y-386943D01*
X4856683Y-385064D01*
X4850434Y-384352D01*
X4671568Y-384352D01*
X4665319Y-385064D01*
X4659884Y-386943D01*
X4655058Y-389991D01*
X4650994Y-394055D01*
X4647946Y-398881D01*
X4646066Y-404317D01*
X4645355Y-410565D01*
X4645355Y-589432D01*
X4646066Y-595680D01*
X4647946Y-601116D01*
X4650994Y-605942D01*
X4655058Y-610006D01*
X4659884Y-613054D01*
X4665319Y-614934D01*
G37*
G36*
X6023762Y-615391D02*
G01*
X6038240Y-615391D01*
X6052667Y-613562D01*
X6066739Y-609955D01*
X6080252Y-604621D01*
X6092952Y-597611D01*
X6104686Y-589076D01*
X6115304Y-579170D01*
X6124549Y-567944D01*
X6132322Y-555701D01*
X6138519Y-542544D01*
X6142990Y-528777D01*
X6145733Y-514502D01*
X6146647Y-500024D01*
X6145733Y-485495D01*
X6142990Y-471220D01*
X6138519Y-457454D01*
X6132322Y-444296D01*
X6124549Y-432054D01*
X6115304Y-420827D01*
X6104686Y-410921D01*
X6092952Y-402386D01*
X6080252Y-395376D01*
X6066739Y-390042D01*
X6052667Y-386435D01*
X6038240Y-384606D01*
X6023762Y-384606D01*
X6009335Y-386435D01*
X5995263Y-390042D01*
X5981750Y-395376D01*
X5969050Y-402386D01*
X5957316Y-410921D01*
X5946698Y-420827D01*
X5937453Y-432054D01*
X5929680Y-444296D01*
X5923483Y-457454D01*
X5919012Y-471220D01*
X5916269Y-485495D01*
X5915355Y-500024D01*
X5916269Y-514502D01*
X5919012Y-528777D01*
X5923483Y-542544D01*
X5929680Y-555701D01*
X5937453Y-567944D01*
X5946698Y-579170D01*
X5957316Y-589076D01*
X5969050Y-597611D01*
X5981750Y-604621D01*
X5995263Y-609955D01*
X6009335Y-613562D01*
G37*
G36*
X6277762Y-615391D02*
G01*
X6292240Y-615391D01*
X6306667Y-613562D01*
X6320739Y-609955D01*
X6334252Y-604621D01*
X6346952Y-597611D01*
X6358686Y-589076D01*
X6369304Y-579170D01*
X6378549Y-567944D01*
X6386322Y-555701D01*
X6392519Y-542544D01*
X6396990Y-528777D01*
X6399733Y-514502D01*
X6400647Y-500024D01*
X6399733Y-485495D01*
X6396990Y-471220D01*
X6392519Y-457454D01*
X6386322Y-444296D01*
X6378549Y-432054D01*
X6369304Y-420827D01*
X6358686Y-410921D01*
X6346952Y-402386D01*
X6334252Y-395376D01*
X6320739Y-390042D01*
X6306667Y-386435D01*
X6292240Y-384606D01*
X6277762Y-384606D01*
X6263335Y-386435D01*
X6249263Y-390042D01*
X6235750Y-395376D01*
X6223050Y-402386D01*
X6211316Y-410921D01*
X6200698Y-420827D01*
X6191453Y-432054D01*
X6183680Y-444296D01*
X6177483Y-457454D01*
X6173012Y-471220D01*
X6170269Y-485495D01*
X6169355Y-500024D01*
X6170269Y-514502D01*
X6173012Y-528777D01*
X6177483Y-542544D01*
X6183680Y-555701D01*
X6191453Y-567944D01*
X6200698Y-579170D01*
X6211316Y-589076D01*
X6223050Y-597611D01*
X6235750Y-604621D01*
X6249263Y-609955D01*
X6263335Y-613562D01*
G37*
G36*
X5769762Y-615391D02*
G01*
X5784240Y-615391D01*
X5798667Y-613562D01*
X5812739Y-609955D01*
X5826252Y-604621D01*
X5838952Y-597611D01*
X5850686Y-589076D01*
X5861304Y-579170D01*
X5870549Y-567944D01*
X5878322Y-555701D01*
X5884519Y-542544D01*
X5888990Y-528777D01*
X5891733Y-514502D01*
X5892647Y-500024D01*
X5891733Y-485495D01*
X5888990Y-471220D01*
X5884519Y-457454D01*
X5878322Y-444296D01*
X5870549Y-432054D01*
X5861304Y-420827D01*
X5850686Y-410921D01*
X5838952Y-402386D01*
X5826252Y-395376D01*
X5812739Y-390042D01*
X5798667Y-386435D01*
X5784240Y-384606D01*
X5769762Y-384606D01*
X5755335Y-386435D01*
X5741263Y-390042D01*
X5727750Y-395376D01*
X5715050Y-402386D01*
X5703316Y-410921D01*
X5692698Y-420827D01*
X5683453Y-432054D01*
X5675680Y-444296D01*
X5669483Y-457454D01*
X5665012Y-471220D01*
X5662269Y-485495D01*
X5661355Y-500024D01*
X5662269Y-514502D01*
X5665012Y-528777D01*
X5669483Y-542544D01*
X5675680Y-555701D01*
X5683453Y-567944D01*
X5692698Y-579170D01*
X5703316Y-589076D01*
X5715050Y-597611D01*
X5727750Y-604621D01*
X5741263Y-609955D01*
X5755335Y-613562D01*
G37*
G36*
X5261762Y-615391D02*
G01*
X5276240Y-615391D01*
X5290667Y-613562D01*
X5304739Y-609955D01*
X5318252Y-604621D01*
X5330952Y-597611D01*
X5342686Y-589076D01*
X5353304Y-579170D01*
X5362549Y-567944D01*
X5370322Y-555701D01*
X5376519Y-542544D01*
X5380990Y-528777D01*
X5383733Y-514502D01*
X5384647Y-500024D01*
X5383733Y-485495D01*
X5380990Y-471220D01*
X5376519Y-457454D01*
X5370322Y-444296D01*
X5362549Y-432054D01*
X5353304Y-420827D01*
X5342686Y-410921D01*
X5330952Y-402386D01*
X5318252Y-395376D01*
X5304739Y-390042D01*
X5290667Y-386435D01*
X5276240Y-384606D01*
X5261762Y-384606D01*
X5247335Y-386435D01*
X5233263Y-390042D01*
X5219750Y-395376D01*
X5207050Y-402386D01*
X5195316Y-410921D01*
X5184698Y-420827D01*
X5175453Y-432054D01*
X5167680Y-444296D01*
X5161483Y-457454D01*
X5157012Y-471220D01*
X5154269Y-485495D01*
X5153355Y-500024D01*
X5154269Y-514502D01*
X5157012Y-528777D01*
X5161483Y-542544D01*
X5167680Y-555701D01*
X5175453Y-567944D01*
X5184698Y-579170D01*
X5195316Y-589076D01*
X5207050Y-597611D01*
X5219750Y-604621D01*
X5233263Y-609955D01*
X5247335Y-613562D01*
G37*
G36*
X6487668Y-603453D02*
G01*
X6487668Y-551332D01*
X6435598Y-551332D01*
X6437680Y-555701D01*
X6445453Y-567944D01*
X6454698Y-579170D01*
X6465316Y-589076D01*
X6477050Y-597611D01*
G37*
G36*
X5574334Y-603453D02*
G01*
X5584952Y-597611D01*
X5596686Y-589076D01*
X5607304Y-579170D01*
X5616549Y-567944D01*
X5624322Y-555701D01*
X5626404Y-551332D01*
X5574334Y-551332D01*
G37*
G36*
X5471668Y-603453D02*
G01*
X5471668Y-551332D01*
X5419598Y-551332D01*
X5421680Y-555701D01*
X5429453Y-567944D01*
X5438698Y-579170D01*
X5449316Y-589076D01*
X5461050Y-597611D01*
G37*
G36*
X6590334Y-603453D02*
G01*
X6600952Y-597611D01*
X6612686Y-589076D01*
X6623303Y-579170D01*
X6632549Y-567944D01*
X6640322Y-555701D01*
X6642404Y-551332D01*
X6590334Y-551332D01*
G37*
G36*
X5574334Y-448665D02*
G01*
X5626404Y-448665D01*
X5624322Y-444296D01*
X5616549Y-432054D01*
X5607304Y-420827D01*
X5596686Y-410921D01*
X5584952Y-402386D01*
X5574334Y-396544D01*
G37*
G36*
X6590334Y-448665D02*
G01*
X6642404Y-448665D01*
X6640322Y-444296D01*
X6632549Y-432054D01*
X6623303Y-420827D01*
X6612686Y-410921D01*
X6600952Y-402386D01*
X6590334Y-396544D01*
G37*
G36*
X6435598Y-448665D02*
G01*
X6487668Y-448665D01*
X6487668Y-396544D01*
X6477050Y-402386D01*
X6465316Y-410921D01*
X6454698Y-420827D01*
X6445453Y-432054D01*
X6437680Y-444296D01*
G37*
G36*
X5419598Y-448665D02*
G01*
X5471668Y-448665D01*
X5471668Y-396544D01*
X5461050Y-402386D01*
X5449316Y-410921D01*
X5438698Y-420827D01*
X5429453Y-432054D01*
X5421680Y-444296D01*
G37*

%LPD*%
G36*
X7346848Y-3500018D02*
G01*
X7342987Y-3499205D01*
X7339685Y-3497021D01*
X7337501Y-3493719D01*
X7336688Y-3489858D01*
X7337501Y-3485946D01*
X7339685Y-3482644D01*
X7358735Y-3463645D01*
X7361986Y-3461410D01*
X7365898Y-3460648D01*
X7529677Y-3460648D01*
X7543139Y-3459784D01*
X7556042Y-3457194D01*
X7568488Y-3452977D01*
X7580325Y-3447135D01*
X7591247Y-3439820D01*
X7601407Y-3430930D01*
X7658709Y-3373628D01*
X7662011Y-3371443D01*
X7665923Y-3370630D01*
X8069681Y-3370630D01*
X8083143Y-3369767D01*
X8096046Y-3367176D01*
X8108492Y-3362960D01*
X8120329Y-3357168D01*
X8131251Y-3349853D01*
X8133130Y-3348177D01*
X8136483Y-3346246D01*
X8140293Y-3345687D01*
X8144052Y-3346551D01*
X8147202Y-3348786D01*
X8149285Y-3352037D01*
X8149996Y-3355797D01*
X8149996Y-3489858D01*
X8149234Y-3493719D01*
X8147050Y-3497021D01*
X8143748Y-3499205D01*
X8139836Y-3500018D01*
G37*

%LPD*%
G36*
X2660142Y-3500018D02*
G01*
X2656281Y-3499205D01*
X2652979Y-3497021D01*
X2650794Y-3493719D01*
X2649982Y-3489858D01*
X2649982Y-1631848D01*
X2650845Y-1627784D01*
X2653182Y-1624431D01*
X2656738Y-1622298D01*
X2660802Y-1621688D01*
X2664764Y-1622755D01*
X2667965Y-1625346D01*
X2670505Y-1628394D01*
X2680970Y-1638249D01*
X2692654Y-1646682D01*
X2703220Y-1652524D01*
X2703220Y-1600809D01*
X2660142Y-1600809D01*
X2656281Y-1600047D01*
X2652979Y-1597812D01*
X2650794Y-1594510D01*
X2649982Y-1590649D01*
X2649982Y-1509369D01*
X2650794Y-1505458D01*
X2652979Y-1502156D01*
X2656281Y-1499971D01*
X2660142Y-1499209D01*
X2703220Y-1499209D01*
X2703220Y-1447495D01*
X2692654Y-1453286D01*
X2680970Y-1461770D01*
X2670505Y-1471574D01*
X2667965Y-1474622D01*
X2664764Y-1477213D01*
X2660802Y-1478330D01*
X2656738Y-1477721D01*
X2653182Y-1475587D01*
X2650845Y-1472184D01*
X2649982Y-1468170D01*
X2649982Y-660806D01*
X2650794Y-656945D01*
X2652979Y-653643D01*
X2656281Y-651408D01*
X2660142Y-650646D01*
X2954883Y-650646D01*
X2958236Y-651205D01*
X2961182Y-652830D01*
X2963468Y-655370D01*
X2971444Y-667969D01*
X2980690Y-679145D01*
X2991307Y-689102D01*
X3003042Y-697636D01*
X3015742Y-704646D01*
X3029254Y-709980D01*
X3043326Y-713587D01*
X3058210Y-715416D01*
X3062071Y-716178D01*
X3065373Y-718362D01*
X3067558Y-721664D01*
X3068370Y-725576D01*
X3068370Y-908202D01*
X3067558Y-912063D01*
X3065373Y-915365D01*
X3062071Y-917549D01*
X3058210Y-918362D01*
X3044596Y-918362D01*
X3038297Y-919073D01*
X3032912Y-920953D01*
X3028035Y-924001D01*
X3023971Y-928065D01*
X3020923Y-932891D01*
X3019044Y-938326D01*
X3018332Y-944575D01*
X3018332Y-1093419D01*
X3019044Y-1099718D01*
X3020923Y-1105103D01*
X3023971Y-1109980D01*
X3028035Y-1113993D01*
X3032912Y-1117041D01*
X3038297Y-1118971D01*
X3044596Y-1119632D01*
X3193440Y-1119632D01*
X3199688Y-1118971D01*
X3205124Y-1117041D01*
X3209950Y-1113993D01*
X3214014Y-1109980D01*
X3217062Y-1105103D01*
X3218942Y-1099718D01*
X3219653Y-1093419D01*
X3219653Y-944575D01*
X3218942Y-938326D01*
X3217062Y-932891D01*
X3214014Y-928065D01*
X3209950Y-924001D01*
X3205124Y-920953D01*
X3199688Y-919073D01*
X3193440Y-918362D01*
X3179826Y-918362D01*
X3175914Y-917549D01*
X3172612Y-915365D01*
X3170428Y-912063D01*
X3169666Y-908202D01*
X3169564Y-649630D01*
X3170377Y-647039D01*
X3172510Y-642569D01*
X3176981Y-628751D01*
X3179724Y-614476D01*
X3180638Y-599998D01*
X3179724Y-585520D01*
X3176981Y-571246D01*
X3172510Y-557428D01*
X3166313Y-544271D01*
X3158540Y-532028D01*
X3149295Y-520852D01*
X3138678Y-510895D01*
X3126943Y-502361D01*
X3114243Y-495350D01*
X3100730Y-490016D01*
X3086658Y-486409D01*
X3072231Y-484581D01*
X3057753Y-484581D01*
X3043326Y-486409D01*
X3029254Y-490016D01*
X3015742Y-495350D01*
X3003042Y-502361D01*
X2991307Y-510895D01*
X2980690Y-520852D01*
X2971444Y-532028D01*
X2963468Y-544626D01*
X2961182Y-547166D01*
X2958236Y-548792D01*
X2954883Y-549351D01*
X2660142Y-549351D01*
X2656281Y-548589D01*
X2652979Y-546354D01*
X2650794Y-543052D01*
X2649982Y-539191D01*
X2649982Y-410768D01*
X2650794Y-406908D01*
X2652979Y-403606D01*
X2656281Y-401421D01*
X2660142Y-400608D01*
X4154017Y-400608D01*
X4157878Y-401421D01*
X4161180Y-403606D01*
X4333392Y-575665D01*
X4335729Y-579272D01*
X4336338Y-583539D01*
X4335119Y-587705D01*
X4332274Y-590956D01*
X4328363Y-592785D01*
X4324045Y-592785D01*
X4312208Y-590194D01*
X4300016Y-589330D01*
X4287824Y-590194D01*
X4275886Y-592785D01*
X4264406Y-597052D01*
X4253687Y-602894D01*
X4243933Y-610209D01*
X4235297Y-618845D01*
X4232046Y-622401D01*
X4229252Y-623824D01*
X4226153Y-624281D01*
X4059936Y-624281D01*
X4055872Y-623468D01*
X4052519Y-621080D01*
X4050385Y-617575D01*
X4049776Y-613511D01*
X4050639Y-599998D01*
X4049725Y-585520D01*
X4046982Y-571246D01*
X4042511Y-557428D01*
X4036314Y-544271D01*
X4028541Y-532028D01*
X4019296Y-520852D01*
X4008729Y-510895D01*
X3996944Y-502361D01*
X3984244Y-495350D01*
X3970731Y-490016D01*
X3956659Y-486409D01*
X3942283Y-484581D01*
X3927754Y-484581D01*
X3913327Y-486409D01*
X3899255Y-490016D01*
X3885793Y-495350D01*
X3873042Y-502361D01*
X3861308Y-510895D01*
X3850690Y-520852D01*
X3841445Y-532028D01*
X3833672Y-544271D01*
X3827475Y-557428D01*
X3823004Y-571246D01*
X3820261Y-585520D01*
X3819347Y-599998D01*
X3820261Y-614476D01*
X3823004Y-628751D01*
X3827475Y-642569D01*
X3833672Y-655726D01*
X3841445Y-667969D01*
X3850690Y-679145D01*
X3861308Y-689102D01*
X3873042Y-697636D01*
X3879087Y-700938D01*
X3881882Y-703224D01*
X3883710Y-706323D01*
X3884371Y-709879D01*
X3884371Y-908558D01*
X3883660Y-912215D01*
X3881729Y-915365D01*
X3878783Y-917651D01*
X3875227Y-918667D01*
X3864254Y-919784D01*
X3851198Y-922883D01*
X3838651Y-927709D01*
X3826865Y-934161D01*
X3816045Y-942136D01*
X3806342Y-951484D01*
X3798011Y-962050D01*
X3791204Y-973632D01*
X3785920Y-985977D01*
X3782364Y-998931D01*
X3780586Y-1012291D01*
X3780586Y-1025702D01*
X3782364Y-1039063D01*
X3785920Y-1052017D01*
X3791204Y-1064361D01*
X3798011Y-1075944D01*
X3806342Y-1086510D01*
X3816045Y-1095857D01*
X3826865Y-1103833D01*
X3838651Y-1110284D01*
X3851198Y-1115110D01*
X3864254Y-1118209D01*
X3877614Y-1119581D01*
X3891076Y-1119124D01*
X3904335Y-1116888D01*
X3917187Y-1112926D01*
X3929379Y-1107236D01*
X3940708Y-1100023D01*
X3950970Y-1091336D01*
X3959961Y-1081379D01*
X3967581Y-1070305D01*
X3973626Y-1058265D01*
X3978046Y-1045565D01*
X3980738Y-1032408D01*
X3981653Y-1018997D01*
X3980738Y-1005586D01*
X3978656Y-995375D01*
X3978605Y-991768D01*
X3979773Y-988364D01*
X3982567Y-982319D01*
X3983939Y-978103D01*
X3984853Y-973785D01*
X3985463Y-969416D01*
X3985666Y-964793D01*
X3985666Y-733958D01*
X3986326Y-730351D01*
X3988206Y-727252D01*
X3991051Y-724966D01*
X3994556Y-723900D01*
X3998214Y-724103D01*
X4001262Y-724814D01*
X4005529Y-725373D01*
X4010151Y-725576D01*
X4226153Y-725576D01*
X4229252Y-726084D01*
X4232046Y-727456D01*
X4235297Y-731012D01*
X4243933Y-739648D01*
X4246880Y-741883D01*
X4249420Y-744626D01*
X4250791Y-748131D01*
X4250791Y-751890D01*
X4249420Y-755345D01*
X4246880Y-758139D01*
X4243933Y-760323D01*
X4235297Y-768959D01*
X4227982Y-778764D01*
X4222089Y-789482D01*
X4217822Y-800912D01*
X4215231Y-812850D01*
X4214368Y-825042D01*
X4215231Y-837234D01*
X4217822Y-849172D01*
X4222089Y-860602D01*
X4227982Y-871372D01*
X4238548Y-885494D01*
X4239361Y-889406D01*
X4239361Y-929792D01*
X4239564Y-934415D01*
X4240123Y-938784D01*
X4241088Y-943102D01*
X4242409Y-947318D01*
X4244086Y-951382D01*
X4246118Y-955344D01*
X4248505Y-959053D01*
X4251198Y-962558D01*
X4254347Y-965962D01*
X4480255Y-1191869D01*
X4482185Y-1194612D01*
X4483150Y-1197864D01*
X4482998Y-1201216D01*
X4481779Y-1206652D01*
X4480458Y-1221333D01*
X4480915Y-1236014D01*
X4483150Y-1250594D01*
X4485894Y-1260144D01*
X4486249Y-1263700D01*
X4485335Y-1267155D01*
X4483303Y-1270101D01*
X4280001Y-1473352D01*
X4276699Y-1475587D01*
X4272838Y-1476349D01*
X3973372Y-1476349D01*
X3970121Y-1475841D01*
X3967226Y-1474317D01*
X3964990Y-1471930D01*
X3959961Y-1464614D01*
X3950970Y-1454658D01*
X3940708Y-1445971D01*
X3929379Y-1438757D01*
X3917187Y-1433068D01*
X3904335Y-1429105D01*
X3891076Y-1426870D01*
X3877614Y-1426413D01*
X3864254Y-1427784D01*
X3851198Y-1430883D01*
X3838651Y-1435709D01*
X3826865Y-1442161D01*
X3816045Y-1450136D01*
X3806342Y-1459484D01*
X3798011Y-1470050D01*
X3791204Y-1481632D01*
X3785920Y-1493977D01*
X3782364Y-1506931D01*
X3780586Y-1520291D01*
X3780586Y-1533702D01*
X3782364Y-1547063D01*
X3785920Y-1560017D01*
X3791204Y-1572361D01*
X3798011Y-1583944D01*
X3806342Y-1594510D01*
X3816045Y-1603857D01*
X3826865Y-1611833D01*
X3838651Y-1618284D01*
X3851198Y-1623110D01*
X3864254Y-1626209D01*
X3877614Y-1627581D01*
X3891076Y-1627124D01*
X3904335Y-1624888D01*
X3917187Y-1620926D01*
X3929379Y-1615236D01*
X3940708Y-1608023D01*
X3950970Y-1599336D01*
X3959961Y-1589379D01*
X3964990Y-1582064D01*
X3967226Y-1579676D01*
X3970121Y-1578203D01*
X3973372Y-1577644D01*
X4297781Y-1577644D01*
X4302404Y-1577441D01*
X4306824Y-1576882D01*
X4311091Y-1575917D01*
X4315307Y-1574596D01*
X4319422Y-1572920D01*
X4323334Y-1570837D01*
X4327042Y-1568500D01*
X4330547Y-1565808D01*
X4334002Y-1562658D01*
X4554931Y-1341729D01*
X4557979Y-1339596D01*
X4561535Y-1338732D01*
X4565192Y-1339189D01*
X4570831Y-1341018D01*
X4585309Y-1343710D01*
X4599990Y-1344625D01*
X4614722Y-1343710D01*
X4629200Y-1341018D01*
X4643221Y-1336548D01*
X4656582Y-1330401D01*
X4669129Y-1322628D01*
X4680559Y-1313383D01*
X4690821Y-1302816D01*
X4699711Y-1291082D01*
X4707077Y-1278331D01*
X4712817Y-1264767D01*
X4716830Y-1250594D01*
X4719116Y-1236014D01*
X4719574Y-1221333D01*
X4718202Y-1206652D01*
X4715052Y-1192276D01*
X4710176Y-1178356D01*
X4703572Y-1165199D01*
X4695444Y-1152906D01*
X4685893Y-1141730D01*
X4674971Y-1131824D01*
X4662982Y-1123289D01*
X4649978Y-1116330D01*
X4636262Y-1110996D01*
X4621987Y-1107440D01*
X4607356Y-1105611D01*
X4592624Y-1105611D01*
X4578045Y-1107440D01*
X4563719Y-1110996D01*
X4554728Y-1114501D01*
X4550867Y-1115212D01*
X4547057Y-1114399D01*
X4543856Y-1112215D01*
X4344517Y-912876D01*
X4342180Y-909269D01*
X4341571Y-905002D01*
X4342790Y-900836D01*
X4345635Y-897585D01*
X4356100Y-889762D01*
X4364736Y-881126D01*
X4372051Y-871372D01*
X4377893Y-860602D01*
X4382160Y-849172D01*
X4384751Y-837234D01*
X4385614Y-825042D01*
X4384751Y-812850D01*
X4382160Y-800912D01*
X4377893Y-789482D01*
X4372051Y-778764D01*
X4364736Y-768959D01*
X4356049Y-760323D01*
X4353102Y-758139D01*
X4350562Y-755345D01*
X4349242Y-751890D01*
X4349242Y-748131D01*
X4350562Y-744626D01*
X4353102Y-741883D01*
X4356049Y-739648D01*
X4364736Y-731012D01*
X4372051Y-721258D01*
X4377893Y-710488D01*
X4382160Y-699058D01*
X4384751Y-687120D01*
X4385614Y-674928D01*
X4384751Y-662736D01*
X4382160Y-650849D01*
X4382160Y-646531D01*
X4383938Y-642569D01*
X4387240Y-639775D01*
X4391355Y-638556D01*
X4395622Y-639165D01*
X4399280Y-641502D01*
X4426458Y-668680D01*
X4428642Y-671931D01*
X4429455Y-675843D01*
X4429455Y-839622D01*
X4430318Y-853135D01*
X4432909Y-866038D01*
X4437126Y-878484D01*
X4442917Y-890269D01*
X4450232Y-901242D01*
X4459173Y-911402D01*
X4548581Y-1000810D01*
X4558741Y-1009751D01*
X4569714Y-1017066D01*
X4581499Y-1022858D01*
X4593945Y-1027074D01*
X4606848Y-1029665D01*
X4620361Y-1030528D01*
X4754118Y-1030528D01*
X4758029Y-1031341D01*
X4761331Y-1033526D01*
X4816348Y-1088694D01*
X4818532Y-1091996D01*
X4819345Y-1095857D01*
X4819345Y-1229766D01*
X4820208Y-1243279D01*
X4822799Y-1256182D01*
X4827016Y-1268628D01*
X4832807Y-1280414D01*
X4840122Y-1291386D01*
X4849012Y-1301546D01*
X4918811Y-1371041D01*
X4928819Y-1379829D01*
X4939792Y-1387144D01*
X4951577Y-1392936D01*
X4964023Y-1397152D01*
X4976926Y-1399743D01*
X4990439Y-1400606D01*
X5096611Y-1400606D01*
X5099913Y-1401165D01*
X5113731Y-1409496D01*
X5116880Y-1412494D01*
X5118506Y-1416558D01*
X5118252Y-1420926D01*
X5116220Y-1424787D01*
X5112715Y-1427429D01*
X5108448Y-1428343D01*
X5075580Y-1428343D01*
X5069281Y-1429054D01*
X5063896Y-1430934D01*
X5059070Y-1433982D01*
X5055006Y-1438046D01*
X5051958Y-1442872D01*
X5050028Y-1448308D01*
X5049367Y-1454556D01*
X5049367Y-1653438D01*
X5050028Y-1659686D01*
X5051958Y-1665122D01*
X5055006Y-1669948D01*
X5059070Y-1674012D01*
X5063896Y-1677060D01*
X5069281Y-1678939D01*
X5075580Y-1679651D01*
X5324449Y-1679651D01*
X5330698Y-1678939D01*
X5336082Y-1677060D01*
X5340959Y-1674012D01*
X5345023Y-1669948D01*
X5348071Y-1665122D01*
X5349951Y-1659686D01*
X5350662Y-1653438D01*
X5350662Y-1454556D01*
X5349951Y-1448308D01*
X5348071Y-1442872D01*
X5345023Y-1438046D01*
X5340959Y-1433982D01*
X5336082Y-1430934D01*
X5330698Y-1429054D01*
X5324449Y-1428343D01*
X5291531Y-1428343D01*
X5287264Y-1427429D01*
X5283809Y-1424787D01*
X5281777Y-1420926D01*
X5281523Y-1416558D01*
X5283098Y-1412494D01*
X5286298Y-1409496D01*
X5300065Y-1401216D01*
X5303367Y-1400657D01*
X5454091Y-1400657D01*
X5458002Y-1401419D01*
X5461304Y-1403654D01*
X5536387Y-1478737D01*
X5538571Y-1481988D01*
X5539333Y-1485900D01*
X5539333Y-2612085D01*
X5538520Y-2616047D01*
X5536234Y-2619400D01*
X5532831Y-2621534D01*
X5528868Y-2622245D01*
X5524906Y-2621280D01*
X5521655Y-2618892D01*
X5519572Y-2615438D01*
X5519064Y-2613914D01*
X5516016Y-2609037D01*
X5511952Y-2604973D01*
X5507126Y-2601925D01*
X5501690Y-2600045D01*
X5495442Y-2599334D01*
X5296560Y-2599334D01*
X5290312Y-2600045D01*
X5284876Y-2601925D01*
X5280050Y-2604973D01*
X5275986Y-2609037D01*
X5272938Y-2613914D01*
X5271058Y-2619298D01*
X5270347Y-2625547D01*
X5270347Y-2874416D01*
X5271058Y-2880715D01*
X5272938Y-2886100D01*
X5275986Y-2890977D01*
X5280050Y-2894990D01*
X5284876Y-2898038D01*
X5290312Y-2899968D01*
X5296560Y-2900629D01*
X5314188Y-2900629D01*
X5318048Y-2901442D01*
X5321350Y-2903626D01*
X5323586Y-2906928D01*
X5324348Y-2910789D01*
X5324348Y-3135579D01*
X5323636Y-3139236D01*
X5321706Y-3142386D01*
X5318709Y-3144672D01*
X5315204Y-3146399D01*
X5302910Y-3154527D01*
X5291734Y-3164128D01*
X5281828Y-3175000D01*
X5273294Y-3187039D01*
X5266334Y-3199993D01*
X5261000Y-3213760D01*
X5257444Y-3228035D01*
X5255615Y-3242614D01*
X5255615Y-3257346D01*
X5257444Y-3271977D01*
X5261000Y-3286251D01*
X5266334Y-3300018D01*
X5273294Y-3312972D01*
X5281828Y-3325012D01*
X5291734Y-3335883D01*
X5302910Y-3345434D01*
X5315204Y-3353612D01*
X5328361Y-3360165D01*
X5342280Y-3365042D01*
X5356656Y-3368192D01*
X5371338Y-3369564D01*
X5386019Y-3369106D01*
X5400598Y-3366871D01*
X5414772Y-3362807D01*
X5428335Y-3357067D01*
X5441086Y-3349701D01*
X5452821Y-3340862D01*
X5463387Y-3330600D01*
X5472633Y-3319119D01*
X5480964Y-3305505D01*
X5483250Y-3302914D01*
X5486247Y-3301237D01*
X5489600Y-3300679D01*
X5810402Y-3300679D01*
X5813755Y-3301237D01*
X5816752Y-3302914D01*
X5819038Y-3305505D01*
X5827369Y-3319119D01*
X5836615Y-3330600D01*
X5847181Y-3340862D01*
X5858916Y-3349701D01*
X5871667Y-3357067D01*
X5885230Y-3362807D01*
X5899404Y-3366871D01*
X5913983Y-3369106D01*
X5928664Y-3369564D01*
X5943346Y-3368192D01*
X5957722Y-3365042D01*
X5971641Y-3360165D01*
X5984798Y-3353612D01*
X5997092Y-3345434D01*
X6008268Y-3335883D01*
X6018174Y-3325012D01*
X6026708Y-3312972D01*
X6033668Y-3300018D01*
X6039002Y-3286251D01*
X6042558Y-3271977D01*
X6044387Y-3257346D01*
X6044387Y-3242614D01*
X6042558Y-3228035D01*
X6039002Y-3213760D01*
X6033668Y-3199993D01*
X6026708Y-3187039D01*
X6018174Y-3175000D01*
X6008268Y-3164128D01*
X5997092Y-3154527D01*
X5984798Y-3146399D01*
X5971641Y-3139846D01*
X5957722Y-3134969D01*
X5943346Y-3131820D01*
X5928664Y-3130448D01*
X5913983Y-3130905D01*
X5899404Y-3133140D01*
X5885230Y-3137204D01*
X5871667Y-3142945D01*
X5858916Y-3150311D01*
X5847181Y-3159150D01*
X5836615Y-3169412D01*
X5827369Y-3180892D01*
X5819038Y-3194507D01*
X5816752Y-3197098D01*
X5813755Y-3198774D01*
X5810402Y-3199333D01*
X5489600Y-3199333D01*
X5486247Y-3198774D01*
X5483250Y-3197098D01*
X5480964Y-3194507D01*
X5472633Y-3180892D01*
X5463387Y-3169412D01*
X5452821Y-3159150D01*
X5441086Y-3150311D01*
X5430723Y-3144316D01*
X5428030Y-3142030D01*
X5426252Y-3138982D01*
X5425643Y-3135528D01*
X5425643Y-2910789D01*
X5426405Y-2906928D01*
X5428640Y-2903626D01*
X5431942Y-2901442D01*
X5435803Y-2900629D01*
X5495442Y-2900629D01*
X5501690Y-2899968D01*
X5507126Y-2898038D01*
X5511952Y-2894990D01*
X5516016Y-2890977D01*
X5519064Y-2886100D01*
X5520944Y-2880715D01*
X5521655Y-2874416D01*
X5521655Y-2841548D01*
X5522569Y-2837281D01*
X5525211Y-2833827D01*
X5529072Y-2831744D01*
X5533440Y-2831490D01*
X5537504Y-2833116D01*
X5540502Y-2836265D01*
X5546598Y-2846374D01*
X5555945Y-2858312D01*
X5566714Y-2869031D01*
X5578652Y-2878378D01*
X5591606Y-2886252D01*
X5605475Y-2892450D01*
X5619953Y-2896971D01*
X5634837Y-2899714D01*
X5650026Y-2900629D01*
X5665165Y-2899714D01*
X5680049Y-2896971D01*
X5694527Y-2892450D01*
X5708396Y-2886252D01*
X5721350Y-2878378D01*
X5733288Y-2869031D01*
X5744057Y-2858312D01*
X5753404Y-2846374D01*
X5761228Y-2833370D01*
X5767730Y-2818993D01*
X5769965Y-2815844D01*
X5773216Y-2813710D01*
X5777026Y-2812999D01*
X5780786Y-2813761D01*
X5784037Y-2815844D01*
X5786272Y-2818993D01*
X5792774Y-2833370D01*
X5800598Y-2846374D01*
X5809945Y-2858312D01*
X5820714Y-2869031D01*
X5832652Y-2878378D01*
X5845606Y-2886252D01*
X5859475Y-2892450D01*
X5873953Y-2896971D01*
X5888837Y-2899714D01*
X5904026Y-2900629D01*
X5919165Y-2899714D01*
X5934049Y-2896971D01*
X5948527Y-2892450D01*
X5962396Y-2886252D01*
X5975350Y-2878378D01*
X5987288Y-2869031D01*
X5998057Y-2858312D01*
X6007404Y-2846374D01*
X6015228Y-2833370D01*
X6021476Y-2819552D01*
X6025997Y-2805074D01*
X6028740Y-2790139D01*
X6029655Y-2774696D01*
X6029655Y-2770886D01*
X6030417Y-2767025D01*
X6032652Y-2763723D01*
X6232702Y-2563622D01*
X6236004Y-2561437D01*
X6239916Y-2560675D01*
X7189165Y-2560675D01*
X7193076Y-2561437D01*
X7196378Y-2563622D01*
X7198563Y-2566924D01*
X7199325Y-2570835D01*
X7199325Y-2646629D01*
X7198766Y-2649931D01*
X7190486Y-2663698D01*
X7187488Y-2666898D01*
X7183424Y-2668473D01*
X7179106Y-2668270D01*
X7175246Y-2666187D01*
X7172604Y-2662732D01*
X7171639Y-2658465D01*
X7171639Y-2625547D01*
X7170928Y-2619298D01*
X7169048Y-2613914D01*
X7166000Y-2609037D01*
X7161936Y-2604973D01*
X7157110Y-2601925D01*
X7151674Y-2600045D01*
X7145426Y-2599334D01*
X6946595Y-2599334D01*
X6940296Y-2600045D01*
X6934911Y-2601925D01*
X6930034Y-2604973D01*
X6925970Y-2609037D01*
X6922922Y-2613914D01*
X6921042Y-2619298D01*
X6920331Y-2625547D01*
X6920331Y-2689199D01*
X6919569Y-2693060D01*
X6917385Y-2696362D01*
X6914083Y-2698597D01*
X6910171Y-2699359D01*
X6760209Y-2699359D01*
X6755587Y-2699562D01*
X6751218Y-2700121D01*
X6746900Y-2701086D01*
X6742684Y-2702407D01*
X6738569Y-2704084D01*
X6734657Y-2706116D01*
X6730949Y-2708503D01*
X6727444Y-2711196D01*
X6724040Y-2714345D01*
X6354318Y-3084017D01*
X6351219Y-3087420D01*
X6348526Y-3090926D01*
X6346139Y-3094685D01*
X6344107Y-3098596D01*
X6342430Y-3102660D01*
X6341059Y-3106877D01*
X6340144Y-3111195D01*
X6339535Y-3115564D01*
X6339332Y-3120237D01*
X6339332Y-3184804D01*
X6338570Y-3188716D01*
X6336385Y-3192018D01*
X6041999Y-3486353D01*
X6038697Y-3488588D01*
X6034786Y-3489350D01*
X5483504Y-3489350D01*
X5480151Y-3488791D01*
X5477154Y-3487115D01*
X5474868Y-3484524D01*
X5472633Y-3480866D01*
X5463387Y-3469436D01*
X5452821Y-3459175D01*
X5441086Y-3450285D01*
X5428335Y-3442919D01*
X5414772Y-3437178D01*
X5400598Y-3433165D01*
X5386019Y-3430879D01*
X5371338Y-3430422D01*
X5356656Y-3431794D01*
X5342280Y-3434943D01*
X5328361Y-3439871D01*
X5315204Y-3446424D01*
X5302910Y-3454552D01*
X5291734Y-3464102D01*
X5281828Y-3475024D01*
X5273294Y-3487013D01*
X5269230Y-3494633D01*
X5266944Y-3497478D01*
X5263845Y-3499358D01*
X5260238Y-3500018D01*
X4439920Y-3500018D01*
X4436160Y-3499256D01*
X4432909Y-3497224D01*
X4422648Y-3480866D01*
X4413402Y-3469436D01*
X4402836Y-3459175D01*
X4391050Y-3450285D01*
X4378299Y-3442919D01*
X4364736Y-3437178D01*
X4350613Y-3433165D01*
X4336034Y-3430879D01*
X4321302Y-3430422D01*
X4306671Y-3431794D01*
X4292244Y-3434943D01*
X4278376Y-3439871D01*
X4265168Y-3446424D01*
X4252925Y-3454552D01*
X4241749Y-3464102D01*
X4231792Y-3475024D01*
X4223308Y-3487013D01*
X4219194Y-3494633D01*
X4216958Y-3497478D01*
X4213809Y-3499358D01*
X4210253Y-3500018D01*
X4140809Y-3500018D01*
X4136948Y-3499205D01*
X4133646Y-3497021D01*
X4131411Y-3493719D01*
X4130649Y-3489858D01*
X4130649Y-3360216D01*
X4130446Y-3355594D01*
X4129887Y-3351225D01*
X4128922Y-3346907D01*
X4127601Y-3342690D01*
X4125874Y-3338576D01*
X4123842Y-3334664D01*
X4121505Y-3330956D01*
X4118813Y-3327450D01*
X4115663Y-3324047D01*
X3973576Y-3181908D01*
X3971290Y-3178403D01*
X3970629Y-3174238D01*
X3971696Y-3170174D01*
X3973626Y-3166262D01*
X3978046Y-3153562D01*
X3980738Y-3140405D01*
X3981653Y-3126994D01*
X3980738Y-3113582D01*
X3978046Y-3100425D01*
X3973626Y-3087725D01*
X3967581Y-3075736D01*
X3959961Y-3064611D01*
X3950970Y-3054654D01*
X3940708Y-3045968D01*
X3929379Y-3038754D01*
X3917187Y-3033115D01*
X3904335Y-3029102D01*
X3891076Y-3026867D01*
X3877614Y-3026410D01*
X3864254Y-3027781D01*
X3851198Y-3030880D01*
X3838651Y-3035706D01*
X3826865Y-3042158D01*
X3816045Y-3050133D01*
X3806342Y-3059480D01*
X3798011Y-3070047D01*
X3791204Y-3081629D01*
X3785920Y-3093974D01*
X3782364Y-3106978D01*
X3780586Y-3120288D01*
X3780586Y-3133699D01*
X3782364Y-3147060D01*
X3785920Y-3160014D01*
X3791204Y-3172409D01*
X3798011Y-3183940D01*
X3806342Y-3194507D01*
X3816045Y-3203854D01*
X3826865Y-3211830D01*
X3838651Y-3218281D01*
X3851198Y-3223107D01*
X3864254Y-3226206D01*
X3872128Y-3227019D01*
X3875481Y-3227933D01*
X3878326Y-3229965D01*
X3914597Y-3266236D01*
X3916984Y-3269996D01*
X3917543Y-3274466D01*
X3916121Y-3278682D01*
X3913022Y-3281883D01*
X3908856Y-3283508D01*
X3904335Y-3283102D01*
X3891076Y-3280867D01*
X3877614Y-3280410D01*
X3864254Y-3281781D01*
X3851198Y-3284880D01*
X3838651Y-3289706D01*
X3826865Y-3296158D01*
X3816045Y-3304133D01*
X3806342Y-3313480D01*
X3798011Y-3324047D01*
X3791204Y-3335629D01*
X3785920Y-3347974D01*
X3782364Y-3360978D01*
X3780586Y-3374288D01*
X3780586Y-3387699D01*
X3782364Y-3401060D01*
X3785920Y-3414014D01*
X3791204Y-3426409D01*
X3798011Y-3437940D01*
X3806342Y-3448507D01*
X3816045Y-3457854D01*
X3826865Y-3465829D01*
X3838651Y-3472281D01*
X3851198Y-3477107D01*
X3863136Y-3479952D01*
X3866896Y-3481730D01*
X3869639Y-3484930D01*
X3870909Y-3488944D01*
X3870401Y-3493058D01*
X3868267Y-3496716D01*
X3864864Y-3499154D01*
X3860749Y-3500018D01*
G37*

%LPC*%
G36*
X3075127Y-3471468D02*
G01*
X3075127Y-3424834D01*
X3028543Y-3424834D01*
X3029204Y-3426409D01*
X3036011Y-3437940D01*
X3044342Y-3448507D01*
X3054045Y-3457854D01*
X3064865Y-3465829D01*
G37*
G36*
X3162858Y-3471316D02*
G01*
X3167380Y-3469233D01*
X3178708Y-3462020D01*
X3188970Y-3453333D01*
X3197961Y-3443376D01*
X3205581Y-3432301D01*
X3209340Y-3424834D01*
X3162858Y-3424834D01*
G37*
G36*
X4321302Y-3369564D02*
G01*
X4336034Y-3369106D01*
X4350613Y-3366871D01*
X4364736Y-3362807D01*
X4378299Y-3357067D01*
X4391050Y-3349701D01*
X4402836Y-3340862D01*
X4413402Y-3330600D01*
X4422648Y-3319119D01*
X4430369Y-3306572D01*
X4436516Y-3293211D01*
X4440986Y-3279190D01*
X4443730Y-3264712D01*
X4444593Y-3249980D01*
X4443730Y-3235299D01*
X4440986Y-3220821D01*
X4436516Y-3206800D01*
X4430369Y-3193389D01*
X4422648Y-3180892D01*
X4413402Y-3169412D01*
X4402836Y-3159150D01*
X4391050Y-3150311D01*
X4380738Y-3144316D01*
X4378045Y-3142081D01*
X4376267Y-3138982D01*
X4375658Y-3135528D01*
X4375658Y-3065221D01*
X4375454Y-3060598D01*
X4374896Y-3056229D01*
X4373930Y-3051911D01*
X4372610Y-3047695D01*
X4370882Y-3043580D01*
X4368850Y-3039668D01*
X4366514Y-3035960D01*
X4363821Y-3032455D01*
X4360672Y-3029051D01*
X4175963Y-2844342D01*
X4172559Y-2841193D01*
X4169054Y-2838500D01*
X4165346Y-2836164D01*
X4161383Y-2834081D01*
X4157319Y-2832404D01*
X4153103Y-2831084D01*
X4148785Y-2830118D01*
X4144416Y-2829560D01*
X4139793Y-2829356D01*
X3977690Y-2829356D01*
X3974033Y-2828645D01*
X3970883Y-2826715D01*
X3968597Y-2823768D01*
X3967581Y-2821736D01*
X3959961Y-2810611D01*
X3950970Y-2800654D01*
X3940708Y-2791968D01*
X3929379Y-2784754D01*
X3917187Y-2779115D01*
X3904335Y-2775102D01*
X3891076Y-2772867D01*
X3877614Y-2772410D01*
X3864254Y-2773781D01*
X3851198Y-2776880D01*
X3838651Y-2781706D01*
X3826865Y-2788158D01*
X3816045Y-2796133D01*
X3806342Y-2805480D01*
X3798011Y-2816047D01*
X3791204Y-2827629D01*
X3785920Y-2839974D01*
X3782364Y-2852978D01*
X3780586Y-2866288D01*
X3780586Y-2879699D01*
X3782364Y-2893060D01*
X3785920Y-2906014D01*
X3791204Y-2918409D01*
X3798011Y-2929940D01*
X3806342Y-2940507D01*
X3816045Y-2949854D01*
X3826865Y-2957830D01*
X3838651Y-2964281D01*
X3851198Y-2969107D01*
X3864254Y-2972206D01*
X3877614Y-2973578D01*
X3891076Y-2973120D01*
X3904335Y-2970885D01*
X3917187Y-2966923D01*
X3929379Y-2961233D01*
X3940708Y-2954020D01*
X3950970Y-2945333D01*
X3962450Y-2932684D01*
X3965346Y-2931160D01*
X3968546Y-2930652D01*
X4114800Y-2930652D01*
X4118711Y-2931414D01*
X4122013Y-2933649D01*
X4271365Y-3083001D01*
X4273600Y-3086303D01*
X4274362Y-3090214D01*
X4274362Y-3135579D01*
X4273651Y-3139236D01*
X4271721Y-3142386D01*
X4268724Y-3144672D01*
X4265168Y-3146399D01*
X4252925Y-3154527D01*
X4241749Y-3164128D01*
X4231792Y-3175000D01*
X4223308Y-3187039D01*
X4216349Y-3199993D01*
X4211015Y-3213760D01*
X4207408Y-3228035D01*
X4205630Y-3242614D01*
X4205630Y-3257346D01*
X4207408Y-3271977D01*
X4211015Y-3286251D01*
X4216349Y-3300018D01*
X4223308Y-3312972D01*
X4231792Y-3325012D01*
X4241749Y-3335883D01*
X4252925Y-3345434D01*
X4265168Y-3353612D01*
X4278376Y-3360165D01*
X4292244Y-3365042D01*
X4306671Y-3368192D01*
G37*
G36*
X3162858Y-3337153D02*
G01*
X3209340Y-3337153D01*
X3205581Y-3329736D01*
X3197961Y-3318611D01*
X3188970Y-3308654D01*
X3178708Y-3299968D01*
X3167380Y-3292754D01*
X3162858Y-3290671D01*
G37*
G36*
X3028543Y-3337153D02*
G01*
X3075127Y-3337153D01*
X3075127Y-3290519D01*
X3064865Y-3296158D01*
X3054045Y-3304133D01*
X3044342Y-3313480D01*
X3036011Y-3324047D01*
X3029204Y-3335629D01*
G37*
G36*
X3115614Y-3227578D02*
G01*
X3129076Y-3227120D01*
X3142335Y-3224885D01*
X3155188Y-3220923D01*
X3167380Y-3215233D01*
X3178708Y-3208020D01*
X3188970Y-3199333D01*
X3197961Y-3189376D01*
X3205581Y-3178302D01*
X3211626Y-3166262D01*
X3216046Y-3153562D01*
X3218738Y-3140405D01*
X3219653Y-3126994D01*
X3218738Y-3113582D01*
X3216046Y-3100425D01*
X3211626Y-3087725D01*
X3205581Y-3075736D01*
X3197961Y-3064611D01*
X3188970Y-3054654D01*
X3178708Y-3045968D01*
X3174339Y-3043224D01*
X3171850Y-3040938D01*
X3170224Y-3037992D01*
X3169666Y-3034639D01*
X3169666Y-2965348D01*
X3170224Y-2961995D01*
X3171850Y-2959049D01*
X3174339Y-2956763D01*
X3178708Y-2954020D01*
X3188970Y-2945333D01*
X3197961Y-2935376D01*
X3205581Y-2924302D01*
X3211626Y-2912262D01*
X3216046Y-2899562D01*
X3218738Y-2886405D01*
X3219653Y-2872994D01*
X3218738Y-2859582D01*
X3216046Y-2846425D01*
X3211626Y-2833725D01*
X3205581Y-2821736D01*
X3197961Y-2810611D01*
X3188970Y-2800654D01*
X3178708Y-2791968D01*
X3167380Y-2784754D01*
X3155188Y-2779115D01*
X3142335Y-2775102D01*
X3129076Y-2772867D01*
X3115614Y-2772410D01*
X3102254Y-2773781D01*
X3089198Y-2776880D01*
X3076651Y-2781706D01*
X3064865Y-2788158D01*
X3054045Y-2796133D01*
X3044342Y-2805480D01*
X3036011Y-2816047D01*
X3029204Y-2827629D01*
X3023920Y-2839974D01*
X3020364Y-2852978D01*
X3018586Y-2866288D01*
X3018586Y-2879699D01*
X3020364Y-2893060D01*
X3023920Y-2906014D01*
X3029204Y-2918409D01*
X3036011Y-2929940D01*
X3044342Y-2940507D01*
X3054045Y-2949854D01*
X3064205Y-2957372D01*
X3066440Y-2959608D01*
X3067862Y-2962402D01*
X3068370Y-2965551D01*
X3068370Y-3034487D01*
X3067862Y-3037586D01*
X3066440Y-3040380D01*
X3064205Y-3042666D01*
X3054045Y-3050133D01*
X3044342Y-3059480D01*
X3036011Y-3070047D01*
X3029204Y-3081629D01*
X3023920Y-3093974D01*
X3020364Y-3106978D01*
X3018586Y-3120288D01*
X3018586Y-3133699D01*
X3020364Y-3147060D01*
X3023920Y-3160014D01*
X3029204Y-3172409D01*
X3036011Y-3183940D01*
X3044342Y-3194507D01*
X3054045Y-3203854D01*
X3064865Y-3211830D01*
X3076651Y-3218281D01*
X3089198Y-3223107D01*
X3102254Y-3226206D01*
G37*
G36*
X2854807Y-2952496D02*
G01*
X2865374Y-2946704D01*
X2877007Y-2938272D01*
X2887472Y-2928416D01*
X2896666Y-2917342D01*
X2904388Y-2905201D01*
X2906420Y-2900781D01*
X2854807Y-2900781D01*
G37*
G36*
X2753207Y-2952496D02*
G01*
X2753207Y-2900781D01*
X2701594Y-2900781D01*
X2703626Y-2905201D01*
X2711348Y-2917342D01*
X2720492Y-2928416D01*
X2731008Y-2938272D01*
X2742641Y-2946704D01*
G37*
G36*
X2701594Y-2799181D02*
G01*
X2753207Y-2799181D01*
X2753207Y-2747467D01*
X2742641Y-2753309D01*
X2731008Y-2761742D01*
X2720492Y-2771597D01*
X2711348Y-2782671D01*
X2703626Y-2794812D01*
G37*
G36*
X2854807Y-2799181D02*
G01*
X2906420Y-2799181D01*
X2904388Y-2794812D01*
X2896666Y-2782671D01*
X2887472Y-2771597D01*
X2877007Y-2761742D01*
X2865374Y-2753309D01*
X2854807Y-2747467D01*
G37*
G36*
X4274921Y-2785618D02*
G01*
X4287113Y-2784754D01*
X4299051Y-2782163D01*
X4310532Y-2777896D01*
X4321251Y-2772054D01*
X4331004Y-2764688D01*
X4339640Y-2756052D01*
X4341876Y-2753106D01*
X4344619Y-2750566D01*
X4348124Y-2749245D01*
X4351883Y-2749245D01*
X4355388Y-2750566D01*
X4358132Y-2753106D01*
X4360367Y-2756052D01*
X4369003Y-2764688D01*
X4378756Y-2772054D01*
X4389475Y-2777896D01*
X4400956Y-2782163D01*
X4412894Y-2784754D01*
X4425035Y-2785618D01*
X4437227Y-2784754D01*
X4449165Y-2782163D01*
X4460646Y-2777896D01*
X4471365Y-2772054D01*
X4481118Y-2764688D01*
X4489754Y-2756052D01*
X4497070Y-2746298D01*
X4502962Y-2735580D01*
X4507230Y-2724099D01*
X4509820Y-2712161D01*
X4510684Y-2700020D01*
X4509820Y-2687828D01*
X4507230Y-2675890D01*
X4502962Y-2664409D01*
X4497070Y-2653690D01*
X4489754Y-2643936D01*
X4481118Y-2635300D01*
X4471365Y-2627985D01*
X4460646Y-2622092D01*
X4449165Y-2617825D01*
X4437227Y-2615234D01*
X4425035Y-2614371D01*
X4412894Y-2615234D01*
X4400956Y-2617825D01*
X4389475Y-2622092D01*
X4378756Y-2627985D01*
X4369003Y-2635300D01*
X4360367Y-2643936D01*
X4358132Y-2646883D01*
X4355388Y-2649423D01*
X4351883Y-2650794D01*
X4348124Y-2650794D01*
X4344619Y-2649423D01*
X4341876Y-2646883D01*
X4339640Y-2643936D01*
X4331004Y-2635300D01*
X4321251Y-2627985D01*
X4310532Y-2622092D01*
X4299051Y-2617825D01*
X4287113Y-2615234D01*
X4274921Y-2614371D01*
X4262780Y-2615234D01*
X4250842Y-2617825D01*
X4239361Y-2622092D01*
X4228642Y-2627985D01*
X4218889Y-2635300D01*
X4210253Y-2643936D01*
X4207002Y-2647442D01*
X4204157Y-2648864D01*
X4201109Y-2649321D01*
X3989730Y-2649321D01*
X3985361Y-2648356D01*
X3981856Y-2645613D01*
X3979875Y-2641600D01*
X3979773Y-2637180D01*
X3980738Y-2632405D01*
X3981653Y-2618994D01*
X3980738Y-2605582D01*
X3978046Y-2592425D01*
X3973626Y-2579725D01*
X3967581Y-2567736D01*
X3959961Y-2556611D01*
X3950970Y-2546654D01*
X3940708Y-2537968D01*
X3936339Y-2535224D01*
X3933850Y-2532938D01*
X3932224Y-2529992D01*
X3931665Y-2526639D01*
X3931665Y-2325573D01*
X3932428Y-2321661D01*
X3934612Y-2318359D01*
X3937914Y-2316175D01*
X3942283Y-2315413D01*
X3956659Y-2313584D01*
X3970731Y-2309977D01*
X3984244Y-2304643D01*
X3996944Y-2297633D01*
X4008729Y-2289098D01*
X4019296Y-2279142D01*
X4028541Y-2267966D01*
X4036314Y-2255723D01*
X4042511Y-2242566D01*
X4046982Y-2228748D01*
X4049725Y-2214473D01*
X4050639Y-2199995D01*
X4049725Y-2185517D01*
X4046982Y-2171242D01*
X4042511Y-2157425D01*
X4036314Y-2144318D01*
X4028541Y-2132025D01*
X4019296Y-2120849D01*
X4008729Y-2110892D01*
X3996944Y-2102358D01*
X3984244Y-2095347D01*
X3970731Y-2090013D01*
X3956659Y-2086406D01*
X3942283Y-2084578D01*
X3927754Y-2084578D01*
X3913327Y-2086406D01*
X3899255Y-2090013D01*
X3885793Y-2095347D01*
X3873042Y-2102358D01*
X3861308Y-2110892D01*
X3850690Y-2120849D01*
X3841445Y-2132025D01*
X3833672Y-2144318D01*
X3827475Y-2157425D01*
X3823004Y-2171242D01*
X3820261Y-2185517D01*
X3819347Y-2199995D01*
X3820261Y-2214473D01*
X3823004Y-2228748D01*
X3827475Y-2242566D01*
X3829608Y-2247087D01*
X3830421Y-2249627D01*
X3830370Y-2526487D01*
X3829862Y-2529586D01*
X3828440Y-2532380D01*
X3826205Y-2534666D01*
X3816045Y-2542133D01*
X3806342Y-2551480D01*
X3798011Y-2562047D01*
X3791204Y-2573629D01*
X3785920Y-2585974D01*
X3782364Y-2598978D01*
X3780586Y-2612288D01*
X3780586Y-2625699D01*
X3782364Y-2639060D01*
X3785920Y-2652014D01*
X3791204Y-2664409D01*
X3798011Y-2675940D01*
X3806342Y-2686507D01*
X3816045Y-2695854D01*
X3826865Y-2703830D01*
X3838651Y-2710281D01*
X3851198Y-2715107D01*
X3864254Y-2718206D01*
X3877614Y-2719578D01*
X3891076Y-2719120D01*
X3901643Y-2717342D01*
X3904894Y-2717292D01*
X3907942Y-2718308D01*
X3910533Y-2720187D01*
X3926027Y-2735681D01*
X3929430Y-2738780D01*
X3932936Y-2741472D01*
X3936695Y-2743860D01*
X3940606Y-2745892D01*
X3944670Y-2747568D01*
X3948887Y-2748940D01*
X3953205Y-2749854D01*
X3957574Y-2750464D01*
X3962247Y-2750667D01*
X4201109Y-2750667D01*
X4204157Y-2751124D01*
X4207002Y-2752547D01*
X4210253Y-2756052D01*
X4218889Y-2764688D01*
X4228642Y-2772054D01*
X4239361Y-2777896D01*
X4250842Y-2782163D01*
X4262780Y-2784754D01*
G37*
G36*
X3044596Y-2719628D02*
G01*
X3193440Y-2719628D01*
X3199688Y-2718968D01*
X3205124Y-2717038D01*
X3209950Y-2713990D01*
X3214014Y-2709976D01*
X3217062Y-2705100D01*
X3218942Y-2699715D01*
X3219653Y-2693416D01*
X3219653Y-2544572D01*
X3218942Y-2538323D01*
X3217062Y-2532888D01*
X3214014Y-2528062D01*
X3209950Y-2523998D01*
X3205124Y-2520950D01*
X3199688Y-2519070D01*
X3193440Y-2518359D01*
X3179826Y-2518359D01*
X3175914Y-2517597D01*
X3172612Y-2515362D01*
X3170428Y-2512060D01*
X3169666Y-2508199D01*
X3169564Y-2249627D01*
X3170377Y-2247087D01*
X3172510Y-2242566D01*
X3176981Y-2228748D01*
X3179724Y-2214473D01*
X3180638Y-2199995D01*
X3179724Y-2185517D01*
X3176981Y-2171242D01*
X3172510Y-2157425D01*
X3166313Y-2144318D01*
X3158540Y-2132025D01*
X3149295Y-2120849D01*
X3138678Y-2110892D01*
X3126943Y-2102358D01*
X3114243Y-2095347D01*
X3100730Y-2090013D01*
X3086658Y-2086406D01*
X3072231Y-2084578D01*
X3057753Y-2084578D01*
X3043326Y-2086406D01*
X3029254Y-2090013D01*
X3015742Y-2095347D01*
X3003042Y-2102358D01*
X2991307Y-2110892D01*
X2980690Y-2120849D01*
X2971444Y-2132025D01*
X2963672Y-2144318D01*
X2957474Y-2157425D01*
X2953004Y-2171242D01*
X2950260Y-2185517D01*
X2949346Y-2199995D01*
X2950260Y-2214473D01*
X2953004Y-2228748D01*
X2957474Y-2242566D01*
X2963672Y-2255723D01*
X2971444Y-2267966D01*
X2980690Y-2279142D01*
X2991307Y-2289098D01*
X3003042Y-2297633D01*
X3015742Y-2304643D01*
X3029254Y-2309977D01*
X3043326Y-2313584D01*
X3058210Y-2315413D01*
X3062071Y-2316175D01*
X3065373Y-2318359D01*
X3067558Y-2321661D01*
X3068370Y-2325573D01*
X3068370Y-2508199D01*
X3067558Y-2512060D01*
X3065373Y-2515362D01*
X3062071Y-2517597D01*
X3058210Y-2518359D01*
X3044596Y-2518359D01*
X3038297Y-2519070D01*
X3032912Y-2520950D01*
X3028035Y-2523998D01*
X3023971Y-2528062D01*
X3020923Y-2532888D01*
X3019044Y-2538323D01*
X3018332Y-2544572D01*
X3018332Y-2693416D01*
X3019044Y-2699715D01*
X3020923Y-2705100D01*
X3023971Y-2709976D01*
X3028035Y-2713990D01*
X3032912Y-2717038D01*
X3038297Y-2718968D01*
G37*
G36*
X4249978Y-2394610D02*
G01*
X4264710Y-2393696D01*
X4279188Y-2391003D01*
X4293209Y-2386533D01*
X4306570Y-2380386D01*
X4319117Y-2372614D01*
X4330598Y-2363419D01*
X4340860Y-2352802D01*
X4349699Y-2341067D01*
X4355693Y-2330704D01*
X4357928Y-2328011D01*
X4361027Y-2326233D01*
X4364482Y-2325624D01*
X4485538Y-2325624D01*
X4488992Y-2326233D01*
X4492040Y-2328011D01*
X4494326Y-2330704D01*
X4500270Y-2341067D01*
X4509160Y-2352802D01*
X4519422Y-2363419D01*
X4530902Y-2372614D01*
X4543399Y-2380386D01*
X4556810Y-2386533D01*
X4570831Y-2391003D01*
X4585309Y-2393696D01*
X4599990Y-2394610D01*
X4614722Y-2393696D01*
X4629200Y-2391003D01*
X4643221Y-2386533D01*
X4656582Y-2380386D01*
X4669129Y-2372614D01*
X4680559Y-2363419D01*
X4690821Y-2352802D01*
X4699711Y-2341067D01*
X4707077Y-2328316D01*
X4712817Y-2314752D01*
X4716830Y-2300579D01*
X4719116Y-2286050D01*
X4719574Y-2271318D01*
X4718202Y-2256637D01*
X4715052Y-2242261D01*
X4710176Y-2228392D01*
X4703572Y-2215184D01*
X4695444Y-2202891D01*
X4685893Y-2191715D01*
X4674971Y-2181809D01*
X4662982Y-2173325D01*
X4649978Y-2166315D01*
X4636262Y-2161032D01*
X4621987Y-2157425D01*
X4607356Y-2155596D01*
X4592624Y-2155596D01*
X4578045Y-2157425D01*
X4563719Y-2161032D01*
X4550003Y-2166315D01*
X4537049Y-2173325D01*
X4525010Y-2181809D01*
X4514138Y-2191715D01*
X4504537Y-2202891D01*
X4496409Y-2215184D01*
X4494682Y-2218690D01*
X4492396Y-2221687D01*
X4489246Y-2223668D01*
X4485589Y-2224328D01*
X4364431Y-2224328D01*
X4360773Y-2223668D01*
X4357573Y-2221687D01*
X4355338Y-2218690D01*
X4353610Y-2215184D01*
X4345432Y-2202891D01*
X4335881Y-2191715D01*
X4325010Y-2181809D01*
X4312970Y-2173325D01*
X4300016Y-2166315D01*
X4286250Y-2161032D01*
X4271975Y-2157425D01*
X4257344Y-2155596D01*
X4242612Y-2155596D01*
X4228033Y-2157425D01*
X4213758Y-2161032D01*
X4199991Y-2166315D01*
X4187037Y-2173325D01*
X4174998Y-2181809D01*
X4164126Y-2191715D01*
X4154525Y-2202891D01*
X4146397Y-2215184D01*
X4139844Y-2228392D01*
X4134967Y-2242261D01*
X4131818Y-2256637D01*
X4130446Y-2271318D01*
X4130903Y-2286050D01*
X4133138Y-2300579D01*
X4137202Y-2314752D01*
X4142943Y-2328316D01*
X4150309Y-2341067D01*
X4159148Y-2352802D01*
X4169410Y-2363419D01*
X4180890Y-2372614D01*
X4193387Y-2380386D01*
X4206798Y-2386533D01*
X4220819Y-2391003D01*
X4235297Y-2393696D01*
G37*
G36*
X5171338Y-2319578D02*
G01*
X5186019Y-2319121D01*
X5200599Y-2316835D01*
X5214772Y-2312822D01*
X5228336Y-2307082D01*
X5241086Y-2299716D01*
X5252821Y-2290826D01*
X5263388Y-2280564D01*
X5272633Y-2269134D01*
X5280406Y-2256586D01*
X5286552Y-2243226D01*
X5291023Y-2229154D01*
X5293715Y-2214676D01*
X5294630Y-2199995D01*
X5293715Y-2185314D01*
X5291023Y-2170836D01*
X5286552Y-2156815D01*
X5280406Y-2143404D01*
X5272633Y-2130907D01*
X5263388Y-2119426D01*
X5252821Y-2109165D01*
X5241086Y-2100275D01*
X5228336Y-2092909D01*
X5214772Y-2087168D01*
X5200599Y-2083155D01*
X5186019Y-2080920D01*
X5171338Y-2080463D01*
X5156657Y-2081784D01*
X5142280Y-2084933D01*
X5140401Y-2085593D01*
X5136692Y-2086152D01*
X5132984Y-2085339D01*
X5129834Y-2083206D01*
X4809642Y-1763014D01*
X4807458Y-1759712D01*
X4806645Y-1755800D01*
X4806645Y-1479194D01*
X4807458Y-1475282D01*
X4809642Y-1471980D01*
X4817364Y-1464259D01*
X4820259Y-1462227D01*
X4828032Y-1458620D01*
X4836058Y-1452981D01*
X4842967Y-1446072D01*
X4848606Y-1438046D01*
X4852720Y-1429207D01*
X4855260Y-1419758D01*
X4856124Y-1410004D01*
X4855260Y-1400251D01*
X4852720Y-1390802D01*
X4848606Y-1381963D01*
X4842967Y-1373936D01*
X4836058Y-1367028D01*
X4828032Y-1361389D01*
X4819192Y-1357274D01*
X4809744Y-1354734D01*
X4799990Y-1353870D01*
X4790236Y-1354734D01*
X4780788Y-1357274D01*
X4771948Y-1361389D01*
X4763922Y-1367028D01*
X4757013Y-1373936D01*
X4751425Y-1381963D01*
X4747768Y-1389735D01*
X4745736Y-1392631D01*
X4720336Y-1418031D01*
X4717237Y-1421434D01*
X4714544Y-1424940D01*
X4712157Y-1428648D01*
X4710125Y-1432610D01*
X4708398Y-1436674D01*
X4707077Y-1440891D01*
X4706112Y-1445209D01*
X4705553Y-1449578D01*
X4705350Y-1454200D01*
X4705350Y-1720189D01*
X4704588Y-1724050D01*
X4702352Y-1727352D01*
X4699101Y-1729587D01*
X4695190Y-1730349D01*
X3973372Y-1730349D01*
X3970121Y-1729841D01*
X3967226Y-1728317D01*
X3964990Y-1725930D01*
X3959961Y-1718614D01*
X3950970Y-1708657D01*
X3940708Y-1699971D01*
X3929379Y-1692757D01*
X3917187Y-1687068D01*
X3904335Y-1683105D01*
X3891076Y-1680870D01*
X3877614Y-1680413D01*
X3864254Y-1681784D01*
X3851198Y-1684883D01*
X3838651Y-1689709D01*
X3826865Y-1696161D01*
X3816045Y-1704136D01*
X3806342Y-1713484D01*
X3798011Y-1724050D01*
X3791204Y-1735632D01*
X3785920Y-1747977D01*
X3782364Y-1760931D01*
X3780586Y-1774291D01*
X3780586Y-1787702D01*
X3782364Y-1801063D01*
X3785920Y-1814017D01*
X3791204Y-1826361D01*
X3798011Y-1837943D01*
X3806342Y-1848510D01*
X3816045Y-1857857D01*
X3826865Y-1865833D01*
X3838651Y-1872284D01*
X3851198Y-1877110D01*
X3864254Y-1880209D01*
X3877614Y-1881581D01*
X3891076Y-1881124D01*
X3904335Y-1878888D01*
X3917187Y-1874926D01*
X3929379Y-1869236D01*
X3940708Y-1862023D01*
X3950970Y-1853336D01*
X3959961Y-1843379D01*
X3964990Y-1836064D01*
X3967226Y-1833676D01*
X3970121Y-1832203D01*
X3973372Y-1831644D01*
X4730800Y-1831644D01*
X4734712Y-1832406D01*
X4738014Y-1834642D01*
X5058156Y-2154783D01*
X5060188Y-2157628D01*
X5061102Y-2160981D01*
X5060848Y-2164435D01*
X5057444Y-2177999D01*
X5055616Y-2192629D01*
X5055616Y-2207361D01*
X5057444Y-2221992D01*
X5061000Y-2236266D01*
X5066334Y-2249982D01*
X5073294Y-2262987D01*
X5081828Y-2274976D01*
X5091734Y-2285898D01*
X5102910Y-2295448D01*
X5115204Y-2303576D01*
X5128361Y-2310130D01*
X5142280Y-2315057D01*
X5156657Y-2318207D01*
G37*
G36*
X3075127Y-1871472D02*
G01*
X3075127Y-1824837D01*
X3028543Y-1824837D01*
X3029204Y-1826361D01*
X3036011Y-1837943D01*
X3044342Y-1848510D01*
X3054045Y-1857857D01*
X3064865Y-1865833D01*
G37*
G36*
X3162858Y-1871319D02*
G01*
X3167380Y-1869236D01*
X3178708Y-1862023D01*
X3188970Y-1853336D01*
X3197961Y-1843379D01*
X3205581Y-1832305D01*
X3209340Y-1824837D01*
X3162858Y-1824837D01*
G37*
G36*
X3162858Y-1737156D02*
G01*
X3209340Y-1737156D01*
X3205581Y-1729739D01*
X3197961Y-1718614D01*
X3188970Y-1708657D01*
X3178708Y-1699971D01*
X3167380Y-1692757D01*
X3162858Y-1690674D01*
G37*
G36*
X3028543Y-1737156D02*
G01*
X3075127Y-1737156D01*
X3075127Y-1690522D01*
X3064865Y-1696161D01*
X3054045Y-1704136D01*
X3044342Y-1713484D01*
X3036011Y-1724050D01*
X3029204Y-1735632D01*
G37*
G36*
X2804820Y-1652524D02*
G01*
X2815386Y-1646682D01*
X2827020Y-1638249D01*
X2837484Y-1628394D01*
X2846679Y-1617319D01*
X2854350Y-1605178D01*
X2856433Y-1600809D01*
X2804820Y-1600809D01*
G37*
G36*
X3115614Y-1627581D02*
G01*
X3129076Y-1627124D01*
X3142335Y-1624888D01*
X3155188Y-1620926D01*
X3167380Y-1615236D01*
X3178708Y-1608023D01*
X3188970Y-1599336D01*
X3197961Y-1589379D01*
X3205581Y-1578305D01*
X3211626Y-1566265D01*
X3216046Y-1553565D01*
X3218738Y-1540408D01*
X3219653Y-1526997D01*
X3218738Y-1513586D01*
X3216046Y-1500428D01*
X3211626Y-1487728D01*
X3205581Y-1475740D01*
X3197961Y-1464614D01*
X3188970Y-1454658D01*
X3178708Y-1445971D01*
X3174339Y-1443228D01*
X3171850Y-1440942D01*
X3170224Y-1437995D01*
X3169666Y-1434642D01*
X3169666Y-1365351D01*
X3170224Y-1361998D01*
X3171850Y-1359052D01*
X3174339Y-1356766D01*
X3178708Y-1354023D01*
X3188970Y-1345336D01*
X3197961Y-1335379D01*
X3205581Y-1324305D01*
X3211626Y-1312265D01*
X3216046Y-1299565D01*
X3218738Y-1286408D01*
X3219653Y-1272997D01*
X3218738Y-1259586D01*
X3216046Y-1246428D01*
X3211626Y-1233728D01*
X3205581Y-1221740D01*
X3197961Y-1210614D01*
X3188970Y-1200658D01*
X3178708Y-1191971D01*
X3167380Y-1184757D01*
X3155188Y-1179068D01*
X3142335Y-1175105D01*
X3129076Y-1172870D01*
X3115614Y-1172413D01*
X3102254Y-1173784D01*
X3089198Y-1176883D01*
X3076651Y-1181709D01*
X3064865Y-1188161D01*
X3054045Y-1196136D01*
X3044342Y-1205484D01*
X3036011Y-1216050D01*
X3029204Y-1227632D01*
X3023920Y-1239977D01*
X3020364Y-1252931D01*
X3018586Y-1266291D01*
X3018586Y-1279702D01*
X3020364Y-1293063D01*
X3023920Y-1306017D01*
X3029204Y-1318361D01*
X3036011Y-1329944D01*
X3044342Y-1340510D01*
X3054045Y-1349857D01*
X3064205Y-1357325D01*
X3066440Y-1359611D01*
X3067862Y-1362405D01*
X3068370Y-1365554D01*
X3068370Y-1434490D01*
X3067862Y-1437589D01*
X3066440Y-1440383D01*
X3064205Y-1442669D01*
X3054045Y-1450136D01*
X3044342Y-1459484D01*
X3036011Y-1470050D01*
X3029204Y-1481632D01*
X3023920Y-1493977D01*
X3020364Y-1506931D01*
X3018586Y-1520291D01*
X3018586Y-1533702D01*
X3020364Y-1547063D01*
X3023920Y-1560017D01*
X3029204Y-1572361D01*
X3036011Y-1583944D01*
X3044342Y-1594510D01*
X3054045Y-1603857D01*
X3064865Y-1611833D01*
X3076651Y-1618284D01*
X3089198Y-1623110D01*
X3102254Y-1626209D01*
G37*
G36*
X2804820Y-1499209D02*
G01*
X2856433Y-1499209D01*
X2854350Y-1494840D01*
X2846679Y-1482699D01*
X2837484Y-1471574D01*
X2827020Y-1461770D01*
X2815386Y-1453286D01*
X2804820Y-1447495D01*
G37*
G36*
X3877614Y-1373581D02*
G01*
X3891076Y-1373124D01*
X3904335Y-1370888D01*
X3917187Y-1366926D01*
X3929379Y-1361236D01*
X3940708Y-1354023D01*
X3950970Y-1345336D01*
X3959961Y-1335379D01*
X3967581Y-1324305D01*
X3973626Y-1312265D01*
X3978046Y-1299565D01*
X3981754Y-1281480D01*
X3984040Y-1278382D01*
X3987241Y-1276350D01*
X3990949Y-1275638D01*
X4135526Y-1275638D01*
X4138980Y-1276248D01*
X4142079Y-1278026D01*
X4144314Y-1280718D01*
X4150309Y-1291082D01*
X4159148Y-1302816D01*
X4169410Y-1313383D01*
X4180890Y-1322628D01*
X4193387Y-1330401D01*
X4206798Y-1336548D01*
X4220819Y-1341018D01*
X4235297Y-1343710D01*
X4249978Y-1344625D01*
X4264710Y-1343710D01*
X4279188Y-1341018D01*
X4293209Y-1336548D01*
X4306570Y-1330401D01*
X4319117Y-1322628D01*
X4330598Y-1313383D01*
X4340860Y-1302816D01*
X4349699Y-1291082D01*
X4357065Y-1278331D01*
X4362805Y-1264767D01*
X4366869Y-1250594D01*
X4369104Y-1236014D01*
X4369562Y-1221333D01*
X4368190Y-1206652D01*
X4365040Y-1192276D01*
X4360164Y-1178356D01*
X4353610Y-1165199D01*
X4345432Y-1152906D01*
X4335881Y-1141730D01*
X4325010Y-1131824D01*
X4312970Y-1123289D01*
X4300016Y-1116330D01*
X4286250Y-1110996D01*
X4271975Y-1107440D01*
X4257344Y-1105611D01*
X4242612Y-1105611D01*
X4228033Y-1107440D01*
X4213758Y-1110996D01*
X4199991Y-1116330D01*
X4187037Y-1123289D01*
X4174998Y-1131824D01*
X4164126Y-1141730D01*
X4154525Y-1152906D01*
X4146397Y-1165199D01*
X4144670Y-1168704D01*
X4142384Y-1171702D01*
X4139234Y-1173683D01*
X4135577Y-1174343D01*
X3929227Y-1174343D01*
X3924604Y-1174546D01*
X3920337Y-1175105D01*
X3914292Y-1176629D01*
X3911549Y-1176934D01*
X3908806Y-1176477D01*
X3904335Y-1175105D01*
X3891076Y-1172870D01*
X3877614Y-1172413D01*
X3864254Y-1173784D01*
X3851198Y-1176883D01*
X3838651Y-1181709D01*
X3826865Y-1188161D01*
X3816045Y-1196136D01*
X3806342Y-1205484D01*
X3798011Y-1216050D01*
X3791204Y-1227632D01*
X3785920Y-1239977D01*
X3782364Y-1252931D01*
X3780586Y-1266291D01*
X3780586Y-1279702D01*
X3782364Y-1293063D01*
X3785920Y-1306017D01*
X3791204Y-1318361D01*
X3798011Y-1329944D01*
X3806342Y-1340510D01*
X3816045Y-1349857D01*
X3826865Y-1357833D01*
X3838651Y-1364284D01*
X3851198Y-1369110D01*
X3864254Y-1372209D01*
G37*

%LPD*%
G36*
X5776976Y-5487009D02*
G01*
X5773216Y-5486247D01*
X5769965Y-5484164D01*
X5767730Y-5481015D01*
X5761228Y-5466638D01*
X5751220Y-5449925D01*
X5750661Y-5446623D01*
X5750661Y-4810353D01*
X5749798Y-4796840D01*
X5747207Y-4783937D01*
X5742990Y-4771491D01*
X5737148Y-4759706D01*
X5729833Y-4748733D01*
X5720943Y-4738573D01*
X5653633Y-4671263D01*
X5651449Y-4667961D01*
X5650636Y-4664100D01*
X5650636Y-4203395D01*
X5651195Y-4200042D01*
X5661253Y-4183379D01*
X5667756Y-4168952D01*
X5669991Y-4165803D01*
X5673242Y-4163720D01*
X5677001Y-4163009D01*
X5680811Y-4163720D01*
X5684062Y-4165854D01*
X5686298Y-4169003D01*
X5692749Y-4183379D01*
X5700623Y-4196384D01*
X5709970Y-4208322D01*
X5720689Y-4219041D01*
X5732627Y-4228388D01*
X5745632Y-4236262D01*
X5747359Y-4237024D01*
X5750509Y-4239260D01*
X5752592Y-4242511D01*
X5753354Y-4246270D01*
X5753354Y-4428794D01*
X5753557Y-4433417D01*
X5754116Y-4437786D01*
X5755081Y-4442104D01*
X5756402Y-4446320D01*
X5758078Y-4450435D01*
X5760161Y-4454347D01*
X5762498Y-4458055D01*
X5765190Y-4461560D01*
X5768340Y-4464964D01*
X5858306Y-4554931D01*
X5860389Y-4557979D01*
X5861253Y-4561535D01*
X5860796Y-4565192D01*
X5859018Y-4570831D01*
X5856274Y-4585309D01*
X5855360Y-4599990D01*
X5856274Y-4614722D01*
X5859018Y-4629200D01*
X5863437Y-4643221D01*
X5869635Y-4656582D01*
X5877356Y-4669129D01*
X5886602Y-4680559D01*
X5897168Y-4690821D01*
X5908903Y-4699711D01*
X5921705Y-4707077D01*
X5935268Y-4712817D01*
X5949391Y-4716830D01*
X5963970Y-4719116D01*
X5978702Y-4719574D01*
X5993333Y-4718202D01*
X6007709Y-4715052D01*
X6021628Y-4710176D01*
X6034786Y-4703572D01*
X6047079Y-4695444D01*
X6058255Y-4685893D01*
X6068212Y-4674971D01*
X6076696Y-4662982D01*
X6083655Y-4649978D01*
X6088989Y-4636262D01*
X6092596Y-4621987D01*
X6094374Y-4607356D01*
X6094374Y-4592624D01*
X6092596Y-4578045D01*
X6088989Y-4563719D01*
X6083655Y-4550003D01*
X6076696Y-4537049D01*
X6068212Y-4525010D01*
X6058255Y-4514138D01*
X6047079Y-4504537D01*
X6034786Y-4496409D01*
X6021628Y-4489856D01*
X6007709Y-4484928D01*
X5993333Y-4481779D01*
X5978702Y-4480458D01*
X5963970Y-4480915D01*
X5949391Y-4483150D01*
X5939891Y-4485894D01*
X5936335Y-4486249D01*
X5932830Y-4485335D01*
X5929884Y-4483303D01*
X5857646Y-4411014D01*
X5855411Y-4407712D01*
X5854649Y-4403801D01*
X5854649Y-4246270D01*
X5855411Y-4242511D01*
X5857494Y-4239260D01*
X5860643Y-4237024D01*
X5862370Y-4236262D01*
X5875375Y-4228388D01*
X5887313Y-4219041D01*
X5898032Y-4208322D01*
X5900978Y-4204563D01*
X5903214Y-4202430D01*
X5905957Y-4201109D01*
X5909005Y-4200652D01*
X6696608Y-4200652D01*
X6699961Y-4201210D01*
X6713728Y-4209491D01*
X6716877Y-4212488D01*
X6718503Y-4216552D01*
X6718249Y-4220921D01*
X6716217Y-4224782D01*
X6712712Y-4227423D01*
X6708444Y-4228338D01*
X6675577Y-4228338D01*
X6669328Y-4229049D01*
X6663893Y-4230928D01*
X6659067Y-4233976D01*
X6655003Y-4238040D01*
X6651955Y-4242917D01*
X6650075Y-4248302D01*
X6649364Y-4254550D01*
X6649364Y-4428794D01*
X6648551Y-4432706D01*
X6646367Y-4436008D01*
X6489344Y-4593031D01*
X6486194Y-4596434D01*
X6483502Y-4599940D01*
X6481165Y-4603648D01*
X6479133Y-4607610D01*
X6477406Y-4611674D01*
X6476085Y-4615891D01*
X6475120Y-4620209D01*
X6474561Y-4624578D01*
X6474358Y-4629200D01*
X6474358Y-4835499D01*
X6473748Y-4839004D01*
X6471970Y-4842052D01*
X6469278Y-4844338D01*
X6458915Y-4850282D01*
X6447180Y-4859172D01*
X6436614Y-4869434D01*
X6427368Y-4880864D01*
X6419037Y-4894478D01*
X6416751Y-4897069D01*
X6413754Y-4898745D01*
X6410401Y-4899355D01*
X6089599Y-4899355D01*
X6086246Y-4898745D01*
X6083249Y-4897069D01*
X6080963Y-4894478D01*
X6072632Y-4880864D01*
X6063386Y-4869434D01*
X6052820Y-4859172D01*
X6041085Y-4850282D01*
X6028334Y-4842916D01*
X6014770Y-4837176D01*
X6000597Y-4833162D01*
X5986018Y-4830876D01*
X5971336Y-4830419D01*
X5956655Y-4831791D01*
X5942279Y-4834940D01*
X5928360Y-4839868D01*
X5915202Y-4846421D01*
X5902909Y-4854549D01*
X5891733Y-4864150D01*
X5881827Y-4875022D01*
X5873292Y-4887010D01*
X5866333Y-4900015D01*
X5860999Y-4913731D01*
X5857443Y-4928006D01*
X5855614Y-4942636D01*
X5855614Y-4957368D01*
X5857443Y-4971999D01*
X5860999Y-4986274D01*
X5866333Y-4999990D01*
X5873292Y-5012994D01*
X5881827Y-5024983D01*
X5891733Y-5035854D01*
X5902909Y-5045456D01*
X5915202Y-5053584D01*
X5928360Y-5060137D01*
X5942279Y-5065064D01*
X5956655Y-5068214D01*
X5971336Y-5069535D01*
X5986018Y-5069128D01*
X6000597Y-5066842D01*
X6014770Y-5062829D01*
X6028334Y-5057089D01*
X6041085Y-5049723D01*
X6052820Y-5040833D01*
X6063386Y-5030571D01*
X6072632Y-5019141D01*
X6080963Y-5005527D01*
X6083249Y-5002936D01*
X6086246Y-5001260D01*
X6089599Y-5000650D01*
X6410401Y-5000650D01*
X6413754Y-5001260D01*
X6416751Y-5002936D01*
X6419037Y-5005527D01*
X6427368Y-5019141D01*
X6436614Y-5030571D01*
X6447180Y-5040833D01*
X6458915Y-5049723D01*
X6471666Y-5057089D01*
X6485229Y-5062829D01*
X6499402Y-5066842D01*
X6513982Y-5069128D01*
X6528663Y-5069535D01*
X6543344Y-5068214D01*
X6557721Y-5065064D01*
X6571640Y-5060137D01*
X6584797Y-5053584D01*
X6597091Y-5045456D01*
X6608267Y-5035854D01*
X6618173Y-5024983D01*
X6626707Y-5012994D01*
X6633667Y-4999990D01*
X6639001Y-4986274D01*
X6642557Y-4971999D01*
X6644386Y-4957368D01*
X6644386Y-4942636D01*
X6642557Y-4928006D01*
X6639001Y-4913731D01*
X6633667Y-4900015D01*
X6626707Y-4887010D01*
X6618173Y-4875022D01*
X6608267Y-4864150D01*
X6597091Y-4854549D01*
X6584797Y-4846421D01*
X6581292Y-4844643D01*
X6578295Y-4842408D01*
X6576364Y-4839258D01*
X6575653Y-4835550D01*
X6575653Y-4654194D01*
X6576415Y-4650282D01*
X6578650Y-4646980D01*
X6742988Y-4482642D01*
X6746290Y-4480407D01*
X6750202Y-4479645D01*
X6924446Y-4479645D01*
X6930694Y-4478934D01*
X6936079Y-4477054D01*
X6940956Y-4474006D01*
X6945020Y-4469942D01*
X6948068Y-4465116D01*
X6949948Y-4459681D01*
X6950659Y-4453432D01*
X6950659Y-4254550D01*
X6949948Y-4248302D01*
X6948068Y-4242917D01*
X6945020Y-4238040D01*
X6940956Y-4233976D01*
X6936079Y-4230928D01*
X6930694Y-4229049D01*
X6924446Y-4228338D01*
X6891528Y-4228338D01*
X6887260Y-4227423D01*
X6883806Y-4224782D01*
X6881774Y-4220921D01*
X6881520Y-4216552D01*
X6883146Y-4212488D01*
X6886295Y-4209491D01*
X6896353Y-4203395D01*
X6908292Y-4194048D01*
X6919061Y-4183329D01*
X6928408Y-4171391D01*
X6936231Y-4158386D01*
X6942480Y-4144568D01*
X6947001Y-4130090D01*
X6949694Y-4115155D01*
X6950659Y-4100017D01*
X6949694Y-4084878D01*
X6947001Y-4069943D01*
X6942480Y-4055465D01*
X6936231Y-4041597D01*
X6928408Y-4028643D01*
X6919061Y-4016705D01*
X6908292Y-4005935D01*
X6896353Y-3996588D01*
X6883400Y-3988765D01*
X6868972Y-3982262D01*
X6865823Y-3980027D01*
X6863892Y-3977030D01*
X6863080Y-3977640D01*
X6859422Y-3978656D01*
X6840118Y-3975303D01*
X6824675Y-3974337D01*
X6775297Y-3974337D01*
X6759854Y-3975303D01*
X6744309Y-3978198D01*
X6740550Y-3978656D01*
X6736892Y-3977640D01*
X6736080Y-3977081D01*
X6734149Y-3980027D01*
X6731000Y-3982262D01*
X6716623Y-3988765D01*
X6699961Y-3998772D01*
X6696608Y-3999331D01*
X6520434Y-3999331D01*
X6516522Y-3998569D01*
X6513220Y-3996385D01*
X6511035Y-3993083D01*
X6510274Y-3989171D01*
X6510274Y-3790594D01*
X6511035Y-3786682D01*
X6513220Y-3783380D01*
X6643674Y-3652977D01*
X6646925Y-3650792D01*
X6650837Y-3649979D01*
X7059168Y-3649979D01*
X7063079Y-3650792D01*
X7066381Y-3652977D01*
X7068566Y-3656279D01*
X7069328Y-3660140D01*
X7069328Y-4724095D01*
X7068566Y-4728006D01*
X7066381Y-4731258D01*
X6591300Y-5206390D01*
X6587998Y-5208574D01*
X6584086Y-5209336D01*
X6144310Y-5209336D01*
X6130848Y-5210251D01*
X6117945Y-5212791D01*
X6105499Y-5217007D01*
X6093663Y-5222849D01*
X6082741Y-5230164D01*
X6072581Y-5239054D01*
X5915050Y-5396585D01*
X5911494Y-5398922D01*
X5907278Y-5399582D01*
X5904026Y-5399379D01*
X5888837Y-5400294D01*
X5873953Y-5403037D01*
X5859475Y-5407507D01*
X5845606Y-5413756D01*
X5832652Y-5421579D01*
X5820714Y-5430977D01*
X5809945Y-5441696D01*
X5800598Y-5453634D01*
X5792774Y-5466638D01*
X5786272Y-5481015D01*
X5784037Y-5484164D01*
X5780786Y-5486247D01*
G37*

%LPC*%
G36*
X6868871Y-3963822D02*
G01*
X6883400Y-3957269D01*
X6896353Y-3949395D01*
X6908292Y-3940048D01*
X6919061Y-3929329D01*
X6928408Y-3917391D01*
X6936231Y-3904386D01*
X6937146Y-3902354D01*
X6868871Y-3902354D01*
G37*
G36*
X6731152Y-3963822D02*
G01*
X6731152Y-3902354D01*
X6662826Y-3902354D01*
X6663740Y-3904386D01*
X6671614Y-3917391D01*
X6680962Y-3929329D01*
X6691680Y-3940048D01*
X6703618Y-3949395D01*
X6716623Y-3957269D01*
G37*
G36*
X6868871Y-3789629D02*
G01*
X6937146Y-3789629D01*
X6936231Y-3787597D01*
X6928408Y-3774643D01*
X6919061Y-3762705D01*
X6908292Y-3751935D01*
X6896353Y-3742588D01*
X6883400Y-3734765D01*
X6868871Y-3728313D01*
G37*
G36*
X6662826Y-3789629D02*
G01*
X6731152Y-3789629D01*
X6731152Y-3728313D01*
X6716623Y-3734765D01*
X6703618Y-3742588D01*
X6691680Y-3751935D01*
X6680962Y-3762705D01*
X6671614Y-3774643D01*
X6663740Y-3787597D01*
G37*

%LPD*%
G36*
X2660142Y-7039305D02*
G01*
X2656281Y-7038492D01*
X2652979Y-7036308D01*
X2650794Y-7033006D01*
X2649982Y-7029145D01*
X2649982Y-6278321D01*
X2650947Y-6274054D01*
X2653588Y-6270548D01*
X2657500Y-6268516D01*
X2661869Y-6268313D01*
X2667914Y-6269329D01*
X2684221Y-6270244D01*
X2700528Y-6269329D01*
X2716631Y-6266586D01*
X2732328Y-6262065D01*
X2747416Y-6255816D01*
X2761691Y-6247892D01*
X2775000Y-6238443D01*
X2787192Y-6227572D01*
X2798064Y-6215380D01*
X2807512Y-6202070D01*
X2815437Y-6187795D01*
X2821686Y-6172708D01*
X2826207Y-6157010D01*
X2828950Y-6140907D01*
X2829864Y-6124600D01*
X2828950Y-6108293D01*
X2826207Y-6092190D01*
X2821686Y-6076492D01*
X2815437Y-6061405D01*
X2807512Y-6047130D01*
X2798064Y-6033820D01*
X2787192Y-6021628D01*
X2775000Y-6010757D01*
X2761691Y-6001308D01*
X2747416Y-5993384D01*
X2732328Y-5987135D01*
X2716631Y-5982614D01*
X2700528Y-5979871D01*
X2684221Y-5978956D01*
X2667914Y-5979871D01*
X2661869Y-5980887D01*
X2657500Y-5980684D01*
X2653588Y-5978652D01*
X2650947Y-5975146D01*
X2649982Y-5970879D01*
X2649982Y-5878322D01*
X2650947Y-5874054D01*
X2653588Y-5870549D01*
X2657500Y-5868517D01*
X2661869Y-5868314D01*
X2667914Y-5869330D01*
X2684221Y-5870244D01*
X2700528Y-5869330D01*
X2716631Y-5866587D01*
X2732328Y-5862066D01*
X2747416Y-5855817D01*
X2761691Y-5847892D01*
X2775000Y-5838444D01*
X2787192Y-5827572D01*
X2798064Y-5815380D01*
X2807512Y-5802071D01*
X2815437Y-5787796D01*
X2821686Y-5772708D01*
X2826207Y-5757011D01*
X2828950Y-5740908D01*
X2829864Y-5724601D01*
X2828950Y-5708294D01*
X2826207Y-5692190D01*
X2821686Y-5676493D01*
X2815437Y-5661406D01*
X2807512Y-5647131D01*
X2798064Y-5633770D01*
X2787192Y-5621629D01*
X2775000Y-5610758D01*
X2761691Y-5601258D01*
X2747416Y-5593384D01*
X2732328Y-5587136D01*
X2716631Y-5582615D01*
X2700528Y-5579872D01*
X2684221Y-5578957D01*
X2667914Y-5579872D01*
X2661869Y-5580888D01*
X2657500Y-5580684D01*
X2653588Y-5578652D01*
X2650947Y-5575147D01*
X2649982Y-5570880D01*
X2649982Y-3624529D01*
X2650794Y-3620617D01*
X2652979Y-3617366D01*
X2656281Y-3615131D01*
X2660142Y-3614369D01*
X2664053Y-3615131D01*
X2667355Y-3617366D01*
X2699308Y-3649268D01*
X2700985Y-3649979D01*
X2945892Y-3649979D01*
X2949651Y-3650691D01*
X2952851Y-3652774D01*
X2955086Y-3655822D01*
X2956052Y-3659530D01*
X2955594Y-3663289D01*
X2953004Y-3671265D01*
X2950260Y-3685489D01*
X2949346Y-3700018D01*
X2950260Y-3714496D01*
X2953004Y-3728770D01*
X2957474Y-3742588D01*
X2963672Y-3755694D01*
X2971444Y-3767988D01*
X2980690Y-3779164D01*
X2991307Y-3789121D01*
X3003042Y-3797655D01*
X3015742Y-3804615D01*
X3029254Y-3809949D01*
X3043326Y-3813606D01*
X3058210Y-3815384D01*
X3062071Y-3816197D01*
X3065373Y-3818382D01*
X3067558Y-3821684D01*
X3068370Y-3825544D01*
X3068370Y-3908196D01*
X3067558Y-3912057D01*
X3065373Y-3915359D01*
X3062071Y-3917594D01*
X3058210Y-3918356D01*
X3044596Y-3918356D01*
X3038297Y-3919067D01*
X3032912Y-3920947D01*
X3028035Y-3923995D01*
X3023971Y-3928059D01*
X3020923Y-3932885D01*
X3019044Y-3938320D01*
X3018332Y-3944569D01*
X3018332Y-4093413D01*
X3019044Y-4099712D01*
X3020923Y-4105097D01*
X3023971Y-4109974D01*
X3028035Y-4113987D01*
X3032912Y-4117035D01*
X3038297Y-4118965D01*
X3044596Y-4119676D01*
X3193440Y-4119676D01*
X3199688Y-4118965D01*
X3205124Y-4117035D01*
X3209950Y-4113987D01*
X3214014Y-4109974D01*
X3217062Y-4105097D01*
X3218942Y-4099712D01*
X3219653Y-4093413D01*
X3219653Y-3944569D01*
X3218942Y-3938320D01*
X3217062Y-3932885D01*
X3214014Y-3928059D01*
X3209950Y-3923995D01*
X3205124Y-3920947D01*
X3199688Y-3919067D01*
X3193440Y-3918356D01*
X3179826Y-3918356D01*
X3175914Y-3917594D01*
X3172612Y-3915359D01*
X3170428Y-3912057D01*
X3169666Y-3908196D01*
X3169564Y-3749598D01*
X3170377Y-3747058D01*
X3172510Y-3742588D01*
X3176981Y-3728770D01*
X3179724Y-3714496D01*
X3180638Y-3700018D01*
X3179724Y-3685489D01*
X3176981Y-3671265D01*
X3174390Y-3663289D01*
X3173933Y-3659530D01*
X3174898Y-3655822D01*
X3177133Y-3652774D01*
X3180334Y-3650691D01*
X3184093Y-3649979D01*
X3815943Y-3649979D01*
X3819651Y-3650691D01*
X3822903Y-3652774D01*
X3825138Y-3655822D01*
X3826052Y-3659530D01*
X3825595Y-3663289D01*
X3823004Y-3671265D01*
X3820261Y-3685489D01*
X3819347Y-3700018D01*
X3820261Y-3714496D01*
X3823004Y-3728770D01*
X3827475Y-3742588D01*
X3829608Y-3747058D01*
X3830421Y-3749598D01*
X3830370Y-3926484D01*
X3829862Y-3929583D01*
X3828440Y-3932428D01*
X3826205Y-3934663D01*
X3816045Y-3942130D01*
X3806342Y-3951478D01*
X3798011Y-3962044D01*
X3791204Y-3973626D01*
X3785920Y-3985971D01*
X3782364Y-3998976D01*
X3780586Y-4012285D01*
X3780586Y-4025747D01*
X3782364Y-4039057D01*
X3785920Y-4052011D01*
X3791204Y-4064406D01*
X3798011Y-4075937D01*
X3806342Y-4086504D01*
X3816045Y-4095851D01*
X3826865Y-4103827D01*
X3838651Y-4110278D01*
X3851198Y-4115104D01*
X3864254Y-4118254D01*
X3877614Y-4119575D01*
X3891076Y-4119118D01*
X3904335Y-4116882D01*
X3917187Y-4112920D01*
X3929379Y-4107230D01*
X3940708Y-4100017D01*
X3950970Y-4091330D01*
X3959961Y-4081373D01*
X3967581Y-4070299D01*
X3973626Y-4058310D01*
X3978046Y-4045610D01*
X3980738Y-4032402D01*
X3981653Y-4018991D01*
X3980738Y-4005579D01*
X3978046Y-3992422D01*
X3973626Y-3979722D01*
X3967581Y-3967734D01*
X3959961Y-3956659D01*
X3950970Y-3946651D01*
X3940708Y-3937965D01*
X3936339Y-3935222D01*
X3933850Y-3932936D01*
X3932224Y-3929989D01*
X3931665Y-3926636D01*
X3931665Y-3825544D01*
X3932428Y-3821684D01*
X3934612Y-3818382D01*
X3937914Y-3816197D01*
X3942283Y-3815384D01*
X3956659Y-3813606D01*
X3970731Y-3809949D01*
X3984244Y-3804615D01*
X3996944Y-3797655D01*
X4008729Y-3789121D01*
X4018889Y-3779520D01*
X4022191Y-3777437D01*
X4026001Y-3776776D01*
X4029811Y-3777589D01*
X4033062Y-3779723D01*
X4136948Y-3883660D01*
X4139285Y-3887317D01*
X4139895Y-3891584D01*
X4139336Y-3900017D01*
X4140200Y-3912209D01*
X4142790Y-3924147D01*
X4147058Y-3935577D01*
X4152900Y-3946296D01*
X4160215Y-3956050D01*
X4168851Y-3964736D01*
X4178655Y-3972051D01*
X4189374Y-3977894D01*
X4200804Y-3982161D01*
X4212742Y-3984751D01*
X4224934Y-3985615D01*
X4237126Y-3984751D01*
X4249064Y-3982161D01*
X4260494Y-3977894D01*
X4271213Y-3972051D01*
X4281017Y-3964736D01*
X4289653Y-3956050D01*
X4291888Y-3953103D01*
X4294632Y-3950563D01*
X4298137Y-3949242D01*
X4301896Y-3949242D01*
X4305350Y-3950563D01*
X4308144Y-3953103D01*
X4310329Y-3956050D01*
X4318965Y-3964736D01*
X4328769Y-3972051D01*
X4339488Y-3977894D01*
X4350918Y-3982161D01*
X4362856Y-3984751D01*
X4375048Y-3985615D01*
X4387240Y-3984751D01*
X4399178Y-3982161D01*
X4410608Y-3977894D01*
X4421327Y-3972051D01*
X4431131Y-3964736D01*
X4439767Y-3956050D01*
X4447082Y-3946296D01*
X4452924Y-3935577D01*
X4457192Y-3924147D01*
X4459833Y-3912209D01*
X4460697Y-3900017D01*
X4459833Y-3887825D01*
X4457192Y-3875887D01*
X4452924Y-3864406D01*
X4447082Y-3853687D01*
X4439767Y-3843934D01*
X4433620Y-3837787D01*
X4431436Y-3834485D01*
X4430674Y-3830624D01*
X4430674Y-3810203D01*
X4430471Y-3805580D01*
X4429861Y-3801211D01*
X4428896Y-3796893D01*
X4427575Y-3792677D01*
X4425899Y-3788613D01*
X4423867Y-3784701D01*
X4421479Y-3780942D01*
X4418787Y-3777437D01*
X4415637Y-3774033D01*
X4355998Y-3714343D01*
X4352544Y-3711194D01*
X4349038Y-3708501D01*
X4345330Y-3706164D01*
X4341418Y-3704082D01*
X4337304Y-3702405D01*
X4333087Y-3701084D01*
X4328769Y-3700119D01*
X4324400Y-3699560D01*
X4319778Y-3699357D01*
X4285183Y-3699357D01*
X4281322Y-3698595D01*
X4278020Y-3696360D01*
X4248962Y-3667353D01*
X4246727Y-3663899D01*
X4246016Y-3659784D01*
X4246981Y-3655771D01*
X4249521Y-3652469D01*
X4253128Y-3650487D01*
X4257243Y-3650081D01*
X4261205Y-3651351D01*
X4264863Y-3653434D01*
X4278376Y-3660140D01*
X4292244Y-3665067D01*
X4306671Y-3668217D01*
X4321302Y-3669537D01*
X4336034Y-3669080D01*
X4350613Y-3666845D01*
X4364736Y-3662832D01*
X4378299Y-3657092D01*
X4388205Y-3651351D01*
X4390644Y-3650335D01*
X4393285Y-3649979D01*
X5306720Y-3649979D01*
X5309666Y-3650437D01*
X5312308Y-3651707D01*
X5315204Y-3653586D01*
X5328361Y-3660140D01*
X5342280Y-3665067D01*
X5356656Y-3668217D01*
X5371338Y-3669537D01*
X5386019Y-3669080D01*
X5400598Y-3666845D01*
X5414772Y-3662832D01*
X5428335Y-3657092D01*
X5438190Y-3651351D01*
X5440680Y-3650335D01*
X5443270Y-3649979D01*
X6478828Y-3649979D01*
X6482740Y-3650792D01*
X6485991Y-3652977D01*
X6488226Y-3656279D01*
X6488988Y-3660140D01*
X6488226Y-3664051D01*
X6485991Y-3667353D01*
X6423964Y-3729431D01*
X6420815Y-3732834D01*
X6418122Y-3736340D01*
X6415735Y-3740048D01*
X6413703Y-3743960D01*
X6412026Y-3748074D01*
X6410706Y-3752291D01*
X6409740Y-3756609D01*
X6409131Y-3760978D01*
X6408928Y-3765600D01*
X6408928Y-3989171D01*
X6408166Y-3993083D01*
X6405981Y-3996385D01*
X6402679Y-3998569D01*
X6398768Y-3999331D01*
X5909005Y-3999331D01*
X5905957Y-3998874D01*
X5903214Y-3997553D01*
X5900978Y-3995470D01*
X5898032Y-3991711D01*
X5887313Y-3980942D01*
X5875375Y-3971594D01*
X5862370Y-3963771D01*
X5848553Y-3957523D01*
X5834075Y-3953001D01*
X5819140Y-3950258D01*
X5804001Y-3949344D01*
X5788863Y-3950258D01*
X5773928Y-3953001D01*
X5759450Y-3957523D01*
X5745632Y-3963771D01*
X5732627Y-3971594D01*
X5720689Y-3980942D01*
X5709970Y-3991711D01*
X5700623Y-4003649D01*
X5692749Y-4016603D01*
X5686247Y-4031030D01*
X5684012Y-4034180D01*
X5680760Y-4036263D01*
X5677001Y-4036974D01*
X5673191Y-4036263D01*
X5669940Y-4034180D01*
X5667705Y-4031030D01*
X5661253Y-4016603D01*
X5653379Y-4003649D01*
X5644032Y-3991711D01*
X5633313Y-3980942D01*
X5621375Y-3971594D01*
X5608370Y-3963771D01*
X5594553Y-3957523D01*
X5580075Y-3953001D01*
X5565140Y-3950258D01*
X5550001Y-3949344D01*
X5534863Y-3950258D01*
X5519928Y-3953001D01*
X5505450Y-3957523D01*
X5491632Y-3963771D01*
X5478627Y-3971594D01*
X5466689Y-3980942D01*
X5455970Y-3991711D01*
X5446623Y-4003649D01*
X5440527Y-4013708D01*
X5437479Y-4016857D01*
X5433466Y-4018483D01*
X5429097Y-4018229D01*
X5425236Y-4016197D01*
X5422595Y-4012742D01*
X5421630Y-4008475D01*
X5421630Y-3975557D01*
X5420969Y-3969308D01*
X5419039Y-3963873D01*
X5415991Y-3959047D01*
X5411978Y-3954983D01*
X5407101Y-3951935D01*
X5401716Y-3950055D01*
X5395417Y-3949344D01*
X5196586Y-3949344D01*
X5190286Y-3950055D01*
X5184902Y-3951935D01*
X5180025Y-3954983D01*
X5176012Y-3959047D01*
X5172964Y-3963873D01*
X5171033Y-3969308D01*
X5170322Y-3975557D01*
X5170322Y-4039209D01*
X5169560Y-4043070D01*
X5167376Y-4046372D01*
X5164074Y-4048556D01*
X5160162Y-4049369D01*
X4375251Y-4049369D01*
X4370578Y-4049572D01*
X4366209Y-4050131D01*
X4361891Y-4051096D01*
X4357674Y-4052417D01*
X4353610Y-4054094D01*
X4349699Y-4056126D01*
X4345940Y-4058513D01*
X4342434Y-4061206D01*
X4339031Y-4064355D01*
X4295089Y-4108297D01*
X4292041Y-4110380D01*
X4288485Y-4111244D01*
X4284827Y-4110786D01*
X4279188Y-4109008D01*
X4264710Y-4106265D01*
X4249978Y-4105401D01*
X4235297Y-4106265D01*
X4220819Y-4109008D01*
X4206798Y-4113479D01*
X4193387Y-4119626D01*
X4180890Y-4127347D01*
X4169410Y-4136593D01*
X4159148Y-4147159D01*
X4150309Y-4158945D01*
X4142943Y-4171696D01*
X4137202Y-4185259D01*
X4133138Y-4199432D01*
X4130903Y-4213961D01*
X4130446Y-4228693D01*
X4131818Y-4243324D01*
X4134967Y-4257751D01*
X4139844Y-4271619D01*
X4146397Y-4284827D01*
X4154525Y-4297070D01*
X4164126Y-4308246D01*
X4174998Y-4318203D01*
X4187037Y-4326686D01*
X4199991Y-4333646D01*
X4213758Y-4338980D01*
X4228033Y-4342587D01*
X4242612Y-4344365D01*
X4257344Y-4344365D01*
X4271975Y-4342587D01*
X4286250Y-4338980D01*
X4300016Y-4333646D01*
X4312970Y-4326686D01*
X4325010Y-4318203D01*
X4335881Y-4308246D01*
X4345432Y-4297070D01*
X4353610Y-4284827D01*
X4360164Y-4271619D01*
X4365040Y-4257751D01*
X4368190Y-4243324D01*
X4369562Y-4228693D01*
X4369104Y-4213961D01*
X4366869Y-4199432D01*
X4364126Y-4189882D01*
X4363770Y-4186326D01*
X4364685Y-4182872D01*
X4366717Y-4179925D01*
X4393031Y-4153611D01*
X4396282Y-4151426D01*
X4400194Y-4150664D01*
X5149189Y-4150664D01*
X5153050Y-4151426D01*
X5156352Y-4153611D01*
X5158587Y-4156913D01*
X5159349Y-4160824D01*
X5158587Y-4164685D01*
X5156352Y-4167987D01*
X4889347Y-4434992D01*
X4886198Y-4438446D01*
X4883505Y-4441952D01*
X4881168Y-4445660D01*
X4879086Y-4449572D01*
X4877409Y-4453686D01*
X4876088Y-4457903D01*
X4875123Y-4462221D01*
X4874564Y-4466590D01*
X4874361Y-4471212D01*
X4874361Y-4485538D01*
X4873752Y-4488992D01*
X4871974Y-4492040D01*
X4869281Y-4494326D01*
X4858918Y-4500270D01*
X4847183Y-4509160D01*
X4836617Y-4519422D01*
X4827371Y-4530902D01*
X4819599Y-4543399D01*
X4813452Y-4556810D01*
X4808982Y-4570831D01*
X4806289Y-4585309D01*
X4805375Y-4599990D01*
X4806289Y-4614722D01*
X4808982Y-4629200D01*
X4813452Y-4643221D01*
X4819599Y-4656582D01*
X4827371Y-4669129D01*
X4836617Y-4680559D01*
X4847183Y-4690821D01*
X4858918Y-4699711D01*
X4871669Y-4707077D01*
X4885232Y-4712817D01*
X4899406Y-4716830D01*
X4913985Y-4719116D01*
X4928666Y-4719574D01*
X4943348Y-4718202D01*
X4957724Y-4715052D01*
X4971643Y-4710176D01*
X4984800Y-4703572D01*
X4997094Y-4695444D01*
X5008270Y-4685893D01*
X5018176Y-4674971D01*
X5026710Y-4662982D01*
X5033670Y-4649978D01*
X5039004Y-4636262D01*
X5042560Y-4621987D01*
X5044389Y-4607356D01*
X5044389Y-4592624D01*
X5042560Y-4578045D01*
X5039004Y-4563719D01*
X5033670Y-4550003D01*
X5026710Y-4537049D01*
X5018176Y-4525010D01*
X5008270Y-4514138D01*
X4997094Y-4504537D01*
X4986985Y-4497882D01*
X4983886Y-4494631D01*
X4982514Y-4490415D01*
X4983022Y-4485995D01*
X4985410Y-4482185D01*
X5214010Y-4253636D01*
X5217312Y-4251452D01*
X5221173Y-4250639D01*
X5395417Y-4250639D01*
X5401716Y-4249928D01*
X5407101Y-4248048D01*
X5411978Y-4245000D01*
X5415991Y-4240936D01*
X5419039Y-4236110D01*
X5420969Y-4230674D01*
X5421630Y-4224426D01*
X5421630Y-4191558D01*
X5422595Y-4187291D01*
X5425236Y-4183786D01*
X5429097Y-4181754D01*
X5433466Y-4181500D01*
X5437479Y-4183126D01*
X5440527Y-4186275D01*
X5448808Y-4200042D01*
X5449366Y-4203395D01*
X5449366Y-4709668D01*
X5450230Y-4723130D01*
X5452821Y-4736033D01*
X5457037Y-4748530D01*
X5462828Y-4760315D01*
X5470144Y-4771237D01*
X5479084Y-4781397D01*
X5546394Y-4848707D01*
X5548579Y-4852009D01*
X5549341Y-4855921D01*
X5549341Y-5446623D01*
X5548782Y-5449925D01*
X5540502Y-5463692D01*
X5537504Y-5466892D01*
X5533440Y-5468467D01*
X5529072Y-5468264D01*
X5525211Y-5466181D01*
X5522569Y-5462727D01*
X5521655Y-5458460D01*
X5521655Y-5425592D01*
X5520944Y-5419293D01*
X5519064Y-5413908D01*
X5516016Y-5409031D01*
X5511952Y-5404967D01*
X5507126Y-5401919D01*
X5501690Y-5400040D01*
X5495442Y-5399328D01*
X5296560Y-5399328D01*
X5290312Y-5400040D01*
X5284876Y-5401919D01*
X5280050Y-5404967D01*
X5275986Y-5409031D01*
X5272938Y-5413908D01*
X5271058Y-5419293D01*
X5270347Y-5425592D01*
X5270347Y-5674410D01*
X5271058Y-5680710D01*
X5272938Y-5686094D01*
X5275986Y-5690971D01*
X5280050Y-5694984D01*
X5284876Y-5698032D01*
X5290312Y-5699963D01*
X5296560Y-5700674D01*
X5335168Y-5700674D01*
X5339080Y-5701436D01*
X5342382Y-5703620D01*
X5344566Y-5706922D01*
X5345328Y-5710834D01*
X5345328Y-5813653D01*
X5344464Y-5817819D01*
X5341924Y-5821222D01*
X5338267Y-5823305D01*
X5334000Y-5823712D01*
X5329986Y-5822340D01*
X5326888Y-5819444D01*
X5322976Y-5813907D01*
X5316067Y-5806998D01*
X5308041Y-5801410D01*
X5299202Y-5797245D01*
X5289753Y-5794756D01*
X5279999Y-5793892D01*
X5270246Y-5794756D01*
X5260797Y-5797245D01*
X5251958Y-5801410D01*
X5243931Y-5806998D01*
X5237022Y-5813907D01*
X5231384Y-5821934D01*
X5230012Y-5824931D01*
X5227726Y-5828080D01*
X5224424Y-5830112D01*
X5220563Y-5830773D01*
X5216753Y-5829909D01*
X5213553Y-5827725D01*
X5211419Y-5824423D01*
X5210657Y-5820613D01*
X5210657Y-5610199D01*
X5210454Y-5605576D01*
X5209895Y-5601208D01*
X5208930Y-5596890D01*
X5207609Y-5592673D01*
X5205882Y-5588609D01*
X5203850Y-5584698D01*
X5201462Y-5580938D01*
X5198770Y-5577433D01*
X5195671Y-5574030D01*
X5165953Y-5544362D01*
X5162550Y-5541213D01*
X5159044Y-5538520D01*
X5155336Y-5536133D01*
X5151424Y-5534101D01*
X5147310Y-5532424D01*
X5143093Y-5531104D01*
X5138775Y-5530138D01*
X5134406Y-5529529D01*
X5129784Y-5529326D01*
X4580178Y-5529326D01*
X4576318Y-5528564D01*
X4573016Y-5526379D01*
X4366768Y-5320131D01*
X4364685Y-5317032D01*
X4363821Y-5313324D01*
X4364380Y-5309565D01*
X4365040Y-5307736D01*
X4368190Y-5293360D01*
X4369562Y-5278678D01*
X4369104Y-5263946D01*
X4366869Y-5249418D01*
X4362805Y-5235244D01*
X4357065Y-5221681D01*
X4349699Y-5208930D01*
X4340860Y-5197195D01*
X4330598Y-5186578D01*
X4319117Y-5177383D01*
X4305503Y-5169052D01*
X4302912Y-5166766D01*
X4301236Y-5163769D01*
X4300677Y-5160365D01*
X4300677Y-4642205D01*
X4300474Y-4637582D01*
X4299864Y-4633214D01*
X4298899Y-4628896D01*
X4297578Y-4624679D01*
X4295902Y-4620615D01*
X4293870Y-4616653D01*
X4291482Y-4612944D01*
X4288790Y-4609439D01*
X4285640Y-4606036D01*
X3982110Y-4302455D01*
X3980179Y-4299762D01*
X3979214Y-4296613D01*
X3979316Y-4293260D01*
X3980738Y-4286402D01*
X3981653Y-4272991D01*
X3980738Y-4259580D01*
X3978046Y-4246422D01*
X3973626Y-4233722D01*
X3967581Y-4221734D01*
X3959961Y-4210659D01*
X3950970Y-4200652D01*
X3940708Y-4191965D01*
X3929379Y-4184751D01*
X3917187Y-4179112D01*
X3904335Y-4175099D01*
X3891076Y-4172864D01*
X3877614Y-4172407D01*
X3864254Y-4173778D01*
X3851198Y-4176877D01*
X3838651Y-4181703D01*
X3826865Y-4188155D01*
X3816045Y-4196130D01*
X3806342Y-4205478D01*
X3798011Y-4216044D01*
X3791204Y-4227626D01*
X3785920Y-4239971D01*
X3782364Y-4252976D01*
X3780586Y-4266285D01*
X3780586Y-4279747D01*
X3782364Y-4293057D01*
X3785920Y-4306011D01*
X3791204Y-4318406D01*
X3798011Y-4329938D01*
X3806342Y-4340504D01*
X3816045Y-4349851D01*
X3826865Y-4357827D01*
X3838651Y-4364278D01*
X3851198Y-4369104D01*
X3864254Y-4372254D01*
X3877614Y-4373575D01*
X3891076Y-4373118D01*
X3901643Y-4371340D01*
X3904894Y-4371289D01*
X3907942Y-4372305D01*
X3910533Y-4374184D01*
X4196384Y-4659985D01*
X4198569Y-4663287D01*
X4199331Y-4667199D01*
X4199331Y-5160365D01*
X4198772Y-5163769D01*
X4197096Y-5166766D01*
X4194505Y-5169052D01*
X4180890Y-5177383D01*
X4169410Y-5186578D01*
X4159148Y-5197195D01*
X4150309Y-5208930D01*
X4142943Y-5221681D01*
X4137202Y-5235244D01*
X4133138Y-5249418D01*
X4130903Y-5263946D01*
X4130446Y-5278678D01*
X4131818Y-5293360D01*
X4134967Y-5307736D01*
X4139844Y-5321604D01*
X4146397Y-5334812D01*
X4154525Y-5347106D01*
X4164126Y-5358282D01*
X4174998Y-5368188D01*
X4187037Y-5376672D01*
X4199991Y-5383682D01*
X4213758Y-5388965D01*
X4228033Y-5392572D01*
X4242612Y-5394401D01*
X4257344Y-5394401D01*
X4271975Y-5392572D01*
X4285538Y-5389168D01*
X4288993Y-5388914D01*
X4292346Y-5389829D01*
X4295190Y-5391810D01*
X4519015Y-5615635D01*
X4522470Y-5618784D01*
X4525975Y-5621477D01*
X4529683Y-5623864D01*
X4533595Y-5625896D01*
X4537710Y-5627573D01*
X4541875Y-5628894D01*
X4546193Y-5629859D01*
X4550613Y-5630468D01*
X4555236Y-5630672D01*
X5099202Y-5630672D01*
X5103063Y-5631434D01*
X5106365Y-5633618D01*
X5108549Y-5636920D01*
X5109362Y-5640832D01*
X5109362Y-5914085D01*
X5108397Y-5918403D01*
X5107279Y-5920790D01*
X5104739Y-5930239D01*
X5103876Y-5939993D01*
X5104739Y-5949746D01*
X5107279Y-5959195D01*
X5111394Y-5968034D01*
X5117033Y-5976061D01*
X5123942Y-5982970D01*
X5128260Y-5986018D01*
X5131104Y-5989015D01*
X5132476Y-5992876D01*
X5132273Y-5996990D01*
X5130393Y-6000648D01*
X5127244Y-6003290D01*
X5123332Y-6004458D01*
X5120233Y-6004712D01*
X5110784Y-6007252D01*
X5108397Y-6008370D01*
X5104079Y-6009335D01*
X5070805Y-6009335D01*
X5066944Y-6008573D01*
X5063642Y-6006388D01*
X5061407Y-6003086D01*
X5060645Y-5999175D01*
X5060645Y-5850229D01*
X5060442Y-5845606D01*
X5059883Y-5841187D01*
X5058918Y-5836869D01*
X5057597Y-5832652D01*
X5055920Y-5828588D01*
X5053838Y-5824677D01*
X5051501Y-5820968D01*
X5048808Y-5817463D01*
X5045659Y-5814009D01*
X4955997Y-5724347D01*
X4952542Y-5721197D01*
X4949037Y-5718505D01*
X4945329Y-5716117D01*
X4941417Y-5714085D01*
X4937302Y-5712409D01*
X4933086Y-5711088D01*
X4928768Y-5710123D01*
X4924399Y-5709564D01*
X4919776Y-5709361D01*
X4855921Y-5709361D01*
X4851603Y-5708396D01*
X4849215Y-5707278D01*
X4839766Y-5704738D01*
X4830013Y-5703874D01*
X4820259Y-5704738D01*
X4810810Y-5707278D01*
X4801920Y-5711393D01*
X4793945Y-5717032D01*
X4787036Y-5723940D01*
X4781397Y-5731916D01*
X4777282Y-5740806D01*
X4774742Y-5750255D01*
X4773879Y-5760008D01*
X4774742Y-5769762D01*
X4777282Y-5779211D01*
X4781397Y-5788050D01*
X4787036Y-5796076D01*
X4793945Y-5802985D01*
X4801920Y-5808573D01*
X4810810Y-5812739D01*
X4820259Y-5815279D01*
X4830013Y-5816092D01*
X4839766Y-5815279D01*
X4849215Y-5812739D01*
X4851603Y-5811621D01*
X4855921Y-5810656D01*
X4894783Y-5810656D01*
X4898694Y-5811418D01*
X4901996Y-5813653D01*
X4956352Y-5868009D01*
X4958588Y-5871311D01*
X4959350Y-5875172D01*
X4959350Y-5963056D01*
X4958537Y-5967018D01*
X4956200Y-5970371D01*
X4952746Y-5972556D01*
X4948682Y-5973165D01*
X4944719Y-5972149D01*
X4941519Y-5969660D01*
X4939487Y-5966104D01*
X4936540Y-5956808D01*
X4930394Y-5943396D01*
X4922621Y-5930900D01*
X4913376Y-5919419D01*
X4902809Y-5909157D01*
X4891074Y-5900267D01*
X4878324Y-5892901D01*
X4864760Y-5887161D01*
X4850587Y-5883148D01*
X4836058Y-5880912D01*
X4821326Y-5880455D01*
X4806645Y-5881776D01*
X4792268Y-5884976D01*
X4778400Y-5889853D01*
X4765192Y-5896406D01*
X4752898Y-5904534D01*
X4741722Y-5914136D01*
X4731816Y-5925007D01*
X4723282Y-5937046D01*
X4716322Y-5950000D01*
X4710988Y-5963716D01*
X4707432Y-5978042D01*
X4705604Y-5992622D01*
X4705604Y-6007354D01*
X4707432Y-6021984D01*
X4710988Y-6036259D01*
X4716322Y-6049975D01*
X4723282Y-6062980D01*
X4731816Y-6074968D01*
X4741722Y-6085890D01*
X4752898Y-6095441D01*
X4765192Y-6103569D01*
X4768697Y-6105347D01*
X4771694Y-6107582D01*
X4773676Y-6110782D01*
X4774336Y-6114440D01*
X4774336Y-6189776D01*
X4773574Y-6193688D01*
X4771390Y-6196990D01*
X4494326Y-6474002D01*
X4491228Y-6477457D01*
X4488535Y-6480962D01*
X4486148Y-6484670D01*
X4484116Y-6488582D01*
X4482388Y-6492697D01*
X4481068Y-6496913D01*
X4480102Y-6501180D01*
X4479544Y-6505600D01*
X4479340Y-6510223D01*
X4479340Y-6636308D01*
X4478731Y-6639814D01*
X4476851Y-6642912D01*
X4474057Y-6645198D01*
X4461052Y-6652361D01*
X4449318Y-6660896D01*
X4438700Y-6670852D01*
X4429455Y-6682028D01*
X4421682Y-6694271D01*
X4415485Y-6707428D01*
X4411014Y-6721246D01*
X4408271Y-6735521D01*
X4407357Y-6749999D01*
X4408271Y-6764477D01*
X4411014Y-6778752D01*
X4415485Y-6792569D01*
X4421682Y-6805726D01*
X4429455Y-6817969D01*
X4438700Y-6829145D01*
X4449318Y-6839102D01*
X4461052Y-6847636D01*
X4473752Y-6854647D01*
X4487265Y-6859981D01*
X4501337Y-6863588D01*
X4515764Y-6865416D01*
X4530242Y-6865416D01*
X4544669Y-6863588D01*
X4558741Y-6859981D01*
X4572254Y-6854647D01*
X4584954Y-6847636D01*
X4596688Y-6839102D01*
X4607306Y-6829145D01*
X4616551Y-6817969D01*
X4624324Y-6805726D01*
X4630521Y-6792569D01*
X4634992Y-6778752D01*
X4637735Y-6764477D01*
X4638649Y-6749999D01*
X4637735Y-6735521D01*
X4634992Y-6721246D01*
X4630521Y-6707428D01*
X4624324Y-6694271D01*
X4616551Y-6682028D01*
X4607306Y-6670852D01*
X4596688Y-6660896D01*
X4584852Y-6652259D01*
X4582617Y-6650024D01*
X4581144Y-6647180D01*
X4580636Y-6644081D01*
X4580636Y-6535166D01*
X4581448Y-6531305D01*
X4583633Y-6528003D01*
X4860645Y-6250940D01*
X4863795Y-6247536D01*
X4866487Y-6244031D01*
X4868875Y-6240322D01*
X4870907Y-6236411D01*
X4872583Y-6232296D01*
X4873904Y-6228080D01*
X4874869Y-6223762D01*
X4875479Y-6219393D01*
X4875682Y-6214770D01*
X4875682Y-6114491D01*
X4876292Y-6110986D01*
X4878019Y-6107938D01*
X4880762Y-6105652D01*
X4891074Y-6099708D01*
X4902809Y-6090818D01*
X4913376Y-6080607D01*
X4922621Y-6069126D01*
X4930394Y-6056579D01*
X4936540Y-6043218D01*
X4939842Y-6032906D01*
X4941671Y-6029452D01*
X4944719Y-6027013D01*
X4948428Y-6025845D01*
X4952339Y-6026200D01*
X4955794Y-6027978D01*
X4958334Y-6030925D01*
X4959553Y-6034633D01*
X4960112Y-6038799D01*
X4961077Y-6043117D01*
X4962398Y-6047333D01*
X4964074Y-6051397D01*
X4966157Y-6055309D01*
X4968494Y-6059068D01*
X4971186Y-6062573D01*
X4974336Y-6065977D01*
X5004003Y-6095644D01*
X5007457Y-6098794D01*
X5010962Y-6101486D01*
X5014671Y-6103874D01*
X5018582Y-6105906D01*
X5022697Y-6107582D01*
X5026914Y-6108903D01*
X5031181Y-6109868D01*
X5035600Y-6110427D01*
X5040223Y-6110630D01*
X5104079Y-6110630D01*
X5108397Y-6111595D01*
X5110784Y-6112713D01*
X5120233Y-6115253D01*
X5129987Y-6116116D01*
X5139740Y-6115253D01*
X5149189Y-6112713D01*
X5151628Y-6111595D01*
X5155895Y-6110630D01*
X5163159Y-6110630D01*
X5167071Y-6111443D01*
X5170373Y-6113627D01*
X5172557Y-6116929D01*
X5173319Y-6120790D01*
X5172557Y-6124702D01*
X5170373Y-6128004D01*
X5154320Y-6144006D01*
X5151221Y-6147460D01*
X5148529Y-6150965D01*
X5146141Y-6154674D01*
X5144109Y-6158585D01*
X5142382Y-6162700D01*
X5141061Y-6166866D01*
X5140147Y-6171184D01*
X5139537Y-6175502D01*
X5139436Y-6179058D01*
X5138521Y-6182969D01*
X5136134Y-6186271D01*
X5132679Y-6188354D01*
X5128361Y-6189827D01*
X5115204Y-6196431D01*
X5102910Y-6204559D01*
X5091734Y-6214110D01*
X5081828Y-6225032D01*
X5073294Y-6237020D01*
X5066334Y-6250025D01*
X5061000Y-6263741D01*
X5057444Y-6278016D01*
X5055616Y-6292646D01*
X5055616Y-6307378D01*
X5057444Y-6321958D01*
X5061000Y-6336284D01*
X5066334Y-6350000D01*
X5073294Y-6362954D01*
X5081828Y-6374993D01*
X5091734Y-6385864D01*
X5102910Y-6395466D01*
X5115204Y-6403594D01*
X5128361Y-6410147D01*
X5142280Y-6415024D01*
X5156657Y-6418224D01*
X5171338Y-6419545D01*
X5186019Y-6419088D01*
X5200599Y-6416852D01*
X5214772Y-6412839D01*
X5228336Y-6407099D01*
X5241086Y-6399733D01*
X5252821Y-6390843D01*
X5263388Y-6380581D01*
X5272633Y-6369100D01*
X5280406Y-6356604D01*
X5286552Y-6343192D01*
X5291023Y-6329172D01*
X5293715Y-6314694D01*
X5294630Y-6300012D01*
X5293715Y-6285280D01*
X5291023Y-6270802D01*
X5286552Y-6256782D01*
X5280406Y-6243421D01*
X5272633Y-6230874D01*
X5263388Y-6219393D01*
X5252821Y-6209182D01*
X5250535Y-6207455D01*
X5247741Y-6204153D01*
X5246522Y-6200038D01*
X5247132Y-6195771D01*
X5249468Y-6192164D01*
X5268010Y-6173622D01*
X5271312Y-6171438D01*
X5275173Y-6170676D01*
X5373725Y-6170676D01*
X5377942Y-6171438D01*
X5381802Y-6170676D01*
X5468162Y-6170676D01*
X5471972Y-6171387D01*
X5475782Y-6170676D01*
X5524804Y-6170676D01*
X5528716Y-6171438D01*
X5532018Y-6173622D01*
X5694019Y-6335674D01*
X5697423Y-6338773D01*
X5700928Y-6341465D01*
X5704687Y-6343853D01*
X5708599Y-6345885D01*
X5712663Y-6347612D01*
X5716879Y-6348933D01*
X5721197Y-6349898D01*
X5725566Y-6350457D01*
X5730240Y-6350660D01*
X6360617Y-6350660D01*
X6364173Y-6351320D01*
X6367322Y-6353149D01*
X6369558Y-6355994D01*
X6373317Y-6362954D01*
X6381800Y-6374993D01*
X6391757Y-6385864D01*
X6402933Y-6395466D01*
X6415176Y-6403594D01*
X6428384Y-6410147D01*
X6442252Y-6415024D01*
X6456629Y-6418224D01*
X6471310Y-6419545D01*
X6486042Y-6419088D01*
X6500571Y-6416852D01*
X6514744Y-6412839D01*
X6528307Y-6407099D01*
X6541058Y-6399733D01*
X6552844Y-6390843D01*
X6563410Y-6380581D01*
X6572605Y-6369100D01*
X6580378Y-6356604D01*
X6586524Y-6343192D01*
X6590995Y-6329172D01*
X6593687Y-6314694D01*
X6594602Y-6300012D01*
X6593687Y-6285280D01*
X6590995Y-6270802D01*
X6586524Y-6256782D01*
X6580378Y-6243421D01*
X6572605Y-6230874D01*
X6563410Y-6219393D01*
X6552844Y-6209182D01*
X6541058Y-6200292D01*
X6528307Y-6192926D01*
X6514744Y-6187186D01*
X6500571Y-6183172D01*
X6486042Y-6180886D01*
X6471310Y-6180429D01*
X6456629Y-6181801D01*
X6442252Y-6184950D01*
X6428384Y-6189827D01*
X6415176Y-6196431D01*
X6402933Y-6204559D01*
X6391757Y-6214110D01*
X6381800Y-6225032D01*
X6373317Y-6237020D01*
X6369558Y-6243980D01*
X6367322Y-6246825D01*
X6364173Y-6248704D01*
X6360617Y-6249365D01*
X5755182Y-6249365D01*
X5751322Y-6248552D01*
X5748020Y-6246368D01*
X5585968Y-6084316D01*
X5582564Y-6081217D01*
X5579059Y-6078524D01*
X5575300Y-6076137D01*
X5571388Y-6074105D01*
X5567426Y-6072479D01*
X5560923Y-6070549D01*
X5557266Y-6068669D01*
X5554675Y-6065418D01*
X5553608Y-6061456D01*
X5554167Y-6057392D01*
X5556351Y-6053836D01*
X5559704Y-6051499D01*
X5563717Y-6050635D01*
X5760618Y-6050635D01*
X5764174Y-6051296D01*
X5767324Y-6053175D01*
X5769559Y-6056020D01*
X5773318Y-6062980D01*
X5781802Y-6074968D01*
X5791708Y-6085890D01*
X5802934Y-6095441D01*
X5815177Y-6103569D01*
X5828385Y-6110173D01*
X5842254Y-6115050D01*
X5856630Y-6118199D01*
X5871311Y-6119571D01*
X5886043Y-6119114D01*
X5900572Y-6116828D01*
X5914745Y-6112814D01*
X5928309Y-6107074D01*
X5941060Y-6099708D01*
X5952845Y-6090818D01*
X5963412Y-6080607D01*
X5972606Y-6069126D01*
X5980938Y-6055512D01*
X5983224Y-6052921D01*
X5986221Y-6051245D01*
X5989624Y-6050635D01*
X6844792Y-6050635D01*
X6848703Y-6051448D01*
X6852005Y-6053632D01*
X7046366Y-6247993D01*
X7048550Y-6251295D01*
X7049363Y-6255207D01*
X7049363Y-6310630D01*
X7048703Y-6314186D01*
X7046823Y-6317284D01*
X7043978Y-6319570D01*
X7037019Y-6323279D01*
X7025030Y-6331813D01*
X7014108Y-6341719D01*
X7004558Y-6352895D01*
X6996430Y-6365189D01*
X6989825Y-6378397D01*
X6984949Y-6392265D01*
X6981799Y-6406642D01*
X6980428Y-6421323D01*
X6980885Y-6436055D01*
X6983171Y-6450584D01*
X6987184Y-6464757D01*
X6992924Y-6478320D01*
X7000290Y-6491071D01*
X7009180Y-6502806D01*
X7019442Y-6513372D01*
X7030872Y-6522618D01*
X7043420Y-6530390D01*
X7056780Y-6536537D01*
X7070801Y-6541007D01*
X7085279Y-6543700D01*
X7100011Y-6544614D01*
X7114692Y-6543700D01*
X7129170Y-6541007D01*
X7143191Y-6536537D01*
X7156602Y-6530390D01*
X7169099Y-6522618D01*
X7180580Y-6513372D01*
X7190841Y-6502806D01*
X7199731Y-6491071D01*
X7207097Y-6478320D01*
X7212838Y-6464757D01*
X7216851Y-6450584D01*
X7219086Y-6436055D01*
X7219543Y-6421323D01*
X7218222Y-6406642D01*
X7215073Y-6392265D01*
X7210145Y-6378397D01*
X7203592Y-6365189D01*
X7195464Y-6352895D01*
X7185863Y-6341719D01*
X7174992Y-6331813D01*
X7162952Y-6323279D01*
X7155992Y-6319570D01*
X7153148Y-6317284D01*
X7151319Y-6314186D01*
X7150658Y-6310630D01*
X7150658Y-6230213D01*
X7150455Y-6225590D01*
X7149896Y-6221222D01*
X7148931Y-6216904D01*
X7147610Y-6212687D01*
X7145883Y-6208572D01*
X7143851Y-6204661D01*
X7141464Y-6200952D01*
X7138771Y-6197447D01*
X7135672Y-6194044D01*
X6905955Y-5964326D01*
X6902551Y-5961227D01*
X6899046Y-5958535D01*
X6895338Y-5956147D01*
X6891426Y-5954115D01*
X6887311Y-5952388D01*
X6883095Y-5951067D01*
X6878777Y-5950102D01*
X6874408Y-5949543D01*
X6869785Y-5949340D01*
X5989624Y-5949340D01*
X5986221Y-5948781D01*
X5983224Y-5947105D01*
X5980938Y-5944514D01*
X5972606Y-5930849D01*
X5963412Y-5919419D01*
X5952845Y-5909157D01*
X5941060Y-5900267D01*
X5928309Y-5892901D01*
X5914745Y-5887161D01*
X5900572Y-5883148D01*
X5886043Y-5880912D01*
X5871311Y-5880455D01*
X5856630Y-5881776D01*
X5842254Y-5884976D01*
X5828385Y-5889853D01*
X5815177Y-5896406D01*
X5802934Y-5904534D01*
X5791708Y-5914136D01*
X5781802Y-5925007D01*
X5773318Y-5937046D01*
X5769559Y-5944006D01*
X5767324Y-5946851D01*
X5764174Y-5948680D01*
X5760618Y-5949340D01*
X5456834Y-5949340D01*
X5452922Y-5948578D01*
X5449620Y-5946394D01*
X5447436Y-5943092D01*
X5446674Y-5939180D01*
X5446674Y-5710834D01*
X5447436Y-5706922D01*
X5449620Y-5703620D01*
X5452922Y-5701436D01*
X5456834Y-5700674D01*
X5495442Y-5700674D01*
X5501690Y-5699963D01*
X5507126Y-5698032D01*
X5511952Y-5694984D01*
X5516016Y-5690971D01*
X5519064Y-5686094D01*
X5520944Y-5680710D01*
X5521655Y-5674410D01*
X5521655Y-5641543D01*
X5522569Y-5637276D01*
X5525211Y-5633821D01*
X5529072Y-5631738D01*
X5533440Y-5631535D01*
X5537504Y-5633110D01*
X5540502Y-5636260D01*
X5546598Y-5646369D01*
X5555945Y-5658307D01*
X5566714Y-5669026D01*
X5578652Y-5678373D01*
X5591606Y-5686247D01*
X5605475Y-5692444D01*
X5619953Y-5696966D01*
X5634837Y-5699709D01*
X5650026Y-5700623D01*
X5665165Y-5699709D01*
X5680049Y-5696966D01*
X5694527Y-5692444D01*
X5708396Y-5686247D01*
X5721350Y-5678373D01*
X5733288Y-5669026D01*
X5744057Y-5658307D01*
X5753404Y-5646369D01*
X5761228Y-5633364D01*
X5767730Y-5618988D01*
X5769965Y-5615838D01*
X5773216Y-5613755D01*
X5777026Y-5612993D01*
X5780786Y-5613755D01*
X5784037Y-5615838D01*
X5786272Y-5618988D01*
X5792774Y-5633364D01*
X5800598Y-5646369D01*
X5809945Y-5658307D01*
X5820714Y-5669026D01*
X5832652Y-5678373D01*
X5845606Y-5686247D01*
X5859475Y-5692444D01*
X5873953Y-5696966D01*
X5888837Y-5699709D01*
X5904026Y-5700623D01*
X5919165Y-5699709D01*
X5934049Y-5696966D01*
X5948527Y-5692444D01*
X5962396Y-5686247D01*
X5975350Y-5678373D01*
X5987288Y-5669026D01*
X5998057Y-5658307D01*
X6007404Y-5646369D01*
X6015228Y-5633364D01*
X6021476Y-5619546D01*
X6025997Y-5605068D01*
X6028740Y-5590133D01*
X6029655Y-5574690D01*
X6029655Y-5570880D01*
X6030417Y-5567019D01*
X6032652Y-5563717D01*
X6182715Y-5413654D01*
X6186017Y-5411419D01*
X6189878Y-5410657D01*
X6629653Y-5410657D01*
X6643116Y-5409793D01*
X6656019Y-5407202D01*
X6668516Y-5402986D01*
X6680301Y-5397144D01*
X6691274Y-5389829D01*
X6701383Y-5380939D01*
X6860387Y-5221935D01*
X6863689Y-5219750D01*
X6867550Y-5218988D01*
X6871462Y-5219750D01*
X6874764Y-5221935D01*
X6983171Y-5329936D01*
X6985304Y-5333085D01*
X6986117Y-5336743D01*
X6985558Y-5340502D01*
X6984949Y-5342280D01*
X6981799Y-5356656D01*
X6980428Y-5371338D01*
X6980885Y-5386019D01*
X6983171Y-5400598D01*
X6987184Y-5414772D01*
X6992924Y-5428335D01*
X7000290Y-5441086D01*
X7009180Y-5452821D01*
X7019442Y-5463387D01*
X7030872Y-5472633D01*
X7043420Y-5480405D01*
X7056780Y-5486552D01*
X7070801Y-5491022D01*
X7085279Y-5493715D01*
X7100011Y-5494629D01*
X7114692Y-5493715D01*
X7129170Y-5491022D01*
X7143191Y-5486552D01*
X7156602Y-5480405D01*
X7169099Y-5472633D01*
X7180580Y-5463387D01*
X7190841Y-5452821D01*
X7199731Y-5441086D01*
X7207097Y-5428335D01*
X7212838Y-5414772D01*
X7216851Y-5400598D01*
X7219086Y-5386019D01*
X7219543Y-5371338D01*
X7218222Y-5356656D01*
X7215073Y-5342280D01*
X7210145Y-5328361D01*
X7203592Y-5315204D01*
X7195464Y-5302910D01*
X7185863Y-5291734D01*
X7174992Y-5281828D01*
X7162952Y-5273294D01*
X7149998Y-5266334D01*
X7136282Y-5261000D01*
X7121956Y-5257444D01*
X7107377Y-5255615D01*
X7092645Y-5255615D01*
X7078014Y-5257444D01*
X7064349Y-5260848D01*
X7060895Y-5261102D01*
X7057542Y-5260187D01*
X7054697Y-5258206D01*
X6946392Y-5150307D01*
X6944207Y-5147005D01*
X6943445Y-5143144D01*
X6944207Y-5139232D01*
X6946392Y-5135930D01*
X7240930Y-4841392D01*
X7249820Y-4831283D01*
X7257135Y-4820310D01*
X7262977Y-4808524D01*
X7267194Y-4796028D01*
X7269784Y-4783124D01*
X7270648Y-4769662D01*
X7270648Y-4215892D01*
X7271410Y-4212031D01*
X7273645Y-4208729D01*
X7278725Y-4203649D01*
X7282027Y-4201414D01*
X7285888Y-4200652D01*
X7396632Y-4200652D01*
X7399934Y-4201210D01*
X7416596Y-4211269D01*
X7431024Y-4217771D01*
X7434173Y-4220006D01*
X7436103Y-4222953D01*
X7436916Y-4222343D01*
X7440574Y-4221378D01*
X7444943Y-4221988D01*
X7459878Y-4224731D01*
X7475321Y-4225645D01*
X7524699Y-4225645D01*
X7540142Y-4224731D01*
X7555687Y-4221784D01*
X7559446Y-4221378D01*
X7563103Y-4222343D01*
X7563916Y-4222953D01*
X7565847Y-4219956D01*
X7568996Y-4217720D01*
X7583373Y-4211269D01*
X7596378Y-4203395D01*
X7608316Y-4194048D01*
X7619034Y-4183329D01*
X7628381Y-4171391D01*
X7636256Y-4158386D01*
X7642453Y-4144568D01*
X7646974Y-4130090D01*
X7649718Y-4115155D01*
X7650632Y-4100017D01*
X7649718Y-4084878D01*
X7646974Y-4069943D01*
X7642453Y-4055465D01*
X7636256Y-4041597D01*
X7628381Y-4028643D01*
X7619034Y-4016705D01*
X7608316Y-4005935D01*
X7596378Y-3996588D01*
X7586268Y-3990492D01*
X7583119Y-3987495D01*
X7581493Y-3983431D01*
X7581747Y-3979062D01*
X7583779Y-3975252D01*
X7587284Y-3972610D01*
X7591552Y-3971645D01*
X7624419Y-3971645D01*
X7630718Y-3970934D01*
X7636103Y-3969054D01*
X7640980Y-3966006D01*
X7644993Y-3961942D01*
X7648041Y-3957116D01*
X7649972Y-3951681D01*
X7650632Y-3945432D01*
X7650632Y-3746550D01*
X7649972Y-3740302D01*
X7648041Y-3734917D01*
X7644993Y-3730040D01*
X7640980Y-3725976D01*
X7636103Y-3722928D01*
X7630718Y-3721049D01*
X7624419Y-3720337D01*
X7375550Y-3720337D01*
X7369302Y-3721049D01*
X7363917Y-3722928D01*
X7359040Y-3725976D01*
X7354976Y-3730040D01*
X7351928Y-3734917D01*
X7350048Y-3740302D01*
X7349337Y-3746550D01*
X7349337Y-3945432D01*
X7350048Y-3951681D01*
X7351928Y-3957116D01*
X7354976Y-3961942D01*
X7359040Y-3966006D01*
X7363917Y-3969054D01*
X7369302Y-3970934D01*
X7375550Y-3971645D01*
X7408468Y-3971645D01*
X7412736Y-3972610D01*
X7416190Y-3975252D01*
X7418222Y-3979062D01*
X7418476Y-3983431D01*
X7416901Y-3987495D01*
X7413701Y-3990492D01*
X7399934Y-3998772D01*
X7396632Y-3999331D01*
X7280808Y-3999331D01*
X7276947Y-3998569D01*
X7273645Y-3996385D01*
X7271410Y-3993083D01*
X7270648Y-3989171D01*
X7270648Y-3660140D01*
X7271410Y-3656279D01*
X7273645Y-3652977D01*
X7276947Y-3650792D01*
X7280808Y-3649979D01*
X7779207Y-3649979D01*
X7783068Y-3650792D01*
X7786370Y-3652977D01*
X7788554Y-3656279D01*
X7789367Y-3660140D01*
X7789367Y-5190388D01*
X7788554Y-5194249D01*
X7786370Y-5197551D01*
X7783068Y-5199786D01*
X7779207Y-5200548D01*
X7380173Y-5200548D01*
X7376007Y-5200700D01*
X7371130Y-5201310D01*
X7367320Y-5202174D01*
X7362596Y-5203596D01*
X7358989Y-5205120D01*
X7354620Y-5207355D01*
X7351318Y-5209438D01*
X7347407Y-5212435D01*
X7344308Y-5215229D01*
X7284669Y-5273852D01*
X7281214Y-5277612D01*
X7278827Y-5280710D01*
X7276134Y-5284825D01*
X7274306Y-5288280D01*
X7272426Y-5292852D01*
X7271258Y-5296560D01*
X7270140Y-5301386D01*
X7269632Y-5305247D01*
X7269378Y-5310378D01*
X7269378Y-5759754D01*
X7269581Y-5764377D01*
X7270140Y-5768746D01*
X7271105Y-5773064D01*
X7272426Y-5777280D01*
X7274102Y-5781344D01*
X7276185Y-5785256D01*
X7278522Y-5789015D01*
X7281214Y-5792520D01*
X7284364Y-5795924D01*
X7344003Y-5855563D01*
X7347407Y-5858713D01*
X7350912Y-5861405D01*
X7354671Y-5863742D01*
X7358583Y-5865825D01*
X7362647Y-5867501D01*
X7366863Y-5868822D01*
X7371181Y-5869787D01*
X7375550Y-5870346D01*
X7380173Y-5870549D01*
X7444130Y-5870549D01*
X7447737Y-5871210D01*
X7450886Y-5873140D01*
X7453122Y-5876036D01*
X7455408Y-5880354D01*
X7463485Y-5891987D01*
X7473035Y-5902452D01*
X7483805Y-5911646D01*
X7495692Y-5919419D01*
X7508494Y-5925566D01*
X7521956Y-5930036D01*
X7535875Y-5932728D01*
X7549997Y-5933643D01*
X7564170Y-5932728D01*
X7578039Y-5930036D01*
X7591501Y-5925566D01*
X7604302Y-5919419D01*
X7616190Y-5911646D01*
X7626959Y-5902452D01*
X7636509Y-5891987D01*
X7644587Y-5880354D01*
X7651140Y-5867806D01*
X7656068Y-5854496D01*
X7659217Y-5840679D01*
X7660589Y-5826556D01*
X7660131Y-5812383D01*
X7657846Y-5798362D01*
X7653832Y-5784799D01*
X7648092Y-5771845D01*
X7640726Y-5759704D01*
X7631887Y-5748629D01*
X7621727Y-5738774D01*
X7610348Y-5730290D01*
X7598003Y-5723331D01*
X7584846Y-5717997D01*
X7571130Y-5714390D01*
X7557109Y-5712612D01*
X7542936Y-5712612D01*
X7528864Y-5714390D01*
X7515148Y-5717997D01*
X7501991Y-5723331D01*
X7489647Y-5730290D01*
X7478268Y-5738774D01*
X7468108Y-5748629D01*
X7459268Y-5759704D01*
X7456424Y-5764377D01*
X7454188Y-5766968D01*
X7451140Y-5768644D01*
X7447737Y-5769254D01*
X7405166Y-5769254D01*
X7401255Y-5768492D01*
X7397953Y-5766257D01*
X7373670Y-5741974D01*
X7371435Y-5738672D01*
X7370673Y-5734761D01*
X7370673Y-5335625D01*
X7371486Y-5331714D01*
X7373721Y-5328361D01*
X7397750Y-5304790D01*
X7401001Y-5302605D01*
X7404862Y-5301843D01*
X7779207Y-5301843D01*
X7783068Y-5302605D01*
X7786370Y-5304840D01*
X7788554Y-5308142D01*
X7789367Y-5312003D01*
X7789367Y-5653176D01*
X7788554Y-5657088D01*
X7786370Y-5660390D01*
X7783068Y-5662574D01*
X7779207Y-5663336D01*
X7775295Y-5662574D01*
X7771993Y-5660390D01*
X7663637Y-5551982D01*
X7661452Y-5548680D01*
X7660640Y-5544820D01*
X7660640Y-5484571D01*
X7659928Y-5478322D01*
X7658049Y-5472887D01*
X7655001Y-5468061D01*
X7650937Y-5463997D01*
X7646111Y-5460949D01*
X7640675Y-5459069D01*
X7634427Y-5458358D01*
X7465568Y-5458358D01*
X7459319Y-5459069D01*
X7453884Y-5460949D01*
X7449058Y-5463997D01*
X7444994Y-5468061D01*
X7441946Y-5472887D01*
X7440066Y-5478322D01*
X7439355Y-5484571D01*
X7439355Y-5653430D01*
X7440066Y-5659678D01*
X7441946Y-5665114D01*
X7444994Y-5669940D01*
X7449058Y-5674004D01*
X7453884Y-5677052D01*
X7459319Y-5678932D01*
X7465568Y-5679643D01*
X7634427Y-5679643D01*
X7641793Y-5678830D01*
X7644790Y-5678932D01*
X7647686Y-5679948D01*
X7650124Y-5681726D01*
X7686344Y-5717997D01*
X7688580Y-5721299D01*
X7689342Y-5725210D01*
X7689342Y-6364833D01*
X7688580Y-6368694D01*
X7686344Y-6371996D01*
X7663738Y-6394653D01*
X7660284Y-6396888D01*
X7656271Y-6397599D01*
X7652308Y-6396685D01*
X7649006Y-6394297D01*
X7646924Y-6390741D01*
X7646416Y-6386677D01*
X7647533Y-6382766D01*
X7649057Y-6379870D01*
X7598867Y-6379870D01*
X7598867Y-6430010D01*
X7601864Y-6428587D01*
X7605775Y-6427571D01*
X7609789Y-6428181D01*
X7613243Y-6430314D01*
X7615580Y-6433616D01*
X7616444Y-6437579D01*
X7615681Y-6441541D01*
X7613446Y-6444894D01*
X7332624Y-6725767D01*
X7329728Y-6727748D01*
X7321956Y-6731406D01*
X7313930Y-6736994D01*
X7307021Y-6743953D01*
X7301382Y-6751929D01*
X7297267Y-6760819D01*
X7294727Y-6770268D01*
X7293864Y-6780022D01*
X7294727Y-6789724D01*
X7297267Y-6799173D01*
X7301382Y-6808063D01*
X7307021Y-6816090D01*
X7313930Y-6822998D01*
X7321956Y-6828586D01*
X7330795Y-6832752D01*
X7340244Y-6835241D01*
X7349998Y-6836105D01*
X7359751Y-6835241D01*
X7369200Y-6832752D01*
X7378039Y-6828586D01*
X7386066Y-6822998D01*
X7392974Y-6816090D01*
X7398613Y-6808063D01*
X7402220Y-6800291D01*
X7404252Y-6797395D01*
X7771993Y-6429603D01*
X7775295Y-6427419D01*
X7779207Y-6426657D01*
X7783068Y-6427419D01*
X7786370Y-6429603D01*
X7788554Y-6432905D01*
X7789367Y-6436817D01*
X7789367Y-6644182D01*
X7788554Y-6648094D01*
X7786370Y-6651396D01*
X7401204Y-7036308D01*
X7397902Y-7038492D01*
X7394041Y-7039305D01*
X6206896Y-7039305D01*
X6202984Y-7038492D01*
X6199682Y-7036308D01*
X6197498Y-7033006D01*
X6196736Y-7029145D01*
X6197498Y-7025233D01*
X6199682Y-7021931D01*
X6708089Y-6513576D01*
X6711137Y-6511442D01*
X6714744Y-6510578D01*
X6718401Y-6511086D01*
X6721246Y-6512001D01*
X6735521Y-6514693D01*
X6749999Y-6515607D01*
X6764477Y-6514693D01*
X6778752Y-6512001D01*
X6792569Y-6507530D01*
X6805726Y-6501333D01*
X6817969Y-6493560D01*
X6829145Y-6484264D01*
X6839102Y-6473698D01*
X6847636Y-6461963D01*
X6854647Y-6449212D01*
X6859981Y-6435750D01*
X6863588Y-6421678D01*
X6865416Y-6407251D01*
X6865416Y-6392722D01*
X6863588Y-6378346D01*
X6859981Y-6364274D01*
X6854647Y-6350762D01*
X6847636Y-6338011D01*
X6839102Y-6326276D01*
X6829145Y-6315710D01*
X6817969Y-6306464D01*
X6805726Y-6298641D01*
X6792569Y-6292494D01*
X6778752Y-6287973D01*
X6764477Y-6285280D01*
X6749999Y-6284366D01*
X6735521Y-6285280D01*
X6721246Y-6287973D01*
X6707428Y-6292494D01*
X6694271Y-6298641D01*
X6682028Y-6306464D01*
X6670852Y-6315710D01*
X6660896Y-6326276D01*
X6652361Y-6338011D01*
X6645351Y-6350762D01*
X6640017Y-6364274D01*
X6636410Y-6378346D01*
X6634581Y-6392722D01*
X6634581Y-6407251D01*
X6636410Y-6421678D01*
X6639102Y-6432194D01*
X6639407Y-6435699D01*
X6638493Y-6439052D01*
X6636461Y-6441897D01*
X6141974Y-6936384D01*
X6138722Y-6938568D01*
X6134811Y-6939330D01*
X3685184Y-6939330D01*
X3681323Y-6938568D01*
X3678021Y-6936384D01*
X3264255Y-6522618D01*
X3262223Y-6519722D01*
X3258616Y-6511950D01*
X3252978Y-6503924D01*
X3246069Y-6497015D01*
X3238042Y-6491376D01*
X3229203Y-6487261D01*
X3219754Y-6484721D01*
X3210001Y-6483858D01*
X3200247Y-6484721D01*
X3190798Y-6487261D01*
X3181959Y-6491376D01*
X3173933Y-6497015D01*
X3167024Y-6503924D01*
X3161385Y-6511950D01*
X3157270Y-6520789D01*
X3154730Y-6530238D01*
X3153867Y-6539992D01*
X3154730Y-6549745D01*
X3157270Y-6559194D01*
X3161385Y-6568033D01*
X3167024Y-6576059D01*
X3173933Y-6582968D01*
X3181959Y-6588607D01*
X3189732Y-6592214D01*
X3192627Y-6594246D01*
X3620312Y-7021931D01*
X3622497Y-7025233D01*
X3623259Y-7029145D01*
X3622497Y-7033006D01*
X3620312Y-7036308D01*
X3617010Y-7038492D01*
X3613099Y-7039305D01*
G37*

%LPC*%
G36*
X5449570Y-6865670D02*
G01*
X5628436Y-6865670D01*
X5634685Y-6864959D01*
X5640120Y-6863080D01*
X5644946Y-6859981D01*
X5649010Y-6855968D01*
X5652058Y-6851091D01*
X5653938Y-6845706D01*
X5654649Y-6839407D01*
X5654649Y-6660591D01*
X5653938Y-6654292D01*
X5652058Y-6648907D01*
X5649010Y-6644030D01*
X5644946Y-6640017D01*
X5640120Y-6636969D01*
X5634685Y-6635038D01*
X5628436Y-6634327D01*
X5449570Y-6634327D01*
X5443321Y-6635038D01*
X5437886Y-6636969D01*
X5433060Y-6640017D01*
X5428996Y-6644030D01*
X5425948Y-6648907D01*
X5424068Y-6654292D01*
X5423357Y-6660591D01*
X5423357Y-6839407D01*
X5424068Y-6845706D01*
X5425948Y-6851091D01*
X5428996Y-6855968D01*
X5433060Y-6859981D01*
X5437886Y-6863080D01*
X5443321Y-6864959D01*
G37*
G36*
X5023764Y-6865416D02*
G01*
X5038242Y-6865416D01*
X5052669Y-6863588D01*
X5066741Y-6859981D01*
X5080254Y-6854647D01*
X5092954Y-6847636D01*
X5104688Y-6839102D01*
X5115306Y-6829145D01*
X5124551Y-6817969D01*
X5132324Y-6805726D01*
X5138521Y-6792569D01*
X5142992Y-6778752D01*
X5145735Y-6764477D01*
X5146649Y-6749999D01*
X5145735Y-6735521D01*
X5142992Y-6721246D01*
X5138521Y-6707428D01*
X5132324Y-6694271D01*
X5124551Y-6682028D01*
X5115306Y-6670852D01*
X5104688Y-6660896D01*
X5092954Y-6652361D01*
X5080254Y-6645351D01*
X5066741Y-6640017D01*
X5052669Y-6636410D01*
X5038242Y-6634581D01*
X5023764Y-6634581D01*
X5009337Y-6636410D01*
X4995265Y-6640017D01*
X4981752Y-6645351D01*
X4969052Y-6652361D01*
X4957318Y-6660896D01*
X4946700Y-6670852D01*
X4937455Y-6682028D01*
X4929682Y-6694271D01*
X4923485Y-6707428D01*
X4919014Y-6721246D01*
X4916271Y-6735521D01*
X4915357Y-6749999D01*
X4916271Y-6764477D01*
X4919014Y-6778752D01*
X4923485Y-6792569D01*
X4929682Y-6805726D01*
X4937455Y-6817969D01*
X4946700Y-6829145D01*
X4957318Y-6839102D01*
X4969052Y-6847636D01*
X4981752Y-6854647D01*
X4995265Y-6859981D01*
X5009337Y-6863588D01*
G37*
G36*
X4007764Y-6865416D02*
G01*
X4022242Y-6865416D01*
X4036669Y-6863588D01*
X4050741Y-6859981D01*
X4064254Y-6854647D01*
X4076954Y-6847636D01*
X4088688Y-6839102D01*
X4099306Y-6829145D01*
X4108551Y-6817969D01*
X4116324Y-6805726D01*
X4122521Y-6792569D01*
X4126992Y-6778752D01*
X4129735Y-6764477D01*
X4130649Y-6749999D01*
X4129735Y-6735521D01*
X4126992Y-6721246D01*
X4122521Y-6707428D01*
X4116324Y-6694271D01*
X4108551Y-6682028D01*
X4099306Y-6670852D01*
X4088688Y-6660896D01*
X4073144Y-6649516D01*
X4071315Y-6646418D01*
X4070654Y-6642912D01*
X4070654Y-6600240D01*
X4070451Y-6595567D01*
X4069892Y-6591198D01*
X4068927Y-6586880D01*
X4067606Y-6582664D01*
X4065879Y-6578600D01*
X4063847Y-6574688D01*
X4061460Y-6570929D01*
X4058818Y-6567424D01*
X4055668Y-6564020D01*
X3954932Y-6463334D01*
X3952798Y-6460134D01*
X3951986Y-6456375D01*
X3952595Y-6452616D01*
X3954576Y-6449314D01*
X3959961Y-6443370D01*
X3967581Y-6432296D01*
X3973626Y-6420307D01*
X3978046Y-6407607D01*
X3980738Y-6394399D01*
X3981653Y-6380988D01*
X3980738Y-6367576D01*
X3979773Y-6362852D01*
X3979875Y-6358382D01*
X3981856Y-6354368D01*
X3985361Y-6351625D01*
X3989730Y-6350660D01*
X4010609Y-6350660D01*
X4014165Y-6351320D01*
X4017314Y-6353149D01*
X4019550Y-6355994D01*
X4023309Y-6362954D01*
X4031792Y-6374993D01*
X4041749Y-6385864D01*
X4052925Y-6395466D01*
X4065168Y-6403594D01*
X4078376Y-6410147D01*
X4092244Y-6415024D01*
X4106672Y-6418224D01*
X4121302Y-6419545D01*
X4136034Y-6419088D01*
X4150614Y-6416852D01*
X4164736Y-6412839D01*
X4178300Y-6407099D01*
X4191050Y-6399733D01*
X4202836Y-6390843D01*
X4213402Y-6380581D01*
X4222648Y-6369100D01*
X4230370Y-6356604D01*
X4236516Y-6343192D01*
X4240987Y-6329172D01*
X4243730Y-6314694D01*
X4244594Y-6300012D01*
X4243730Y-6285280D01*
X4240987Y-6270802D01*
X4236516Y-6256782D01*
X4230370Y-6243421D01*
X4222648Y-6230874D01*
X4213402Y-6219393D01*
X4202836Y-6209182D01*
X4191050Y-6200292D01*
X4178300Y-6192926D01*
X4164736Y-6187186D01*
X4150614Y-6183172D01*
X4136034Y-6180886D01*
X4121302Y-6180429D01*
X4106672Y-6181801D01*
X4092244Y-6184950D01*
X4078376Y-6189827D01*
X4065168Y-6196431D01*
X4052925Y-6204559D01*
X4041749Y-6214110D01*
X4031792Y-6225032D01*
X4023309Y-6237020D01*
X4019550Y-6243980D01*
X4017314Y-6246825D01*
X4014165Y-6248704D01*
X4010609Y-6249365D01*
X3962247Y-6249365D01*
X3957574Y-6249568D01*
X3953205Y-6250127D01*
X3948887Y-6251092D01*
X3944670Y-6252413D01*
X3940606Y-6254089D01*
X3936695Y-6256121D01*
X3932936Y-6258509D01*
X3929430Y-6261201D01*
X3926027Y-6264351D01*
X3910533Y-6279845D01*
X3907942Y-6281724D01*
X3904894Y-6282690D01*
X3901643Y-6282639D01*
X3891076Y-6280861D01*
X3877614Y-6280404D01*
X3864254Y-6281775D01*
X3851198Y-6284874D01*
X3838651Y-6289700D01*
X3826865Y-6296202D01*
X3816045Y-6304178D01*
X3806342Y-6313474D01*
X3798011Y-6324041D01*
X3791204Y-6335623D01*
X3785920Y-6347968D01*
X3782364Y-6360972D01*
X3780586Y-6374282D01*
X3780586Y-6387744D01*
X3782364Y-6401054D01*
X3785920Y-6414008D01*
X3791204Y-6426403D01*
X3798011Y-6437934D01*
X3806342Y-6448501D01*
X3816045Y-6457848D01*
X3827424Y-6466230D01*
X3829608Y-6468414D01*
X3831031Y-6471158D01*
X3833368Y-6478219D01*
X3835095Y-6482384D01*
X3837127Y-6486296D01*
X3839514Y-6490055D01*
X3842207Y-6493560D01*
X3845356Y-6496964D01*
X3966362Y-6618020D01*
X3968597Y-6621322D01*
X3969359Y-6625183D01*
X3969359Y-6637375D01*
X3968699Y-6640931D01*
X3966870Y-6644030D01*
X3964076Y-6646316D01*
X3953052Y-6652361D01*
X3941318Y-6660896D01*
X3930700Y-6670852D01*
X3921455Y-6682028D01*
X3913682Y-6694271D01*
X3907485Y-6707428D01*
X3903014Y-6721246D01*
X3900271Y-6735521D01*
X3899357Y-6749999D01*
X3900271Y-6764477D01*
X3903014Y-6778752D01*
X3907485Y-6792569D01*
X3913682Y-6805726D01*
X3921455Y-6817969D01*
X3930700Y-6829145D01*
X3941318Y-6839102D01*
X3953052Y-6847636D01*
X3965752Y-6854647D01*
X3979265Y-6859981D01*
X3993337Y-6863588D01*
G37*
G36*
X5277764Y-6865416D02*
G01*
X5292242Y-6865416D01*
X5306669Y-6863588D01*
X5320741Y-6859981D01*
X5334254Y-6854647D01*
X5346954Y-6847636D01*
X5358688Y-6839102D01*
X5369306Y-6829145D01*
X5378551Y-6817969D01*
X5386324Y-6805726D01*
X5392521Y-6792569D01*
X5396992Y-6778752D01*
X5399735Y-6764477D01*
X5400649Y-6749999D01*
X5399735Y-6735521D01*
X5396992Y-6721246D01*
X5392521Y-6707428D01*
X5390540Y-6702552D01*
X5390388Y-6700062D01*
X5390642Y-6694728D01*
X5390642Y-6595211D01*
X5391404Y-6591300D01*
X5393639Y-6587998D01*
X5418023Y-6563614D01*
X5421325Y-6561429D01*
X5425186Y-6560667D01*
X6094120Y-6560667D01*
X6098387Y-6561581D01*
X6100826Y-6562750D01*
X6110274Y-6565239D01*
X6119977Y-6566103D01*
X6129731Y-6565239D01*
X6139180Y-6562750D01*
X6148070Y-6558584D01*
X6156045Y-6552996D01*
X6163005Y-6546088D01*
X6168593Y-6538061D01*
X6172708Y-6529171D01*
X6175248Y-6519722D01*
X6176111Y-6510020D01*
X6175248Y-6500266D01*
X6172708Y-6490817D01*
X6168593Y-6481927D01*
X6163005Y-6473952D01*
X6156045Y-6466992D01*
X6148070Y-6461404D01*
X6139180Y-6457289D01*
X6129731Y-6454749D01*
X6119977Y-6453886D01*
X6110274Y-6454749D01*
X6100826Y-6457289D01*
X6098387Y-6458407D01*
X6094120Y-6459321D01*
X5400243Y-6459321D01*
X5395569Y-6459524D01*
X5391200Y-6460134D01*
X5386882Y-6461099D01*
X5382666Y-6462420D01*
X5378602Y-6464096D01*
X5374690Y-6466128D01*
X5370931Y-6468516D01*
X5367426Y-6471208D01*
X5364022Y-6474358D01*
X5304332Y-6533997D01*
X5301183Y-6537452D01*
X5298490Y-6540957D01*
X5296154Y-6544665D01*
X5294122Y-6548577D01*
X5292394Y-6552692D01*
X5291074Y-6556908D01*
X5290108Y-6561226D01*
X5289550Y-6565595D01*
X5289346Y-6570218D01*
X5289346Y-6624421D01*
X5288584Y-6628333D01*
X5286349Y-6631635D01*
X5283098Y-6633819D01*
X5263337Y-6636410D01*
X5249265Y-6640017D01*
X5235752Y-6645351D01*
X5223052Y-6652361D01*
X5211318Y-6660896D01*
X5200700Y-6670852D01*
X5191455Y-6682028D01*
X5183682Y-6694271D01*
X5177485Y-6707428D01*
X5173014Y-6721246D01*
X5170271Y-6735521D01*
X5169357Y-6749999D01*
X5170271Y-6764477D01*
X5173014Y-6778752D01*
X5177485Y-6792569D01*
X5183682Y-6805726D01*
X5191455Y-6817969D01*
X5200700Y-6829145D01*
X5211318Y-6839102D01*
X5223052Y-6847636D01*
X5235752Y-6854647D01*
X5249265Y-6859981D01*
X5263337Y-6863588D01*
G37*
G36*
X4261764Y-6865416D02*
G01*
X4276242Y-6865416D01*
X4290669Y-6863588D01*
X4304741Y-6859981D01*
X4318254Y-6854647D01*
X4330954Y-6847636D01*
X4342688Y-6839102D01*
X4353306Y-6829145D01*
X4362551Y-6817969D01*
X4370324Y-6805726D01*
X4376521Y-6792569D01*
X4380992Y-6778752D01*
X4383735Y-6764477D01*
X4384649Y-6749999D01*
X4383735Y-6735521D01*
X4380992Y-6721246D01*
X4380077Y-6718401D01*
X4379569Y-6714794D01*
X4380382Y-6711289D01*
X4382414Y-6708241D01*
X4388866Y-6701485D01*
X4391507Y-6698030D01*
X4393844Y-6694322D01*
X4395876Y-6690410D01*
X4397603Y-6686346D01*
X4398924Y-6682130D01*
X4399889Y-6677812D01*
X4400448Y-6673392D01*
X4400651Y-6668770D01*
X4400651Y-6300216D01*
X4400448Y-6295593D01*
X4399889Y-6291224D01*
X4398924Y-6286906D01*
X4397603Y-6282690D01*
X4395876Y-6278575D01*
X4393844Y-6274663D01*
X4391507Y-6270955D01*
X4388815Y-6267450D01*
X4378706Y-6257036D01*
X4376470Y-6253734D01*
X4375708Y-6249873D01*
X4375708Y-5773877D01*
X4376216Y-5770778D01*
X4377588Y-5767984D01*
X4381144Y-5764733D01*
X4389780Y-5756097D01*
X4397095Y-5746292D01*
X4402937Y-5735574D01*
X4407204Y-5724144D01*
X4409795Y-5712206D01*
X4410659Y-5700014D01*
X4409795Y-5687822D01*
X4407204Y-5675884D01*
X4402937Y-5664403D01*
X4397095Y-5653684D01*
X4389780Y-5643930D01*
X4381144Y-5635294D01*
X4371340Y-5627979D01*
X4360621Y-5622086D01*
X4349191Y-5617819D01*
X4337253Y-5615228D01*
X4325061Y-5614365D01*
X4312869Y-5615228D01*
X4300931Y-5617819D01*
X4289501Y-5622086D01*
X4278782Y-5627979D01*
X4268978Y-5635294D01*
X4260342Y-5643930D01*
X4258157Y-5646877D01*
X4255363Y-5649417D01*
X4251858Y-5650788D01*
X4248099Y-5650788D01*
X4244644Y-5649417D01*
X4241850Y-5646877D01*
X4239666Y-5643930D01*
X4231030Y-5635294D01*
X4221226Y-5627979D01*
X4210507Y-5622086D01*
X4199077Y-5617819D01*
X4187139Y-5615228D01*
X4174947Y-5614365D01*
X4162755Y-5615228D01*
X4150817Y-5617819D01*
X4139387Y-5622086D01*
X4128668Y-5627979D01*
X4118864Y-5635294D01*
X4110228Y-5643930D01*
X4106976Y-5647436D01*
X4104182Y-5648858D01*
X4101084Y-5649366D01*
X3989730Y-5649366D01*
X3985361Y-5648350D01*
X3981856Y-5645607D01*
X3979875Y-5641644D01*
X3979773Y-5637174D01*
X3980738Y-5632399D01*
X3981653Y-5618988D01*
X3980738Y-5605576D01*
X3978046Y-5592419D01*
X3973626Y-5579719D01*
X3967581Y-5567730D01*
X3959961Y-5556656D01*
X3950970Y-5546648D01*
X3940708Y-5537962D01*
X3936339Y-5535218D01*
X3933850Y-5532932D01*
X3932224Y-5529986D01*
X3931665Y-5526633D01*
X3931665Y-5325567D01*
X3932428Y-5321655D01*
X3934612Y-5318404D01*
X3937914Y-5316169D01*
X3942283Y-5315407D01*
X3956659Y-5313578D01*
X3970731Y-5309971D01*
X3984244Y-5304637D01*
X3996944Y-5297627D01*
X4008729Y-5289092D01*
X4019296Y-5279136D01*
X4028541Y-5267960D01*
X4036314Y-5255717D01*
X4042511Y-5242560D01*
X4046982Y-5228742D01*
X4049725Y-5214467D01*
X4050639Y-5199989D01*
X4049725Y-5185511D01*
X4046982Y-5171236D01*
X4042511Y-5157419D01*
X4036314Y-5144312D01*
X4028541Y-5132019D01*
X4019296Y-5120843D01*
X4008729Y-5110886D01*
X3996944Y-5102352D01*
X3984244Y-5095392D01*
X3970731Y-5090007D01*
X3956659Y-5086400D01*
X3942283Y-5084572D01*
X3927754Y-5084572D01*
X3913327Y-5086400D01*
X3899255Y-5090007D01*
X3885793Y-5095392D01*
X3873042Y-5102352D01*
X3861308Y-5110886D01*
X3850690Y-5120843D01*
X3841445Y-5132019D01*
X3833672Y-5144312D01*
X3827475Y-5157419D01*
X3823004Y-5171236D01*
X3820261Y-5185511D01*
X3819347Y-5199989D01*
X3820261Y-5214467D01*
X3823004Y-5228742D01*
X3827475Y-5242560D01*
X3829608Y-5247081D01*
X3830421Y-5249621D01*
X3830370Y-5526481D01*
X3829862Y-5529580D01*
X3828440Y-5532424D01*
X3826205Y-5534660D01*
X3816045Y-5542178D01*
X3806342Y-5551474D01*
X3798011Y-5562041D01*
X3791204Y-5573623D01*
X3785920Y-5585968D01*
X3782364Y-5598972D01*
X3780586Y-5612282D01*
X3780586Y-5625744D01*
X3782364Y-5639054D01*
X3785920Y-5652008D01*
X3791204Y-5664403D01*
X3798011Y-5675934D01*
X3806342Y-5686501D01*
X3816045Y-5695848D01*
X3826865Y-5703824D01*
X3838651Y-5710275D01*
X3851198Y-5715101D01*
X3864254Y-5718251D01*
X3877614Y-5719572D01*
X3891076Y-5719114D01*
X3901643Y-5717336D01*
X3904894Y-5717336D01*
X3907942Y-5718302D01*
X3910533Y-5720181D01*
X3926027Y-5735675D01*
X3929430Y-5738774D01*
X3932936Y-5741466D01*
X3936695Y-5743854D01*
X3940606Y-5745886D01*
X3944670Y-5747613D01*
X3948887Y-5748934D01*
X3953205Y-5749848D01*
X3957574Y-5750458D01*
X3962196Y-5750661D01*
X4101084Y-5750661D01*
X4104182Y-5751118D01*
X4106976Y-5752541D01*
X4110228Y-5756097D01*
X4118864Y-5764733D01*
X4128668Y-5772048D01*
X4139387Y-5777890D01*
X4150817Y-5782157D01*
X4162755Y-5784748D01*
X4174947Y-5785612D01*
X4187139Y-5784748D01*
X4199077Y-5782157D01*
X4210507Y-5777890D01*
X4221226Y-5772048D01*
X4231030Y-5764733D01*
X4239666Y-5756097D01*
X4241850Y-5753100D01*
X4244644Y-5750560D01*
X4248099Y-5749239D01*
X4251858Y-5749239D01*
X4255363Y-5750560D01*
X4258157Y-5753100D01*
X4260342Y-5756097D01*
X4268978Y-5764733D01*
X4272534Y-5767984D01*
X4273905Y-5770778D01*
X4274413Y-5773877D01*
X4274413Y-5969762D01*
X4273651Y-5973622D01*
X4271416Y-5976924D01*
X4211980Y-6036360D01*
X4208678Y-6038596D01*
X4204817Y-6039358D01*
X3932885Y-6039358D01*
X3928618Y-6038392D01*
X3917187Y-6033109D01*
X3904335Y-6029096D01*
X3891076Y-6026861D01*
X3877614Y-6026404D01*
X3864254Y-6027775D01*
X3851198Y-6030874D01*
X3838651Y-6035700D01*
X3826865Y-6042202D01*
X3816045Y-6050178D01*
X3806342Y-6059474D01*
X3798011Y-6070041D01*
X3791204Y-6081623D01*
X3785920Y-6093968D01*
X3782364Y-6106972D01*
X3780586Y-6120282D01*
X3780586Y-6133744D01*
X3782364Y-6147054D01*
X3785920Y-6160008D01*
X3791204Y-6172403D01*
X3798011Y-6183934D01*
X3806342Y-6194501D01*
X3816045Y-6203848D01*
X3826865Y-6211824D01*
X3838651Y-6218275D01*
X3851198Y-6223101D01*
X3864254Y-6226251D01*
X3877614Y-6227572D01*
X3891076Y-6227114D01*
X3904335Y-6224879D01*
X3917187Y-6220917D01*
X3929379Y-6215227D01*
X3940708Y-6208014D01*
X3950970Y-6199327D01*
X3959961Y-6189370D01*
X3967581Y-6178296D01*
X3973626Y-6166307D01*
X3978046Y-6153607D01*
X3979011Y-6148781D01*
X3980281Y-6145580D01*
X3982567Y-6142939D01*
X3985564Y-6141262D01*
X3988968Y-6140653D01*
X4229760Y-6140653D01*
X4234434Y-6140450D01*
X4238802Y-6139891D01*
X4243120Y-6138926D01*
X4247337Y-6137605D01*
X4251401Y-6135878D01*
X4255312Y-6133896D01*
X4258716Y-6131661D01*
X4262780Y-6130137D01*
X4267098Y-6130442D01*
X4270908Y-6132474D01*
X4273499Y-6135979D01*
X4274413Y-6140196D01*
X4274413Y-6274816D01*
X4274616Y-6279489D01*
X4275175Y-6283858D01*
X4276140Y-6288176D01*
X4277461Y-6292392D01*
X4279138Y-6296456D01*
X4281220Y-6300368D01*
X4283557Y-6304127D01*
X4286250Y-6307632D01*
X4296359Y-6317996D01*
X4298594Y-6321298D01*
X4299356Y-6325209D01*
X4299356Y-6625996D01*
X4298442Y-6630162D01*
X4295902Y-6633616D01*
X4292193Y-6635699D01*
X4287926Y-6636054D01*
X4276242Y-6634581D01*
X4261764Y-6634581D01*
X4247337Y-6636410D01*
X4233265Y-6640017D01*
X4219752Y-6645351D01*
X4207052Y-6652361D01*
X4195318Y-6660896D01*
X4184700Y-6670852D01*
X4175455Y-6682028D01*
X4167682Y-6694271D01*
X4161485Y-6707428D01*
X4157014Y-6721246D01*
X4154271Y-6735521D01*
X4153357Y-6749999D01*
X4154271Y-6764477D01*
X4157014Y-6778752D01*
X4161485Y-6792569D01*
X4167682Y-6805726D01*
X4175455Y-6817969D01*
X4184700Y-6829145D01*
X4195318Y-6839102D01*
X4207052Y-6847636D01*
X4219752Y-6854647D01*
X4233265Y-6859981D01*
X4247337Y-6863588D01*
G37*
G36*
X3709670Y-6853478D02*
G01*
X3709670Y-6801358D01*
X3657600Y-6801358D01*
X3659682Y-6805726D01*
X3667455Y-6817969D01*
X3676700Y-6829145D01*
X3687318Y-6839102D01*
X3699052Y-6847636D01*
G37*
G36*
X4725670Y-6853478D02*
G01*
X4725670Y-6801358D01*
X4673600Y-6801358D01*
X4675682Y-6805726D01*
X4683455Y-6817969D01*
X4692700Y-6829145D01*
X4703318Y-6839102D01*
X4715052Y-6847636D01*
G37*
G36*
X4828336Y-6853478D02*
G01*
X4838954Y-6847636D01*
X4850688Y-6839102D01*
X4861306Y-6829145D01*
X4870551Y-6817969D01*
X4878324Y-6805726D01*
X4880406Y-6801358D01*
X4828336Y-6801358D01*
G37*
G36*
X3812336Y-6853478D02*
G01*
X3822954Y-6847636D01*
X3834688Y-6839102D01*
X3845306Y-6829145D01*
X3854551Y-6817969D01*
X3862324Y-6805726D01*
X3864406Y-6801358D01*
X3812336Y-6801358D01*
G37*
G36*
X4828336Y-6698640D02*
G01*
X4880406Y-6698640D01*
X4878324Y-6694271D01*
X4870551Y-6682028D01*
X4861306Y-6670852D01*
X4850688Y-6660896D01*
X4838954Y-6652361D01*
X4828336Y-6646519D01*
G37*
G36*
X3812336Y-6698640D02*
G01*
X3864406Y-6698640D01*
X3862324Y-6694271D01*
X3854551Y-6682028D01*
X3845306Y-6670852D01*
X3834688Y-6660896D01*
X3822954Y-6652361D01*
X3812336Y-6646519D01*
G37*
G36*
X4673600Y-6698640D02*
G01*
X4725670Y-6698640D01*
X4725670Y-6646519D01*
X4715052Y-6652361D01*
X4703318Y-6660896D01*
X4692700Y-6670852D01*
X4683455Y-6682028D01*
X4675682Y-6694271D01*
G37*
G36*
X3657600Y-6698640D02*
G01*
X3709670Y-6698640D01*
X3709670Y-6646519D01*
X3699052Y-6652361D01*
X3687318Y-6660896D01*
X3676700Y-6670852D01*
X3667455Y-6682028D01*
X3659682Y-6694271D01*
G37*
G36*
X3075127Y-6471462D02*
G01*
X3075127Y-6424828D01*
X3028543Y-6424828D01*
X3029204Y-6426403D01*
X3036011Y-6437934D01*
X3044342Y-6448501D01*
X3054045Y-6457848D01*
X3064865Y-6465824D01*
G37*
G36*
X3162858Y-6471361D02*
G01*
X3167380Y-6469227D01*
X3178708Y-6462014D01*
X3188970Y-6453327D01*
X3197961Y-6443370D01*
X3205581Y-6432296D01*
X3209340Y-6424828D01*
X3162858Y-6424828D01*
G37*
G36*
X7501128Y-6430010D02*
G01*
X7501128Y-6379870D01*
X7450937Y-6379870D01*
X7455408Y-6388354D01*
X7463485Y-6399987D01*
X7473035Y-6410452D01*
X7483805Y-6419646D01*
X7495692Y-6427419D01*
G37*
G36*
X5478322Y-6407048D02*
G01*
X5491073Y-6399733D01*
X5502808Y-6390843D01*
X5513374Y-6380581D01*
X5522620Y-6369100D01*
X5530392Y-6356604D01*
X5531866Y-6353352D01*
X5478322Y-6353352D01*
G37*
G36*
X5371642Y-6406794D02*
G01*
X5371642Y-6353352D01*
X5318150Y-6353352D01*
X5323281Y-6362954D01*
X5331815Y-6374993D01*
X5341721Y-6385864D01*
X5352897Y-6395466D01*
X5365191Y-6403594D01*
G37*
G36*
X3162858Y-6337147D02*
G01*
X3209340Y-6337147D01*
X3205581Y-6329730D01*
X3197961Y-6318656D01*
X3188970Y-6308648D01*
X3178708Y-6299962D01*
X3167380Y-6292748D01*
X3162858Y-6290665D01*
G37*
G36*
X3028543Y-6337147D02*
G01*
X3075127Y-6337147D01*
X3075127Y-6290513D01*
X3064865Y-6296202D01*
X3054045Y-6304178D01*
X3044342Y-6313474D01*
X3036011Y-6324041D01*
X3029204Y-6335623D01*
G37*
G36*
X7450886Y-6282131D02*
G01*
X7501128Y-6282131D01*
X7501128Y-6231788D01*
X7489647Y-6238290D01*
X7478268Y-6246774D01*
X7468108Y-6256629D01*
X7459268Y-6267704D01*
X7451902Y-6279845D01*
G37*
G36*
X7598867Y-6282131D02*
G01*
X7649108Y-6282131D01*
X7648092Y-6279845D01*
X7640726Y-6267704D01*
X7631887Y-6256629D01*
X7621727Y-6246774D01*
X7610348Y-6238290D01*
X7598867Y-6231788D01*
G37*
G36*
X5318150Y-6246672D02*
G01*
X5371642Y-6246672D01*
X5371642Y-6193180D01*
X5365191Y-6196431D01*
X5352897Y-6204559D01*
X5341721Y-6214110D01*
X5331815Y-6225032D01*
X5323281Y-6237020D01*
G37*
G36*
X5478322Y-6246672D02*
G01*
X5531866Y-6246672D01*
X5530392Y-6243421D01*
X5522620Y-6230874D01*
X5513374Y-6219393D01*
X5502808Y-6209182D01*
X5491073Y-6200292D01*
X5478322Y-6192926D01*
G37*
G36*
X3115614Y-6227572D02*
G01*
X3129076Y-6227114D01*
X3142335Y-6224879D01*
X3155188Y-6220917D01*
X3167380Y-6215227D01*
X3178708Y-6208014D01*
X3188970Y-6199327D01*
X3197961Y-6189370D01*
X3205581Y-6178296D01*
X3211626Y-6166307D01*
X3216046Y-6153607D01*
X3218738Y-6140399D01*
X3219653Y-6126988D01*
X3218738Y-6113576D01*
X3216046Y-6100419D01*
X3211626Y-6087719D01*
X3205581Y-6075730D01*
X3197961Y-6064656D01*
X3188970Y-6054648D01*
X3178708Y-6045962D01*
X3174339Y-6043218D01*
X3171850Y-6040932D01*
X3170224Y-6037986D01*
X3169666Y-6034633D01*
X3169666Y-5965342D01*
X3170224Y-5962040D01*
X3171850Y-5959043D01*
X3174339Y-5956808D01*
X3178708Y-5954014D01*
X3188970Y-5945327D01*
X3197961Y-5935370D01*
X3205581Y-5924296D01*
X3211626Y-5912307D01*
X3216046Y-5899607D01*
X3218738Y-5886399D01*
X3219653Y-5872988D01*
X3218738Y-5859576D01*
X3216046Y-5846419D01*
X3211626Y-5833719D01*
X3205581Y-5821730D01*
X3197961Y-5810656D01*
X3188970Y-5800648D01*
X3178708Y-5791962D01*
X3167380Y-5784748D01*
X3155188Y-5779109D01*
X3142335Y-5775096D01*
X3129076Y-5772861D01*
X3115614Y-5772404D01*
X3102254Y-5773775D01*
X3089198Y-5776874D01*
X3076651Y-5781700D01*
X3064865Y-5788202D01*
X3054045Y-5796178D01*
X3044342Y-5805474D01*
X3036011Y-5816041D01*
X3029204Y-5827623D01*
X3023920Y-5839968D01*
X3020364Y-5852972D01*
X3018586Y-5866282D01*
X3018586Y-5879744D01*
X3020364Y-5893054D01*
X3023920Y-5906008D01*
X3029204Y-5918403D01*
X3036011Y-5929934D01*
X3044342Y-5940501D01*
X3054045Y-5949848D01*
X3064205Y-5957366D01*
X3066440Y-5959602D01*
X3067862Y-5962396D01*
X3068370Y-5965545D01*
X3068370Y-6034481D01*
X3067862Y-6037580D01*
X3066440Y-6040424D01*
X3064205Y-6042660D01*
X3054045Y-6050178D01*
X3044342Y-6059474D01*
X3036011Y-6070041D01*
X3029204Y-6081623D01*
X3023920Y-6093968D01*
X3020364Y-6106972D01*
X3018586Y-6120282D01*
X3018586Y-6133744D01*
X3020364Y-6147054D01*
X3023920Y-6160008D01*
X3029204Y-6172403D01*
X3036011Y-6183934D01*
X3044342Y-6194501D01*
X3054045Y-6203848D01*
X3064865Y-6211824D01*
X3076651Y-6218275D01*
X3089198Y-6223101D01*
X3102254Y-6226251D01*
G37*
G36*
X7549997Y-6187643D02*
G01*
X7564170Y-6186728D01*
X7578039Y-6184036D01*
X7591501Y-6179566D01*
X7604302Y-6173419D01*
X7616190Y-6165646D01*
X7626959Y-6156452D01*
X7636509Y-6145987D01*
X7644587Y-6134354D01*
X7651140Y-6121806D01*
X7656068Y-6108496D01*
X7659217Y-6094679D01*
X7660589Y-6080556D01*
X7660131Y-6066383D01*
X7657846Y-6052362D01*
X7653832Y-6038799D01*
X7648092Y-6025845D01*
X7640726Y-6013704D01*
X7631887Y-6002629D01*
X7621727Y-5992774D01*
X7610348Y-5984290D01*
X7598003Y-5977331D01*
X7584846Y-5971997D01*
X7571130Y-5968390D01*
X7557109Y-5966612D01*
X7542936Y-5966612D01*
X7528864Y-5968390D01*
X7515148Y-5971997D01*
X7501991Y-5977331D01*
X7489647Y-5984290D01*
X7478268Y-5992774D01*
X7468108Y-6002629D01*
X7459268Y-6013704D01*
X7454544Y-6021476D01*
X7452309Y-6024067D01*
X7449261Y-6025743D01*
X7445857Y-6026353D01*
X7252208Y-6026353D01*
X7248296Y-6025591D01*
X7244994Y-6023356D01*
X6863537Y-5641898D01*
X6861556Y-5639054D01*
X6860590Y-5635701D01*
X6860895Y-5632196D01*
X6863588Y-5621680D01*
X6865416Y-5607253D01*
X6865416Y-5592724D01*
X6863588Y-5578348D01*
X6859981Y-5564276D01*
X6854647Y-5550763D01*
X6847636Y-5538063D01*
X6839102Y-5526278D01*
X6829145Y-5515711D01*
X6817969Y-5506466D01*
X6805726Y-5498693D01*
X6792569Y-5492496D01*
X6778752Y-5488025D01*
X6764477Y-5485282D01*
X6749999Y-5484368D01*
X6735521Y-5485282D01*
X6721246Y-5488025D01*
X6707428Y-5492496D01*
X6694271Y-5498693D01*
X6682028Y-5506466D01*
X6670852Y-5515711D01*
X6660896Y-5526278D01*
X6652361Y-5538063D01*
X6645351Y-5550763D01*
X6640017Y-5564276D01*
X6636410Y-5578348D01*
X6634581Y-5592724D01*
X6634581Y-5607253D01*
X6636410Y-5621680D01*
X6640017Y-5635752D01*
X6645351Y-5649264D01*
X6652361Y-5661964D01*
X6660896Y-5673699D01*
X6670852Y-5684316D01*
X6682028Y-5693562D01*
X6694271Y-5701334D01*
X6707428Y-5707532D01*
X6721246Y-5712002D01*
X6735521Y-5714746D01*
X6749999Y-5715660D01*
X6764477Y-5714746D01*
X6778752Y-5712002D01*
X6781596Y-5711088D01*
X6785254Y-5710580D01*
X6788861Y-5711444D01*
X6791909Y-5713577D01*
X7191044Y-6112662D01*
X7194448Y-6115812D01*
X7197953Y-6118504D01*
X7201662Y-6120841D01*
X7205573Y-6122924D01*
X7209688Y-6124600D01*
X7213904Y-6125921D01*
X7218222Y-6126886D01*
X7222591Y-6127445D01*
X7227214Y-6127648D01*
X7445756Y-6127648D01*
X7449362Y-6128308D01*
X7452512Y-6130239D01*
X7463485Y-6145987D01*
X7473035Y-6156452D01*
X7483805Y-6165646D01*
X7495692Y-6173419D01*
X7508494Y-6179566D01*
X7521956Y-6184036D01*
X7535875Y-6186728D01*
G37*
G36*
X3877614Y-5973572D02*
G01*
X3891076Y-5973114D01*
X3904335Y-5970879D01*
X3917187Y-5966917D01*
X3929379Y-5961227D01*
X3940708Y-5954014D01*
X3950970Y-5945327D01*
X3959961Y-5935370D01*
X3967581Y-5924296D01*
X3973626Y-5912307D01*
X3978046Y-5899607D01*
X3980738Y-5886399D01*
X3981653Y-5872988D01*
X3980738Y-5859576D01*
X3978046Y-5846419D01*
X3973626Y-5833719D01*
X3967581Y-5821730D01*
X3959961Y-5810656D01*
X3950970Y-5800648D01*
X3940708Y-5791962D01*
X3929379Y-5784748D01*
X3917187Y-5779109D01*
X3904335Y-5775096D01*
X3891076Y-5772861D01*
X3877614Y-5772404D01*
X3864254Y-5773775D01*
X3851198Y-5776874D01*
X3838651Y-5781700D01*
X3826865Y-5788202D01*
X3816045Y-5796178D01*
X3806342Y-5805474D01*
X3798011Y-5816041D01*
X3791204Y-5827623D01*
X3785920Y-5839968D01*
X3782364Y-5852972D01*
X3780586Y-5866282D01*
X3780586Y-5879744D01*
X3782364Y-5893054D01*
X3785920Y-5906008D01*
X3791204Y-5918403D01*
X3798011Y-5929934D01*
X3806342Y-5940501D01*
X3816045Y-5949848D01*
X3826865Y-5957824D01*
X3838651Y-5964275D01*
X3851198Y-5969101D01*
X3864254Y-5972251D01*
G37*
G36*
X3044596Y-5719673D02*
G01*
X3193440Y-5719673D01*
X3199688Y-5718962D01*
X3205124Y-5717032D01*
X3209950Y-5713984D01*
X3214014Y-5709970D01*
X3217062Y-5705094D01*
X3218942Y-5699709D01*
X3219653Y-5693410D01*
X3219653Y-5544566D01*
X3218942Y-5538317D01*
X3217062Y-5532882D01*
X3214014Y-5528056D01*
X3209950Y-5523992D01*
X3205124Y-5520944D01*
X3199688Y-5519064D01*
X3193440Y-5518353D01*
X3179826Y-5518353D01*
X3175914Y-5517591D01*
X3172612Y-5515356D01*
X3170428Y-5512054D01*
X3169666Y-5508193D01*
X3169564Y-5249621D01*
X3170377Y-5247081D01*
X3172510Y-5242560D01*
X3176981Y-5228742D01*
X3179724Y-5214467D01*
X3180638Y-5199989D01*
X3179724Y-5185511D01*
X3176981Y-5171236D01*
X3172510Y-5157419D01*
X3166313Y-5144312D01*
X3158540Y-5132019D01*
X3149295Y-5120843D01*
X3138678Y-5110886D01*
X3126943Y-5102352D01*
X3114243Y-5095392D01*
X3100730Y-5090007D01*
X3086658Y-5086400D01*
X3072231Y-5084572D01*
X3057753Y-5084572D01*
X3043326Y-5086400D01*
X3029254Y-5090007D01*
X3015742Y-5095392D01*
X3003042Y-5102352D01*
X2991307Y-5110886D01*
X2980690Y-5120843D01*
X2971444Y-5132019D01*
X2963672Y-5144312D01*
X2957474Y-5157419D01*
X2953004Y-5171236D01*
X2950260Y-5185511D01*
X2949346Y-5199989D01*
X2950260Y-5214467D01*
X2953004Y-5228742D01*
X2957474Y-5242560D01*
X2963672Y-5255717D01*
X2971444Y-5267960D01*
X2980690Y-5279136D01*
X2991307Y-5289092D01*
X3003042Y-5297627D01*
X3015742Y-5304637D01*
X3029254Y-5309971D01*
X3043326Y-5313578D01*
X3058210Y-5315407D01*
X3062071Y-5316169D01*
X3065373Y-5318404D01*
X3067558Y-5321655D01*
X3068370Y-5325567D01*
X3068370Y-5508193D01*
X3067558Y-5512054D01*
X3065373Y-5515356D01*
X3062071Y-5517591D01*
X3058210Y-5518353D01*
X3044596Y-5518353D01*
X3038297Y-5519064D01*
X3032912Y-5520944D01*
X3028035Y-5523992D01*
X3023971Y-5528056D01*
X3020923Y-5532882D01*
X3019044Y-5538317D01*
X3018332Y-5544566D01*
X3018332Y-5693410D01*
X3019044Y-5699709D01*
X3020923Y-5705094D01*
X3023971Y-5709970D01*
X3028035Y-5713984D01*
X3032912Y-5717032D01*
X3038297Y-5718962D01*
G37*
G36*
X4919980Y-5486095D02*
G01*
X4929733Y-5485282D01*
X4939182Y-5482742D01*
X4948072Y-5478576D01*
X4956048Y-5472988D01*
X4963007Y-5466080D01*
X4968595Y-5458053D01*
X4972710Y-5449214D01*
X4975250Y-5439765D01*
X4976114Y-5430012D01*
X4975656Y-5424373D01*
X4975656Y-5064455D01*
X4976266Y-5061000D01*
X4978044Y-5057952D01*
X4980736Y-5055666D01*
X4991049Y-5049723D01*
X5002834Y-5040833D01*
X5013401Y-5030571D01*
X5022646Y-5019090D01*
X5030368Y-5006594D01*
X5036515Y-4993233D01*
X5040985Y-4979162D01*
X5043728Y-4964684D01*
X5044592Y-4950002D01*
X5043728Y-4935321D01*
X5040985Y-4920843D01*
X5036515Y-4906772D01*
X5030368Y-4893411D01*
X5022646Y-4880914D01*
X5013401Y-4869434D01*
X5002834Y-4859172D01*
X4991049Y-4850282D01*
X4978298Y-4842916D01*
X4964734Y-4837176D01*
X4950612Y-4833162D01*
X4936032Y-4830876D01*
X4921300Y-4830419D01*
X4906670Y-4831791D01*
X4892243Y-4834940D01*
X4878374Y-4839868D01*
X4865166Y-4846421D01*
X4852924Y-4854549D01*
X4841748Y-4864150D01*
X4831791Y-4875022D01*
X4823307Y-4887010D01*
X4816348Y-4900015D01*
X4811014Y-4913731D01*
X4807407Y-4928006D01*
X4805629Y-4942636D01*
X4805629Y-4957368D01*
X4807407Y-4971999D01*
X4811014Y-4986274D01*
X4816348Y-4999990D01*
X4823307Y-5012994D01*
X4831791Y-5024983D01*
X4841748Y-5035854D01*
X4852924Y-5045456D01*
X4865166Y-5053584D01*
X4868722Y-5055362D01*
X4871720Y-5057597D01*
X4873650Y-5060746D01*
X4874361Y-5064455D01*
X4874361Y-5394502D01*
X4873904Y-5397601D01*
X4871415Y-5401919D01*
X4867249Y-5410809D01*
X4864709Y-5420258D01*
X4863896Y-5430012D01*
X4864709Y-5439765D01*
X4867249Y-5449214D01*
X4871415Y-5458053D01*
X4877003Y-5466080D01*
X4883912Y-5472988D01*
X4891938Y-5478576D01*
X4900828Y-5482742D01*
X4910277Y-5485282D01*
G37*
G36*
X2854807Y-5252516D02*
G01*
X2865374Y-5246725D01*
X2877007Y-5238242D01*
X2887472Y-5228386D01*
X2896666Y-5217312D01*
X2904388Y-5205171D01*
X2906420Y-5200802D01*
X2854807Y-5200802D01*
G37*
G36*
X2753207Y-5252516D02*
G01*
X2753207Y-5200802D01*
X2701594Y-5200802D01*
X2703626Y-5205171D01*
X2711348Y-5217312D01*
X2720492Y-5228386D01*
X2731008Y-5238242D01*
X2742641Y-5246725D01*
G37*
G36*
X2701594Y-5099202D02*
G01*
X2753207Y-5099202D01*
X2753207Y-5047488D01*
X2742641Y-5053279D01*
X2731008Y-5061762D01*
X2720492Y-5071618D01*
X2711348Y-5082692D01*
X2703626Y-5094833D01*
G37*
G36*
X2854807Y-5099202D02*
G01*
X2906420Y-5099202D01*
X2904388Y-5094833D01*
X2896666Y-5082692D01*
X2887472Y-5071618D01*
X2877007Y-5061762D01*
X2865374Y-5053279D01*
X2854807Y-5047488D01*
G37*
G36*
X7521651Y-5057038D02*
G01*
X7521651Y-5003342D01*
X7468108Y-5003342D01*
X7469631Y-5006594D01*
X7477353Y-5019090D01*
X7486599Y-5030571D01*
X7497165Y-5040833D01*
X7508951Y-5049723D01*
G37*
G36*
X7628331Y-5056835D02*
G01*
X7634833Y-5053584D01*
X7647076Y-5045456D01*
X7658252Y-5035854D01*
X7668209Y-5024983D01*
X7676692Y-5012994D01*
X7681874Y-5003342D01*
X7628331Y-5003342D01*
G37*
G36*
X7628331Y-4896662D02*
G01*
X7681874Y-4896662D01*
X7676692Y-4887010D01*
X7668209Y-4875022D01*
X7658252Y-4864150D01*
X7647076Y-4854549D01*
X7634833Y-4846421D01*
X7628331Y-4843170D01*
G37*
G36*
X7468108Y-4896662D02*
G01*
X7521651Y-4896662D01*
X7521651Y-4842916D01*
X7508951Y-4850282D01*
X7497165Y-4859172D01*
X7486599Y-4869434D01*
X7477353Y-4880914D01*
X7469631Y-4893411D01*
G37*
G36*
X3877614Y-4881575D02*
G01*
X3891076Y-4881118D01*
X3904335Y-4878882D01*
X3917187Y-4874920D01*
X3929379Y-4869230D01*
X3940708Y-4862017D01*
X3950970Y-4853330D01*
X3959961Y-4843373D01*
X3967581Y-4832299D01*
X3973626Y-4820310D01*
X3978046Y-4807610D01*
X3980738Y-4794402D01*
X3981653Y-4780991D01*
X3980738Y-4767580D01*
X3978046Y-4754422D01*
X3973626Y-4741722D01*
X3967581Y-4729734D01*
X3959961Y-4718659D01*
X3950970Y-4708652D01*
X3940708Y-4699965D01*
X3929379Y-4692751D01*
X3917187Y-4687112D01*
X3904335Y-4683099D01*
X3891076Y-4680864D01*
X3877614Y-4680407D01*
X3864254Y-4681778D01*
X3851198Y-4684877D01*
X3838651Y-4689703D01*
X3826865Y-4696155D01*
X3816045Y-4704130D01*
X3806342Y-4713478D01*
X3798011Y-4724044D01*
X3791204Y-4735626D01*
X3785920Y-4747971D01*
X3782364Y-4760976D01*
X3780586Y-4774285D01*
X3780586Y-4787747D01*
X3782364Y-4801057D01*
X3785920Y-4814011D01*
X3791204Y-4826406D01*
X3798011Y-4837938D01*
X3806342Y-4848504D01*
X3816045Y-4857851D01*
X3826865Y-4865827D01*
X3838651Y-4872278D01*
X3851198Y-4877104D01*
X3864254Y-4880254D01*
G37*
G36*
X3075127Y-4871466D02*
G01*
X3075127Y-4824831D01*
X3028543Y-4824831D01*
X3029204Y-4826406D01*
X3036011Y-4837938D01*
X3044342Y-4848504D01*
X3054045Y-4857851D01*
X3064865Y-4865827D01*
G37*
G36*
X3162858Y-4871364D02*
G01*
X3167380Y-4869230D01*
X3178708Y-4862017D01*
X3188970Y-4853330D01*
X3197961Y-4843373D01*
X3205581Y-4832299D01*
X3209340Y-4824831D01*
X3162858Y-4824831D01*
G37*
G36*
X3162858Y-4737150D02*
G01*
X3209340Y-4737150D01*
X3205581Y-4729734D01*
X3197961Y-4718659D01*
X3188970Y-4708652D01*
X3178708Y-4699965D01*
X3167380Y-4692751D01*
X3162858Y-4690668D01*
G37*
G36*
X3028543Y-4737150D02*
G01*
X3075127Y-4737150D01*
X3075127Y-4690516D01*
X3064865Y-4696155D01*
X3054045Y-4704130D01*
X3044342Y-4713478D01*
X3036011Y-4724044D01*
X3029204Y-4735626D01*
G37*
G36*
X3877614Y-4627575D02*
G01*
X3891076Y-4627118D01*
X3904335Y-4624882D01*
X3917187Y-4620920D01*
X3929379Y-4615230D01*
X3940708Y-4608017D01*
X3950970Y-4599330D01*
X3959961Y-4589373D01*
X3967581Y-4578299D01*
X3973626Y-4566310D01*
X3978046Y-4553610D01*
X3980738Y-4540402D01*
X3981653Y-4526991D01*
X3980738Y-4513580D01*
X3978046Y-4500422D01*
X3973626Y-4487722D01*
X3967581Y-4475734D01*
X3959961Y-4464659D01*
X3950970Y-4454652D01*
X3940708Y-4445965D01*
X3929379Y-4438751D01*
X3917187Y-4433112D01*
X3904335Y-4429099D01*
X3891076Y-4426864D01*
X3877614Y-4426407D01*
X3864254Y-4427778D01*
X3851198Y-4430877D01*
X3838651Y-4435703D01*
X3826865Y-4442155D01*
X3816045Y-4450130D01*
X3806342Y-4459478D01*
X3798011Y-4470044D01*
X3791204Y-4481626D01*
X3785920Y-4493971D01*
X3782364Y-4506976D01*
X3780586Y-4520285D01*
X3780586Y-4533747D01*
X3782364Y-4547057D01*
X3785920Y-4560011D01*
X3791204Y-4572406D01*
X3798011Y-4583938D01*
X3806342Y-4594504D01*
X3816045Y-4603851D01*
X3826865Y-4611827D01*
X3838651Y-4618278D01*
X3851198Y-4623104D01*
X3864254Y-4626254D01*
G37*
G36*
X3115614Y-4627575D02*
G01*
X3129076Y-4627118D01*
X3142335Y-4624882D01*
X3155188Y-4620920D01*
X3167380Y-4615230D01*
X3178708Y-4608017D01*
X3188970Y-4599330D01*
X3197961Y-4589373D01*
X3205581Y-4578299D01*
X3211626Y-4566310D01*
X3216046Y-4553610D01*
X3218738Y-4540402D01*
X3219653Y-4526991D01*
X3218738Y-4513580D01*
X3216046Y-4500422D01*
X3211626Y-4487722D01*
X3205581Y-4475734D01*
X3197961Y-4464659D01*
X3188970Y-4454652D01*
X3178708Y-4445965D01*
X3174339Y-4443222D01*
X3171850Y-4440936D01*
X3170224Y-4437989D01*
X3169666Y-4434636D01*
X3169666Y-4365345D01*
X3170224Y-4362043D01*
X3171850Y-4359046D01*
X3174339Y-4356811D01*
X3178708Y-4354017D01*
X3188970Y-4345330D01*
X3197961Y-4335373D01*
X3205581Y-4324299D01*
X3211626Y-4312310D01*
X3216046Y-4299610D01*
X3218738Y-4286402D01*
X3219653Y-4272991D01*
X3218738Y-4259580D01*
X3216046Y-4246422D01*
X3211626Y-4233722D01*
X3205581Y-4221734D01*
X3197961Y-4210659D01*
X3188970Y-4200652D01*
X3178708Y-4191965D01*
X3167380Y-4184751D01*
X3155188Y-4179112D01*
X3142335Y-4175099D01*
X3129076Y-4172864D01*
X3115614Y-4172407D01*
X3102254Y-4173778D01*
X3089198Y-4176877D01*
X3076651Y-4181703D01*
X3064865Y-4188155D01*
X3054045Y-4196130D01*
X3044342Y-4205478D01*
X3036011Y-4216044D01*
X3029204Y-4227626D01*
X3023920Y-4239971D01*
X3020364Y-4252976D01*
X3018586Y-4266285D01*
X3018586Y-4279747D01*
X3020364Y-4293057D01*
X3023920Y-4306011D01*
X3029204Y-4318406D01*
X3036011Y-4329938D01*
X3044342Y-4340504D01*
X3054045Y-4349851D01*
X3064205Y-4357370D01*
X3066440Y-4359605D01*
X3067862Y-4362399D01*
X3068370Y-4365548D01*
X3068370Y-4434484D01*
X3067862Y-4437583D01*
X3066440Y-4440428D01*
X3064205Y-4442663D01*
X3054045Y-4450130D01*
X3044342Y-4459478D01*
X3036011Y-4470044D01*
X3029204Y-4481626D01*
X3023920Y-4493971D01*
X3020364Y-4506976D01*
X3018586Y-4520285D01*
X3018586Y-4533747D01*
X3020364Y-4547057D01*
X3023920Y-4560011D01*
X3029204Y-4572406D01*
X3036011Y-4583938D01*
X3044342Y-4594504D01*
X3054045Y-4603851D01*
X3064865Y-4611827D01*
X3076651Y-4618278D01*
X3089198Y-4623104D01*
X3102254Y-4626254D01*
G37*
G36*
X7568844Y-4471670D02*
G01*
X7583373Y-4465269D01*
X7596378Y-4457395D01*
X7608316Y-4448048D01*
X7619034Y-4437329D01*
X7628381Y-4425391D01*
X7636256Y-4412386D01*
X7637170Y-4410354D01*
X7568844Y-4410354D01*
G37*
G36*
X7431125Y-4471670D02*
G01*
X7431125Y-4410354D01*
X7362850Y-4410354D01*
X7363764Y-4412386D01*
X7371588Y-4425391D01*
X7380986Y-4437329D01*
X7391704Y-4448048D01*
X7403642Y-4457395D01*
X7416596Y-4465269D01*
G37*
G36*
X7362850Y-4297629D02*
G01*
X7431125Y-4297629D01*
X7431125Y-4236161D01*
X7416596Y-4242765D01*
X7403642Y-4250588D01*
X7391704Y-4259935D01*
X7380986Y-4270705D01*
X7371588Y-4282643D01*
X7363764Y-4295597D01*
G37*
G36*
X7568844Y-4297629D02*
G01*
X7637170Y-4297629D01*
X7636256Y-4295597D01*
X7628381Y-4282643D01*
X7619034Y-4270705D01*
X7608316Y-4259935D01*
X7596378Y-4250588D01*
X7583373Y-4242765D01*
X7568844Y-4236161D01*
G37*
G36*
X2753207Y-4102506D02*
G01*
X2753207Y-4050792D01*
X2701594Y-4050792D01*
X2703626Y-4055160D01*
X2711348Y-4067301D01*
X2720492Y-4078427D01*
X2731008Y-4088231D01*
X2742641Y-4096715D01*
G37*
G36*
X2854807Y-4102506D02*
G01*
X2865374Y-4096715D01*
X2877007Y-4088231D01*
X2887472Y-4078427D01*
X2896666Y-4067301D01*
X2904388Y-4055160D01*
X2906420Y-4050792D01*
X2854807Y-4050792D01*
G37*
G36*
X2701594Y-3949192D02*
G01*
X2753207Y-3949192D01*
X2753207Y-3897477D01*
X2742641Y-3903319D01*
X2731008Y-3911752D01*
X2720492Y-3921607D01*
X2711348Y-3932682D01*
X2703626Y-3944823D01*
G37*
G36*
X2854807Y-3949192D02*
G01*
X2906420Y-3949192D01*
X2904388Y-3944823D01*
X2896666Y-3932682D01*
X2887472Y-3921607D01*
X2877007Y-3911752D01*
X2865374Y-3903319D01*
X2854807Y-3897477D01*
G37*

%LPD*%
D11*
X3569970Y-299973D02*
G01*
X4199890Y-299973D01*
X4530090Y-629920D01*
X4530090Y-839978D01*
X4620006Y-929894D01*
X4800091Y-929894D01*
X4919979Y-1050036D01*
X4919979Y-1230121D01*
X4990084Y-1299971D01*
X5199888Y-1299971D01*
D30*
X399999Y-6699999D02*
G01*
X975398Y-6124600D01*
X1465000Y-6124600D01*
D11*
X7890002Y-3480054D02*
G01*
X7890002Y-6690105D01*
X7439913Y-7139939D01*
X210057Y-7139939D01*
X29971Y-6960108D01*
X29971Y-5130037D01*
X210057Y-4949952D01*
X400050Y-4949952D01*
D12*
X7349997Y-6779999D02*
G01*
X7739997Y-6389999D01*
X7739997Y-5699998D01*
X7608999Y-5569000D01*
X7550000Y-5569000D01*
D11*
X7169998Y-4169999D02*
G01*
X7169998Y-3509998D01*
X7319998Y-3359998D01*
X7529997Y-3359998D01*
X7619997Y-3269998D01*
X8069996Y-3269998D01*
X7169998Y-4169999D02*
G01*
X7169998Y-3509998D01*
X7319998Y-3359998D01*
X7529997Y-3359998D01*
D12*
X7549895Y-5822950D02*
G01*
X7547102Y-5819902D01*
X7379970Y-5819902D01*
X7320025Y-5759957D01*
X7320025Y-5310123D01*
X7379970Y-5251195D01*
X7890002Y-5251195D01*
X7079780Y-1319999D02*
G01*
X7139998Y-1380218D01*
X7139998Y-1649999D01*
X7079780Y-1319999D02*
G01*
X6779780Y-1020000D01*
X6569997Y-1020000D01*
X3119000Y-1780999D02*
G01*
X3130001Y-1769998D01*
X3389998Y-1769998D01*
X3479998Y-1679999D01*
X3479998Y-629998D01*
X6989998Y-569998D02*
G01*
X7400000Y-980000D01*
X7400000Y-1100013D01*
X3209998Y-6539997D02*
G01*
X3660000Y-6989998D01*
X6160000Y-6989998D01*
X6749999Y-6399999D01*
X3760977Y-6750050D02*
G01*
X3780027Y-6769100D01*
X3780027Y-6899910D01*
X4627118Y-6899910D01*
X4776977Y-6750050D01*
X4523000Y-6749999D02*
G01*
X4529998Y-6743001D01*
X4529998Y-6509997D01*
X4825006Y-6214988D01*
X4825006Y-6000000D01*
X3119120Y-6380987D02*
G01*
X3591052Y-6380987D01*
X3760977Y-6550913D01*
X3760977Y-6750050D01*
X7100061Y-5374894D02*
G01*
X6832091Y-5107939D01*
X5129997Y-6059998D02*
G01*
X5189999Y-6059998D01*
X5249999Y-5999998D01*
X5279999Y-5969998D01*
X5279999Y-5849998D01*
X4829997Y-5759998D02*
G01*
X4919997Y-5759998D01*
X5009997Y-5849998D01*
X5009997Y-5939998D01*
X5009997Y-6029998D01*
X5039997Y-6059998D01*
X5129997Y-6059998D01*
X5285000Y-6749999D02*
G01*
X5339999Y-6695000D01*
X5339999Y-6569997D01*
X5399999Y-6509997D01*
X5699998Y-6509997D01*
X5909998Y-6509997D01*
X6119997Y-6509997D01*
X4249999Y-5274990D02*
G01*
X4555007Y-5579998D01*
X5129997Y-5579998D01*
X5159997Y-5609998D01*
X5159997Y-5939998D01*
X5174993Y-6300000D02*
G01*
X5189997Y-6284996D01*
X5189997Y-6179997D01*
X5249997Y-6119997D01*
X5549999Y-6119997D01*
X5730001Y-6300000D01*
X6474993Y-6300000D01*
X4919997Y-5429999D02*
G01*
X4925006Y-5424990D01*
X4925006Y-4950000D01*
X5874992Y-6000000D02*
G01*
X6870001Y-6000000D01*
X7100001Y-6230000D01*
X7100001Y-6424993D01*
X4375056Y-3899999D02*
G01*
X4379998Y-3895056D01*
X4379998Y-3810000D01*
X4319998Y-3750000D01*
X4259999Y-3750000D01*
X4079999Y-3570000D01*
X4079999Y-3359998D01*
X3881000Y-3160999D01*
X3881000Y-3126999D01*
X4249999Y-5274990D02*
G01*
X4249999Y-4641999D01*
X3881000Y-4273001D01*
X3881000Y-2872999D02*
G01*
X3888000Y-2879999D01*
X4139999Y-2879999D01*
X4325007Y-3065007D01*
X4325007Y-3250001D01*
X3881000Y-1526999D02*
G01*
X4298007Y-1526999D01*
X4600000Y-1225006D01*
X4799998Y-1409999D02*
G01*
X4756007Y-1453989D01*
X4756007Y-1780999D01*
X3881000Y-1780999D02*
G01*
X4756007Y-1780999D01*
X5175008Y-2200000D01*
X4299999Y-825055D02*
G01*
X4289999Y-835055D01*
X4289999Y-930000D01*
X4585004Y-1225006D01*
X4600000Y-1225006D01*
X5199999Y-1045999D02*
G01*
X5015001Y-861001D01*
X5015001Y-499998D01*
X6399999Y-775007D02*
G01*
X6265997Y-909010D01*
X6265997Y-1045999D01*
X6974992Y-3250001D02*
G01*
X6459606Y-3765387D01*
X6459606Y-4099999D01*
X6974992Y-3250001D02*
G01*
X7300000Y-2924992D01*
X7300000Y-2749999D01*
X5374993Y-3550000D02*
G01*
X5384995Y-3539997D01*
X6059998Y-3539997D01*
X6389997Y-3209998D01*
X6389997Y-3119998D01*
X6759996Y-2749999D01*
X7046000Y-2749999D01*
X5950000Y-1553999D02*
G01*
X6220993Y-1824992D01*
X6399999Y-1824992D01*
X6224993Y-2200000D02*
G01*
X6399999Y-2024994D01*
X6399999Y-1824992D01*
X5396001Y-2749999D02*
G01*
X5374993Y-2771007D01*
X5374993Y-3250001D01*
X5374993Y-3250001D02*
G01*
X5925007Y-3250001D01*
X7774993Y-2200000D02*
G01*
X7701605Y-2273388D01*
X7493386Y-2273388D01*
X6799999Y-4353999D02*
G01*
X6525008Y-4628989D01*
X6525008Y-4950000D01*
X5974991Y-4950000D02*
G01*
X6525008Y-4950000D01*
X5974991Y-4600000D02*
G01*
X5803999Y-4429008D01*
X5803999Y-4099999D01*
X4249999Y-4225005D02*
G01*
X4375005Y-4099999D01*
X5295999Y-4099999D01*
X5295999Y-4099999D02*
G01*
X4925006Y-4470991D01*
X4925006Y-4600000D01*
X7574993Y-4950000D02*
G01*
X7500000Y-4875006D01*
X7500000Y-4353999D01*
X6749999Y-5600001D02*
G01*
X7226998Y-6077000D01*
X7550000Y-6077000D01*
X1830999Y-4627001D02*
G01*
X2099998Y-4895999D01*
X2099998Y-5309999D01*
X2219998Y-5429999D01*
X2579999Y-5429999D01*
X3119000Y-6381000D02*
G01*
X3110003Y-6389997D01*
X2969999Y-6389997D01*
X2879999Y-6299997D01*
X2879999Y-5225999D01*
X2803999Y-5149999D01*
X2159998Y-3539997D02*
G01*
X2159998Y-3810000D01*
X1860042Y-3839971D02*
G01*
X1949958Y-3839971D01*
X2039874Y-3750055D01*
X2039874Y-3299968D01*
D11*
X5950000Y-1045999D02*
G01*
X6265997Y-1045999D01*
X7554000Y-2334003D01*
X7554000Y-2749999D01*
X5904001Y-2749999D02*
G01*
X6194000Y-2460000D01*
X7289998Y-2460000D01*
X7300000Y-2470002D01*
X7300000Y-2749999D01*
X5904001Y-5549999D02*
G01*
X6144000Y-5309999D01*
X6629996Y-5309999D01*
X7169998Y-4769998D01*
X7169998Y-4169999D01*
X7239998Y-4099999D01*
X7500000Y-4099999D01*
X5803999Y-4099999D02*
G01*
X6799999Y-4099999D01*
X5650001Y-5549999D02*
G01*
X5650001Y-4810000D01*
X5549999Y-4709998D01*
X5549999Y-4099999D01*
X2684272Y-5724652D02*
G01*
X2184654Y-5724652D01*
X1560068Y-5100065D01*
X1560068Y-450087D01*
X1709928Y-299973D01*
X3299968Y-299973D01*
X3569997Y-299999D01*
X5650001Y-2749999D02*
G01*
X5639998Y-2739997D01*
X5639998Y-1439999D01*
X5499999Y-1299999D01*
X5199999Y-1299999D01*
D12*
X6399999Y-775007D02*
G01*
X6539001Y-636005D01*
X6539001Y-499998D01*
X5950000Y-1045999D02*
G01*
X5523001Y-619000D01*
X5523001Y-499998D01*
X5874992Y-6000000D02*
G01*
X5429999Y-5999998D01*
X5396001Y-5966000D01*
X5396001Y-5549999D01*
X4777000Y-6749999D02*
G01*
X4769998Y-6742996D01*
X4769998Y-6599996D01*
X4859997Y-6509997D01*
X5249999Y-6509997D01*
X5425008Y-6334988D01*
X5425008Y-6300000D01*
X4269000Y-6749999D02*
G01*
X4349998Y-6669001D01*
X4349998Y-6299997D01*
X4325056Y-6275054D01*
X4325056Y-5994941D01*
X3881000Y-6381000D02*
G01*
X3962001Y-6300000D01*
X4125008Y-6300000D01*
X4015000Y-6749999D02*
G01*
X4019999Y-6745000D01*
X4019999Y-6599996D01*
X3881000Y-6460997D01*
X3881000Y-6381000D01*
X3881000Y-6127000D02*
G01*
X3918003Y-6089997D01*
X4229999Y-6089997D01*
X4325056Y-5994941D01*
X4325056Y-5699998D01*
X3119000Y-4781001D02*
G01*
X2996003Y-4903998D01*
X2803999Y-4903998D01*
X3935001Y-5199999D02*
G01*
X3881000Y-5254000D01*
X3881000Y-5619000D01*
X3881000Y-5619000D02*
G01*
X3961998Y-5699998D01*
X4174942Y-5699998D01*
X4224942Y-3899999D02*
G01*
X4024942Y-3700000D01*
X3935001Y-3700000D01*
X3935001Y-3700000D02*
G01*
X3881000Y-3754000D01*
X3881000Y-4019001D01*
X3935001Y-2200000D02*
G01*
X3881000Y-2254001D01*
X3881000Y-2618999D01*
X3881000Y-2618999D02*
G01*
X3962001Y-2699999D01*
X4274941Y-2699999D01*
X4249999Y-2274991D02*
G01*
X4600000Y-2274991D01*
X3881000Y-1272999D02*
G01*
X3928993Y-1225006D01*
X4249999Y-1225006D01*
X3881000Y-1018999D02*
G01*
X3935001Y-964999D01*
X3935001Y-600001D01*
X3935001Y-600001D02*
G01*
X4009941Y-674941D01*
X4299999Y-674941D01*
X3065000Y-600001D02*
G01*
X2400917Y-600001D01*
X2299970Y-700948D01*
D30*
X399999Y-5449999D02*
G01*
X674598Y-5724598D01*
X1465000Y-5724598D01*
D12*
X1830999Y-4119001D02*
G01*
X1950001Y-3999999D01*
X2295999Y-3999999D01*
X2500000Y-4599998D02*
G01*
X2803999Y-4295998D01*
X2803999Y-3999999D01*
X2295999Y-3999999D02*
G01*
X2300000Y-4004000D01*
X2300000Y-4599998D01*
X2500000Y-4599998D02*
G01*
X2803999Y-4903998D01*
X2803999Y-5149999D01*
X2500000Y-3449998D02*
G01*
X2803999Y-3753998D01*
X2803999Y-3999999D01*
X2300000Y-3449998D02*
G01*
X2159998Y-3309995D01*
X2159998Y-3149998D01*
X1929000Y-2919001D01*
X1830999Y-2919001D01*
X3119000Y-3380999D02*
G01*
X2803999Y-3065998D01*
X2803999Y-2849999D01*
X2300000Y-4599998D02*
G01*
X2295999Y-4603998D01*
X2295999Y-5149999D01*
X2300000Y-3449998D02*
G01*
X2295999Y-3453998D01*
X2295999Y-3999999D01*
X2295999Y-2849999D02*
G01*
X2300000Y-2845998D01*
X2300000Y-2249998D01*
X2300000Y-2249998D02*
G01*
X2246000Y-2195997D01*
X2246000Y-1549999D01*
X2500000Y-2249998D02*
G01*
X2754000Y-1995998D01*
X2754000Y-1549999D01*
X2754000Y-1549999D02*
G01*
X2985000Y-1780999D01*
X3119000Y-1780999D01*
X3119000Y-5873000D02*
G01*
X3119000Y-6127000D01*
X3065000Y-5199999D02*
G01*
X3119000Y-5254000D01*
X3119000Y-5619000D01*
X3119000Y-4273001D02*
G01*
X3119000Y-4527001D01*
X3065000Y-3700000D02*
G01*
X3119000Y-3754000D01*
X3119000Y-4019001D01*
X3065000Y-2200000D02*
G01*
X3119000Y-2254001D01*
X3119000Y-2618999D01*
X3119000Y-2872999D02*
G01*
X3119000Y-3126999D01*
X3119000Y-1272999D02*
G01*
X3119000Y-1526999D01*
X3065000Y-600001D02*
G01*
X3119000Y-654001D01*
X3119000Y-1018999D01*
X1830999Y-1769000D02*
G01*
X2050000Y-1549999D01*
X2246000Y-1549999D01*
X2754000Y-1549999D02*
G01*
X2500000Y-1295999D01*
X2500000Y-800000D01*
X2300000Y-800000D02*
G01*
X2246000Y-854001D01*
X2246000Y-1549999D01*
X1830999Y-4373001D02*
G01*
X1830999Y-4627001D01*
X1830999Y-3173001D02*
G01*
X1830999Y-3427001D01*
X1830999Y-2023000D02*
G01*
X1830999Y-2277000D01*
X1830999Y-823000D02*
G01*
X1830999Y-1077000D01*
X1831086Y-568960D02*
G01*
X2189988Y-569976D01*
X2299970Y-679957D01*
X2299970Y-800100D01*
X1068999Y-4627001D02*
G01*
X1091996Y-4649998D01*
X1230000Y-4649998D01*
X1349999Y-4529998D01*
X1349999Y-3389998D01*
X700001Y-4524992D02*
G01*
X851992Y-4373001D01*
X1068999Y-4373001D01*
X299999Y-3124992D02*
G01*
X299999Y-2729999D01*
X509998Y-2520000D01*
X689998Y-2520000D01*
X1068999Y-2277000D02*
G01*
X1071999Y-2280000D01*
X1260000Y-2280000D01*
X1349999Y-2370000D01*
X1349999Y-3389998D01*
X1312997Y-3427001D01*
X1068999Y-3427001D01*
X700001Y-3124992D02*
G01*
X748009Y-3173001D01*
X1068999Y-3173001D01*
X299999Y-1708000D02*
G01*
X89999Y-1917999D01*
X89999Y-2189998D01*
X177002Y-2277000D01*
X1068999Y-2277000D01*
X1068999Y-1077000D02*
G01*
X1041999Y-1050000D01*
X900000Y-1050000D01*
X499998Y-1450002D01*
X499998Y-1549999D01*
X341998Y-1708000D01*
X299999Y-1708000D01*
X700001Y-1624992D02*
G01*
X725007Y-1624992D01*
X800000Y-1549999D01*
X1200000Y-1549999D01*
X1299999Y-1449999D01*
X1299999Y-950000D01*
X1172999Y-823000D01*
X1068999Y-823000D01*
X700001Y-575007D02*
G01*
X374990Y-575007D01*
X299999Y-649998D01*
X299999Y-692000D01*
D11*
X7400036Y-1100073D02*
G01*
X7420102Y-1080007D01*
X7649972Y-1080007D01*
X8040115Y-1469897D01*
X8040115Y-2910078D01*
X7890002Y-3059937D01*
X7409941Y-3059937D01*
X7299959Y-2949955D01*
X7299959Y-2750057D01*
D16*
G01*
X3065000Y-600001D03*
G01*
X3935001Y-600001D03*
G01*
X3065000Y-2200000D03*
G01*
X3935001Y-2200000D03*
G01*
X3065000Y-3700000D03*
G01*
X3935001Y-3700000D03*
G01*
X3065000Y-5199999D03*
G01*
X3935001Y-5199999D03*
D17*
G01*
X7550000Y-5569000D03*
D18*
G01*
X7550000Y-5823000D03*
G01*
X7550000Y-6077000D03*
G01*
X7550000Y-6331000D03*
G36*
X4671001Y-409999D02*
G01*
X4851001Y-409999D01*
X4851001Y-589998D01*
X4671001Y-589998D01*
G37*
D16*
G01*
X5015001Y-499998D03*
G01*
X5269001Y-499998D03*
G01*
X5523001Y-499998D03*
G01*
X5777001Y-499998D03*
G01*
X6031001Y-499998D03*
G01*
X6285001Y-499998D03*
G01*
X6539001Y-499998D03*
D19*
G01*
X5539000Y-6749999D03*
D16*
G01*
X5285000Y-6749999D03*
G01*
X5031000Y-6749999D03*
G01*
X4777000Y-6749999D03*
G01*
X4523000Y-6749999D03*
G01*
X4269000Y-6749999D03*
G01*
X4015000Y-6749999D03*
G01*
X3761000Y-6749999D03*
D20*
G01*
X3119000Y-1018999D03*
D11*
G01*
X3119000Y-1272999D03*
G01*
X3119000Y-1526999D03*
G01*
X3119000Y-1780999D03*
G01*
X3881000Y-1018999D03*
G01*
X3881000Y-1272999D03*
G01*
X3881000Y-1526999D03*
G01*
X3881000Y-1780999D03*
D20*
G01*
X3119000Y-2618999D03*
D11*
G01*
X3119000Y-2872999D03*
G01*
X3119000Y-3126999D03*
G01*
X3119000Y-3380999D03*
G01*
X3881000Y-2618999D03*
G01*
X3881000Y-2872999D03*
G01*
X3881000Y-3126999D03*
G01*
X3881000Y-3380999D03*
D20*
G01*
X3119000Y-4019001D03*
D11*
G01*
X3119000Y-4273001D03*
G01*
X3119000Y-4527001D03*
G01*
X3119000Y-4781001D03*
G01*
X3881000Y-4019001D03*
G01*
X3881000Y-4273001D03*
G01*
X3881000Y-4527001D03*
G01*
X3881000Y-4781001D03*
D20*
G01*
X3119000Y-5619000D03*
D11*
G01*
X3119000Y-5873000D03*
G01*
X3119000Y-6127000D03*
G01*
X3119000Y-6381000D03*
G01*
X3881000Y-5619000D03*
G01*
X3881000Y-5873000D03*
G01*
X3881000Y-6127000D03*
G01*
X3881000Y-6381000D03*
D21*
G01*
X700001Y-575007D03*
G01*
X700001Y-1624992D03*
G01*
X299999Y-2075007D03*
G01*
X299999Y-3124992D03*
G01*
X700001Y-2075007D03*
G01*
X700001Y-3124992D03*
G01*
X700001Y-3475007D03*
G01*
X700001Y-4524992D03*
G01*
X4249999Y-1225006D03*
G01*
X4249999Y-2274991D03*
G01*
X4600000Y-1225006D03*
G01*
X4600000Y-2274991D03*
G01*
X6399999Y-775007D03*
G01*
X6399999Y-1824992D03*
G01*
X5175008Y-2200000D03*
G01*
X6224993Y-2200000D03*
G01*
X4325007Y-3550000D03*
G01*
X5374993Y-3550000D03*
G01*
X7774993Y-2200000D03*
G01*
X6725008Y-2200000D03*
G01*
X6974992Y-3250001D03*
G01*
X5925007Y-3250001D03*
G01*
X4325007Y-3250001D03*
G01*
X5374993Y-3250001D03*
G01*
X4925006Y-4950000D03*
G01*
X5974991Y-4950000D03*
G01*
X7574993Y-4950000D03*
G01*
X6525008Y-4950000D03*
G01*
X5974991Y-4600000D03*
G01*
X4925006Y-4600000D03*
G01*
X4249999Y-5274990D03*
G01*
X4249999Y-4225005D03*
G01*
X4125008Y-6300000D03*
G01*
X5174993Y-6300000D03*
G01*
X5425008Y-6300000D03*
G01*
X6474993Y-6300000D03*
G01*
X7100001Y-5375008D03*
G01*
X7100001Y-6424993D03*
G01*
X4825006Y-6000000D03*
G01*
X5874992Y-6000000D03*
G36*
X5075031Y-1654075D02*
G01*
X5075031Y-1453923D01*
X5324967Y-1453923D01*
X5324967Y-1654075D01*
G37*
G36*
X5825032Y-1654075D02*
G01*
X5825032Y-1453923D01*
X6074968Y-1453923D01*
X6074968Y-1654075D01*
G37*
G36*
X5295925Y-2625031D02*
G01*
X5496077Y-2625031D01*
X5496077Y-2874967D01*
X5295925Y-2874967D01*
G37*
G36*
X6945924Y-2625031D02*
G01*
X7146076Y-2625031D01*
X7146076Y-2874967D01*
X6945924Y-2874967D01*
G37*
G36*
X7624968Y-3745923D02*
G01*
X7624968Y-3946075D01*
X7375032Y-3946075D01*
X7375032Y-3745923D01*
G37*
G36*
X5295925Y-5425031D02*
G01*
X5496077Y-5425031D01*
X5496077Y-5674967D01*
X5295925Y-5674967D01*
G37*
G36*
X6675031Y-4454075D02*
G01*
X6675031Y-4253923D01*
X6924967Y-4253923D01*
X6924967Y-4454075D01*
G37*
G36*
X5195923Y-3975031D02*
G01*
X5396075Y-3975031D01*
X5396075Y-4224967D01*
X5195923Y-4224967D01*
G37*
D24*
G01*
X4299999Y-825055D03*
G01*
X4299999Y-674941D03*
G01*
X4425055Y-2699999D03*
G01*
X4274941Y-2699999D03*
G01*
X4375056Y-3899999D03*
G01*
X4224942Y-3899999D03*
G01*
X4325056Y-5699998D03*
G01*
X4174942Y-5699998D03*
D25*
G01*
X2246000Y-1549999D03*
G01*
X2754000Y-1549999D03*
G01*
X2295999Y-2849999D03*
G01*
X2803999Y-2849999D03*
G01*
X2295999Y-3999999D03*
G01*
X2803999Y-3999999D03*
G01*
X2295999Y-5149999D03*
G01*
X2803999Y-5149999D03*
D17*
G01*
X299999Y-692000D03*
D18*
G01*
X299999Y-946000D03*
G01*
X299999Y-1200000D03*
G01*
X299999Y-1454000D03*
G01*
X299999Y-1708000D03*
D26*
G01*
X2300000Y-2249998D03*
G01*
X2500000Y-2249998D03*
G01*
X2300000Y-3449998D03*
G01*
X2500000Y-3449998D03*
G01*
X2300000Y-4599998D03*
G01*
X2500000Y-4599998D03*
G01*
X2300000Y-800000D03*
G01*
X2500000Y-800000D03*
D16*
G01*
X2500000Y-6649999D03*
G01*
X1700001Y-6649999D03*
G01*
X6749999Y-5600001D03*
G01*
X6749999Y-6399999D03*
D27*
G01*
X2684200Y-5724598D03*
G01*
X1465000Y-5724598D03*
G01*
X2684200Y-6124600D03*
G01*
X1465000Y-6124600D03*
D28*
G01*
X399999Y-4950000D03*
G01*
X399999Y-5449999D03*
G01*
X399999Y-6200000D03*
G01*
X399999Y-6699999D03*
G01*
X7400000Y-1600012D03*
G01*
X7400000Y-1100013D03*
G01*
X7400000Y-600014D03*
D13*
G01*
X689998Y-2520000D03*
D14*
G01*
X7889996Y-3479998D03*
D15*
G01*
X1859998Y-3839999D03*
G01*
X2039998Y-3299998D03*
G01*
X2159998Y-3539997D03*
G01*
X2159998Y-3810000D03*
G01*
X2579999Y-5429999D03*
G01*
X7349997Y-6779999D03*
G01*
X4799998Y-1409999D03*
G01*
X4919997Y-5429999D03*
G01*
X5159997Y-5939998D03*
G01*
X6119997Y-6509997D03*
G01*
X4829997Y-5759998D03*
G01*
X5129997Y-6059998D03*
G01*
X5279999Y-5849998D03*
G01*
X3209998Y-6539997D03*
G01*
X3209998Y-6539997D03*
G01*
X6989998Y-569998D03*
G01*
X3479998Y-629998D03*
G01*
X6569997Y-1020000D03*
G01*
X7139998Y-1649999D03*
D14*
G01*
X8069996Y-3269998D03*
D29*
X1087249Y-569000D02*
G01*
X1050749Y-569000D01*
X1087249Y-823000D02*
G01*
X1050749Y-823000D01*
X1087249Y-1077000D02*
G01*
X1050749Y-1077000D01*
X1087249Y-1331000D02*
G01*
X1050749Y-1331000D01*
X1849249Y-569000D02*
G01*
X1812749Y-569000D01*
X1849249Y-823000D02*
G01*
X1812749Y-823000D01*
X1849249Y-1077000D02*
G01*
X1812749Y-1077000D01*
X1849249Y-1331000D02*
G01*
X1812749Y-1331000D01*
X1087249Y-1769000D02*
G01*
X1050749Y-1769000D01*
X1087249Y-2023000D02*
G01*
X1050749Y-2023000D01*
X1087249Y-2277000D02*
G01*
X1050749Y-2277000D01*
X1087249Y-2531000D02*
G01*
X1050749Y-2531000D01*
X1849249Y-1769000D02*
G01*
X1812749Y-1769000D01*
X1849249Y-2023000D02*
G01*
X1812749Y-2023000D01*
X1849249Y-2277000D02*
G01*
X1812749Y-2277000D01*
X1849249Y-2531000D02*
G01*
X1812749Y-2531000D01*
X1087249Y-2919001D02*
G01*
X1050749Y-2919001D01*
X1087249Y-3173001D02*
G01*
X1050749Y-3173001D01*
X1087249Y-3427001D02*
G01*
X1050749Y-3427001D01*
X1087249Y-3681001D02*
G01*
X1050749Y-3681001D01*
X1849249Y-2919001D02*
G01*
X1812749Y-2919001D01*
X1849249Y-3173001D02*
G01*
X1812749Y-3173001D01*
X1849249Y-3427001D02*
G01*
X1812749Y-3427001D01*
X1849249Y-3681001D02*
G01*
X1812749Y-3681001D01*
X1087249Y-4119001D02*
G01*
X1050749Y-4119001D01*
X1087249Y-4373001D02*
G01*
X1050749Y-4373001D01*
X1087249Y-4627001D02*
G01*
X1050749Y-4627001D01*
X1087249Y-4881001D02*
G01*
X1050749Y-4881001D01*
X1849249Y-4119001D02*
G01*
X1812749Y-4119001D01*
X1849249Y-4373001D02*
G01*
X1812749Y-4373001D01*
X1849249Y-4627001D02*
G01*
X1812749Y-4627001D01*
X1849249Y-4881001D02*
G01*
X1812749Y-4881001D01*
D30*
X5175001Y-1299999D02*
G01*
X5225000Y-1299999D01*
X5175001Y-1045999D02*
G01*
X5225000Y-1045999D01*
X5925002Y-1299999D02*
G01*
X5975002Y-1299999D01*
X5925002Y-1045999D02*
G01*
X5975002Y-1045999D01*
X5650001Y-2725000D02*
G01*
X5650001Y-2775000D01*
X5904001Y-2725000D02*
G01*
X5904001Y-2775000D01*
X7300000Y-2725000D02*
G01*
X7300000Y-2775000D01*
X7554000Y-2725000D02*
G01*
X7554000Y-2775000D01*
X7524998Y-4099999D02*
G01*
X7474999Y-4099999D01*
X7524998Y-4353999D02*
G01*
X7474999Y-4353999D01*
X5650001Y-5525000D02*
G01*
X5650001Y-5575000D01*
X5904001Y-5525000D02*
G01*
X5904001Y-5575000D01*
X6775000Y-4099999D02*
G01*
X6825000Y-4099999D01*
X6775000Y-3845999D02*
G01*
X6825000Y-3845999D01*
X5549999Y-4075000D02*
G01*
X5549999Y-4125000D01*
X5803999Y-4075000D02*
G01*
X5803999Y-4125000D01*
M02*
